<svg width="328" height="564" viewBox="0 0 328 564" fill="none" xmlns="http://www.w3.org/2000/svg">
<mask id="path-1-outside-1_1614_5368" maskUnits="userSpaceOnUse" x="0" y="0" width="327" height="564" fill="black">
<rect fill="white" width="327" height="564"/>
<path d="M10 35C10 23.9543 18.9543 15 30 15H297C308.046 15 317 23.9543 317 35V544C317 555.046 308.046 564 297 564H30C18.9543 564 10 555.046 10 544V35Z"/>
</mask>
<path d="M10 35C10 23.9543 18.9543 15 30 15H297C308.046 15 317 23.9543 317 35V544C317 555.046 308.046 564 297 564H30C18.9543 564 10 555.046 10 544V35Z" fill="url(#paint0_linear_1614_5368)"/>
<path d="M0 30C0 13.4315 13.4315 0 30 0H297C313.569 0 327 13.4315 327 30L307 35C307 32.2386 302.523 30 297 30H30C24.4772 30 20 32.2386 20 35L0 30ZM317 564H10H317ZM30 564C13.4315 564 0 550.569 0 534V30C0 13.4315 13.4315 0 30 0V30C24.4772 30 20 32.2386 20 35V544C20 555.046 24.4772 564 30 564ZM297 0C313.569 0 327 13.4315 327 30V534C327 550.569 313.569 564 297 564C302.523 564 307 555.046 307 544V35C307 32.2386 302.523 30 297 30V0Z" fill="url(#paint1_linear_1614_5368)" mask="url(#path-1-outside-1_1614_5368)"/>
<mask id="path-3-inside-2_1614_5368" fill="white">
<path d="M10 35C10 23.9543 18.9543 15 30 15H298C309.046 15 318 23.9543 318 35V77H10V35Z"/>
</mask>
<path d="M10 35C10 23.9543 18.9543 15 30 15H298C309.046 15 318 23.9543 318 35V77H10V35Z" fill="white"/>
<path d="M10 15H318H10ZM318 78H10V76H318V78ZM10 77V15V77ZM318 15V77V15Z" fill="#DCDCDC" mask="url(#path-3-inside-2_1614_5368)"/>
<path d="M112.639 59.704C113.111 59.792 113.499 60.028 113.803 60.412C114.107 60.796 114.259 61.236 114.259 61.732C114.259 62.18 114.147 62.576 113.923 62.92C113.707 63.256 113.391 63.52 112.975 63.712C112.559 63.904 112.067 64 111.499 64H107.887V55.624H111.343C111.911 55.624 112.399 55.716 112.807 55.9C113.223 56.084 113.535 56.34 113.743 56.668C113.959 56.996 114.067 57.368 114.067 57.784C114.067 58.272 113.935 58.68 113.671 59.008C113.415 59.336 113.071 59.568 112.639 59.704ZM109.567 59.08H111.103C111.503 59.08 111.811 58.992 112.027 58.816C112.243 58.632 112.351 58.372 112.351 58.036C112.351 57.7 112.243 57.44 112.027 57.256C111.811 57.072 111.503 56.98 111.103 56.98H109.567V59.08ZM111.259 62.632C111.667 62.632 111.983 62.536 112.207 62.344C112.439 62.152 112.555 61.88 112.555 61.528C112.555 61.168 112.435 60.888 112.195 60.688C111.955 60.48 111.631 60.376 111.223 60.376H109.567V62.632H111.259ZM118.55 64.108C117.91 64.108 117.334 63.968 116.822 63.688C116.31 63.4 115.906 62.996 115.61 62.476C115.322 61.956 115.178 61.356 115.178 60.676C115.178 59.996 115.326 59.396 115.622 58.876C115.926 58.356 116.338 57.956 116.858 57.676C117.378 57.388 117.958 57.244 118.598 57.244C119.238 57.244 119.818 57.388 120.338 57.676C120.858 57.956 121.266 58.356 121.562 58.876C121.866 59.396 122.018 59.996 122.018 60.676C122.018 61.356 121.862 61.956 121.55 62.476C121.246 62.996 120.83 63.4 120.302 63.688C119.782 63.968 119.198 64.108 118.55 64.108ZM118.55 62.644C118.854 62.644 119.138 62.572 119.402 62.428C119.674 62.276 119.89 62.052 120.05 61.756C120.21 61.46 120.29 61.1 120.29 60.676C120.29 60.044 120.122 59.56 119.786 59.224C119.458 58.88 119.054 58.708 118.574 58.708C118.094 58.708 117.69 58.88 117.362 59.224C117.042 59.56 116.882 60.044 116.882 60.676C116.882 61.308 117.038 61.796 117.35 62.14C117.67 62.476 118.07 62.644 118.55 62.644ZM126.202 64.108C125.562 64.108 124.986 63.968 124.474 63.688C123.962 63.4 123.558 62.996 123.262 62.476C122.974 61.956 122.83 61.356 122.83 60.676C122.83 59.996 122.978 59.396 123.274 58.876C123.578 58.356 123.99 57.956 124.51 57.676C125.03 57.388 125.61 57.244 126.25 57.244C126.89 57.244 127.47 57.388 127.99 57.676C128.51 57.956 128.918 58.356 129.214 58.876C129.518 59.396 129.67 59.996 129.67 60.676C129.67 61.356 129.514 61.956 129.202 62.476C128.898 62.996 128.482 63.4 127.954 63.688C127.434 63.968 126.85 64.108 126.202 64.108ZM126.202 62.644C126.506 62.644 126.79 62.572 127.054 62.428C127.326 62.276 127.542 62.052 127.702 61.756C127.862 61.46 127.942 61.1 127.942 60.676C127.942 60.044 127.774 59.56 127.438 59.224C127.11 58.88 126.706 58.708 126.226 58.708C125.746 58.708 125.342 58.88 125.014 59.224C124.694 59.56 124.534 60.044 124.534 60.676C124.534 61.308 124.69 61.796 125.002 62.14C125.322 62.476 125.722 62.644 126.202 62.644ZM134.838 64L132.582 61.168V64H130.902V55.12H132.582V60.172L134.814 57.352H136.998L134.07 60.688L137.022 64H134.838ZM145.905 62.404H142.569L142.017 64H140.253L143.265 55.612H145.221L148.233 64H146.457L145.905 62.404ZM145.449 61.06L144.237 57.556L143.025 61.06H145.449ZM151.039 58.312C151.255 58.008 151.551 57.756 151.927 57.556C152.311 57.348 152.747 57.244 153.235 57.244C153.803 57.244 154.315 57.384 154.771 57.664C155.235 57.944 155.599 58.344 155.863 58.864C156.135 59.376 156.271 59.972 156.271 60.652C156.271 61.332 156.135 61.936 155.863 62.464C155.599 62.984 155.235 63.388 154.771 63.676C154.315 63.964 153.803 64.108 153.235 64.108C152.747 64.108 152.315 64.008 151.939 63.808C151.571 63.608 151.271 63.356 151.039 63.052V67.168H149.359V57.352H151.039V58.312ZM154.555 60.652C154.555 60.252 154.471 59.908 154.303 59.62C154.143 59.324 153.927 59.1 153.655 58.948C153.391 58.796 153.103 58.72 152.791 58.72C152.487 58.72 152.199 58.8 151.927 58.96C151.663 59.112 151.447 59.336 151.279 59.632C151.119 59.928 151.039 60.276 151.039 60.676C151.039 61.076 151.119 61.424 151.279 61.72C151.447 62.016 151.663 62.244 151.927 62.404C152.199 62.556 152.487 62.632 152.791 62.632C153.103 62.632 153.391 62.552 153.655 62.392C153.927 62.232 154.143 62.004 154.303 61.708C154.471 61.412 154.555 61.06 154.555 60.652ZM159.172 58.312C159.388 58.008 159.684 57.756 160.06 57.556C160.444 57.348 160.88 57.244 161.368 57.244C161.936 57.244 162.448 57.384 162.904 57.664C163.368 57.944 163.732 58.344 163.996 58.864C164.268 59.376 164.404 59.972 164.404 60.652C164.404 61.332 164.268 61.936 163.996 62.464C163.732 62.984 163.368 63.388 162.904 63.676C162.448 63.964 161.936 64.108 161.368 64.108C160.88 64.108 160.448 64.008 160.072 63.808C159.704 63.608 159.404 63.356 159.172 63.052V67.168H157.492V57.352H159.172V58.312ZM162.688 60.652C162.688 60.252 162.604 59.908 162.436 59.62C162.276 59.324 162.06 59.1 161.788 58.948C161.524 58.796 161.236 58.72 160.924 58.72C160.62 58.72 160.332 58.8 160.06 58.96C159.796 59.112 159.58 59.336 159.412 59.632C159.252 59.928 159.172 60.276 159.172 60.676C159.172 61.076 159.252 61.424 159.412 61.72C159.58 62.016 159.796 62.244 160.06 62.404C160.332 62.556 160.62 62.632 160.924 62.632C161.236 62.632 161.524 62.552 161.788 62.392C162.06 62.232 162.276 62.004 162.436 61.708C162.604 61.412 162.688 61.06 162.688 60.652ZM168.577 64.108C167.937 64.108 167.361 63.968 166.849 63.688C166.337 63.4 165.933 62.996 165.637 62.476C165.349 61.956 165.205 61.356 165.205 60.676C165.205 59.996 165.353 59.396 165.649 58.876C165.953 58.356 166.365 57.956 166.885 57.676C167.405 57.388 167.985 57.244 168.625 57.244C169.265 57.244 169.845 57.388 170.365 57.676C170.885 57.956 171.293 58.356 171.589 58.876C171.893 59.396 172.045 59.996 172.045 60.676C172.045 61.356 171.889 61.956 171.577 62.476C171.273 62.996 170.857 63.4 170.329 63.688C169.809 63.968 169.225 64.108 168.577 64.108ZM168.577 62.644C168.881 62.644 169.165 62.572 169.429 62.428C169.701 62.276 169.917 62.052 170.077 61.756C170.237 61.46 170.317 61.1 170.317 60.676C170.317 60.044 170.149 59.56 169.813 59.224C169.485 58.88 169.081 58.708 168.601 58.708C168.121 58.708 167.717 58.88 167.389 59.224C167.069 59.56 166.909 60.044 166.909 60.676C166.909 61.308 167.065 61.796 167.377 62.14C167.697 62.476 168.097 62.644 168.577 62.644ZM174.129 56.56C173.833 56.56 173.585 56.468 173.385 56.284C173.193 56.092 173.097 55.856 173.097 55.576C173.097 55.296 173.193 55.064 173.385 54.88C173.585 54.688 173.833 54.592 174.129 54.592C174.425 54.592 174.669 54.688 174.861 54.88C175.061 55.064 175.161 55.296 175.161 55.576C175.161 55.856 175.061 56.092 174.861 56.284C174.669 56.468 174.425 56.56 174.129 56.56ZM174.957 57.352V64H173.277V57.352H174.957ZM180.301 57.256C181.093 57.256 181.733 57.508 182.221 58.012C182.709 58.508 182.953 59.204 182.953 60.1V64H181.273V60.328C181.273 59.8 181.141 59.396 180.877 59.116C180.613 58.828 180.253 58.684 179.797 58.684C179.333 58.684 178.965 58.828 178.693 59.116C178.429 59.396 178.297 59.8 178.297 60.328V64H176.617V57.352H178.297V58.18C178.521 57.892 178.805 57.668 179.149 57.508C179.501 57.34 179.885 57.256 180.301 57.256ZM186.507 58.732V61.948C186.507 62.172 186.559 62.336 186.663 62.44C186.775 62.536 186.959 62.584 187.215 62.584H187.995V64H186.939C185.523 64 184.815 63.312 184.815 61.936V58.732H184.023V57.352H184.815V55.708H186.507V57.352H187.995V58.732H186.507ZM197.459 57.256C198.275 57.256 198.931 57.508 199.427 58.012C199.931 58.508 200.183 59.204 200.183 60.1V64H198.503V60.328C198.503 59.808 198.371 59.412 198.107 59.14C197.843 58.86 197.483 58.72 197.027 58.72C196.571 58.72 196.207 58.86 195.935 59.14C195.671 59.412 195.539 59.808 195.539 60.328V64H193.859V60.328C193.859 59.808 193.727 59.412 193.463 59.14C193.199 58.86 192.839 58.72 192.383 58.72C191.919 58.72 191.551 58.86 191.279 59.14C191.015 59.412 190.883 59.808 190.883 60.328V64H189.203V57.352H190.883V58.156C191.099 57.876 191.375 57.656 191.711 57.496C192.055 57.336 192.431 57.256 192.839 57.256C193.359 57.256 193.823 57.368 194.231 57.592C194.639 57.808 194.955 58.12 195.179 58.528C195.395 58.144 195.707 57.836 196.115 57.604C196.531 57.372 196.979 57.256 197.459 57.256ZM207.957 60.532C207.957 60.772 207.941 60.988 207.909 61.18H203.049C203.089 61.66 203.257 62.036 203.553 62.308C203.849 62.58 204.213 62.716 204.645 62.716C205.269 62.716 205.713 62.448 205.977 61.912H207.789C207.597 62.552 207.229 63.08 206.685 63.496C206.141 63.904 205.473 64.108 204.681 64.108C204.041 64.108 203.465 63.968 202.953 63.688C202.449 63.4 202.053 62.996 201.765 62.476C201.485 61.956 201.345 61.356 201.345 60.676C201.345 59.988 201.485 59.384 201.765 58.864C202.045 58.344 202.437 57.944 202.941 57.664C203.445 57.384 204.025 57.244 204.681 57.244C205.313 57.244 205.877 57.38 206.373 57.652C206.877 57.924 207.265 58.312 207.537 58.816C207.817 59.312 207.957 59.884 207.957 60.532ZM206.217 60.052C206.209 59.62 206.053 59.276 205.749 59.02C205.445 58.756 205.073 58.624 204.633 58.624C204.217 58.624 203.865 58.752 203.577 59.008C203.297 59.256 203.125 59.604 203.061 60.052H206.217ZM212.867 57.256C213.659 57.256 214.299 57.508 214.787 58.012C215.275 58.508 215.519 59.204 215.519 60.1V64H213.839V60.328C213.839 59.8 213.707 59.396 213.443 59.116C213.179 58.828 212.819 58.684 212.363 58.684C211.899 58.684 211.531 58.828 211.259 59.116C210.995 59.396 210.863 59.8 210.863 60.328V64H209.183V57.352H210.863V58.18C211.087 57.892 211.371 57.668 211.715 57.508C212.067 57.34 212.451 57.256 212.867 57.256ZM219.073 58.732V61.948C219.073 62.172 219.125 62.336 219.229 62.44C219.341 62.536 219.525 62.584 219.781 62.584H220.561V64H219.505C218.089 64 217.381 63.312 217.381 61.936V58.732H216.589V57.352H217.381V55.708H219.073V57.352H220.561V58.732H219.073Z" fill="#00155D"/>
<rect x="130" y="25" width="76" height="15" rx="7.5" fill="#0A206E"/>
<rect x="325" y="137" width="3" height="42" fill="url(#paint2_linear_1614_5368)" fill-opacity="0.6"/>
<path d="M32.72 104.084C32.136 104.084 31.608 103.984 31.136 103.784C30.672 103.584 30.304 103.296 30.032 102.92C29.76 102.544 29.62 102.1 29.612 101.588H31.412C31.436 101.932 31.556 102.204 31.772 102.404C31.996 102.604 32.3 102.704 32.684 102.704C33.076 102.704 33.384 102.612 33.608 102.428C33.832 102.236 33.944 101.988 33.944 101.684C33.944 101.436 33.868 101.232 33.716 101.072C33.564 100.912 33.372 100.788 33.14 100.7C32.916 100.604 32.604 100.5 32.204 100.388C31.66 100.228 31.216 100.072 30.872 99.92C30.536 99.76 30.244 99.524 29.996 99.212C29.756 98.892 29.636 98.468 29.636 97.94C29.636 97.444 29.76 97.012 30.008 96.644C30.256 96.276 30.604 95.996 31.052 95.804C31.5 95.604 32.012 95.504 32.588 95.504C33.452 95.504 34.152 95.716 34.688 96.14C35.232 96.556 35.532 97.14 35.588 97.892H33.74C33.724 97.604 33.6 97.368 33.368 97.184C33.144 96.992 32.844 96.896 32.468 96.896C32.14 96.896 31.876 96.98 31.676 97.148C31.484 97.316 31.388 97.56 31.388 97.88C31.388 98.104 31.46 98.292 31.604 98.444C31.756 98.588 31.94 98.708 32.156 98.804C32.38 98.892 32.692 98.996 33.092 99.116C33.636 99.276 34.08 99.436 34.424 99.596C34.768 99.756 35.064 99.996 35.312 100.316C35.56 100.636 35.684 101.056 35.684 101.576C35.684 102.024 35.568 102.44 35.336 102.824C35.104 103.208 34.764 103.516 34.316 103.748C33.868 103.972 33.336 104.084 32.72 104.084ZM43.3205 100.532C43.3205 100.772 43.3045 100.988 43.2725 101.18H38.4125C38.4525 101.66 38.6205 102.036 38.9165 102.308C39.2125 102.58 39.5765 102.716 40.0085 102.716C40.6325 102.716 41.0765 102.448 41.3405 101.912H43.1525C42.9605 102.552 42.5925 103.08 42.0485 103.496C41.5045 103.904 40.8365 104.108 40.0445 104.108C39.4045 104.108 38.8285 103.968 38.3165 103.688C37.8125 103.4 37.4165 102.996 37.1285 102.476C36.8485 101.956 36.7085 101.356 36.7085 100.676C36.7085 99.988 36.8485 99.384 37.1285 98.864C37.4085 98.344 37.8005 97.944 38.3045 97.664C38.8085 97.384 39.3885 97.244 40.0445 97.244C40.6765 97.244 41.2405 97.38 41.7365 97.652C42.2405 97.924 42.6285 98.312 42.9005 98.816C43.1805 99.312 43.3205 99.884 43.3205 100.532ZM41.5805 100.052C41.5725 99.62 41.4165 99.276 41.1125 99.02C40.8085 98.756 40.4365 98.624 39.9965 98.624C39.5805 98.624 39.2285 98.752 38.9405 99.008C38.6605 99.256 38.4885 99.604 38.4245 100.052H41.5805ZM46.2268 95.12V104H44.5468V95.12H46.2268ZM54.0666 100.532C54.0666 100.772 54.0506 100.988 54.0186 101.18H49.1586C49.1986 101.66 49.3666 102.036 49.6626 102.308C49.9586 102.58 50.3226 102.716 50.7546 102.716C51.3786 102.716 51.8226 102.448 52.0866 101.912H53.8986C53.7066 102.552 53.3386 103.08 52.7946 103.496C52.2506 103.904 51.5826 104.108 50.7906 104.108C50.1506 104.108 49.5746 103.968 49.0626 103.688C48.5586 103.4 48.1626 102.996 47.8746 102.476C47.5946 101.956 47.4546 101.356 47.4546 100.676C47.4546 99.988 47.5946 99.384 47.8746 98.864C48.1546 98.344 48.5466 97.944 49.0506 97.664C49.5546 97.384 50.1346 97.244 50.7906 97.244C51.4226 97.244 51.9866 97.38 52.4826 97.652C52.9866 97.924 53.3746 98.312 53.6466 98.816C53.9266 99.312 54.0666 99.884 54.0666 100.532ZM52.3266 100.052C52.3186 99.62 52.1626 99.276 51.8586 99.02C51.5546 98.756 51.1826 98.624 50.7426 98.624C50.3266 98.624 49.9746 98.752 49.6866 99.008C49.4066 99.256 49.2346 99.604 49.1706 100.052H52.3266ZM54.8608 100.676C54.8608 99.988 55.0008 99.388 55.2808 98.876C55.5608 98.356 55.9488 97.956 56.4448 97.676C56.9408 97.388 57.5088 97.244 58.1488 97.244C58.9728 97.244 59.6528 97.452 60.1888 97.868C60.7328 98.276 61.0968 98.852 61.2808 99.596H59.4688C59.3728 99.308 59.2088 99.084 58.9768 98.924C58.7528 98.756 58.4728 98.672 58.1368 98.672C57.6568 98.672 57.2768 98.848 56.9968 99.2C56.7168 99.544 56.5768 100.036 56.5768 100.676C56.5768 101.308 56.7168 101.8 56.9968 102.152C57.2768 102.496 57.6568 102.668 58.1368 102.668C58.8168 102.668 59.2608 102.364 59.4688 101.756H61.2808C61.0968 102.476 60.7328 103.048 60.1888 103.472C59.6448 103.896 58.9648 104.108 58.1488 104.108C57.5088 104.108 56.9408 103.968 56.4448 103.688C55.9488 103.4 55.5608 103 55.2808 102.488C55.0008 101.968 54.8608 101.364 54.8608 100.676ZM64.4676 98.732V101.948C64.4676 102.172 64.5196 102.336 64.6236 102.44C64.7356 102.536 64.9196 102.584 65.1756 102.584H65.9556V104H64.8996C63.4836 104 62.7756 103.312 62.7756 101.936V98.732H61.9836V97.352H62.7756V95.708H64.4676V97.352H65.9556V98.732H64.4676ZM69.5913 100.652C69.5913 99.98 69.7233 99.384 69.9873 98.864C70.2593 98.344 70.6273 97.944 71.0913 97.664C71.5553 97.384 72.0713 97.244 72.6393 97.244C73.0713 97.244 73.4833 97.34 73.8753 97.532C74.2673 97.716 74.5793 97.964 74.8113 98.276V95.12H76.5153V104H74.8113V103.016C74.6033 103.344 74.3113 103.608 73.9353 103.808C73.5593 104.008 73.1233 104.108 72.6273 104.108C72.0673 104.108 71.5553 103.964 71.0913 103.676C70.6273 103.388 70.2593 102.984 69.9873 102.464C69.7233 101.936 69.5913 101.332 69.5913 100.652ZM74.8233 100.676C74.8233 100.268 74.7433 99.92 74.5833 99.632C74.4233 99.336 74.2073 99.112 73.9353 98.96C73.6633 98.8 73.3713 98.72 73.0593 98.72C72.7473 98.72 72.4593 98.796 72.1953 98.948C71.9313 99.1 71.7153 99.324 71.5473 99.62C71.3873 99.908 71.3073 100.252 71.3073 100.652C71.3073 101.052 71.3873 101.404 71.5473 101.708C71.7153 102.004 71.9313 102.232 72.1953 102.392C72.4673 102.552 72.7553 102.632 73.0593 102.632C73.3713 102.632 73.6633 102.556 73.9353 102.404C74.2073 102.244 74.4233 102.02 74.5833 101.732C74.7433 101.436 74.8233 101.084 74.8233 100.676ZM77.7241 100.652C77.7241 99.98 77.8561 99.384 78.1201 98.864C78.3921 98.344 78.7561 97.944 79.2121 97.664C79.6761 97.384 80.1921 97.244 80.7601 97.244C81.2561 97.244 81.6881 97.344 82.0561 97.544C82.4321 97.744 82.7321 97.996 82.9561 98.3V97.352H84.6481V104H82.9561V103.028C82.7401 103.34 82.4401 103.6 82.0561 103.808C81.6801 104.008 81.2441 104.108 80.7481 104.108C80.1881 104.108 79.6761 103.964 79.2121 103.676C78.7561 103.388 78.3921 102.984 78.1201 102.464C77.8561 101.936 77.7241 101.332 77.7241 100.652ZM82.9561 100.676C82.9561 100.268 82.8761 99.92 82.7161 99.632C82.5561 99.336 82.3401 99.112 82.0681 98.96C81.7961 98.8 81.5041 98.72 81.1921 98.72C80.8801 98.72 80.5921 98.796 80.3281 98.948C80.0641 99.1 79.8481 99.324 79.6801 99.62C79.5201 99.908 79.4401 100.252 79.4401 100.652C79.4401 101.052 79.5201 101.404 79.6801 101.708C79.8481 102.004 80.0641 102.232 80.3281 102.392C80.6001 102.552 80.8881 102.632 81.1921 102.632C81.5041 102.632 81.7961 102.556 82.0681 102.404C82.3401 102.244 82.5561 102.02 82.7161 101.732C82.8761 101.436 82.9561 101.084 82.9561 100.676ZM88.2449 98.732V101.948C88.2449 102.172 88.2969 102.336 88.4009 102.44C88.5129 102.536 88.6969 102.584 88.9529 102.584H89.7329V104H88.6769C87.2609 104 86.5529 103.312 86.5529 101.936V98.732H85.7609V97.352H86.5529V95.708H88.2449V97.352H89.7329V98.732H88.2449ZM97.1213 100.532C97.1213 100.772 97.1053 100.988 97.0733 101.18H92.2133C92.2533 101.66 92.4213 102.036 92.7173 102.308C93.0133 102.58 93.3773 102.716 93.8093 102.716C94.4333 102.716 94.8773 102.448 95.1413 101.912H96.9533C96.7613 102.552 96.3933 103.08 95.8493 103.496C95.3053 103.904 94.6373 104.108 93.8453 104.108C93.2053 104.108 92.6293 103.968 92.1173 103.688C91.6133 103.4 91.2173 102.996 90.9293 102.476C90.6493 101.956 90.5093 101.356 90.5093 100.676C90.5093 99.988 90.6493 99.384 90.9293 98.864C91.2093 98.344 91.6013 97.944 92.1053 97.664C92.6093 97.384 93.1893 97.244 93.8453 97.244C94.4773 97.244 95.0413 97.38 95.5373 97.652C96.0413 97.924 96.4293 98.312 96.7013 98.816C96.9813 99.312 97.1213 99.884 97.1213 100.532ZM95.3813 100.052C95.3733 99.62 95.2173 99.276 94.9133 99.02C94.6093 98.756 94.2373 98.624 93.7973 98.624C93.3813 98.624 93.0293 98.752 92.7413 99.008C92.4613 99.256 92.2893 99.604 92.2253 100.052H95.3813Z" fill="#00155D"/>
<path d="M32.72 275.084C32.136 275.084 31.608 274.984 31.136 274.784C30.672 274.584 30.304 274.296 30.032 273.92C29.76 273.544 29.62 273.1 29.612 272.588H31.412C31.436 272.932 31.556 273.204 31.772 273.404C31.996 273.604 32.3 273.704 32.684 273.704C33.076 273.704 33.384 273.612 33.608 273.428C33.832 273.236 33.944 272.988 33.944 272.684C33.944 272.436 33.868 272.232 33.716 272.072C33.564 271.912 33.372 271.788 33.14 271.7C32.916 271.604 32.604 271.5 32.204 271.388C31.66 271.228 31.216 271.072 30.872 270.92C30.536 270.76 30.244 270.524 29.996 270.212C29.756 269.892 29.636 269.468 29.636 268.94C29.636 268.444 29.76 268.012 30.008 267.644C30.256 267.276 30.604 266.996 31.052 266.804C31.5 266.604 32.012 266.504 32.588 266.504C33.452 266.504 34.152 266.716 34.688 267.14C35.232 267.556 35.532 268.14 35.588 268.892H33.74C33.724 268.604 33.6 268.368 33.368 268.184C33.144 267.992 32.844 267.896 32.468 267.896C32.14 267.896 31.876 267.98 31.676 268.148C31.484 268.316 31.388 268.56 31.388 268.88C31.388 269.104 31.46 269.292 31.604 269.444C31.756 269.588 31.94 269.708 32.156 269.804C32.38 269.892 32.692 269.996 33.092 270.116C33.636 270.276 34.08 270.436 34.424 270.596C34.768 270.756 35.064 270.996 35.312 271.316C35.56 271.636 35.684 272.056 35.684 272.576C35.684 273.024 35.568 273.44 35.336 273.824C35.104 274.208 34.764 274.516 34.316 274.748C33.868 274.972 33.336 275.084 32.72 275.084ZM43.3205 271.532C43.3205 271.772 43.3045 271.988 43.2725 272.18H38.4125C38.4525 272.66 38.6205 273.036 38.9165 273.308C39.2125 273.58 39.5765 273.716 40.0085 273.716C40.6325 273.716 41.0765 273.448 41.3405 272.912H43.1525C42.9605 273.552 42.5925 274.08 42.0485 274.496C41.5045 274.904 40.8365 275.108 40.0445 275.108C39.4045 275.108 38.8285 274.968 38.3165 274.688C37.8125 274.4 37.4165 273.996 37.1285 273.476C36.8485 272.956 36.7085 272.356 36.7085 271.676C36.7085 270.988 36.8485 270.384 37.1285 269.864C37.4085 269.344 37.8005 268.944 38.3045 268.664C38.8085 268.384 39.3885 268.244 40.0445 268.244C40.6765 268.244 41.2405 268.38 41.7365 268.652C42.2405 268.924 42.6285 269.312 42.9005 269.816C43.1805 270.312 43.3205 270.884 43.3205 271.532ZM41.5805 271.052C41.5725 270.62 41.4165 270.276 41.1125 270.02C40.8085 269.756 40.4365 269.624 39.9965 269.624C39.5805 269.624 39.2285 269.752 38.9405 270.008C38.6605 270.256 38.4885 270.604 38.4245 271.052H41.5805ZM46.2268 266.12V275H44.5468V266.12H46.2268ZM54.0666 271.532C54.0666 271.772 54.0506 271.988 54.0186 272.18H49.1586C49.1986 272.66 49.3666 273.036 49.6626 273.308C49.9586 273.58 50.3226 273.716 50.7546 273.716C51.3786 273.716 51.8226 273.448 52.0866 272.912H53.8986C53.7066 273.552 53.3386 274.08 52.7946 274.496C52.2506 274.904 51.5826 275.108 50.7906 275.108C50.1506 275.108 49.5746 274.968 49.0626 274.688C48.5586 274.4 48.1626 273.996 47.8746 273.476C47.5946 272.956 47.4546 272.356 47.4546 271.676C47.4546 270.988 47.5946 270.384 47.8746 269.864C48.1546 269.344 48.5466 268.944 49.0506 268.664C49.5546 268.384 50.1346 268.244 50.7906 268.244C51.4226 268.244 51.9866 268.38 52.4826 268.652C52.9866 268.924 53.3746 269.312 53.6466 269.816C53.9266 270.312 54.0666 270.884 54.0666 271.532ZM52.3266 271.052C52.3186 270.62 52.1626 270.276 51.8586 270.02C51.5546 269.756 51.1826 269.624 50.7426 269.624C50.3266 269.624 49.9746 269.752 49.6866 270.008C49.4066 270.256 49.2346 270.604 49.1706 271.052H52.3266ZM54.8608 271.676C54.8608 270.988 55.0008 270.388 55.2808 269.876C55.5608 269.356 55.9488 268.956 56.4448 268.676C56.9408 268.388 57.5088 268.244 58.1488 268.244C58.9728 268.244 59.6528 268.452 60.1888 268.868C60.7328 269.276 61.0968 269.852 61.2808 270.596H59.4688C59.3728 270.308 59.2088 270.084 58.9768 269.924C58.7528 269.756 58.4728 269.672 58.1368 269.672C57.6568 269.672 57.2768 269.848 56.9968 270.2C56.7168 270.544 56.5768 271.036 56.5768 271.676C56.5768 272.308 56.7168 272.8 56.9968 273.152C57.2768 273.496 57.6568 273.668 58.1368 273.668C58.8168 273.668 59.2608 273.364 59.4688 272.756H61.2808C61.0968 273.476 60.7328 274.048 60.1888 274.472C59.6448 274.896 58.9648 275.108 58.1488 275.108C57.5088 275.108 56.9408 274.968 56.4448 274.688C55.9488 274.4 55.5608 274 55.2808 273.488C55.0008 272.968 54.8608 272.364 54.8608 271.676ZM64.4676 269.732V272.948C64.4676 273.172 64.5196 273.336 64.6236 273.44C64.7356 273.536 64.9196 273.584 65.1756 273.584H65.9556V275H64.8996C63.4836 275 62.7756 274.312 62.7756 272.936V269.732H61.9836V268.352H62.7756V266.708H64.4676V268.352H65.9556V269.732H64.4676ZM71.9793 269.732V272.948C71.9793 273.172 72.0313 273.336 72.1353 273.44C72.2473 273.536 72.4313 273.584 72.6873 273.584H73.4673V275H72.4113C70.9953 275 70.2873 274.312 70.2873 272.936V269.732H69.4953V268.352H70.2873V266.708H71.9793V268.352H73.4673V269.732H71.9793ZM75.5277 267.56C75.2317 267.56 74.9837 267.468 74.7837 267.284C74.5917 267.092 74.4957 266.856 74.4957 266.576C74.4957 266.296 74.5917 266.064 74.7837 265.88C74.9837 265.688 75.2317 265.592 75.5277 265.592C75.8237 265.592 76.0677 265.688 76.2597 265.88C76.4597 266.064 76.5597 266.296 76.5597 266.576C76.5597 266.856 76.4597 267.092 76.2597 267.284C76.0677 267.468 75.8237 267.56 75.5277 267.56ZM76.3557 268.352V275H74.6757V268.352H76.3557ZM86.2715 268.256C87.0875 268.256 87.7435 268.508 88.2395 269.012C88.7435 269.508 88.9955 270.204 88.9955 271.1V275H87.3155V271.328C87.3155 270.808 87.1835 270.412 86.9195 270.14C86.6555 269.86 86.2955 269.72 85.8395 269.72C85.3835 269.72 85.0195 269.86 84.7475 270.14C84.4835 270.412 84.3515 270.808 84.3515 271.328V275H82.6715V271.328C82.6715 270.808 82.5395 270.412 82.2755 270.14C82.0115 269.86 81.6515 269.72 81.1955 269.72C80.7315 269.72 80.3635 269.86 80.0915 270.14C79.8275 270.412 79.6955 270.808 79.6955 271.328V275H78.0155V268.352H79.6955V269.156C79.9115 268.876 80.1875 268.656 80.5235 268.496C80.8675 268.336 81.2435 268.256 81.6515 268.256C82.1715 268.256 82.6355 268.368 83.0435 268.592C83.4515 268.808 83.7675 269.12 83.9915 269.528C84.2075 269.144 84.5195 268.836 84.9275 268.604C85.3435 268.372 85.7915 268.256 86.2715 268.256ZM96.7697 271.532C96.7697 271.772 96.7537 271.988 96.7217 272.18H91.8617C91.9017 272.66 92.0697 273.036 92.3657 273.308C92.6617 273.58 93.0257 273.716 93.4577 273.716C94.0817 273.716 94.5257 273.448 94.7897 272.912H96.6017C96.4097 273.552 96.0417 274.08 95.4977 274.496C94.9537 274.904 94.2857 275.108 93.4937 275.108C92.8537 275.108 92.2777 274.968 91.7657 274.688C91.2617 274.4 90.8657 273.996 90.5777 273.476C90.2977 272.956 90.1577 272.356 90.1577 271.676C90.1577 270.988 90.2977 270.384 90.5777 269.864C90.8577 269.344 91.2497 268.944 91.7537 268.664C92.2577 268.384 92.8377 268.244 93.4937 268.244C94.1257 268.244 94.6897 268.38 95.1857 268.652C95.6897 268.924 96.0777 269.312 96.3497 269.816C96.6297 270.312 96.7697 270.884 96.7697 271.532ZM95.0297 271.052C95.0217 270.62 94.8657 270.276 94.5617 270.02C94.2577 269.756 93.8857 269.624 93.4457 269.624C93.0297 269.624 92.6777 269.752 92.3897 270.008C92.1097 270.256 91.9377 270.604 91.8737 271.052H95.0297Z" fill="#00155D"/>
<path d="M61.8921 138.02V139.15H60.0321V145H58.6321V139.15H56.7721V138.02H61.8921ZM66.0336 139.38C66.4536 139.38 66.827 139.473 67.1536 139.66C67.4803 139.84 67.7336 140.11 67.9136 140.47C68.1003 140.823 68.1936 141.25 68.1936 141.75V145H66.7936V141.94C66.7936 141.5 66.6836 141.163 66.4636 140.93C66.2436 140.69 65.9436 140.57 65.5636 140.57C65.177 140.57 64.8703 140.69 64.6436 140.93C64.4236 141.163 64.3136 141.5 64.3136 141.94V145H62.9136V137.6H64.3136V140.15C64.4936 139.91 64.7336 139.723 65.0336 139.59C65.3336 139.45 65.667 139.38 66.0336 139.38ZM74.755 139.46V145H73.345V144.3C73.165 144.54 72.9283 144.73 72.635 144.87C72.3483 145.003 72.035 145.07 71.695 145.07C71.2616 145.07 70.8783 144.98 70.545 144.8C70.2116 144.613 69.9483 144.343 69.755 143.99C69.5683 143.63 69.475 143.203 69.475 142.71V139.46H70.875V142.51C70.875 142.95 70.985 143.29 71.205 143.53C71.425 143.763 71.725 143.88 72.105 143.88C72.4916 143.88 72.795 143.763 73.015 143.53C73.235 143.29 73.345 142.95 73.345 142.51V139.46H74.755ZM77.5363 140.32C77.7163 140.027 77.9496 139.797 78.2363 139.63C78.5296 139.463 78.863 139.38 79.2363 139.38V140.85H78.8663C78.4263 140.85 78.093 140.953 77.8663 141.16C77.6463 141.367 77.5363 141.727 77.5363 142.24V145H76.1363V139.46H77.5363V140.32ZM82.2993 145.09C81.8459 145.09 81.4393 145.01 81.0793 144.85C80.7193 144.683 80.4326 144.46 80.2193 144.18C80.0126 143.9 79.8993 143.59 79.8793 143.25H81.2893C81.3159 143.463 81.4193 143.64 81.5993 143.78C81.7859 143.92 82.0159 143.99 82.2893 143.99C82.5559 143.99 82.7626 143.937 82.9093 143.83C83.0626 143.723 83.1393 143.587 83.1393 143.42C83.1393 143.24 83.0459 143.107 82.8593 143.02C82.6793 142.927 82.3893 142.827 81.9893 142.72C81.5759 142.62 81.2359 142.517 80.9693 142.41C80.7093 142.303 80.4826 142.14 80.2893 141.92C80.1026 141.7 80.0093 141.403 80.0093 141.03C80.0093 140.723 80.0959 140.443 80.2693 140.19C80.4493 139.937 80.7026 139.737 81.0293 139.59C81.3626 139.443 81.7526 139.37 82.1993 139.37C82.8593 139.37 83.3859 139.537 83.7793 139.87C84.1726 140.197 84.3893 140.64 84.4293 141.2H83.0893C83.0693 140.98 82.9759 140.807 82.8093 140.68C82.6493 140.547 82.4326 140.48 82.1593 140.48C81.9059 140.48 81.7093 140.527 81.5693 140.62C81.4359 140.713 81.3693 140.843 81.3693 141.01C81.3693 141.197 81.4626 141.34 81.6493 141.44C81.8359 141.533 82.1259 141.63 82.5193 141.73C82.9193 141.83 83.2493 141.933 83.5093 142.04C83.7693 142.147 83.9926 142.313 84.1793 142.54C84.3726 142.76 84.4726 143.053 84.4793 143.42C84.4793 143.74 84.3893 144.027 84.2093 144.28C84.0359 144.533 83.7826 144.733 83.4493 144.88C83.1226 145.02 82.7393 145.09 82.2993 145.09ZM85.2685 142.21C85.2685 141.65 85.3785 141.153 85.5985 140.72C85.8251 140.287 86.1318 139.953 86.5185 139.72C86.9051 139.487 87.3351 139.37 87.8085 139.37C88.1685 139.37 88.5118 139.45 88.8385 139.61C89.1651 139.763 89.4251 139.97 89.6185 140.23V137.6H91.0385V145H89.6185V144.18C89.4451 144.453 89.2018 144.673 88.8885 144.84C88.5751 145.007 88.2118 145.09 87.7985 145.09C87.3318 145.09 86.9051 144.97 86.5185 144.73C86.1318 144.49 85.8251 144.153 85.5985 143.72C85.3785 143.28 85.2685 142.777 85.2685 142.21ZM89.6285 142.23C89.6285 141.89 89.5618 141.6 89.4285 141.36C89.2951 141.113 89.1151 140.927 88.8885 140.8C88.6618 140.667 88.4185 140.6 88.1585 140.6C87.8985 140.6 87.6585 140.663 87.4385 140.79C87.2185 140.917 87.0385 141.103 86.8985 141.35C86.7651 141.59 86.6985 141.877 86.6985 142.21C86.6985 142.543 86.7651 142.837 86.8985 143.09C87.0385 143.337 87.2185 143.527 87.4385 143.66C87.6651 143.793 87.9051 143.86 88.1585 143.86C88.4185 143.86 88.6618 143.797 88.8885 143.67C89.1151 143.537 89.2951 143.35 89.4285 143.11C89.5618 142.863 89.6285 142.57 89.6285 142.23ZM92.0458 142.21C92.0458 141.65 92.1558 141.153 92.3758 140.72C92.6025 140.287 92.9058 139.953 93.2858 139.72C93.6725 139.487 94.1025 139.37 94.5758 139.37C94.9892 139.37 95.3492 139.453 95.6558 139.62C95.9692 139.787 96.2192 139.997 96.4058 140.25V139.46H97.8158V145H96.4058V144.19C96.2258 144.45 95.9758 144.667 95.6558 144.84C95.3425 145.007 94.9792 145.09 94.5658 145.09C94.0992 145.09 93.6725 144.97 93.2858 144.73C92.9058 144.49 92.6025 144.153 92.3758 143.72C92.1558 143.28 92.0458 142.777 92.0458 142.21ZM96.4058 142.23C96.4058 141.89 96.3392 141.6 96.2058 141.36C96.0725 141.113 95.8925 140.927 95.6658 140.8C95.4392 140.667 95.1958 140.6 94.9358 140.6C94.6758 140.6 94.4358 140.663 94.2158 140.79C93.9958 140.917 93.8158 141.103 93.6758 141.35C93.5425 141.59 93.4758 141.877 93.4758 142.21C93.4758 142.543 93.5425 142.837 93.6758 143.09C93.8158 143.337 93.9958 143.527 94.2158 143.66C94.4425 143.793 94.6825 143.86 94.9358 143.86C95.1958 143.86 95.4392 143.797 95.6658 143.67C95.8925 143.537 96.0725 143.35 96.2058 143.11C96.3392 142.863 96.4058 142.57 96.4058 142.23ZM104.483 139.46L101.053 147.62H99.5632L100.763 144.86L98.5432 139.46H100.113L101.543 143.33L102.993 139.46H104.483ZM65.5911 159.42C66.2311 158.887 66.7411 158.443 67.1211 158.09C67.5011 157.73 67.8178 157.357 68.0711 156.97C68.3244 156.583 68.4511 156.203 68.4511 155.83C68.4511 155.49 68.3711 155.223 68.2111 155.03C68.0511 154.837 67.8044 154.74 67.4711 154.74C67.1378 154.74 66.8811 154.853 66.7011 155.08C66.5211 155.3 66.4278 155.603 66.4211 155.99H65.0611C65.0878 155.19 65.3244 154.583 65.7711 154.17C66.2244 153.757 66.7978 153.55 67.4911 153.55C68.2511 153.55 68.8344 153.753 69.2411 154.16C69.6478 154.56 69.8511 155.09 69.8511 155.75C69.8511 156.27 69.7111 156.767 69.4311 157.24C69.1511 157.713 68.8311 158.127 68.4711 158.48C68.1111 158.827 67.6411 159.247 67.0611 159.74H70.0111V160.9H65.0711V159.86L65.5911 159.42ZM70.9133 155.63C70.9466 154.963 71.1799 154.45 71.6133 154.09C72.0533 153.723 72.6299 153.54 73.3433 153.54C73.8299 153.54 74.2466 153.627 74.5933 153.8C74.9399 153.967 75.1999 154.197 75.3733 154.49C75.5533 154.777 75.6433 155.103 75.6433 155.47C75.6433 155.89 75.5333 156.247 75.3133 156.54C75.0999 156.827 74.8433 157.02 74.5433 157.12V157.16C74.9299 157.28 75.2299 157.493 75.4433 157.8C75.6633 158.107 75.7733 158.5 75.7733 158.98C75.7733 159.38 75.6799 159.737 75.4933 160.05C75.3133 160.363 75.0433 160.61 74.6833 160.79C74.3299 160.963 73.9033 161.05 73.4033 161.05C72.6499 161.05 72.0366 160.86 71.5633 160.48C71.0899 160.1 70.8399 159.54 70.8133 158.8H72.1733C72.1866 159.127 72.2966 159.39 72.5033 159.59C72.7166 159.783 73.0066 159.88 73.3733 159.88C73.7133 159.88 73.9733 159.787 74.1533 159.6C74.3399 159.407 74.4333 159.16 74.4333 158.86C74.4333 158.46 74.3066 158.173 74.0533 158C73.7999 157.827 73.4066 157.74 72.8733 157.74H72.5833V156.59H72.8733C73.8199 156.59 74.2933 156.273 74.2933 155.64C74.2933 155.353 74.2066 155.13 74.0333 154.97C73.8666 154.81 73.6233 154.73 73.3033 154.73C72.9899 154.73 72.7466 154.817 72.5733 154.99C72.4066 155.157 72.3099 155.37 72.2833 155.63H70.9133ZM83.4924 154.02V158.92C83.4924 159.6 83.2958 160.13 82.9024 160.51C82.5091 160.883 81.9824 161.07 81.3224 161.07C80.6558 161.07 80.1158 160.877 79.7024 160.49C79.2958 160.103 79.0924 159.563 79.0924 158.87H80.4924C80.4991 159.17 80.5691 159.403 80.7024 159.57C80.8424 159.737 81.0424 159.82 81.3024 159.82C81.5558 159.82 81.7491 159.74 81.8824 159.58C82.0158 159.42 82.0824 159.2 82.0824 158.92V154.02H83.4924ZM86.5055 154.02V158.34C86.5055 158.813 86.6289 159.177 86.8755 159.43C87.1222 159.677 87.4689 159.8 87.9155 159.8C88.3689 159.8 88.7189 159.677 88.9655 159.43C89.2122 159.177 89.3355 158.813 89.3355 158.34V154.02H90.7455V158.33C90.7455 158.923 90.6155 159.427 90.3555 159.84C90.1022 160.247 89.7589 160.553 89.3255 160.76C88.8989 160.967 88.4222 161.07 87.8955 161.07C87.3755 161.07 86.9022 160.967 86.4755 160.76C86.0555 160.553 85.7222 160.247 85.4755 159.84C85.2289 159.427 85.1055 158.923 85.1055 158.33V154.02H86.5055ZM98.0682 161H96.6682L93.4982 156.21V161H92.0982V154.01H93.4982L96.6682 158.81V154.01H98.0682V161Z" fill="#3454C1"/>
<path d="M146.892 138.02V139.15H145.032V145H143.632V139.15H141.772V138.02H146.892ZM151.034 139.38C151.454 139.38 151.827 139.473 152.154 139.66C152.48 139.84 152.734 140.11 152.914 140.47C153.1 140.823 153.194 141.25 153.194 141.75V145H151.794V141.94C151.794 141.5 151.684 141.163 151.464 140.93C151.244 140.69 150.944 140.57 150.564 140.57C150.177 140.57 149.87 140.69 149.644 140.93C149.424 141.163 149.314 141.5 149.314 141.94V145H147.914V137.6H149.314V140.15C149.494 139.91 149.734 139.723 150.034 139.59C150.334 139.45 150.667 139.38 151.034 139.38ZM159.755 139.46V145H158.345V144.3C158.165 144.54 157.928 144.73 157.635 144.87C157.348 145.003 157.035 145.07 156.695 145.07C156.262 145.07 155.878 144.98 155.545 144.8C155.212 144.613 154.948 144.343 154.755 143.99C154.568 143.63 154.475 143.203 154.475 142.71V139.46H155.875V142.51C155.875 142.95 155.985 143.29 156.205 143.53C156.425 143.763 156.725 143.88 157.105 143.88C157.492 143.88 157.795 143.763 158.015 143.53C158.235 143.29 158.345 142.95 158.345 142.51V139.46H159.755ZM162.536 140.32C162.716 140.027 162.95 139.797 163.236 139.63C163.53 139.463 163.863 139.38 164.236 139.38V140.85H163.866C163.426 140.85 163.093 140.953 162.866 141.16C162.646 141.367 162.536 141.727 162.536 142.24V145H161.136V139.46H162.536V140.32ZM167.299 145.09C166.846 145.09 166.439 145.01 166.079 144.85C165.719 144.683 165.433 144.46 165.219 144.18C165.013 143.9 164.899 143.59 164.879 143.25H166.289C166.316 143.463 166.419 143.64 166.599 143.78C166.786 143.92 167.016 143.99 167.289 143.99C167.556 143.99 167.763 143.937 167.909 143.83C168.063 143.723 168.139 143.587 168.139 143.42C168.139 143.24 168.046 143.107 167.859 143.02C167.679 142.927 167.389 142.827 166.989 142.72C166.576 142.62 166.236 142.517 165.969 142.41C165.709 142.303 165.483 142.14 165.289 141.92C165.103 141.7 165.009 141.403 165.009 141.03C165.009 140.723 165.096 140.443 165.269 140.19C165.449 139.937 165.703 139.737 166.029 139.59C166.363 139.443 166.753 139.37 167.199 139.37C167.859 139.37 168.386 139.537 168.779 139.87C169.173 140.197 169.389 140.64 169.429 141.2H168.089C168.069 140.98 167.976 140.807 167.809 140.68C167.649 140.547 167.433 140.48 167.159 140.48C166.906 140.48 166.709 140.527 166.569 140.62C166.436 140.713 166.369 140.843 166.369 141.01C166.369 141.197 166.463 141.34 166.649 141.44C166.836 141.533 167.126 141.63 167.519 141.73C167.919 141.83 168.249 141.933 168.509 142.04C168.769 142.147 168.993 142.313 169.179 142.54C169.373 142.76 169.473 143.053 169.479 143.42C169.479 143.74 169.389 144.027 169.209 144.28C169.036 144.533 168.783 144.733 168.449 144.88C168.123 145.02 167.739 145.09 167.299 145.09ZM170.268 142.21C170.268 141.65 170.378 141.153 170.598 140.72C170.825 140.287 171.132 139.953 171.518 139.72C171.905 139.487 172.335 139.37 172.808 139.37C173.168 139.37 173.512 139.45 173.838 139.61C174.165 139.763 174.425 139.97 174.618 140.23V137.6H176.038V145H174.618V144.18C174.445 144.453 174.202 144.673 173.888 144.84C173.575 145.007 173.212 145.09 172.798 145.09C172.332 145.09 171.905 144.97 171.518 144.73C171.132 144.49 170.825 144.153 170.598 143.72C170.378 143.28 170.268 142.777 170.268 142.21ZM174.628 142.23C174.628 141.89 174.562 141.6 174.428 141.36C174.295 141.113 174.115 140.927 173.888 140.8C173.662 140.667 173.418 140.6 173.158 140.6C172.898 140.6 172.658 140.663 172.438 140.79C172.218 140.917 172.038 141.103 171.898 141.35C171.765 141.59 171.698 141.877 171.698 142.21C171.698 142.543 171.765 142.837 171.898 143.09C172.038 143.337 172.218 143.527 172.438 143.66C172.665 143.793 172.905 143.86 173.158 143.86C173.418 143.86 173.662 143.797 173.888 143.67C174.115 143.537 174.295 143.35 174.428 143.11C174.562 142.863 174.628 142.57 174.628 142.23ZM177.046 142.21C177.046 141.65 177.156 141.153 177.376 140.72C177.602 140.287 177.906 139.953 178.286 139.72C178.672 139.487 179.102 139.37 179.576 139.37C179.989 139.37 180.349 139.453 180.656 139.62C180.969 139.787 181.219 139.997 181.406 140.25V139.46H182.816V145H181.406V144.19C181.226 144.45 180.976 144.667 180.656 144.84C180.342 145.007 179.979 145.09 179.566 145.09C179.099 145.09 178.672 144.97 178.286 144.73C177.906 144.49 177.602 144.153 177.376 143.72C177.156 143.28 177.046 142.777 177.046 142.21ZM181.406 142.23C181.406 141.89 181.339 141.6 181.206 141.36C181.072 141.113 180.892 140.927 180.666 140.8C180.439 140.667 180.196 140.6 179.936 140.6C179.676 140.6 179.436 140.663 179.216 140.79C178.996 140.917 178.816 141.103 178.676 141.35C178.542 141.59 178.476 141.877 178.476 142.21C178.476 142.543 178.542 142.837 178.676 143.09C178.816 143.337 178.996 143.527 179.216 143.66C179.442 143.793 179.682 143.86 179.936 143.86C180.196 143.86 180.439 143.797 180.666 143.67C180.892 143.537 181.072 143.35 181.206 143.11C181.339 142.863 181.406 142.57 181.406 142.23ZM189.483 139.46L186.053 147.62H184.563L185.763 144.86L183.543 139.46H185.113L186.543 143.33L187.993 139.46H189.483ZM150.591 159.42C151.231 158.887 151.741 158.443 152.121 158.09C152.501 157.73 152.818 157.357 153.071 156.97C153.324 156.583 153.451 156.203 153.451 155.83C153.451 155.49 153.371 155.223 153.211 155.03C153.051 154.837 152.804 154.74 152.471 154.74C152.138 154.74 151.881 154.853 151.701 155.08C151.521 155.3 151.428 155.603 151.421 155.99H150.061C150.088 155.19 150.324 154.583 150.771 154.17C151.224 153.757 151.798 153.55 152.491 153.55C153.251 153.55 153.834 153.753 154.241 154.16C154.648 154.56 154.851 155.09 154.851 155.75C154.851 156.27 154.711 156.767 154.431 157.24C154.151 157.713 153.831 158.127 153.471 158.48C153.111 158.827 152.641 159.247 152.061 159.74H155.011V160.9H150.071V159.86L150.591 159.42ZM155.913 155.63C155.947 154.963 156.18 154.45 156.613 154.09C157.053 153.723 157.63 153.54 158.343 153.54C158.83 153.54 159.247 153.627 159.593 153.8C159.94 153.967 160.2 154.197 160.373 154.49C160.553 154.777 160.643 155.103 160.643 155.47C160.643 155.89 160.533 156.247 160.313 156.54C160.1 156.827 159.843 157.02 159.543 157.12V157.16C159.93 157.28 160.23 157.493 160.443 157.8C160.663 158.107 160.773 158.5 160.773 158.98C160.773 159.38 160.68 159.737 160.493 160.05C160.313 160.363 160.043 160.61 159.683 160.79C159.33 160.963 158.903 161.05 158.403 161.05C157.65 161.05 157.037 160.86 156.563 160.48C156.09 160.1 155.84 159.54 155.813 158.8H157.173C157.187 159.127 157.297 159.39 157.503 159.59C157.717 159.783 158.007 159.88 158.373 159.88C158.713 159.88 158.973 159.787 159.153 159.6C159.34 159.407 159.433 159.16 159.433 158.86C159.433 158.46 159.307 158.173 159.053 158C158.8 157.827 158.407 157.74 157.873 157.74H157.583V156.59H157.873C158.82 156.59 159.293 156.273 159.293 155.64C159.293 155.353 159.207 155.13 159.033 154.97C158.867 154.81 158.623 154.73 158.303 154.73C157.99 154.73 157.747 154.817 157.573 154.99C157.407 155.157 157.31 155.37 157.283 155.63H155.913ZM168.492 154.02V158.92C168.492 159.6 168.296 160.13 167.902 160.51C167.509 160.883 166.982 161.07 166.322 161.07C165.656 161.07 165.116 160.877 164.702 160.49C164.296 160.103 164.092 159.563 164.092 158.87H165.492C165.499 159.17 165.569 159.403 165.702 159.57C165.842 159.737 166.042 159.82 166.302 159.82C166.556 159.82 166.749 159.74 166.882 159.58C167.016 159.42 167.082 159.2 167.082 158.92V154.02H168.492ZM171.506 154.02V158.34C171.506 158.813 171.629 159.177 171.876 159.43C172.122 159.677 172.469 159.8 172.916 159.8C173.369 159.8 173.719 159.677 173.966 159.43C174.212 159.177 174.336 158.813 174.336 158.34V154.02H175.746V158.33C175.746 158.923 175.616 159.427 175.356 159.84C175.102 160.247 174.759 160.553 174.326 160.76C173.899 160.967 173.422 161.07 172.896 161.07C172.376 161.07 171.902 160.967 171.476 160.76C171.056 160.553 170.722 160.247 170.476 159.84C170.229 159.427 170.106 158.923 170.106 158.33V154.02H171.506ZM183.068 161H181.668L178.498 156.21V161H177.098V154.01H178.498L181.668 158.81V154.01H183.068V161Z" fill="#3454C1"/>
<path d="M228.892 138.02V139.15H227.032V145H225.632V139.15H223.772V138.02H228.892ZM233.034 139.38C233.454 139.38 233.827 139.473 234.154 139.66C234.48 139.84 234.734 140.11 234.914 140.47C235.1 140.823 235.194 141.25 235.194 141.75V145H233.794V141.94C233.794 141.5 233.684 141.163 233.464 140.93C233.244 140.69 232.944 140.57 232.564 140.57C232.177 140.57 231.87 140.69 231.644 140.93C231.424 141.163 231.314 141.5 231.314 141.94V145H229.914V137.6H231.314V140.15C231.494 139.91 231.734 139.723 232.034 139.59C232.334 139.45 232.667 139.38 233.034 139.38ZM241.755 139.46V145H240.345V144.3C240.165 144.54 239.928 144.73 239.635 144.87C239.348 145.003 239.035 145.07 238.695 145.07C238.262 145.07 237.878 144.98 237.545 144.8C237.212 144.613 236.948 144.343 236.755 143.99C236.568 143.63 236.475 143.203 236.475 142.71V139.46H237.875V142.51C237.875 142.95 237.985 143.29 238.205 143.53C238.425 143.763 238.725 143.88 239.105 143.88C239.492 143.88 239.795 143.763 240.015 143.53C240.235 143.29 240.345 142.95 240.345 142.51V139.46H241.755ZM244.536 140.32C244.716 140.027 244.95 139.797 245.236 139.63C245.53 139.463 245.863 139.38 246.236 139.38V140.85H245.866C245.426 140.85 245.093 140.953 244.866 141.16C244.646 141.367 244.536 141.727 244.536 142.24V145H243.136V139.46H244.536V140.32ZM249.299 145.09C248.846 145.09 248.439 145.01 248.079 144.85C247.719 144.683 247.433 144.46 247.219 144.18C247.013 143.9 246.899 143.59 246.879 143.25H248.289C248.316 143.463 248.419 143.64 248.599 143.78C248.786 143.92 249.016 143.99 249.289 143.99C249.556 143.99 249.763 143.937 249.909 143.83C250.063 143.723 250.139 143.587 250.139 143.42C250.139 143.24 250.046 143.107 249.859 143.02C249.679 142.927 249.389 142.827 248.989 142.72C248.576 142.62 248.236 142.517 247.969 142.41C247.709 142.303 247.483 142.14 247.289 141.92C247.103 141.7 247.009 141.403 247.009 141.03C247.009 140.723 247.096 140.443 247.269 140.19C247.449 139.937 247.703 139.737 248.029 139.59C248.363 139.443 248.753 139.37 249.199 139.37C249.859 139.37 250.386 139.537 250.779 139.87C251.173 140.197 251.389 140.64 251.429 141.2H250.089C250.069 140.98 249.976 140.807 249.809 140.68C249.649 140.547 249.433 140.48 249.159 140.48C248.906 140.48 248.709 140.527 248.569 140.62C248.436 140.713 248.369 140.843 248.369 141.01C248.369 141.197 248.463 141.34 248.649 141.44C248.836 141.533 249.126 141.63 249.519 141.73C249.919 141.83 250.249 141.933 250.509 142.04C250.769 142.147 250.993 142.313 251.179 142.54C251.373 142.76 251.473 143.053 251.479 143.42C251.479 143.74 251.389 144.027 251.209 144.28C251.036 144.533 250.783 144.733 250.449 144.88C250.123 145.02 249.739 145.09 249.299 145.09ZM252.268 142.21C252.268 141.65 252.378 141.153 252.598 140.72C252.825 140.287 253.132 139.953 253.518 139.72C253.905 139.487 254.335 139.37 254.808 139.37C255.168 139.37 255.512 139.45 255.838 139.61C256.165 139.763 256.425 139.97 256.618 140.23V137.6H258.038V145H256.618V144.18C256.445 144.453 256.202 144.673 255.888 144.84C255.575 145.007 255.212 145.09 254.798 145.09C254.332 145.09 253.905 144.97 253.518 144.73C253.132 144.49 252.825 144.153 252.598 143.72C252.378 143.28 252.268 142.777 252.268 142.21ZM256.628 142.23C256.628 141.89 256.562 141.6 256.428 141.36C256.295 141.113 256.115 140.927 255.888 140.8C255.662 140.667 255.418 140.6 255.158 140.6C254.898 140.6 254.658 140.663 254.438 140.79C254.218 140.917 254.038 141.103 253.898 141.35C253.765 141.59 253.698 141.877 253.698 142.21C253.698 142.543 253.765 142.837 253.898 143.09C254.038 143.337 254.218 143.527 254.438 143.66C254.665 143.793 254.905 143.86 255.158 143.86C255.418 143.86 255.662 143.797 255.888 143.67C256.115 143.537 256.295 143.35 256.428 143.11C256.562 142.863 256.628 142.57 256.628 142.23ZM259.046 142.21C259.046 141.65 259.156 141.153 259.376 140.72C259.602 140.287 259.906 139.953 260.286 139.72C260.672 139.487 261.102 139.37 261.576 139.37C261.989 139.37 262.349 139.453 262.656 139.62C262.969 139.787 263.219 139.997 263.406 140.25V139.46H264.816V145H263.406V144.19C263.226 144.45 262.976 144.667 262.656 144.84C262.342 145.007 261.979 145.09 261.566 145.09C261.099 145.09 260.672 144.97 260.286 144.73C259.906 144.49 259.602 144.153 259.376 143.72C259.156 143.28 259.046 142.777 259.046 142.21ZM263.406 142.23C263.406 141.89 263.339 141.6 263.206 141.36C263.072 141.113 262.892 140.927 262.666 140.8C262.439 140.667 262.196 140.6 261.936 140.6C261.676 140.6 261.436 140.663 261.216 140.79C260.996 140.917 260.816 141.103 260.676 141.35C260.542 141.59 260.476 141.877 260.476 142.21C260.476 142.543 260.542 142.837 260.676 143.09C260.816 143.337 260.996 143.527 261.216 143.66C261.442 143.793 261.682 143.86 261.936 143.86C262.196 143.86 262.439 143.797 262.666 143.67C262.892 143.537 263.072 143.35 263.206 143.11C263.339 142.863 263.406 142.57 263.406 142.23ZM271.483 139.46L268.053 147.62H266.563L267.763 144.86L265.543 139.46H267.113L268.543 143.33L269.993 139.46H271.483ZM232.591 159.42C233.231 158.887 233.741 158.443 234.121 158.09C234.501 157.73 234.818 157.357 235.071 156.97C235.324 156.583 235.451 156.203 235.451 155.83C235.451 155.49 235.371 155.223 235.211 155.03C235.051 154.837 234.804 154.74 234.471 154.74C234.138 154.74 233.881 154.853 233.701 155.08C233.521 155.3 233.428 155.603 233.421 155.99H232.061C232.088 155.19 232.324 154.583 232.771 154.17C233.224 153.757 233.798 153.55 234.491 153.55C235.251 153.55 235.834 153.753 236.241 154.16C236.648 154.56 236.851 155.09 236.851 155.75C236.851 156.27 236.711 156.767 236.431 157.24C236.151 157.713 235.831 158.127 235.471 158.48C235.111 158.827 234.641 159.247 234.061 159.74H237.011V160.9H232.071V159.86L232.591 159.42ZM237.913 155.63C237.947 154.963 238.18 154.45 238.613 154.09C239.053 153.723 239.63 153.54 240.343 153.54C240.83 153.54 241.247 153.627 241.593 153.8C241.94 153.967 242.2 154.197 242.373 154.49C242.553 154.777 242.643 155.103 242.643 155.47C242.643 155.89 242.533 156.247 242.313 156.54C242.1 156.827 241.843 157.02 241.543 157.12V157.16C241.93 157.28 242.23 157.493 242.443 157.8C242.663 158.107 242.773 158.5 242.773 158.98C242.773 159.38 242.68 159.737 242.493 160.05C242.313 160.363 242.043 160.61 241.683 160.79C241.33 160.963 240.903 161.05 240.403 161.05C239.65 161.05 239.037 160.86 238.563 160.48C238.09 160.1 237.84 159.54 237.813 158.8H239.173C239.187 159.127 239.297 159.39 239.503 159.59C239.717 159.783 240.007 159.88 240.373 159.88C240.713 159.88 240.973 159.787 241.153 159.6C241.34 159.407 241.433 159.16 241.433 158.86C241.433 158.46 241.307 158.173 241.053 158C240.8 157.827 240.407 157.74 239.873 157.74H239.583V156.59H239.873C240.82 156.59 241.293 156.273 241.293 155.64C241.293 155.353 241.207 155.13 241.033 154.97C240.867 154.81 240.623 154.73 240.303 154.73C239.99 154.73 239.747 154.817 239.573 154.99C239.407 155.157 239.31 155.37 239.283 155.63H237.913ZM250.492 154.02V158.92C250.492 159.6 250.296 160.13 249.902 160.51C249.509 160.883 248.982 161.07 248.322 161.07C247.656 161.07 247.116 160.877 246.702 160.49C246.296 160.103 246.092 159.563 246.092 158.87H247.492C247.499 159.17 247.569 159.403 247.702 159.57C247.842 159.737 248.042 159.82 248.302 159.82C248.556 159.82 248.749 159.74 248.882 159.58C249.016 159.42 249.082 159.2 249.082 158.92V154.02H250.492ZM253.506 154.02V158.34C253.506 158.813 253.629 159.177 253.876 159.43C254.122 159.677 254.469 159.8 254.916 159.8C255.369 159.8 255.719 159.677 255.966 159.43C256.212 159.177 256.336 158.813 256.336 158.34V154.02H257.746V158.33C257.746 158.923 257.616 159.427 257.356 159.84C257.102 160.247 256.759 160.553 256.326 160.76C255.899 160.967 255.422 161.07 254.896 161.07C254.376 161.07 253.902 160.967 253.476 160.76C253.056 160.553 252.722 160.247 252.476 159.84C252.229 159.427 252.106 158.923 252.106 158.33V154.02H253.506ZM265.068 161H263.668L260.498 156.21V161H259.098V154.01H260.498L263.668 158.81V154.01H265.068V161Z" fill="#3454C1"/>
<g filter="url(#filter0_d_1614_5368)">
<rect x="47" y="122" width="69" height="54" rx="10" fill="#3454C1" fill-opacity="0.14" shape-rendering="crispEdges"/>
</g>
<g filter="url(#filter1_d_1614_5368)">
<rect x="132" y="122" width="69" height="54" rx="10" fill="#3454C1" fill-opacity="0.14" shape-rendering="crispEdges"/>
</g>
<g filter="url(#filter2_d_1614_5368)">
<rect x="214" y="122" width="69" height="54" rx="10" fill="#3454C1" fill-opacity="0.14" shape-rendering="crispEdges"/>
</g>
<g filter="url(#filter3_d_1614_5368)">
<rect x="47" y="188" width="69" height="56" rx="10" fill="#3454C1"/>
</g>
<path d="M67.3586 204.02V211H65.9586V206.46L64.0886 211H63.0286L61.1486 206.46V211H59.7486V204.02H61.3386L63.5586 209.21L65.7786 204.02H67.3586ZM71.9827 211.07C71.3294 211.07 70.7294 210.917 70.1827 210.61C69.6361 210.303 69.2027 209.88 68.8827 209.34C68.5627 208.793 68.4027 208.177 68.4027 207.49C68.4027 206.81 68.5627 206.2 68.8827 205.66C69.2027 205.113 69.6361 204.687 70.1827 204.38C70.7294 204.073 71.3294 203.92 71.9827 203.92C72.6427 203.92 73.2427 204.073 73.7827 204.38C74.3294 204.687 74.7594 205.113 75.0727 205.66C75.3927 206.2 75.5527 206.81 75.5527 207.49C75.5527 208.177 75.3927 208.793 75.0727 209.34C74.7594 209.88 74.3294 210.303 73.7827 210.61C73.2361 210.917 72.6361 211.07 71.9827 211.07ZM71.9827 209.82C72.4027 209.82 72.7727 209.727 73.0927 209.54C73.4127 209.347 73.6627 209.073 73.8427 208.72C74.0227 208.367 74.1127 207.957 74.1127 207.49C74.1127 207.023 74.0227 206.617 73.8427 206.27C73.6627 205.917 73.4127 205.647 73.0927 205.46C72.7727 205.273 72.4027 205.18 71.9827 205.18C71.5627 205.18 71.1894 205.273 70.8627 205.46C70.5427 205.647 70.2927 205.917 70.1127 206.27C69.9327 206.617 69.8427 207.023 69.8427 207.49C69.8427 207.957 69.9327 208.367 70.1127 208.72C70.2927 209.073 70.5427 209.347 70.8627 209.54C71.1894 209.727 71.5627 209.82 71.9827 209.82ZM82.5643 211H81.1643L77.9943 206.21V211H76.5943V204.01H77.9943L81.1643 208.81V204.01H82.5643V211ZM86.3878 204.02C87.1211 204.02 87.7645 204.163 88.3178 204.45C88.8778 204.737 89.3078 205.147 89.6078 205.68C89.9145 206.207 90.0678 206.82 90.0678 207.52C90.0678 208.22 89.9145 208.833 89.6078 209.36C89.3078 209.88 88.8778 210.283 88.3178 210.57C87.7645 210.857 87.1211 211 86.3878 211H83.9478V204.02H86.3878ZM86.3378 209.81C87.0711 209.81 87.6378 209.61 88.0378 209.21C88.4378 208.81 88.6378 208.247 88.6378 207.52C88.6378 206.793 88.4378 206.227 88.0378 205.82C87.6378 205.407 87.0711 205.2 86.3378 205.2H85.3478V209.81H86.3378ZM95.3958 209.67H92.6158L92.1558 211H90.6858L93.1958 204.01H94.8258L97.3358 211H95.8558L95.3958 209.67ZM95.0158 208.55L94.0058 205.63L92.9958 208.55H95.0158ZM103.824 204.02L101.464 208.57V211H100.064V208.57L97.694 204.02H99.274L100.774 207.21L102.264 204.02H103.824ZM66.5911 225.42C67.2311 224.887 67.7411 224.443 68.1211 224.09C68.5011 223.73 68.8178 223.357 69.0711 222.97C69.3244 222.583 69.4511 222.203 69.4511 221.83C69.4511 221.49 69.3711 221.223 69.2111 221.03C69.0511 220.837 68.8044 220.74 68.4711 220.74C68.1378 220.74 67.8811 220.853 67.7011 221.08C67.5211 221.3 67.4278 221.603 67.4211 221.99H66.0611C66.0878 221.19 66.3244 220.583 66.7711 220.17C67.2244 219.757 67.7978 219.55 68.4911 219.55C69.2511 219.55 69.8344 219.753 70.2411 220.16C70.6478 220.56 70.8511 221.09 70.8511 221.75C70.8511 222.27 70.7111 222.767 70.4311 223.24C70.1511 223.713 69.8311 224.127 69.4711 224.48C69.1111 224.827 68.6411 225.247 68.0611 225.74H71.0111V226.9H66.0711V225.86L66.5911 225.42ZM71.9133 221.63C71.9466 220.963 72.1799 220.45 72.6133 220.09C73.0533 219.723 73.6299 219.54 74.3433 219.54C74.8299 219.54 75.2466 219.627 75.5933 219.8C75.9399 219.967 76.1999 220.197 76.3733 220.49C76.5533 220.777 76.6433 221.103 76.6433 221.47C76.6433 221.89 76.5333 222.247 76.3133 222.54C76.0999 222.827 75.8433 223.02 75.5433 223.12V223.16C75.9299 223.28 76.2299 223.493 76.4433 223.8C76.6633 224.107 76.7733 224.5 76.7733 224.98C76.7733 225.38 76.6799 225.737 76.4933 226.05C76.3133 226.363 76.0433 226.61 75.6833 226.79C75.3299 226.963 74.9033 227.05 74.4033 227.05C73.6499 227.05 73.0366 226.86 72.5633 226.48C72.0899 226.1 71.8399 225.54 71.8133 224.8H73.1733C73.1866 225.127 73.2966 225.39 73.5033 225.59C73.7166 225.783 74.0066 225.88 74.3733 225.88C74.7133 225.88 74.9733 225.787 75.1533 225.6C75.3399 225.407 75.4333 225.16 75.4333 224.86C75.4333 224.46 75.3066 224.173 75.0533 224C74.7999 223.827 74.4066 223.74 73.8733 223.74H73.5833V222.59H73.8733C74.8199 222.59 75.2933 222.273 75.2933 221.64C75.2933 221.353 75.2066 221.13 75.0333 220.97C74.8666 220.81 74.6233 220.73 74.3033 220.73C73.9899 220.73 73.7466 220.817 73.5733 220.99C73.4066 221.157 73.3099 221.37 73.2833 221.63H71.9133ZM84.4924 220.02V224.92C84.4924 225.6 84.2958 226.13 83.9024 226.51C83.5091 226.883 82.9824 227.07 82.3224 227.07C81.6558 227.07 81.1158 226.877 80.7024 226.49C80.2958 226.103 80.0924 225.563 80.0924 224.87H81.4924C81.4991 225.17 81.5691 225.403 81.7024 225.57C81.8424 225.737 82.0424 225.82 82.3024 225.82C82.5558 225.82 82.7491 225.74 82.8824 225.58C83.0158 225.42 83.0824 225.2 83.0824 224.92V220.02H84.4924ZM87.5055 220.02V224.34C87.5055 224.813 87.6289 225.177 87.8755 225.43C88.1222 225.677 88.4689 225.8 88.9155 225.8C89.3689 225.8 89.7189 225.677 89.9655 225.43C90.2122 225.177 90.3355 224.813 90.3355 224.34V220.02H91.7455V224.33C91.7455 224.923 91.6155 225.427 91.3555 225.84C91.1022 226.247 90.7589 226.553 90.3255 226.76C89.8989 226.967 89.4222 227.07 88.8955 227.07C88.3755 227.07 87.9022 226.967 87.4755 226.76C87.0555 226.553 86.7222 226.247 86.4755 225.84C86.2289 225.427 86.1055 224.923 86.1055 224.33V220.02H87.5055ZM99.0682 227H97.6682L94.4982 222.21V227H93.0982V220.01H94.4982L97.6682 224.81V220.01H99.0682V227Z" fill="white"/>
<rect x="28.75" y="296.75" width="78.5" height="25.5" rx="12.75" fill="#EAEAEA" stroke="#E2E2E2" stroke-width="1.5"/>
<rect x="28" y="338" width="80" height="26" rx="13" fill="#3454C1"/>
<rect x="124.75" y="296.75" width="78.5" height="25.5" rx="12.75" fill="white" stroke="#3454C1" stroke-width="1.5"/>
<rect x="124.75" y="338.75" width="78.5" height="24.5" rx="12.25" fill="white" stroke="#3454C1" stroke-width="1.5"/>
<rect x="220.75" y="296.75" width="78.5" height="25.5" rx="12.75" fill="white" stroke="#3454C1" stroke-width="1.5"/>
<rect x="220.75" y="338.75" width="78.5" height="24.5" rx="12.25" fill="white" stroke="#3454C1" stroke-width="1.5"/>
<path d="M46.7415 304.153C47.1307 304.156 47.5142 304.227 47.892 304.366C48.2699 304.506 48.6108 304.733 48.9148 305.048C49.2216 305.364 49.4659 305.79 49.6477 306.327C49.8324 306.861 49.9261 307.526 49.929 308.321C49.929 309.085 49.8523 309.766 49.6989 310.362C49.5455 310.956 49.3253 311.457 49.0384 311.866C48.7543 312.276 48.4091 312.587 48.0028 312.8C47.5966 313.013 47.1392 313.119 46.6307 313.119C46.1108 313.119 45.6491 313.017 45.2457 312.812C44.8423 312.608 44.5142 312.325 44.2614 311.964C44.0085 311.601 43.8509 311.183 43.7884 310.712H45.0881C45.1733 311.087 45.3466 311.391 45.608 311.624C45.8722 311.854 46.2131 311.969 46.6307 311.969C47.2699 311.969 47.7685 311.69 48.1264 311.134C48.4844 310.574 48.6648 309.793 48.6676 308.79H48.5994C48.4517 309.034 48.267 309.244 48.0455 309.42C47.8267 309.597 47.581 309.733 47.3082 309.83C47.0355 309.926 46.7443 309.974 46.4347 309.974C45.9318 309.974 45.4744 309.851 45.0625 309.604C44.6506 309.357 44.3224 309.017 44.0781 308.585C43.8338 308.153 43.7116 307.661 43.7116 307.107C43.7116 306.555 43.8366 306.055 44.0866 305.607C44.3395 305.158 44.6918 304.803 45.1435 304.541C45.598 304.277 46.1307 304.148 46.7415 304.153ZM46.7457 305.261C46.4134 305.261 46.1136 305.344 45.8466 305.509C45.5824 305.67 45.3736 305.891 45.2202 306.169C45.0668 306.445 44.9901 306.751 44.9901 307.089C44.9901 307.428 45.0639 307.734 45.2116 308.01C45.3622 308.283 45.5668 308.5 45.8253 308.662C46.0866 308.821 46.3849 308.901 46.7202 308.901C46.9702 308.901 47.2031 308.852 47.419 308.756C47.6349 308.659 47.8239 308.526 47.9858 308.355C48.1477 308.182 48.2741 307.986 48.3651 307.767C48.456 307.548 48.5014 307.318 48.5014 307.077C48.5014 306.756 48.4247 306.457 48.2713 306.182C48.1207 305.906 47.9134 305.685 47.6491 305.517C47.3849 305.347 47.0838 305.261 46.7457 305.261ZM51.8249 311.918C51.592 311.918 51.3917 311.835 51.2241 311.67C51.0565 311.503 50.9727 311.301 50.9727 311.065C50.9727 310.832 51.0565 310.634 51.2241 310.469C51.3917 310.301 51.592 310.217 51.8249 310.217C52.0579 310.217 52.2582 310.301 52.4258 310.469C52.5934 310.634 52.6772 310.832 52.6772 311.065C52.6772 311.222 52.6374 311.365 52.5579 311.496C52.4812 311.624 52.3789 311.726 52.2511 311.803C52.1232 311.879 51.9812 311.918 51.8249 311.918ZM51.8249 307.545C51.592 307.545 51.3917 307.463 51.2241 307.298C51.0565 307.131 50.9727 306.929 50.9727 306.693C50.9727 306.46 51.0565 306.261 51.2241 306.097C51.3917 305.929 51.592 305.845 51.8249 305.845C52.0579 305.845 52.2582 305.929 52.4258 306.097C52.5934 306.261 52.6772 306.46 52.6772 306.693C52.6772 306.849 52.6374 306.993 52.5579 307.124C52.4812 307.251 52.3789 307.354 52.2511 307.43C52.1232 307.507 51.9812 307.545 51.8249 307.545ZM59.581 313.145C58.9077 313.142 58.3324 312.964 57.8551 312.612C57.3778 312.26 57.0128 311.747 56.7599 311.074C56.5071 310.401 56.3807 309.589 56.3807 308.641C56.3807 307.695 56.5071 306.886 56.7599 306.216C57.0156 305.545 57.3821 305.034 57.8594 304.682C58.3395 304.33 58.9134 304.153 59.581 304.153C60.2486 304.153 60.821 304.331 61.2983 304.686C61.7756 305.038 62.1406 305.55 62.3935 306.22C62.6491 306.888 62.777 307.695 62.777 308.641C62.777 309.592 62.6506 310.405 62.3977 311.078C62.1449 311.749 61.7798 312.261 61.3026 312.616C60.8253 312.969 60.2514 313.145 59.581 313.145ZM59.581 312.007C60.1719 312.007 60.6335 311.719 60.9659 311.142C61.3011 310.565 61.4688 309.732 61.4688 308.641C61.4688 307.916 61.392 307.304 61.2386 306.804C61.0881 306.301 60.8707 305.92 60.5866 305.662C60.3054 305.401 59.9702 305.27 59.581 305.27C58.9929 305.27 58.5313 305.56 58.196 306.139C57.8608 306.719 57.6918 307.553 57.6889 308.641C57.6889 309.368 57.7642 309.983 57.9148 310.486C58.0682 310.986 58.2855 311.365 58.5668 311.624C58.848 311.879 59.1861 312.007 59.581 312.007ZM66.8271 313.145C66.1538 313.142 65.5785 312.964 65.1012 312.612C64.6239 312.26 64.2589 311.747 64.006 311.074C63.7532 310.401 63.6268 309.589 63.6268 308.641C63.6268 307.695 63.7532 306.886 64.006 306.216C64.2617 305.545 64.6282 305.034 65.1055 304.682C65.5856 304.33 66.1594 304.153 66.8271 304.153C67.4947 304.153 68.0671 304.331 68.5444 304.686C69.0217 305.038 69.3867 305.55 69.6396 306.22C69.8952 306.888 70.0231 307.695 70.0231 308.641C70.0231 309.592 69.8967 310.405 69.6438 311.078C69.391 311.749 69.0259 312.261 68.5487 312.616C68.0714 312.969 67.4975 313.145 66.8271 313.145ZM66.8271 312.007C67.418 312.007 67.8796 311.719 68.212 311.142C68.5472 310.565 68.7148 309.732 68.7148 308.641C68.7148 307.916 68.6381 307.304 68.4847 306.804C68.3342 306.301 68.1168 305.92 67.8327 305.662C67.5515 305.401 67.2163 305.27 66.8271 305.27C66.239 305.27 65.7773 305.56 65.4421 306.139C65.1069 306.719 64.9379 307.553 64.935 308.641C64.935 309.368 65.0103 309.983 65.1609 310.486C65.3143 310.986 65.5316 311.365 65.8129 311.624C66.0941 311.879 66.4322 312.007 66.8271 312.007ZM74.5671 313H73.1694L76.31 304.273H77.8313L80.9719 313H79.5742L77.1069 305.858H77.0387L74.5671 313ZM74.8015 309.582H79.3356V310.69H74.8015V309.582ZM81.7322 304.273H83.3303L86.1087 311.057H86.2109L88.9893 304.273H90.5874V313H89.3345V306.685H89.2536L86.6797 312.987H85.6399L83.0661 306.68H82.9851V313H81.7322V304.273Z" fill="#A1A1A1"/>
<path d="M47.1506 346.273V355H45.8295V347.594H45.7784L43.6903 348.957V347.696L45.8679 346.273H47.1506ZM52.0497 355.145C51.3764 355.142 50.8011 354.964 50.3239 354.612C49.8466 354.26 49.4815 353.747 49.2287 353.074C48.9759 352.401 48.8494 351.589 48.8494 350.641C48.8494 349.695 48.9759 348.886 49.2287 348.216C49.4844 347.545 49.8509 347.034 50.3281 346.682C50.8082 346.33 51.3821 346.153 52.0497 346.153C52.7173 346.153 53.2898 346.331 53.767 346.686C54.2443 347.038 54.6094 347.55 54.8622 348.22C55.1179 348.888 55.2457 349.695 55.2457 350.641C55.2457 351.592 55.1193 352.405 54.8665 353.078C54.6136 353.749 54.2486 354.261 53.7713 354.616C53.294 354.969 52.7202 355.145 52.0497 355.145ZM52.0497 354.007C52.6406 354.007 53.1023 353.719 53.4347 353.142C53.7699 352.565 53.9375 351.732 53.9375 350.641C53.9375 349.916 53.8608 349.304 53.7074 348.804C53.5568 348.301 53.3395 347.92 53.0554 347.662C52.7741 347.401 52.4389 347.27 52.0497 347.27C51.4616 347.27 51 347.56 50.6648 348.139C50.3295 348.719 50.1605 349.553 50.1577 350.641C50.1577 351.368 50.233 351.983 50.3835 352.486C50.5369 352.986 50.7543 353.365 51.0355 353.624C51.3168 353.879 51.6548 354.007 52.0497 354.007ZM57.114 353.918C56.881 353.918 56.6808 353.835 56.5131 353.67C56.3455 353.503 56.2617 353.301 56.2617 353.065C56.2617 352.832 56.3455 352.634 56.5131 352.469C56.6808 352.301 56.881 352.217 57.114 352.217C57.3469 352.217 57.5472 352.301 57.7148 352.469C57.8825 352.634 57.9663 352.832 57.9663 353.065C57.9663 353.222 57.9265 353.365 57.8469 353.496C57.7702 353.624 57.668 353.726 57.5401 353.803C57.4123 353.879 57.2702 353.918 57.114 353.918ZM57.114 349.545C56.881 349.545 56.6808 349.463 56.5131 349.298C56.3455 349.131 56.2617 348.929 56.2617 348.693C56.2617 348.46 56.3455 348.261 56.5131 348.097C56.6808 347.929 56.881 347.845 57.114 347.845C57.3469 347.845 57.5472 347.929 57.7148 348.097C57.8825 348.261 57.9663 348.46 57.9663 348.693C57.9663 348.849 57.9265 348.993 57.8469 349.124C57.7702 349.251 57.668 349.354 57.5401 349.43C57.4123 349.507 57.2702 349.545 57.114 349.545ZM64.87 355.119C64.2848 355.119 63.7621 355.018 63.3018 354.817C62.8445 354.615 62.4822 354.335 62.2152 353.977C61.951 353.616 61.8089 353.199 61.7891 352.724H63.1271C63.1442 352.983 63.2308 353.207 63.3871 353.398C63.5462 353.585 63.7536 353.73 64.0092 353.832C64.2649 353.935 64.549 353.986 64.8615 353.986C65.2053 353.986 65.5092 353.926 65.7734 353.807C66.0405 353.687 66.2493 353.521 66.3999 353.308C66.5504 353.092 66.6257 352.844 66.6257 352.562C66.6257 352.27 66.5504 352.013 66.3999 351.791C66.2521 351.567 66.0348 351.391 65.7479 351.263C65.4638 351.135 65.12 351.071 64.7166 351.071H63.9794V349.997H64.7166C65.0405 349.997 65.3246 349.939 65.5689 349.822C65.8161 349.706 66.0092 349.544 66.1484 349.337C66.2876 349.126 66.3572 348.881 66.3572 348.599C66.3572 348.33 66.2962 348.095 66.174 347.896C66.0547 347.695 65.8842 347.537 65.6626 347.423C65.4439 347.31 65.1854 347.253 64.8871 347.253C64.603 347.253 64.3374 347.305 64.0902 347.411C63.8459 347.513 63.647 347.661 63.4936 347.854C63.3402 348.044 63.2578 348.273 63.2464 348.54H61.9723C61.9865 348.068 62.1257 347.653 62.3899 347.295C62.657 346.937 63.0092 346.658 63.4467 346.456C63.8842 346.254 64.37 346.153 64.9041 346.153C65.4638 346.153 65.9467 346.263 66.353 346.482C66.7621 346.697 67.0774 346.986 67.299 347.347C67.5234 347.707 67.6342 348.102 67.6314 348.531C67.6342 349.02 67.4979 349.435 67.2223 349.776C66.9496 350.116 66.5859 350.345 66.1314 350.462V350.53C66.7109 350.618 67.1598 350.848 67.478 351.22C67.799 351.592 67.9581 352.054 67.9553 352.605C67.9581 353.085 67.8246 353.516 67.5547 353.896C67.2876 354.277 66.9226 354.577 66.4595 354.795C65.9964 355.011 65.4666 355.119 64.87 355.119ZM72.1044 355.145C71.4311 355.142 70.8558 354.964 70.3786 354.612C69.9013 354.26 69.5362 353.747 69.2834 353.074C69.0305 352.401 68.9041 351.589 68.9041 350.641C68.9041 349.695 69.0305 348.886 69.2834 348.216C69.5391 347.545 69.9055 347.034 70.3828 346.682C70.8629 346.33 71.4368 346.153 72.1044 346.153C72.772 346.153 73.3445 346.331 73.8217 346.686C74.299 347.038 74.6641 347.55 74.9169 348.22C75.1726 348.888 75.3004 349.695 75.3004 350.641C75.3004 351.592 75.174 352.405 74.9212 353.078C74.6683 353.749 74.3033 354.261 73.826 354.616C73.3487 354.969 72.7749 355.145 72.1044 355.145ZM72.1044 354.007C72.6953 354.007 73.157 353.719 73.4893 353.142C73.8246 352.565 73.9922 351.732 73.9922 350.641C73.9922 349.916 73.9155 349.304 73.7621 348.804C73.6115 348.301 73.3942 347.92 73.1101 347.662C72.8288 347.401 72.4936 347.27 72.1044 347.27C71.5163 347.27 71.0547 347.56 70.7195 348.139C70.3842 348.719 70.2152 349.553 70.2124 350.641C70.2124 351.368 70.2876 351.983 70.4382 352.486C70.5916 352.986 70.8089 353.365 71.0902 353.624C71.3714 353.879 71.7095 354.007 72.1044 354.007ZM79.8445 355H78.4467L81.5874 346.273H83.1087L86.2493 355H84.8516L82.3842 347.858H82.3161L79.8445 355ZM80.0788 351.582H84.6129V352.69H80.0788V351.582ZM87.0096 346.273H88.6076L91.386 353.057H91.4883L94.2667 346.273H95.8647V355H94.6119V348.685H94.5309L91.957 354.987H90.9173L88.3434 348.68H88.2624V355H87.0096V346.273Z" fill="white"/>
<path d="M143.741 304.153C144.131 304.156 144.514 304.227 144.892 304.366C145.27 304.506 145.611 304.733 145.915 305.048C146.222 305.364 146.466 305.79 146.648 306.327C146.832 306.861 146.926 307.526 146.929 308.321C146.929 309.085 146.852 309.766 146.699 310.362C146.545 310.956 146.325 311.457 146.038 311.866C145.754 312.276 145.409 312.587 145.003 312.8C144.597 313.013 144.139 313.119 143.631 313.119C143.111 313.119 142.649 313.017 142.246 312.812C141.842 312.608 141.514 312.325 141.261 311.964C141.009 311.601 140.851 311.183 140.788 310.712H142.088C142.173 311.087 142.347 311.391 142.608 311.624C142.872 311.854 143.213 311.969 143.631 311.969C144.27 311.969 144.768 311.69 145.126 311.134C145.484 310.574 145.665 309.793 145.668 308.79H145.599C145.452 309.034 145.267 309.244 145.045 309.42C144.827 309.597 144.581 309.733 144.308 309.83C144.036 309.926 143.744 309.974 143.435 309.974C142.932 309.974 142.474 309.851 142.062 309.604C141.651 309.357 141.322 309.017 141.078 308.585C140.834 308.153 140.712 307.661 140.712 307.107C140.712 306.555 140.837 306.055 141.087 305.607C141.339 305.158 141.692 304.803 142.143 304.541C142.598 304.277 143.131 304.148 143.741 304.153ZM143.746 305.261C143.413 305.261 143.114 305.344 142.847 305.509C142.582 305.67 142.374 305.891 142.22 306.169C142.067 306.445 141.99 306.751 141.99 307.089C141.99 307.428 142.064 307.734 142.212 308.01C142.362 308.283 142.567 308.5 142.825 308.662C143.087 308.821 143.385 308.901 143.72 308.901C143.97 308.901 144.203 308.852 144.419 308.756C144.635 308.659 144.824 308.526 144.986 308.355C145.148 308.182 145.274 307.986 145.365 307.767C145.456 307.548 145.501 307.318 145.501 307.077C145.501 306.756 145.425 306.457 145.271 306.182C145.121 305.906 144.913 305.685 144.649 305.517C144.385 305.347 144.084 305.261 143.746 305.261ZM148.825 311.918C148.592 311.918 148.392 311.835 148.224 311.67C148.056 311.503 147.973 311.301 147.973 311.065C147.973 310.832 148.056 310.634 148.224 310.469C148.392 310.301 148.592 310.217 148.825 310.217C149.058 310.217 149.258 310.301 149.426 310.469C149.593 310.634 149.677 310.832 149.677 311.065C149.677 311.222 149.637 311.365 149.558 311.496C149.481 311.624 149.379 311.726 149.251 311.803C149.123 311.879 148.981 311.918 148.825 311.918ZM148.825 307.545C148.592 307.545 148.392 307.463 148.224 307.298C148.056 307.131 147.973 306.929 147.973 306.693C147.973 306.46 148.056 306.261 148.224 306.097C148.392 305.929 148.592 305.845 148.825 305.845C149.058 305.845 149.258 305.929 149.426 306.097C149.593 306.261 149.677 306.46 149.677 306.693C149.677 306.849 149.637 306.993 149.558 307.124C149.481 307.251 149.379 307.354 149.251 307.43C149.123 307.507 148.981 307.545 148.825 307.545ZM156.581 313.119C155.996 313.119 155.473 313.018 155.013 312.817C154.555 312.615 154.193 312.335 153.926 311.977C153.662 311.616 153.52 311.199 153.5 310.724H154.838C154.855 310.983 154.942 311.207 155.098 311.398C155.257 311.585 155.464 311.73 155.72 311.832C155.976 311.935 156.26 311.986 156.572 311.986C156.916 311.986 157.22 311.926 157.484 311.807C157.751 311.687 157.96 311.521 158.111 311.308C158.261 311.092 158.337 310.844 158.337 310.562C158.337 310.27 158.261 310.013 158.111 309.791C157.963 309.567 157.746 309.391 157.459 309.263C157.175 309.135 156.831 309.071 156.428 309.071H155.69V307.997H156.428C156.751 307.997 157.036 307.939 157.28 307.822C157.527 307.706 157.72 307.544 157.859 307.337C157.999 307.126 158.068 306.881 158.068 306.599C158.068 306.33 158.007 306.095 157.885 305.896C157.766 305.695 157.595 305.537 157.374 305.423C157.155 305.31 156.896 305.253 156.598 305.253C156.314 305.253 156.048 305.305 155.801 305.411C155.557 305.513 155.358 305.661 155.205 305.854C155.051 306.044 154.969 306.273 154.957 306.54H153.683C153.697 306.068 153.837 305.653 154.101 305.295C154.368 304.937 154.72 304.658 155.158 304.456C155.595 304.254 156.081 304.153 156.615 304.153C157.175 304.153 157.658 304.263 158.064 304.482C158.473 304.697 158.788 304.986 159.01 305.347C159.234 305.707 159.345 306.102 159.342 306.531C159.345 307.02 159.209 307.435 158.933 307.776C158.661 308.116 158.297 308.345 157.842 308.462V308.53C158.422 308.618 158.871 308.848 159.189 309.22C159.51 309.592 159.669 310.054 159.666 310.605C159.669 311.085 159.536 311.516 159.266 311.896C158.999 312.277 158.634 312.577 158.17 312.795C157.707 313.011 157.178 313.119 156.581 313.119ZM163.815 313.145C163.142 313.142 162.567 312.964 162.089 312.612C161.612 312.26 161.247 311.747 160.994 311.074C160.741 310.401 160.615 309.589 160.615 308.641C160.615 307.695 160.741 306.886 160.994 306.216C161.25 305.545 161.616 305.034 162.094 304.682C162.574 304.33 163.148 304.153 163.815 304.153C164.483 304.153 165.055 304.331 165.533 304.686C166.01 305.038 166.375 305.55 166.628 306.22C166.884 306.888 167.011 307.695 167.011 308.641C167.011 309.592 166.885 310.405 166.632 311.078C166.379 311.749 166.014 312.261 165.537 312.616C165.06 312.969 164.486 313.145 163.815 313.145ZM163.815 312.007C164.406 312.007 164.868 311.719 165.2 311.142C165.536 310.565 165.703 309.732 165.703 308.641C165.703 307.916 165.626 307.304 165.473 306.804C165.322 306.301 165.105 305.92 164.821 305.662C164.54 305.401 164.205 305.27 163.815 305.27C163.227 305.27 162.766 305.56 162.43 306.139C162.095 306.719 161.926 307.553 161.923 308.641C161.923 309.368 161.999 309.983 162.149 310.486C162.303 310.986 162.52 311.365 162.801 311.624C163.082 311.879 163.42 312.007 163.815 312.007ZM171.555 313H170.158L173.298 304.273H174.82L177.96 313H176.562L174.095 305.858H174.027L171.555 313ZM171.79 309.582H176.324V310.69H171.79V309.582ZM178.721 304.273H180.319L183.097 311.057H183.199L185.978 304.273H187.576V313H186.323V306.685H186.242L183.668 312.987H182.628L180.054 306.68H179.973V313H178.721V304.273Z" fill="#3454C1"/>
<path d="M144.151 346.273V355H142.83V347.594H142.778L140.69 348.957V347.696L142.868 346.273H144.151ZM149.322 346.273V355H148.001V347.594H147.95L145.862 348.957V347.696L148.04 346.273H149.322ZM152.04 353.918C151.807 353.918 151.607 353.835 151.439 353.67C151.271 353.503 151.188 353.301 151.188 353.065C151.188 352.832 151.271 352.634 151.439 352.469C151.607 352.301 151.807 352.217 152.04 352.217C152.273 352.217 152.473 352.301 152.641 352.469C152.808 352.634 152.892 352.832 152.892 353.065C152.892 353.222 152.852 353.365 152.773 353.496C152.696 353.624 152.594 353.726 152.466 353.803C152.338 353.879 152.196 353.918 152.04 353.918ZM152.04 349.545C151.807 349.545 151.607 349.463 151.439 349.298C151.271 349.131 151.188 348.929 151.188 348.693C151.188 348.46 151.271 348.261 151.439 348.097C151.607 347.929 151.807 347.845 152.04 347.845C152.273 347.845 152.473 347.929 152.641 348.097C152.808 348.261 152.892 348.46 152.892 348.693C152.892 348.849 152.852 348.993 152.773 349.124C152.696 349.251 152.594 349.354 152.466 349.43C152.338 349.507 152.196 349.545 152.04 349.545ZM159.796 355.145C159.123 355.142 158.547 354.964 158.07 354.612C157.593 354.26 157.228 353.747 156.975 353.074C156.722 352.401 156.596 351.589 156.596 350.641C156.596 349.695 156.722 348.886 156.975 348.216C157.23 347.545 157.597 347.034 158.074 346.682C158.554 346.33 159.128 346.153 159.796 346.153C160.463 346.153 161.036 346.331 161.513 346.686C161.99 347.038 162.355 347.55 162.608 348.22C162.864 348.888 162.992 349.695 162.992 350.641C162.992 351.592 162.865 352.405 162.613 353.078C162.36 353.749 161.995 354.261 161.517 354.616C161.04 354.969 160.466 355.145 159.796 355.145ZM159.796 354.007C160.387 354.007 160.848 353.719 161.181 353.142C161.516 352.565 161.684 351.732 161.684 350.641C161.684 349.916 161.607 349.304 161.453 348.804C161.303 348.301 161.086 347.92 160.801 347.662C160.52 347.401 160.185 347.27 159.796 347.27C159.208 347.27 158.746 347.56 158.411 348.139C158.076 348.719 157.907 349.553 157.904 350.641C157.904 351.368 157.979 351.983 158.13 352.486C158.283 352.986 158.5 353.365 158.782 353.624C159.063 353.879 159.401 354.007 159.796 354.007ZM167.042 355.145C166.369 355.142 165.793 354.964 165.316 354.612C164.839 354.26 164.474 353.747 164.221 353.074C163.968 352.401 163.842 351.589 163.842 350.641C163.842 349.695 163.968 348.886 164.221 348.216C164.477 347.545 164.843 347.034 165.32 346.682C165.8 346.33 166.374 346.153 167.042 346.153C167.71 346.153 168.282 346.331 168.759 346.686C169.237 347.038 169.602 347.55 169.854 348.22C170.11 348.888 170.238 349.695 170.238 350.641C170.238 351.592 170.112 352.405 169.859 353.078C169.606 353.749 169.241 354.261 168.763 354.616C168.286 354.969 167.712 355.145 167.042 355.145ZM167.042 354.007C167.633 354.007 168.094 353.719 168.427 353.142C168.762 352.565 168.93 351.732 168.93 350.641C168.93 349.916 168.853 349.304 168.7 348.804C168.549 348.301 168.332 347.92 168.048 347.662C167.766 347.401 167.431 347.27 167.042 347.27C166.454 347.27 165.992 347.56 165.657 348.139C165.322 348.719 165.153 349.553 165.15 350.641C165.15 351.368 165.225 351.983 165.376 352.486C165.529 352.986 165.746 353.365 166.028 353.624C166.309 353.879 166.647 354.007 167.042 354.007ZM174.782 355H173.384L176.525 346.273H178.046L181.187 355H179.789L177.322 347.858H177.254L174.782 355ZM175.016 351.582H179.55V352.69H175.016V351.582ZM181.947 346.273H183.545L186.324 353.057H186.426L189.204 346.273H190.802V355H189.549V348.685H189.468L186.895 354.987H185.855L183.281 348.68H183.2V355H181.947V346.273Z" fill="#3454C1"/>
<path d="M237.151 304.273V313H235.83V305.594H235.778L233.69 306.957V305.696L235.868 304.273H237.151ZM242.05 313.145C241.376 313.142 240.801 312.964 240.324 312.612C239.847 312.26 239.482 311.747 239.229 311.074C238.976 310.401 238.849 309.589 238.849 308.641C238.849 307.695 238.976 306.886 239.229 306.216C239.484 305.545 239.851 305.034 240.328 304.682C240.808 304.33 241.382 304.153 242.05 304.153C242.717 304.153 243.29 304.331 243.767 304.686C244.244 305.038 244.609 305.55 244.862 306.22C245.118 306.888 245.246 307.695 245.246 308.641C245.246 309.592 245.119 310.405 244.866 311.078C244.614 311.749 244.249 312.261 243.771 312.616C243.294 312.969 242.72 313.145 242.05 313.145ZM242.05 312.007C242.641 312.007 243.102 311.719 243.435 311.142C243.77 310.565 243.938 309.732 243.938 308.641C243.938 307.916 243.861 307.304 243.707 306.804C243.557 306.301 243.339 305.92 243.055 305.662C242.774 305.401 242.439 305.27 242.05 305.27C241.462 305.27 241 305.56 240.665 306.139C240.33 306.719 240.161 307.553 240.158 308.641C240.158 309.368 240.233 309.983 240.384 310.486C240.537 310.986 240.754 311.365 241.036 311.624C241.317 311.879 241.655 312.007 242.05 312.007ZM247.114 311.918C246.881 311.918 246.681 311.835 246.513 311.67C246.346 311.503 246.262 311.301 246.262 311.065C246.262 310.832 246.346 310.634 246.513 310.469C246.681 310.301 246.881 310.217 247.114 310.217C247.347 310.217 247.547 310.301 247.715 310.469C247.882 310.634 247.966 310.832 247.966 311.065C247.966 311.222 247.926 311.365 247.847 311.496C247.77 311.624 247.668 311.726 247.54 311.803C247.412 311.879 247.27 311.918 247.114 311.918ZM247.114 307.545C246.881 307.545 246.681 307.463 246.513 307.298C246.346 307.131 246.262 306.929 246.262 306.693C246.262 306.46 246.346 306.261 246.513 306.097C246.681 305.929 246.881 305.845 247.114 305.845C247.347 305.845 247.547 305.929 247.715 306.097C247.882 306.261 247.966 306.46 247.966 306.693C247.966 306.849 247.926 306.993 247.847 307.124C247.77 307.251 247.668 307.354 247.54 307.43C247.412 307.507 247.27 307.545 247.114 307.545ZM254.87 313.145C254.197 313.142 253.621 312.964 253.144 312.612C252.667 312.26 252.302 311.747 252.049 311.074C251.796 310.401 251.67 309.589 251.67 308.641C251.67 307.695 251.796 306.886 252.049 306.216C252.305 305.545 252.671 305.034 253.148 304.682C253.629 304.33 254.202 304.153 254.87 304.153C255.538 304.153 256.11 304.331 256.587 304.686C257.065 305.038 257.43 305.55 257.683 306.22C257.938 306.888 258.066 307.695 258.066 308.641C258.066 309.592 257.94 310.405 257.687 311.078C257.434 311.749 257.069 312.261 256.592 312.616C256.114 312.969 255.54 313.145 254.87 313.145ZM254.87 312.007C255.461 312.007 255.923 311.719 256.255 311.142C256.59 310.565 256.758 309.732 256.758 308.641C256.758 307.916 256.681 307.304 256.528 306.804C256.377 306.301 256.16 305.92 255.876 305.662C255.594 305.401 255.259 305.27 254.87 305.27C254.282 305.27 253.82 305.56 253.485 306.139C253.15 306.719 252.981 307.553 252.978 308.641C252.978 309.368 253.053 309.983 253.204 310.486C253.357 310.986 253.575 311.365 253.856 311.624C254.137 311.879 254.475 312.007 254.87 312.007ZM262.116 313.145C261.443 313.142 260.868 312.964 260.39 312.612C259.913 312.26 259.548 311.747 259.295 311.074C259.042 310.401 258.916 309.589 258.916 308.641C258.916 307.695 259.042 306.886 259.295 306.216C259.551 305.545 259.917 305.034 260.395 304.682C260.875 304.33 261.449 304.153 262.116 304.153C262.784 304.153 263.356 304.331 263.833 304.686C264.311 305.038 264.676 305.55 264.929 306.22C265.184 306.888 265.312 307.695 265.312 308.641C265.312 309.592 265.186 310.405 264.933 311.078C264.68 311.749 264.315 312.261 263.838 312.616C263.36 312.969 262.787 313.145 262.116 313.145ZM262.116 312.007C262.707 312.007 263.169 311.719 263.501 311.142C263.836 310.565 264.004 309.732 264.004 308.641C264.004 307.916 263.927 307.304 263.774 306.804C263.623 306.301 263.406 305.92 263.122 305.662C262.841 305.401 262.505 305.27 262.116 305.27C261.528 305.27 261.066 305.56 260.731 306.139C260.396 306.719 260.227 307.553 260.224 308.641C260.224 309.368 260.299 309.983 260.45 310.486C260.603 310.986 260.821 311.365 261.102 311.624C261.383 311.879 261.721 312.007 262.116 312.007ZM269.856 313H268.458L271.599 304.273H273.12L276.261 313H274.863L272.396 305.858H272.328L269.856 313ZM270.091 309.582H274.625V310.69H270.091V309.582ZM277.021 304.273H278.619L281.398 311.057H281.5L284.278 304.273H285.876V313H284.624V306.685H284.543L281.969 312.987H280.929L278.355 306.68H278.274V313H277.021V304.273Z" fill="#3454C1"/>
<path d="M237.151 346.273V355H235.83V347.594H235.778L233.69 348.957V347.696L235.868 346.273H237.151ZM242.322 346.273V355H241.001V347.594H240.95L238.862 348.957V347.696L241.04 346.273H242.322ZM245.04 353.918C244.807 353.918 244.607 353.835 244.439 353.67C244.271 353.503 244.188 353.301 244.188 353.065C244.188 352.832 244.271 352.634 244.439 352.469C244.607 352.301 244.807 352.217 245.04 352.217C245.273 352.217 245.473 352.301 245.641 352.469C245.808 352.634 245.892 352.832 245.892 353.065C245.892 353.222 245.852 353.365 245.773 353.496C245.696 353.624 245.594 353.726 245.466 353.803C245.338 353.879 245.196 353.918 245.04 353.918ZM245.04 349.545C244.807 349.545 244.607 349.463 244.439 349.298C244.271 349.131 244.188 348.929 244.188 348.693C244.188 348.46 244.271 348.261 244.439 348.097C244.607 347.929 244.807 347.845 245.04 347.845C245.273 347.845 245.473 347.929 245.641 348.097C245.808 348.261 245.892 348.46 245.892 348.693C245.892 348.849 245.852 348.993 245.773 349.124C245.696 349.251 245.594 349.354 245.466 349.43C245.338 349.507 245.196 349.545 245.04 349.545ZM252.796 355.119C252.211 355.119 251.688 355.018 251.228 354.817C250.77 354.615 250.408 354.335 250.141 353.977C249.877 353.616 249.735 353.199 249.715 352.724H251.053C251.07 352.983 251.157 353.207 251.313 353.398C251.472 353.585 251.679 353.73 251.935 353.832C252.191 353.935 252.475 353.986 252.787 353.986C253.131 353.986 253.435 353.926 253.699 353.807C253.966 353.687 254.175 353.521 254.326 353.308C254.476 353.092 254.551 352.844 254.551 352.562C254.551 352.27 254.476 352.013 254.326 351.791C254.178 351.567 253.961 351.391 253.674 351.263C253.39 351.135 253.046 351.071 252.642 351.071H251.905V349.997H252.642C252.966 349.997 253.25 349.939 253.495 349.822C253.742 349.706 253.935 349.544 254.074 349.337C254.213 349.126 254.283 348.881 254.283 348.599C254.283 348.33 254.222 348.095 254.1 347.896C253.98 347.695 253.81 347.537 253.588 347.423C253.37 347.31 253.111 347.253 252.813 347.253C252.529 347.253 252.263 347.305 252.016 347.411C251.772 347.513 251.573 347.661 251.419 347.854C251.266 348.044 251.184 348.273 251.172 348.54H249.898C249.912 348.068 250.051 347.653 250.316 347.295C250.583 346.937 250.935 346.658 251.373 346.456C251.81 346.254 252.296 346.153 252.83 346.153C253.39 346.153 253.873 346.263 254.279 346.482C254.688 346.697 255.003 346.986 255.225 347.347C255.449 347.707 255.56 348.102 255.557 348.531C255.56 349.02 255.424 349.435 255.148 349.776C254.875 350.116 254.512 350.345 254.057 350.462V350.53C254.637 350.618 255.086 350.848 255.404 351.22C255.725 351.592 255.884 352.054 255.881 352.605C255.884 353.085 255.75 353.516 255.48 353.896C255.213 354.277 254.848 354.577 254.385 354.795C253.922 355.011 253.392 355.119 252.796 355.119ZM260.03 355.145C259.357 355.142 258.782 354.964 258.304 354.612C257.827 354.26 257.462 353.747 257.209 353.074C256.956 352.401 256.83 351.589 256.83 350.641C256.83 349.695 256.956 348.886 257.209 348.216C257.465 347.545 257.831 347.034 258.309 346.682C258.789 346.33 259.363 346.153 260.03 346.153C260.698 346.153 261.27 346.331 261.748 346.686C262.225 347.038 262.59 347.55 262.843 348.22C263.098 348.888 263.226 349.695 263.226 350.641C263.226 351.592 263.1 352.405 262.847 353.078C262.594 353.749 262.229 354.261 261.752 354.616C261.275 354.969 260.701 355.145 260.03 355.145ZM260.03 354.007C260.621 354.007 261.083 353.719 261.415 353.142C261.75 352.565 261.918 351.732 261.918 350.641C261.918 349.916 261.841 349.304 261.688 348.804C261.537 348.301 261.32 347.92 261.036 347.662C260.755 347.401 260.419 347.27 260.03 347.27C259.442 347.27 258.98 347.56 258.645 348.139C258.31 348.719 258.141 349.553 258.138 350.641C258.138 351.368 258.213 351.983 258.364 352.486C258.517 352.986 258.735 353.365 259.016 353.624C259.297 353.879 259.635 354.007 260.03 354.007ZM267.77 355H266.373L269.513 346.273H271.034L274.175 355H272.777L270.31 347.858H270.242L267.77 355ZM268.005 351.582H272.539V352.69H268.005V351.582ZM274.935 346.273H276.533L279.312 353.057H279.414L282.192 346.273H283.79V355H282.538V348.685H282.457L279.883 354.987H278.843L276.269 348.68H276.188V355H274.935V346.273Z" fill="#3454C1"/>
<defs>
<filter id="filter0_d_1614_5368" x="43" y="120" width="77" height="62" filterUnits="userSpaceOnUse" color-interpolation-filters="sRGB">
<feFlood flood-opacity="0" result="BackgroundImageFix"/>
<feColorMatrix in="SourceAlpha" type="matrix" values="0 0 0 0 0 0 0 0 0 0 0 0 0 0 0 0 0 0 127 0" result="hardAlpha"/>
<feOffset dy="2"/>
<feGaussianBlur stdDeviation="2"/>
<feComposite in2="hardAlpha" operator="out"/>
<feColorMatrix type="matrix" values="0 0 0 0 0.569231 0 0 0 0 0.597948 0 0 0 0 1 0 0 0 0.22 0"/>
<feBlend mode="normal" in2="BackgroundImageFix" result="effect1_dropShadow_1614_5368"/>
<feBlend mode="normal" in="SourceGraphic" in2="effect1_dropShadow_1614_5368" result="shape"/>
</filter>
<filter id="filter1_d_1614_5368" x="128" y="120" width="77" height="62" filterUnits="userSpaceOnUse" color-interpolation-filters="sRGB">
<feFlood flood-opacity="0" result="BackgroundImageFix"/>
<feColorMatrix in="SourceAlpha" type="matrix" values="0 0 0 0 0 0 0 0 0 0 0 0 0 0 0 0 0 0 127 0" result="hardAlpha"/>
<feOffset dy="2"/>
<feGaussianBlur stdDeviation="2"/>
<feComposite in2="hardAlpha" operator="out"/>
<feColorMatrix type="matrix" values="0 0 0 0 0.569231 0 0 0 0 0.597948 0 0 0 0 1 0 0 0 0.22 0"/>
<feBlend mode="normal" in2="BackgroundImageFix" result="effect1_dropShadow_1614_5368"/>
<feBlend mode="normal" in="SourceGraphic" in2="effect1_dropShadow_1614_5368" result="shape"/>
</filter>
<filter id="filter2_d_1614_5368" x="210" y="120" width="77" height="62" filterUnits="userSpaceOnUse" color-interpolation-filters="sRGB">
<feFlood flood-opacity="0" result="BackgroundImageFix"/>
<feColorMatrix in="SourceAlpha" type="matrix" values="0 0 0 0 0 0 0 0 0 0 0 0 0 0 0 0 0 0 127 0" result="hardAlpha"/>
<feOffset dy="2"/>
<feGaussianBlur stdDeviation="2"/>
<feComposite in2="hardAlpha" operator="out"/>
<feColorMatrix type="matrix" values="0 0 0 0 0.569231 0 0 0 0 0.597948 0 0 0 0 1 0 0 0 0.22 0"/>
<feBlend mode="normal" in2="BackgroundImageFix" result="effect1_dropShadow_1614_5368"/>
<feBlend mode="normal" in="SourceGraphic" in2="effect1_dropShadow_1614_5368" result="shape"/>
</filter>
<filter id="filter3_d_1614_5368" x="43" y="186" width="77" height="64" filterUnits="userSpaceOnUse" color-interpolation-filters="sRGB">
<feFlood flood-opacity="0" result="BackgroundImageFix"/>
<feColorMatrix in="SourceAlpha" type="matrix" values="0 0 0 0 0 0 0 0 0 0 0 0 0 0 0 0 0 0 127 0" result="hardAlpha"/>
<feOffset dy="2"/>
<feGaussianBlur stdDeviation="2"/>
<feComposite in2="hardAlpha" operator="out"/>
<feColorMatrix type="matrix" values="0 0 0 0 0.569231 0 0 0 0 0.597948 0 0 0 0 1 0 0 0 0.22 0"/>
<feBlend mode="normal" in2="BackgroundImageFix" result="effect1_dropShadow_1614_5368"/>
<feBlend mode="normal" in="SourceGraphic" in2="effect1_dropShadow_1614_5368" result="shape"/>
</filter>
<linearGradient id="paint0_linear_1614_5368" x1="163.5" y1="15" x2="163.5" y2="564" gradientUnits="userSpaceOnUse">
<stop stop-color="#F7F7F7"/>
<stop stop-color="#737373" stop-opacity="0.05"/>
</linearGradient>
<linearGradient id="paint1_linear_1614_5368" x1="163.5" y1="15" x2="163.5" y2="564" gradientUnits="userSpaceOnUse">
<stop stop-color="#021969"/>
<stop offset="0.835" stop-color="#D4D4D4" stop-opacity="0.02"/>
</linearGradient>
<linearGradient id="paint2_linear_1614_5368" x1="326.5" y1="137" x2="326.5" y2="179" gradientUnits="userSpaceOnUse">
<stop stop-color="#021969"/>
<stop offset="1" stop-color="#4C5880"/>
</linearGradient>
</defs>
</svg>
