<svg width="322" height="579" viewBox="0 0 322 579" fill="none" xmlns="http://www.w3.org/2000/svg">
<rect x="7.5" y="7.5" width="306.027" height="564" rx="27.5" fill="url(#paint0_linear_1201_1796)" stroke="url(#paint1_linear_1201_1796)" stroke-width="15"/>
<path d="M35 15.5H286C296.77 15.5 305.5 24.2304 305.5 35V76.5H15.5V35C15.5 24.2304 24.2304 15.5 35 15.5Z" fill="white" stroke="#DCDCDC"/>
<path d="M91.7066 60.3581C91.7066 59.5341 91.8906 58.7981 92.2586 58.1501C92.6346 57.4941 93.1426 56.9861 93.7826 56.6261C94.4306 56.2581 95.1546 56.0741 95.9546 56.0741C96.8906 56.0741 97.7106 56.3141 98.4146 56.7941C99.1186 57.2741 99.6106 57.9381 99.8906 58.7861H97.9586C97.7666 58.3861 97.4946 58.0861 97.1426 57.8861C96.7986 57.6861 96.3986 57.5861 95.9426 57.5861C95.4546 57.5861 95.0186 57.7021 94.6346 57.9341C94.2586 58.1581 93.9626 58.4781 93.7466 58.8941C93.5386 59.3101 93.4346 59.7981 93.4346 60.3581C93.4346 60.9101 93.5386 61.3981 93.7466 61.8221C93.9626 62.2381 94.2586 62.5621 94.6346 62.7941C95.0186 63.0181 95.4546 63.1301 95.9426 63.1301C96.3986 63.1301 96.7986 63.0301 97.1426 62.8301C97.4946 62.6221 97.7666 62.3181 97.9586 61.9181H99.8906C99.6106 62.7741 99.1186 63.4421 98.4146 63.9221C97.7186 64.3941 96.8986 64.6301 95.9546 64.6301C95.1546 64.6301 94.4306 64.4501 93.7826 64.0901C93.1426 63.7221 92.6346 63.2141 92.2586 62.5661C91.8906 61.9181 91.7066 61.1821 91.7066 60.3581ZM105.07 57.8141C105.574 57.8141 106.022 57.9261 106.414 58.1501C106.806 58.3661 107.11 58.6901 107.326 59.1221C107.55 59.5461 107.662 60.0581 107.662 60.6581V64.5581H105.982V60.8861C105.982 60.3581 105.85 59.9541 105.586 59.6741C105.322 59.3861 104.962 59.2421 104.506 59.2421C104.042 59.2421 103.674 59.3861 103.402 59.6741C103.138 59.9541 103.006 60.3581 103.006 60.8861V64.5581H101.326V55.6781H103.006V58.7381C103.222 58.4501 103.51 58.2261 103.87 58.0661C104.23 57.8981 104.63 57.8141 105.07 57.8141ZM108.827 61.2101C108.827 60.5381 108.959 59.9421 109.223 59.4221C109.495 58.9021 109.859 58.5021 110.315 58.2221C110.779 57.9421 111.295 57.8021 111.863 57.8021C112.359 57.8021 112.791 57.9021 113.159 58.1021C113.535 58.3021 113.835 58.5541 114.059 58.8581V57.9101H115.751V64.5581H114.059V63.5861C113.843 63.8981 113.543 64.1581 113.159 64.3661C112.783 64.5661 112.347 64.6661 111.851 64.6661C111.291 64.6661 110.779 64.5221 110.315 64.2341C109.859 63.9461 109.495 63.5421 109.223 63.0221C108.959 62.4941 108.827 61.8901 108.827 61.2101ZM114.059 61.2341C114.059 60.8261 113.979 60.4781 113.819 60.1901C113.659 59.8941 113.443 59.6701 113.171 59.5181C112.899 59.3581 112.607 59.2781 112.295 59.2781C111.983 59.2781 111.695 59.3541 111.431 59.5061C111.167 59.6581 110.951 59.8821 110.783 60.1781C110.623 60.4661 110.543 60.8101 110.543 61.2101C110.543 61.6101 110.623 61.9621 110.783 62.2661C110.951 62.5621 111.167 62.7901 111.431 62.9501C111.703 63.1101 111.991 63.1901 112.295 63.1901C112.607 63.1901 112.899 63.1141 113.171 62.9621C113.443 62.8021 113.659 62.5781 113.819 62.2901C113.979 61.9941 114.059 61.6421 114.059 61.2341ZM119.348 59.2901V62.5061C119.348 62.7301 119.4 62.8941 119.504 62.9981C119.616 63.0941 119.8 63.1421 120.056 63.1421H120.836V64.5581H119.78C118.364 64.5581 117.656 63.8701 117.656 62.4941V59.2901H116.864V57.9101H117.656V56.2661H119.348V57.9101H120.836V59.2901H119.348ZM136.1 56.1821L133.76 64.5581H131.78L130.208 58.5941L128.564 64.5581L126.596 64.5701L124.34 56.1821H126.14L127.616 62.6861L129.32 56.1821H131.192L132.8 62.6501L134.288 56.1821H136.1ZM138.049 57.1181C137.753 57.1181 137.505 57.0261 137.305 56.8421C137.113 56.6501 137.017 56.4141 137.017 56.1341C137.017 55.8541 137.113 55.6221 137.305 55.4381C137.505 55.2461 137.753 55.1501 138.049 55.1501C138.345 55.1501 138.589 55.2461 138.781 55.4381C138.981 55.6221 139.081 55.8541 139.081 56.1341C139.081 56.4141 138.981 56.6501 138.781 56.8421C138.589 57.0261 138.345 57.1181 138.049 57.1181ZM138.877 57.9101V64.5581H137.197V57.9101H138.877ZM142.493 59.2901V62.5061C142.493 62.7301 142.545 62.8941 142.649 62.9981C142.761 63.0941 142.945 63.1421 143.201 63.1421H143.981V64.5581H142.925C141.509 64.5581 140.801 63.8701 140.801 62.4941V59.2901H140.009V57.9101H140.801V56.2661H142.493V57.9101H143.981V59.2901H142.493ZM148.933 57.8141C149.437 57.8141 149.885 57.9261 150.277 58.1501C150.669 58.3661 150.973 58.6901 151.189 59.1221C151.413 59.5461 151.525 60.0581 151.525 60.6581V64.5581H149.845V60.8861C149.845 60.3581 149.713 59.9541 149.449 59.6741C149.185 59.3861 148.825 59.2421 148.369 59.2421C147.905 59.2421 147.537 59.3861 147.265 59.6741C147.001 59.9541 146.869 60.3581 146.869 60.8861V64.5581H145.189V55.6781H146.869V58.7381C147.085 58.4501 147.373 58.2261 147.733 58.0661C148.093 57.8981 148.493 57.8141 148.933 57.8141ZM161.118 62.9621H157.782L157.23 64.5581H155.466L158.478 56.1701H160.434L163.446 64.5581H161.67L161.118 62.9621ZM160.662 61.6181L159.45 58.1141L158.238 61.6181H160.662ZM166.252 56.1821V64.5581H164.572V56.1821H166.252ZM175.907 62.9621H172.571L172.019 64.5581H170.255L173.267 56.1701H175.223L178.235 64.5581H176.459L175.907 62.9621ZM175.451 61.6181L174.239 58.1141L173.027 61.6181H175.451ZM181.905 64.6661C181.361 64.6661 180.873 64.5701 180.441 64.3781C180.009 64.1781 179.665 63.9101 179.409 63.5741C179.161 63.2381 179.025 62.8661 179.001 62.4581H180.693C180.725 62.7141 180.849 62.9261 181.065 63.0941C181.289 63.2621 181.565 63.3461 181.893 63.3461C182.213 63.3461 182.461 63.2821 182.637 63.1541C182.821 63.0261 182.913 62.8621 182.913 62.6621C182.913 62.4461 182.801 62.2861 182.577 62.1821C182.361 62.0701 182.013 61.9501 181.533 61.8221C181.037 61.7021 180.629 61.5781 180.309 61.4501C179.997 61.3221 179.725 61.1261 179.493 60.8621C179.269 60.5981 179.157 60.2421 179.157 59.7941C179.157 59.4261 179.261 59.0901 179.469 58.7861C179.685 58.4821 179.989 58.2421 180.381 58.0661C180.781 57.8901 181.249 57.8021 181.785 57.8021C182.577 57.8021 183.209 58.0021 183.681 58.4021C184.153 58.7941 184.413 59.3261 184.461 59.9981H182.853C182.829 59.7341 182.717 59.5261 182.517 59.3741C182.325 59.2141 182.065 59.1341 181.737 59.1341C181.433 59.1341 181.197 59.1901 181.029 59.3021C180.869 59.4141 180.789 59.5701 180.789 59.7701C180.789 59.9941 180.901 60.1661 181.125 60.2861C181.349 60.3981 181.697 60.5141 182.169 60.6341C182.649 60.7541 183.045 60.8781 183.357 61.0061C183.669 61.1341 183.937 61.3341 184.161 61.6061C184.393 61.8701 184.513 62.2221 184.521 62.6621C184.521 63.0461 184.413 63.3901 184.197 63.6941C183.989 63.9981 183.685 64.2381 183.285 64.4141C182.893 64.5821 182.433 64.6661 181.905 64.6661ZM188.444 64.6661C187.9 64.6661 187.412 64.5701 186.98 64.3781C186.548 64.1781 186.204 63.9101 185.948 63.5741C185.7 63.2381 185.564 62.8661 185.54 62.4581H187.232C187.264 62.7141 187.388 62.9261 187.604 63.0941C187.828 63.2621 188.104 63.3461 188.432 63.3461C188.752 63.3461 189 63.2821 189.176 63.1541C189.36 63.0261 189.452 62.8621 189.452 62.6621C189.452 62.4461 189.34 62.2861 189.116 62.1821C188.9 62.0701 188.552 61.9501 188.072 61.8221C187.576 61.7021 187.168 61.5781 186.848 61.4501C186.536 61.3221 186.264 61.1261 186.032 60.8621C185.808 60.5981 185.696 60.2421 185.696 59.7941C185.696 59.4261 185.8 59.0901 186.008 58.7861C186.224 58.4821 186.528 58.2421 186.92 58.0661C187.32 57.8901 187.788 57.8021 188.324 57.8021C189.116 57.8021 189.748 58.0021 190.22 58.4021C190.692 58.7941 190.952 59.3261 191 59.9981H189.392C189.368 59.7341 189.256 59.5261 189.056 59.3741C188.864 59.2141 188.604 59.1341 188.276 59.1341C187.972 59.1341 187.736 59.1901 187.568 59.3021C187.408 59.4141 187.328 59.5701 187.328 59.7701C187.328 59.9941 187.44 60.1661 187.664 60.2861C187.888 60.3981 188.236 60.5141 188.708 60.6341C189.188 60.7541 189.584 60.8781 189.896 61.0061C190.208 61.1341 190.476 61.3341 190.7 61.6061C190.932 61.8701 191.052 62.2221 191.06 62.6621C191.06 63.0461 190.952 63.3901 190.736 63.6941C190.528 63.9981 190.224 64.2381 189.824 64.4141C189.432 64.5821 188.972 64.6661 188.444 64.6661ZM193.291 57.1181C192.995 57.1181 192.747 57.0261 192.547 56.8421C192.355 56.6501 192.259 56.4141 192.259 56.1341C192.259 55.8541 192.355 55.6221 192.547 55.4381C192.747 55.2461 192.995 55.1501 193.291 55.1501C193.587 55.1501 193.831 55.2461 194.023 55.4381C194.223 55.6221 194.323 55.8541 194.323 56.1341C194.323 56.4141 194.223 56.6501 194.023 56.8421C193.831 57.0261 193.587 57.1181 193.291 57.1181ZM194.119 57.9101V64.5581H192.439V57.9101H194.119ZM198.323 64.6661C197.779 64.6661 197.291 64.5701 196.859 64.3781C196.427 64.1781 196.083 63.9101 195.827 63.5741C195.579 63.2381 195.443 62.8661 195.419 62.4581H197.111C197.143 62.7141 197.267 62.9261 197.483 63.0941C197.707 63.2621 197.983 63.3461 198.311 63.3461C198.631 63.3461 198.879 63.2821 199.055 63.1541C199.239 63.0261 199.331 62.8621 199.331 62.6621C199.331 62.4461 199.219 62.2861 198.995 62.1821C198.779 62.0701 198.431 61.9501 197.951 61.8221C197.455 61.7021 197.047 61.5781 196.727 61.4501C196.415 61.3221 196.143 61.1261 195.911 60.8621C195.687 60.5981 195.575 60.2421 195.575 59.7941C195.575 59.4261 195.679 59.0901 195.887 58.7861C196.103 58.4821 196.407 58.2421 196.799 58.0661C197.199 57.8901 197.667 57.8021 198.203 57.8021C198.995 57.8021 199.627 58.0021 200.099 58.4021C200.571 58.7941 200.831 59.3261 200.879 59.9981H199.271C199.247 59.7341 199.135 59.5261 198.935 59.3741C198.743 59.2141 198.483 59.1341 198.155 59.1341C197.851 59.1341 197.615 59.1901 197.447 59.3021C197.287 59.4141 197.207 59.5701 197.207 59.7701C197.207 59.9941 197.319 60.1661 197.543 60.2861C197.767 60.3981 198.115 60.5141 198.587 60.6341C199.067 60.7541 199.463 60.8781 199.775 61.0061C200.087 61.1341 200.355 61.3341 200.579 61.6061C200.811 61.8701 200.931 62.2221 200.939 62.6621C200.939 63.0461 200.831 63.3901 200.615 63.6941C200.407 63.9981 200.103 64.2381 199.703 64.4141C199.311 64.5821 198.851 64.6661 198.323 64.6661ZM204.274 59.2901V62.5061C204.274 62.7301 204.326 62.8941 204.43 62.9981C204.542 63.0941 204.726 63.1421 204.982 63.1421H205.762V64.5581H204.706C203.29 64.5581 202.582 63.8701 202.582 62.4941V59.2901H201.79V57.9101H202.582V56.2661H204.274V57.9101H205.762V59.2901H204.274ZM206.538 61.2101C206.538 60.5381 206.67 59.9421 206.934 59.4221C207.206 58.9021 207.57 58.5021 208.026 58.2221C208.49 57.9421 209.006 57.8021 209.574 57.8021C210.07 57.8021 210.502 57.9021 210.87 58.1021C211.246 58.3021 211.546 58.5541 211.77 58.8581V57.9101H213.462V64.5581H211.77V63.5861C211.554 63.8981 211.254 64.1581 210.87 64.3661C210.494 64.5661 210.058 64.6661 209.562 64.6661C209.002 64.6661 208.49 64.5221 208.026 64.2341C207.57 63.9461 207.206 63.5421 206.934 63.0221C206.67 62.4941 206.538 61.8901 206.538 61.2101ZM211.77 61.2341C211.77 60.8261 211.69 60.4781 211.53 60.1901C211.37 59.8941 211.154 59.6701 210.882 59.5181C210.61 59.3581 210.318 59.2781 210.006 59.2781C209.694 59.2781 209.406 59.3541 209.142 59.5061C208.878 59.6581 208.662 59.8821 208.494 60.1781C208.334 60.4661 208.254 60.8101 208.254 61.2101C208.254 61.6101 208.334 61.9621 208.494 62.2661C208.662 62.5621 208.878 62.7901 209.142 62.9501C209.414 63.1101 209.702 63.1901 210.006 63.1901C210.318 63.1901 210.61 63.1141 210.882 62.9621C211.154 62.8021 211.37 62.5781 211.53 62.2901C211.69 61.9941 211.77 61.6421 211.77 61.2341ZM218.787 57.8141C219.579 57.8141 220.219 58.0661 220.707 58.5701C221.195 59.0661 221.439 59.7621 221.439 60.6581V64.5581H219.759V60.8861C219.759 60.3581 219.627 59.9541 219.363 59.6741C219.099 59.3861 218.739 59.2421 218.283 59.2421C217.819 59.2421 217.451 59.3861 217.179 59.6741C216.915 59.9541 216.783 60.3581 216.783 60.8861V64.5581H215.103V57.9101H216.783V58.7381C217.007 58.4501 217.291 58.2261 217.635 58.0661C217.987 57.8981 218.371 57.8141 218.787 57.8141ZM224.993 59.2901V62.5061C224.993 62.7301 225.045 62.8941 225.149 62.9981C225.261 63.0941 225.445 63.1421 225.701 63.1421H226.481V64.5581H225.425C224.009 64.5581 223.301 63.8701 223.301 62.4941V59.2901H222.509V57.9101H223.301V56.2661H224.993V57.9101H226.481V59.2901H224.993Z" fill="#00155D"/>
<path d="M24.4468 136.667C24.4468 125.621 33.4011 116.667 44.4468 116.667H144.435C155.48 116.667 164.435 125.621 164.435 136.667V142.417C164.435 153.462 155.48 162.417 144.435 162.417H24.4468V136.667Z" fill="#3454C1"/>
<path d="M156.513 193.6C156.513 182.554 165.467 173.6 176.513 173.6H276.501C287.547 173.6 296.501 182.554 296.501 193.6V219.35H176.513C165.467 219.35 156.513 210.396 156.513 199.35V193.6Z" fill="#D9D9D9"/>
<path d="M45.2154 128.82V135.8H43.8154V132.83H40.8254V135.8H39.4254V128.82H40.8254V131.69H43.8154V128.82H45.2154ZM51.7433 132.91C51.7433 133.11 51.73 133.29 51.7033 133.45H47.6533C47.6867 133.85 47.8267 134.163 48.0733 134.39C48.32 134.617 48.6233 134.73 48.9833 134.73C49.5033 134.73 49.8733 134.507 50.0933 134.06H51.6033C51.4433 134.593 51.1367 135.033 50.6833 135.38C50.23 135.72 49.6733 135.89 49.0133 135.89C48.48 135.89 48 135.773 47.5733 135.54C47.1533 135.3 46.8233 134.963 46.5833 134.53C46.35 134.097 46.2333 133.597 46.2333 133.03C46.2333 132.457 46.35 131.953 46.5833 131.52C46.8167 131.087 47.1433 130.753 47.5633 130.52C47.9833 130.287 48.4667 130.17 49.0133 130.17C49.54 130.17 50.01 130.283 50.4233 130.51C50.8433 130.737 51.1667 131.06 51.3933 131.48C51.6267 131.893 51.7433 132.37 51.7433 132.91ZM50.2933 132.51C50.2867 132.15 50.1567 131.863 49.9033 131.65C49.65 131.43 49.34 131.32 48.9733 131.32C48.6267 131.32 48.3333 131.427 48.0933 131.64C47.86 131.847 47.7167 132.137 47.6633 132.51H50.2933ZM54.1652 128.4V135.8H52.7652V128.4H54.1652ZM56.9484 128.4V135.8H55.5484V128.4H56.9484ZM60.7916 135.89C60.2583 135.89 59.7783 135.773 59.3516 135.54C58.9249 135.3 58.5883 134.963 58.3416 134.53C58.1016 134.097 57.9816 133.597 57.9816 133.03C57.9816 132.463 58.1049 131.963 58.3516 131.53C58.6049 131.097 58.9483 130.763 59.3816 130.53C59.8149 130.29 60.2983 130.17 60.8316 130.17C61.3649 130.17 61.8483 130.29 62.2816 130.53C62.7149 130.763 63.0549 131.097 63.3016 131.53C63.5549 131.963 63.6816 132.463 63.6816 133.03C63.6816 133.597 63.5516 134.097 63.2916 134.53C63.0383 134.963 62.6916 135.3 62.2516 135.54C61.8183 135.773 61.3316 135.89 60.7916 135.89ZM60.7916 134.67C61.0449 134.67 61.2816 134.61 61.5016 134.49C61.7283 134.363 61.9083 134.177 62.0416 133.93C62.1749 133.683 62.2416 133.383 62.2416 133.03C62.2416 132.503 62.1016 132.1 61.8216 131.82C61.5483 131.533 61.2116 131.39 60.8116 131.39C60.4116 131.39 60.0749 131.533 59.8016 131.82C59.5349 132.1 59.4016 132.503 59.4016 133.03C59.4016 133.557 59.5316 133.963 59.7916 134.25C60.0583 134.53 60.3916 134.67 60.7916 134.67ZM66.2386 134.33L65.0686 137.14H64.1686L64.8186 134.33H66.2386ZM75.4204 128.82V135.8H74.0204V132.83H71.0304V135.8H69.6304V128.82H71.0304V131.69H74.0204V128.82H75.4204ZM79.2584 135.89C78.7251 135.89 78.2451 135.773 77.8184 135.54C77.3917 135.3 77.0551 134.963 76.8084 134.53C76.5684 134.097 76.4484 133.597 76.4484 133.03C76.4484 132.463 76.5717 131.963 76.8184 131.53C77.0717 131.097 77.4151 130.763 77.8484 130.53C78.2817 130.29 78.7651 130.17 79.2984 130.17C79.8317 130.17 80.3151 130.29 80.7484 130.53C81.1817 130.763 81.5217 131.097 81.7684 131.53C82.0217 131.963 82.1484 132.463 82.1484 133.03C82.1484 133.597 82.0184 134.097 81.7584 134.53C81.5051 134.963 81.1584 135.3 80.7184 135.54C80.2851 135.773 79.7984 135.89 79.2584 135.89ZM79.2584 134.67C79.5117 134.67 79.7484 134.61 79.9684 134.49C80.1951 134.363 80.3751 134.177 80.5084 133.93C80.6417 133.683 80.7084 133.383 80.7084 133.03C80.7084 132.503 80.5684 132.1 80.2884 131.82C80.0151 131.533 79.6784 131.39 79.2784 131.39C78.8784 131.39 78.5417 131.533 78.2684 131.82C78.0017 132.1 77.8684 132.503 77.8684 133.03C77.8684 133.557 77.9984 133.963 78.2584 134.25C78.5251 134.53 78.8584 134.67 79.2584 134.67ZM90.8554 130.26L89.2354 135.8H87.7254L86.7154 131.93L85.7054 135.8H84.1854L82.5554 130.26H83.9754L84.9554 134.48L86.0154 130.26H87.4954L88.5354 134.47L89.5154 130.26H90.8554ZM94.7057 129.6C94.459 129.6 94.2523 129.523 94.0857 129.37C93.9257 129.21 93.8457 129.013 93.8457 128.78C93.8457 128.547 93.9257 128.353 94.0857 128.2C94.2523 128.04 94.459 127.96 94.7057 127.96C94.9523 127.96 95.1557 128.04 95.3157 128.2C95.4823 128.353 95.5657 128.547 95.5657 128.78C95.5657 129.013 95.4823 129.21 95.3157 129.37C95.1557 129.523 94.9523 129.6 94.7057 129.6ZM95.3957 130.26V135.8H93.9957V130.26H95.3957ZM98.8017 133.03C98.8017 132.457 98.9183 131.957 99.1517 131.53C99.385 131.097 99.7083 130.763 100.122 130.53C100.535 130.29 101.008 130.17 101.542 130.17C102.228 130.17 102.795 130.343 103.242 130.69C103.695 131.03 103.998 131.51 104.152 132.13H102.642C102.562 131.89 102.425 131.703 102.232 131.57C102.045 131.43 101.812 131.36 101.532 131.36C101.132 131.36 100.815 131.507 100.582 131.8C100.348 132.087 100.232 132.497 100.232 133.03C100.232 133.557 100.348 133.967 100.582 134.26C100.815 134.547 101.132 134.69 101.532 134.69C102.098 134.69 102.468 134.437 102.642 133.93H104.152C103.998 134.53 103.695 135.007 103.242 135.36C102.788 135.713 102.222 135.89 101.542 135.89C101.008 135.89 100.535 135.773 100.122 135.54C99.7083 135.3 99.385 134.967 99.1517 134.54C98.9183 134.107 98.8017 133.603 98.8017 133.03ZM104.817 133.01C104.817 132.45 104.927 131.953 105.147 131.52C105.374 131.087 105.677 130.753 106.057 130.52C106.444 130.287 106.874 130.17 107.347 130.17C107.761 130.17 108.121 130.253 108.427 130.42C108.741 130.587 108.991 130.797 109.177 131.05V130.26H110.587V135.8H109.177V134.99C108.997 135.25 108.747 135.467 108.427 135.64C108.114 135.807 107.751 135.89 107.337 135.89C106.871 135.89 106.444 135.77 106.057 135.53C105.677 135.29 105.374 134.953 105.147 134.52C104.927 134.08 104.817 133.577 104.817 133.01ZM109.177 133.03C109.177 132.69 109.111 132.4 108.977 132.16C108.844 131.913 108.664 131.727 108.437 131.6C108.211 131.467 107.967 131.4 107.707 131.4C107.447 131.4 107.207 131.463 106.987 131.59C106.767 131.717 106.587 131.903 106.447 132.15C106.314 132.39 106.247 132.677 106.247 133.01C106.247 133.343 106.314 133.637 106.447 133.89C106.587 134.137 106.767 134.327 106.987 134.46C107.214 134.593 107.454 134.66 107.707 134.66C107.967 134.66 108.211 134.597 108.437 134.47C108.664 134.337 108.844 134.15 108.977 133.91C109.111 133.663 109.177 133.37 109.177 133.03ZM115.025 130.18C115.685 130.18 116.218 130.39 116.625 130.81C117.031 131.223 117.235 131.803 117.235 132.55V135.8H115.835V132.74C115.835 132.3 115.725 131.963 115.505 131.73C115.285 131.49 114.985 131.37 114.605 131.37C114.218 131.37 113.911 131.49 113.685 131.73C113.465 131.963 113.355 132.3 113.355 132.74V135.8H111.955V130.26H113.355V130.95C113.541 130.71 113.778 130.523 114.065 130.39C114.358 130.25 114.678 130.18 115.025 130.18ZM124.069 130.18C124.489 130.18 124.862 130.273 125.189 130.46C125.515 130.64 125.769 130.91 125.949 131.27C126.135 131.623 126.229 132.05 126.229 132.55V135.8H124.829V132.74C124.829 132.3 124.719 131.963 124.499 131.73C124.279 131.49 123.979 131.37 123.599 131.37C123.212 131.37 122.905 131.49 122.679 131.73C122.459 131.963 122.349 132.3 122.349 132.74V135.8H120.949V128.4H122.349V130.95C122.529 130.71 122.769 130.523 123.069 130.39C123.369 130.25 123.702 130.18 124.069 130.18ZM132.71 132.91C132.71 133.11 132.697 133.29 132.67 133.45H128.62C128.653 133.85 128.793 134.163 129.04 134.39C129.287 134.617 129.59 134.73 129.95 134.73C130.47 134.73 130.84 134.507 131.06 134.06H132.57C132.41 134.593 132.103 135.033 131.65 135.38C131.197 135.72 130.64 135.89 129.98 135.89C129.447 135.89 128.967 135.773 128.54 135.54C128.12 135.3 127.79 134.963 127.55 134.53C127.317 134.097 127.2 133.597 127.2 133.03C127.2 132.457 127.317 131.953 127.55 131.52C127.783 131.087 128.11 130.753 128.53 130.52C128.95 130.287 129.433 130.17 129.98 130.17C130.507 130.17 130.977 130.283 131.39 130.51C131.81 130.737 132.133 131.06 132.36 131.48C132.593 131.893 132.71 132.37 132.71 132.91ZM131.26 132.51C131.253 132.15 131.123 131.863 130.87 131.65C130.617 131.43 130.307 131.32 129.94 131.32C129.593 131.32 129.3 131.427 129.06 131.64C128.827 131.847 128.683 132.137 128.63 132.51H131.26ZM135.132 128.4V135.8H133.732V128.4H135.132ZM137.915 131.06C138.095 130.807 138.342 130.597 138.655 130.43C138.975 130.257 139.339 130.17 139.745 130.17C140.219 130.17 140.645 130.287 141.025 130.52C141.412 130.753 141.715 131.087 141.935 131.52C142.162 131.947 142.275 132.443 142.275 133.01C142.275 133.577 142.162 134.08 141.935 134.52C141.715 134.953 141.412 135.29 141.025 135.53C140.645 135.77 140.219 135.89 139.745 135.89C139.339 135.89 138.979 135.807 138.665 135.64C138.359 135.473 138.109 135.263 137.915 135.01V138.44H136.515V130.26H137.915V131.06ZM140.845 133.01C140.845 132.677 140.775 132.39 140.635 132.15C140.502 131.903 140.322 131.717 140.095 131.59C139.875 131.463 139.635 131.4 139.375 131.4C139.122 131.4 138.882 131.467 138.655 131.6C138.435 131.727 138.255 131.913 138.115 132.16C137.982 132.407 137.915 132.697 137.915 133.03C137.915 133.363 137.982 133.653 138.115 133.9C138.255 134.147 138.435 134.337 138.655 134.47C138.882 134.597 139.122 134.66 139.375 134.66C139.635 134.66 139.875 134.593 140.095 134.46C140.322 134.327 140.502 134.137 140.635 133.89C140.775 133.643 140.845 133.35 140.845 133.01ZM44.7254 145.26L41.2954 153.42H39.8054L41.0054 150.66L38.7854 145.26H40.3554L41.7854 149.13L43.2354 145.26H44.7254ZM47.94 150.89C47.4067 150.89 46.9267 150.773 46.5 150.54C46.0734 150.3 45.7367 149.963 45.49 149.53C45.25 149.097 45.13 148.597 45.13 148.03C45.13 147.463 45.2534 146.963 45.5 146.53C45.7534 146.097 46.0967 145.763 46.53 145.53C46.9634 145.29 47.4467 145.17 47.98 145.17C48.5134 145.17 48.9967 145.29 49.43 145.53C49.8634 145.763 50.2034 146.097 50.45 146.53C50.7034 146.963 50.83 147.463 50.83 148.03C50.83 148.597 50.7 149.097 50.44 149.53C50.1867 149.963 49.84 150.3 49.4 150.54C48.9667 150.773 48.48 150.89 47.94 150.89ZM47.94 149.67C48.1934 149.67 48.43 149.61 48.65 149.49C48.8767 149.363 49.0567 149.177 49.19 148.93C49.3234 148.683 49.39 148.383 49.39 148.03C49.39 147.503 49.25 147.1 48.97 146.82C48.6967 146.533 48.36 146.39 47.96 146.39C47.56 146.39 47.2234 146.533 46.95 146.82C46.6834 147.1 46.55 147.503 46.55 148.03C46.55 148.557 46.68 148.963 46.94 149.25C47.2067 149.53 47.54 149.67 47.94 149.67ZM57.087 145.26V150.8H55.677V150.1C55.497 150.34 55.2603 150.53 54.967 150.67C54.6803 150.803 54.367 150.87 54.027 150.87C53.5937 150.87 53.2103 150.78 52.877 150.6C52.5437 150.413 52.2803 150.143 52.087 149.79C51.9003 149.43 51.807 149.003 51.807 148.51V145.26H53.207V148.31C53.207 148.75 53.317 149.09 53.537 149.33C53.757 149.563 54.057 149.68 54.437 149.68C54.8237 149.68 55.127 149.563 55.347 149.33C55.567 149.09 55.677 148.75 55.677 148.31V145.26H57.087ZM62.4811 146.41V149.09C62.4811 149.277 62.5245 149.413 62.6111 149.5C62.7045 149.58 62.8578 149.62 63.0711 149.62H63.7211V150.8H62.8411C61.6611 150.8 61.0711 150.227 61.0711 149.08V146.41H60.4111V145.26H61.0711V143.89H62.4811V145.26H63.7211V146.41H62.4811ZM67.1881 150.89C66.6548 150.89 66.1748 150.773 65.7481 150.54C65.3214 150.3 64.9848 149.963 64.7381 149.53C64.4981 149.097 64.3781 148.597 64.3781 148.03C64.3781 147.463 64.5014 146.963 64.7481 146.53C65.0014 146.097 65.3448 145.763 65.7781 145.53C66.2114 145.29 66.6948 145.17 67.2281 145.17C67.7614 145.17 68.2448 145.29 68.6781 145.53C69.1114 145.763 69.4514 146.097 69.6981 146.53C69.9514 146.963 70.0781 147.463 70.0781 148.03C70.0781 148.597 69.9481 149.097 69.6881 149.53C69.4348 149.963 69.0881 150.3 68.6481 150.54C68.2148 150.773 67.7281 150.89 67.1881 150.89ZM67.1881 149.67C67.4414 149.67 67.6781 149.61 67.8981 149.49C68.1248 149.363 68.3048 149.177 68.4381 148.93C68.5714 148.683 68.6381 148.383 68.6381 148.03C68.6381 147.503 68.4981 147.1 68.2181 146.82C67.9448 146.533 67.6081 146.39 67.2081 146.39C66.8081 146.39 66.4714 146.533 66.1981 146.82C65.9314 147.1 65.7981 147.503 65.7981 148.03C65.7981 148.557 65.9281 148.963 66.1881 149.25C66.4548 149.53 66.7881 149.67 67.1881 149.67ZM70.745 148.01C70.745 147.45 70.855 146.953 71.075 146.52C71.3017 146.087 71.6084 145.753 71.995 145.52C72.3817 145.287 72.8117 145.17 73.285 145.17C73.645 145.17 73.9884 145.25 74.315 145.41C74.6417 145.563 74.9017 145.77 75.095 146.03V143.4H76.515V150.8H75.095V149.98C74.9217 150.253 74.6784 150.473 74.365 150.64C74.0517 150.807 73.6884 150.89 73.275 150.89C72.8084 150.89 72.3817 150.77 71.995 150.53C71.6084 150.29 71.3017 149.953 71.075 149.52C70.855 149.08 70.745 148.577 70.745 148.01ZM75.105 148.03C75.105 147.69 75.0384 147.4 74.905 147.16C74.7717 146.913 74.5917 146.727 74.365 146.6C74.1384 146.467 73.895 146.4 73.635 146.4C73.375 146.4 73.135 146.463 72.915 146.59C72.695 146.717 72.515 146.903 72.375 147.15C72.2417 147.39 72.175 147.677 72.175 148.01C72.175 148.343 72.2417 148.637 72.375 148.89C72.515 149.137 72.695 149.327 72.915 149.46C73.1417 149.593 73.3817 149.66 73.635 149.66C73.895 149.66 74.1384 149.597 74.365 149.47C74.5917 149.337 74.7717 149.15 74.905 148.91C75.0384 148.663 75.105 148.37 75.105 148.03ZM77.5224 148.01C77.5224 147.45 77.6324 146.953 77.8524 146.52C78.079 146.087 78.3824 145.753 78.7624 145.52C79.149 145.287 79.579 145.17 80.0524 145.17C80.4657 145.17 80.8257 145.253 81.1324 145.42C81.4457 145.587 81.6957 145.797 81.8824 146.05V145.26H83.2924V150.8H81.8824V149.99C81.7024 150.25 81.4524 150.467 81.1324 150.64C80.819 150.807 80.4557 150.89 80.0424 150.89C79.5757 150.89 79.149 150.77 78.7624 150.53C78.3824 150.29 78.079 149.953 77.8524 149.52C77.6324 149.08 77.5224 148.577 77.5224 148.01ZM81.8824 148.03C81.8824 147.69 81.8157 147.4 81.6824 147.16C81.549 146.913 81.369 146.727 81.1424 146.6C80.9157 146.467 80.6724 146.4 80.4124 146.4C80.1524 146.4 79.9124 146.463 79.6924 146.59C79.4724 146.717 79.2924 146.903 79.1524 147.15C79.019 147.39 78.9524 147.677 78.9524 148.01C78.9524 148.343 79.019 148.637 79.1524 148.89C79.2924 149.137 79.4724 149.327 79.6924 149.46C79.919 149.593 80.159 149.66 80.4124 149.66C80.6724 149.66 80.9157 149.597 81.1424 149.47C81.369 149.337 81.549 149.15 81.6824 148.91C81.8157 148.663 81.8824 148.37 81.8824 148.03ZM89.9597 145.26L86.5297 153.42H85.0397L86.2397 150.66L84.0197 145.26H85.5897L87.0197 149.13L88.4697 145.26H89.9597ZM95.0472 143.58C95.7406 143.58 96.2972 143.77 96.7172 144.15C97.1439 144.523 97.3572 145.04 97.3572 145.7C97.3572 146.353 97.1472 146.853 96.7272 147.2C96.3072 147.54 95.7506 147.71 95.0572 147.71L95.0172 148.48H93.7872L93.7372 146.78H94.1872C94.7672 146.78 95.2139 146.703 95.5272 146.55C95.8406 146.397 95.9972 146.117 95.9972 145.71C95.9972 145.417 95.9106 145.183 95.7372 145.01C95.5706 144.837 95.3406 144.75 95.0472 144.75C94.7406 144.75 94.5006 144.833 94.3272 145C94.1606 145.167 94.0772 145.397 94.0772 145.69H92.7572C92.7506 145.283 92.8372 144.92 93.0172 144.6C93.1972 144.28 93.4606 144.03 93.8072 143.85C94.1606 143.67 94.5739 143.58 95.0472 143.58ZM94.3972 150.87C94.1439 150.87 93.9339 150.793 93.7672 150.64C93.6072 150.48 93.5272 150.283 93.5272 150.05C93.5272 149.817 93.6072 149.623 93.7672 149.47C93.9339 149.31 94.1439 149.23 94.3972 149.23C94.6439 149.23 94.8472 149.31 95.0072 149.47C95.1672 149.623 95.2472 149.817 95.2472 150.05C95.2472 150.283 95.1672 150.48 95.0072 150.64C94.8472 150.793 94.6439 150.87 94.3972 150.87Z" fill="white"/>
<rect x="123" y="25" width="76" height="15" rx="7.5" fill="#0A206E"/>
<rect x="319.237" y="138.017" width="2.76292" height="41.6833" fill="url(#paint2_linear_1201_1796)" fill-opacity="0.6"/>
<defs>
<linearGradient id="paint0_linear_1201_1796" x1="160.514" y1="15" x2="160.514" y2="564" gradientUnits="userSpaceOnUse">
<stop stop-color="#F7F7F7"/>
<stop stop-color="#737373" stop-opacity="0.05"/>
</linearGradient>
<linearGradient id="paint1_linear_1201_1796" x1="160.514" y1="15" x2="160.514" y2="564" gradientUnits="userSpaceOnUse">
<stop stop-color="#021969"/>
<stop offset="0.835" stop-color="#D4D4D4" stop-opacity="0.02"/>
</linearGradient>
<linearGradient id="paint2_linear_1201_1796" x1="320.618" y1="138.017" x2="320.618" y2="179.7" gradientUnits="userSpaceOnUse">
<stop stop-color="#00155C"/>
<stop offset="1" stop-color="#4C5880"/>
</linearGradient>
</defs>
</svg>
