<svg width="291" height="300" viewBox="0 0 291 300" fill="none" xmlns="http://www.w3.org/2000/svg">
<g clip-path="url(#clip0_348_3133)">
<path d="M291 66.5365H289.416V24.3921C289.416 21.1889 288.767 18.017 287.505 15.0576C286.243 12.0983 284.393 9.4093 282.061 7.14428C279.73 4.87927 276.962 3.08256 273.915 1.85674C270.868 0.630924 267.603 2.52618e-06 264.305 0H172.385C169.087 -7.57829e-06 165.822 0.630904 162.775 1.85671C159.729 3.08252 156.961 4.87922 154.629 7.14423C152.297 9.40924 150.447 12.0982 149.185 15.0576C147.923 18.017 147.274 21.1888 147.274 24.392V255.6C147.274 262.069 149.92 268.273 154.629 272.848C159.338 277.422 165.725 279.992 172.385 279.992H264.305C270.965 279.992 277.352 277.422 282.061 272.848C286.771 268.273 289.416 262.069 289.416 255.6V96.5357H291L291 66.5365Z" fill="#3F3D56"/>
<path d="M265.319 6.34596H253.32C253.872 7.66003 254.082 9.08575 253.933 10.4975C253.784 11.9093 253.28 13.2638 252.465 14.4417C251.65 15.6196 250.549 16.5847 249.26 17.2521C247.971 17.9195 246.532 18.2686 245.071 18.2687H192.411C190.95 18.2686 189.511 17.9195 188.222 17.2521C186.933 16.5847 185.832 15.6196 185.017 14.4417C184.202 13.2638 183.698 11.9093 183.549 10.4975C183.4 9.08574 183.61 7.66002 184.162 6.34595H172.955C167.982 6.34594 163.212 8.26509 159.695 11.6812C156.179 15.0973 154.203 19.7305 154.203 24.5616V255.43C154.203 260.261 156.179 264.895 159.695 268.311C163.212 271.727 167.982 273.646 172.955 273.646H265.319C267.781 273.646 270.22 273.175 272.495 272.259C274.77 271.344 276.837 270.002 278.579 268.311C280.32 266.619 281.701 264.611 282.644 262.401C283.586 260.191 284.071 257.822 284.071 255.43V24.5617C284.071 22.1695 283.586 19.8008 282.644 17.5908C281.701 15.3808 280.32 13.3727 278.579 11.6812C276.837 9.98972 274.77 8.64796 272.495 7.73254C270.22 6.81712 267.781 6.34596 265.319 6.34596Z" fill="white"/>
<path d="M207.674 36C207.458 36 207.29 35.944 207.17 35.832C207.058 35.712 207.002 35.544 207.002 35.328V28.212C207.002 27.996 207.058 27.832 207.17 27.72C207.29 27.6 207.458 27.54 207.674 27.54H209.99C211.382 27.54 212.454 27.904 213.206 28.632C213.966 29.352 214.346 30.396 214.346 31.764C214.346 32.444 214.25 33.048 214.058 33.576C213.866 34.104 213.582 34.548 213.206 34.908C212.838 35.26 212.386 35.532 211.85 35.724C211.314 35.908 210.694 36 209.99 36H207.674ZM208.25 34.956H209.918C210.446 34.956 210.902 34.892 211.286 34.764C211.678 34.628 212.006 34.428 212.27 34.164C212.534 33.9 212.73 33.568 212.858 33.168C212.986 32.768 213.05 32.3 213.05 31.764C213.05 30.7 212.786 29.904 212.258 29.376C211.738 28.848 210.958 28.584 209.918 28.584H208.25V34.956ZM218.629 36.108C217.989 36.108 217.437 35.988 216.973 35.748C216.517 35.5 216.161 35.152 215.905 34.704C215.657 34.248 215.533 33.708 215.533 33.084C215.533 32.476 215.657 31.944 215.905 31.488C216.153 31.032 216.493 30.676 216.925 30.42C217.357 30.164 217.849 30.036 218.401 30.036C218.809 30.036 219.173 30.104 219.493 30.24C219.813 30.368 220.085 30.56 220.309 30.816C220.541 31.064 220.713 31.368 220.825 31.728C220.945 32.088 221.005 32.492 221.005 32.94C221.005 33.076 220.965 33.18 220.885 33.252C220.805 33.316 220.685 33.348 220.525 33.348H216.493V32.604H220.189L219.985 32.772C219.985 32.372 219.925 32.032 219.805 31.752C219.693 31.472 219.521 31.26 219.289 31.116C219.065 30.964 218.785 30.888 218.449 30.888C218.073 30.888 217.753 30.976 217.489 31.152C217.233 31.328 217.037 31.572 216.901 31.884C216.765 32.196 216.697 32.56 216.697 32.976V33.048C216.697 33.752 216.861 34.284 217.189 34.644C217.525 34.996 218.009 35.172 218.641 35.172C218.881 35.172 219.133 35.14 219.397 35.076C219.669 35.012 219.925 34.904 220.165 34.752C220.301 34.672 220.421 34.636 220.525 34.644C220.637 34.652 220.725 34.688 220.789 34.752C220.861 34.816 220.905 34.896 220.921 34.992C220.937 35.088 220.921 35.188 220.873 35.292C220.825 35.388 220.741 35.476 220.621 35.556C220.349 35.74 220.033 35.88 219.673 35.976C219.313 36.064 218.965 36.108 218.629 36.108ZM224.211 36.108C223.587 36.108 223.115 35.928 222.795 35.568C222.483 35.2 222.327 34.672 222.327 33.984V28.068C222.327 27.868 222.379 27.716 222.483 27.612C222.587 27.508 222.735 27.456 222.927 27.456C223.119 27.456 223.267 27.508 223.371 27.612C223.483 27.716 223.539 27.868 223.539 28.068V33.912C223.539 34.312 223.619 34.612 223.779 34.812C223.947 35.004 224.187 35.1 224.499 35.1C224.571 35.1 224.635 35.1 224.691 35.1C224.747 35.092 224.803 35.084 224.859 35.076C224.955 35.068 225.023 35.096 225.063 35.16C225.103 35.216 225.123 35.336 225.123 35.52C225.123 35.688 225.087 35.82 225.015 35.916C224.943 36.004 224.827 36.06 224.667 36.084C224.595 36.092 224.519 36.096 224.439 36.096C224.359 36.104 224.283 36.108 224.211 36.108ZM226.619 36.084C226.427 36.084 226.279 36.032 226.175 35.928C226.071 35.816 226.019 35.664 226.019 35.472V30.672C226.019 30.472 226.071 30.32 226.175 30.216C226.279 30.112 226.423 30.06 226.607 30.06C226.799 30.06 226.943 30.112 227.039 30.216C227.143 30.32 227.195 30.472 227.195 30.672V31.656L227.063 31.392C227.223 30.968 227.471 30.636 227.807 30.396C228.143 30.156 228.547 30.036 229.019 30.036C229.507 30.036 229.903 30.152 230.207 30.384C230.511 30.616 230.719 30.972 230.831 31.452H230.663C230.815 31.012 231.075 30.668 231.443 30.42C231.811 30.164 232.239 30.036 232.727 30.036C233.175 30.036 233.543 30.124 233.831 30.3C234.119 30.468 234.335 30.728 234.479 31.08C234.623 31.424 234.695 31.86 234.695 32.388V35.472C234.695 35.664 234.639 35.816 234.527 35.928C234.423 36.032 234.275 36.084 234.083 36.084C233.891 36.084 233.743 36.032 233.639 35.928C233.535 35.816 233.483 35.664 233.483 35.472V32.448C233.483 31.952 233.395 31.588 233.219 31.356C233.051 31.124 232.771 31.008 232.379 31.008C231.939 31.008 231.591 31.16 231.335 31.464C231.079 31.768 230.951 32.188 230.951 32.724V35.472C230.951 35.664 230.899 35.816 230.795 35.928C230.691 36.032 230.543 36.084 230.351 36.084C230.159 36.084 230.007 36.032 229.895 35.928C229.791 35.816 229.739 35.664 229.739 35.472V32.448C229.739 31.952 229.655 31.588 229.487 31.356C229.319 31.124 229.039 31.008 228.647 31.008C228.207 31.008 227.859 31.16 227.603 31.464C227.355 31.768 227.231 32.188 227.231 32.724V35.472C227.231 35.88 227.027 36.084 226.619 36.084ZM238.261 36.108C237.853 36.108 237.485 36.028 237.157 35.868C236.837 35.708 236.585 35.492 236.401 35.22C236.217 34.948 236.125 34.64 236.125 34.296C236.125 33.864 236.233 33.524 236.449 33.276C236.673 33.02 237.037 32.84 237.541 32.736C238.053 32.624 238.741 32.568 239.605 32.568H240.169V33.312H239.617C239.041 33.312 238.585 33.34 238.249 33.396C237.913 33.452 237.673 33.548 237.529 33.684C237.393 33.812 237.325 33.992 237.325 34.224C237.325 34.528 237.429 34.776 237.637 34.968C237.845 35.152 238.133 35.244 238.501 35.244C238.797 35.244 239.057 35.176 239.281 35.04C239.505 34.896 239.681 34.704 239.809 34.464C239.945 34.224 240.013 33.948 240.013 33.636V32.256C240.013 31.8 239.917 31.472 239.725 31.272C239.533 31.072 239.217 30.972 238.777 30.972C238.521 30.972 238.253 31.004 237.973 31.068C237.701 31.132 237.417 31.24 237.121 31.392C236.985 31.456 236.869 31.476 236.773 31.452C236.677 31.428 236.601 31.376 236.545 31.296C236.489 31.208 236.457 31.116 236.449 31.02C236.449 30.916 236.473 30.816 236.521 30.72C236.577 30.624 236.669 30.552 236.797 30.504C237.149 30.336 237.497 30.216 237.841 30.144C238.185 30.072 238.509 30.036 238.813 30.036C239.349 30.036 239.789 30.12 240.133 30.288C240.485 30.456 240.745 30.712 240.913 31.056C241.081 31.4 241.165 31.844 241.165 32.388V35.472C241.165 35.664 241.117 35.816 241.021 35.928C240.925 36.032 240.785 36.084 240.601 36.084C240.425 36.084 240.285 36.032 240.181 35.928C240.077 35.816 240.025 35.664 240.025 35.472V34.692H240.133C240.069 34.988 239.949 35.244 239.773 35.46C239.605 35.668 239.393 35.828 239.137 35.94C238.881 36.052 238.589 36.108 238.261 36.108Z" fill="#3454C1"/>
<path d="M223.984 257.294C215.823 257.297 207.907 254.576 201.565 249.585C195.223 244.595 190.84 237.639 189.15 229.882C187.459 222.126 188.565 214.041 192.281 206.982C195.998 199.924 202.099 194.32 209.562 191.111C217.026 187.902 225.398 187.282 233.275 189.356C241.153 191.429 248.058 196.07 252.832 202.5C257.607 208.93 259.961 216.759 259.5 224.675C259.04 232.59 255.792 240.111 250.302 245.978L257.734 254.071L254.025 255.599C248.288 257.963 242.673 255.662 239.522 253.827C234.679 256.107 229.367 257.293 223.984 257.294ZM223.984 193.835C219.446 193.836 214.967 194.845 210.891 196.785C206.815 198.725 203.25 201.545 200.467 205.028C197.685 208.511 195.759 212.567 194.837 216.884C193.915 221.201 194.021 225.665 195.147 229.936C196.273 234.207 198.39 238.172 201.335 241.527C204.279 244.882 207.975 247.538 212.139 249.294C216.302 251.049 220.824 251.856 225.358 251.654C229.892 251.452 234.319 250.246 238.3 248.128L239.887 247.281L241.364 248.301C243.05 249.493 244.966 250.344 246.997 250.805L242.32 245.712L244.371 243.841C247.348 241.146 249.72 237.883 251.336 234.255C252.953 230.627 253.778 226.713 253.762 222.76C253.753 215.091 250.613 207.739 245.031 202.316C239.448 196.894 231.879 193.843 223.984 193.835Z" fill="#E6E6E6"/>
<path d="M256.649 222.76C256.646 215.808 254.292 209.051 249.95 203.526C245.607 198 239.517 194.014 232.614 192.18C225.712 190.345 218.38 190.764 211.747 193.372C205.113 195.98 199.546 200.633 195.9 206.614C192.255 212.596 190.733 219.575 191.569 226.479C192.406 233.383 195.554 239.828 200.529 244.824C205.505 249.82 212.032 253.09 219.107 254.131C226.183 255.173 233.414 253.927 239.69 250.586C241.948 252.147 247.456 255.259 252.898 253.017L246.347 245.885C249.604 242.921 252.198 239.339 253.97 235.361C255.742 231.383 256.654 227.094 256.649 222.76Z" fill="white"/>
<path d="M230.502 216.272H207.161V218.378H230.502V216.272Z" fill="#1972EE" fill-opacity="0.95"/>
<path d="M247.842 223.556H207.161V225.661H247.842V223.556Z" fill="#E6E6E6"/>
<path d="M247.802 230.839H207.161V232.945H247.802V230.839Z" fill="#E6E6E6"/>
<path d="M226.606 114.141C218.444 114.145 210.529 111.423 204.187 106.433C197.845 101.442 193.462 94.4861 191.772 86.7297C190.081 78.9734 191.187 70.8885 194.903 63.8298C198.62 56.7711 204.721 51.1677 212.184 47.9586C219.647 44.7495 228.019 44.1298 235.897 46.2032C243.775 48.2767 250.68 52.9174 255.454 59.3475C260.229 65.7776 262.583 73.6065 262.122 81.522C261.661 89.4376 258.414 96.9588 252.924 102.825L260.356 110.918L256.647 112.446C250.909 114.81 245.295 112.51 242.144 110.674C237.3 112.955 231.988 114.14 226.606 114.141ZM226.606 50.6822C222.067 50.6836 217.589 51.6928 213.513 53.6328C209.437 55.5728 205.872 58.3922 203.089 61.8755C200.307 65.3589 198.381 69.414 197.459 73.731C196.537 78.048 196.643 82.5127 197.769 86.7838C198.895 91.0549 201.011 95.0194 203.956 98.3744C206.901 101.729 210.597 104.386 214.76 106.141C218.924 107.897 223.446 108.704 227.98 108.502C232.514 108.3 236.941 107.094 240.921 104.976L242.509 104.128L243.985 105.148C245.672 106.34 247.588 107.192 249.619 107.652L244.942 102.56L246.992 100.688C249.97 97.9939 252.342 94.73 253.958 91.102C255.574 87.474 256.4 83.5604 256.384 79.6073C256.375 71.9386 253.235 64.5864 247.652 59.1638C242.07 53.7411 234.501 50.6909 226.606 50.6822Z" fill="#E6E6E6"/>
<path d="M259.271 79.6073C259.268 72.6561 256.914 65.8982 252.572 60.3731C248.229 54.848 242.138 50.8617 235.236 49.0272C228.334 47.1928 221.002 47.6118 214.369 50.2198C207.735 52.8278 202.168 57.4804 198.522 63.462C194.876 69.4436 193.355 76.423 194.191 83.3266C195.027 90.2302 198.175 96.6757 203.151 101.672C208.126 106.668 214.654 109.938 221.729 110.979C228.805 112.02 236.036 110.774 242.312 107.434C244.57 108.994 250.078 112.107 255.52 109.865L248.969 102.732C252.226 99.7686 254.82 96.1868 256.592 92.2089C258.364 88.2309 259.276 83.9417 259.271 79.6073Z" fill="white"/>
<path d="M233.123 73.1198H209.783V75.2252H233.123V73.1198Z" fill="#1972EE" fill-opacity="0.95"/>
<path d="M250.464 80.4032H209.783V82.5087H250.464V80.4032Z" fill="#E6E6E6"/>
<path d="M250.424 87.6868H209.783V89.7922H250.424V87.6868Z" fill="#E6E6E6"/>
<path d="M271.851 117.091C274.695 117.091 277 114.852 277 112.09C277 109.327 274.695 107.088 271.851 107.088C269.007 107.088 266.702 109.327 266.702 112.09C266.702 114.852 269.007 117.091 271.851 117.091Z" fill="#E6E6E6"/>
<path d="M269.229 260.243C272.073 260.243 274.378 258.004 274.378 255.242C274.378 252.48 272.073 250.241 269.229 250.241C266.386 250.241 264.08 252.48 264.08 255.242C264.08 258.004 266.386 260.243 269.229 260.243Z" fill="#E6E6E6"/>
<path d="M155.522 183.131C151.755 185.326 145.041 188.076 138.181 185.249L133.747 183.422L142.633 173.746C135.542 166.151 131.619 156.262 131.63 146.008C131.64 135.755 135.584 125.873 142.692 118.293C149.799 110.712 159.559 105.976 170.068 105.009C180.576 104.042 191.079 106.914 199.525 113.063C207.971 119.213 213.755 128.199 215.748 138.268C217.74 148.337 215.798 158.766 210.301 167.52C204.804 176.273 196.146 182.722 186.018 185.609C175.889 188.495 165.017 187.612 155.522 183.131Z" fill="#3454C1"/>
<path opacity="0.1" d="M209.899 145.794C209.898 136.313 206.243 127.175 199.653 120.181C193.064 113.187 184.017 108.844 174.295 108.005C175.433 107.908 176.583 107.856 177.747 107.856C188.101 107.862 198.028 111.862 205.347 118.976C212.666 126.09 216.778 135.736 216.778 145.794C216.778 155.851 212.666 165.497 205.347 172.611C198.028 179.725 188.101 183.725 177.747 183.731C176.585 183.731 175.436 183.678 174.3 183.582C184.021 182.742 193.067 178.398 199.655 171.404C206.244 164.41 209.898 155.274 209.899 145.794Z" fill="black"/>
<path d="M179.581 138.228H151.674V140.746H179.581V138.228Z" fill="white"/>
<path d="M200.314 146.937H151.674V149.454H200.314V146.937Z" fill="white"/>
<path d="M200.267 155.645H151.674V158.163H200.267V155.645Z" fill="white"/>
<path d="M0.39606 300H151.295C151.4 300 151.501 299.959 151.575 299.887C151.649 299.815 151.691 299.717 151.691 299.615C151.691 299.513 151.649 299.415 151.575 299.343C151.501 299.271 151.4 299.23 151.295 299.23H0.39606C0.291019 299.23 0.190279 299.271 0.116003 299.343C0.0417274 299.415 0 299.513 0 299.615C0 299.717 0.0417274 299.815 0.116003 299.887C0.190279 299.959 0.291019 300 0.39606 300Z" fill="#CCCCCC"/>
<path d="M72.79 134.468L73.3865 131.571C73.3865 131.571 82.1589 128.674 83.1404 134.468H72.79Z" fill="#E6E6E6"/>
<path d="M89.6262 293.965L95.3774 293.965L98.1134 272.417L89.625 272.417L89.6262 293.965Z" fill="#FFB9B9"/>
<path d="M88.1589 292.141L99.485 292.141H99.4855C101.4 292.141 103.236 292.879 104.589 294.194C105.943 295.509 106.703 297.292 106.703 299.152V299.379L88.1593 299.38L88.1589 292.141Z" fill="#2F2E41"/>
<path d="M61.9018 293.965L67.653 293.965L70.389 272.417L61.9006 272.417L61.9018 293.965Z" fill="#FFB9B9"/>
<path d="M60.4348 292.141L71.7609 292.141H71.7614C73.6756 292.141 75.5114 292.879 76.865 294.194C78.2186 295.509 78.9791 297.292 78.9793 299.152V299.379L60.4352 299.38L60.4348 292.141Z" fill="#2F2E41"/>
<path d="M64.4402 146.634L57.8795 146.054L53.7046 165.173L54.3011 182.553L60.8618 205.727L69.808 200.513L65.0367 176.759L64.4402 146.634Z" fill="#3454C1"/>
<path d="M60.2875 203.699L61.756 215.865L63.1355 244.253L59.967 286.556L71.2987 285.965L76.8531 241.936L80.2449 221.658L85.0163 244.832L87.9986 288.283L99.6285 287.377V244.679L99.9268 213.548L95.7519 201.382L60.2875 203.699Z" fill="#2F2E41"/>
<path d="M84.7183 135.047C84.7183 135.047 80.5434 129.254 72.79 133.309L69.2115 137.944L57.8796 146.055L60.2653 173.284L57.2832 207.465L99.6287 206.885L92.4717 172.704V136.206L84.7183 135.047Z" fill="#3454C1"/>
<path opacity="0.25" d="M61.756 155.671L58.3364 195.389L62.6507 173.863L61.756 155.671Z" fill="black"/>
<path d="M132.938 188.972C132.33 189.173 131.683 189.242 131.043 189.174C130.404 189.105 129.788 188.902 129.239 188.578C128.689 188.253 128.22 187.816 127.863 187.296C127.506 186.776 127.271 186.186 127.175 185.569L117.416 183.226L117.435 177.119L131.168 180.615C132.247 180.526 133.322 180.824 134.19 181.454C135.057 182.083 135.657 183 135.875 184.03C136.093 185.06 135.915 186.132 135.373 187.043C134.832 187.954 133.966 188.64 132.938 188.972Z" fill="#FFB9B9"/>
<path d="M122.734 177.046L121.093 186.177L125.206 186.874L126.847 177.743L122.734 177.046Z" fill="#E6E6E6"/>
<path d="M89.6251 138.444L92.4717 136.206C92.4717 136.206 98.217 135.818 98.1132 141.734L107.306 169.666L124.942 175.735L122.565 187.661L97.6134 178.428L84.9395 158.023L89.6251 138.444Z" fill="#3454C1"/>
<path d="M78 129C82.9706 129 87 124.299 87 118.5C87 112.701 82.9706 108 78 108C73.0294 108 69 112.701 69 118.5C69 124.299 73.0294 129 78 129Z" fill="#FFB8B8"/>
<path d="M89 113H75V105.613C78.0728 104.136 81.0798 102.879 82.8974 105.613C84.5159 105.613 86.0681 106.392 87.2126 107.777C88.357 109.162 89 111.041 89 113Z" fill="#2F2E41"/>
<path d="M74.0001 104C65.4056 104 63 116.698 63 123.861C63 127.856 64.5328 129.285 66.9415 129.769L67.7921 124.421L69.7845 129.999C70.4611 130.003 71.1719 129.987 71.9087 129.971L72.5843 128.332L74.0906 129.942C80.1238 129.952 85 130.989 85 123.861C85 116.698 82.8903 104 74.0001 104Z" fill="#2F2E41"/>
</g>
<defs>
<clipPath id="clip0_348_3133">
<rect width="291" height="300" fill="white"/>
</clipPath>
</defs>
</svg>
