<svg width="293" height="242" viewBox="0 0 293 242" fill="none" xmlns="http://www.w3.org/2000/svg">
<g clip-path="url(#clip0_158_1550)">
<path d="M244.812 37.2111L222.21 37.4724C221.147 31.2663 217.578 14.9825 220.792 10.5409C220.939 8.86924 221.623 7.32901 222.703 6.24088C223.782 5.15275 225.174 4.60056 226.588 4.69925C230.091 -1.80772 235.926 -0.830739 239.87 3.23315C243.839 4.85824 245.336 7.74533 244.812 11.6632C247.752 14.7163 248.294 18.4308 246.975 22.659L244.812 37.2111Z" fill="#2F2E41"/>
<path d="M242.636 53.7329L226.329 51.0537L223.068 45.3976C227.561 41.8614 229.15 36.9224 227.082 30.2154L238.372 29.9177C237.843 35.8904 239.507 40.5148 244.142 43.3137L242.636 53.7329Z" fill="#FFB9B9"/>
<path d="M222.474 228.263L221.85 238.378C221.822 238.836 221.877 239.295 222.01 239.726C222.144 240.157 222.354 240.549 222.626 240.875C222.898 241.202 223.225 241.456 223.587 241.62C223.948 241.784 224.335 241.855 224.721 241.827L229.099 241.512C229.302 241.498 229.5 241.43 229.678 241.315C229.857 241.199 230.011 241.038 230.132 240.844C230.252 240.649 230.334 240.426 230.374 240.189C230.413 239.953 230.407 239.709 230.358 239.475L227.928 227.939L222.474 228.263Z" fill="#E6E6E6"/>
<path d="M236.649 227.939L234.218 239.475C234.169 239.709 234.164 239.953 234.203 240.189C234.242 240.426 234.325 240.649 234.445 240.844C234.565 241.038 234.72 241.199 234.898 241.315C235.077 241.43 235.274 241.498 235.477 241.512L239.856 241.827C240.242 241.855 240.629 241.784 240.99 241.62C241.351 241.456 241.679 241.202 241.951 240.875C242.222 240.549 242.432 240.157 242.566 239.726C242.7 239.295 242.754 238.836 242.726 238.378L242.103 228.263L236.649 227.939Z" fill="#E6E6E6"/>
<path d="M242.386 229.667L236.477 228.964L230.594 154.352L228.371 228.723L222.566 228.477L212.782 125.476H250.163L242.386 229.667Z" fill="#11319E"/>
<path d="M233.354 34.9784C239.589 34.9784 244.643 28.9808 244.643 21.5824C244.643 14.184 239.589 8.1864 233.354 8.1864C227.119 8.1864 222.064 14.184 222.064 21.5824C222.064 28.9808 227.119 34.9784 233.354 34.9784Z" fill="#FFB9B9"/>
<path d="M255.682 127.857L210.022 128.453C216.798 97.8436 220.852 69.4101 213.785 49.8629L225.075 43.3138C230.518 50.0509 236.581 49.3564 243.138 42.7184L253.926 45.993C252.078 71.6261 252.906 99.0794 255.682 127.857Z" fill="#11319E"/>
<path d="M197.478 96.3024L225.827 109.698L232.166 111.91C232.449 112.009 232.747 112.039 233.04 111.998C233.334 111.957 233.617 111.847 233.874 111.672C234.13 111.498 234.354 111.264 234.532 110.985C234.711 110.705 234.84 110.386 234.911 110.045C235.037 109.449 234.981 108.819 234.752 108.267C234.524 107.715 234.138 107.277 233.663 107.031L227.082 104.638L207.262 90.944L211.402 77.9945L202.746 72.4873L197.478 96.3024Z" fill="#FFB9B9"/>
<path d="M197.729 71.8919C203.123 74.3888 207.413 78.6501 210.775 84.3948L221.312 66.2358L213.785 49.8629L197.729 71.8919Z" fill="#11319E"/>
<path d="M246.078 19.4114C241.496 18.0105 236.991 17.8181 232.611 19.595C229.822 21.1982 226.472 21.0505 222.746 19.7296V6.36438L242.86 7.00082L246.078 19.4114Z" fill="#2F2E41"/>
<path d="M225.733 80.6943C224.847 80.6955 223.997 81.1139 223.37 81.8577C222.743 82.6015 222.391 83.61 222.39 84.6619L223.709 117.445C223.71 118.497 224.063 119.505 224.69 120.249C225.317 120.993 226.167 121.411 227.053 121.412H242.143C243.029 121.411 243.879 120.993 244.506 120.249C245.133 119.505 245.486 118.497 245.486 117.445L246.806 84.6619C246.805 83.61 246.453 82.6015 245.826 81.8577C245.199 81.1139 244.349 80.6955 243.463 80.6943H225.733Z" fill="#3F3D56"/>
<path d="M268.547 93.8258L243.837 105.501L241.972 106.382C241.913 106.409 241.854 106.433 241.791 106.456L235.545 108.637C234.746 108.915 233.641 107.639 232.994 106.758C232.674 106.333 232.493 105.787 232.483 105.217C232.473 104.647 232.636 104.092 232.942 103.653C233.028 103.535 233.123 103.426 233.225 103.328C233.466 103.106 233.749 102.958 234.05 102.897L240.29 101.441C240.513 101.389 240.729 101.294 240.926 101.159L243.837 99.1466L258.945 88.7087C259.366 88.4189 259.685 87.9615 259.848 87.418C260.01 86.8746 260.005 86.2803 259.833 85.741L256.949 76.7165C256.772 76.1643 256.771 75.5546 256.945 75.0013C257.119 74.448 257.457 73.9888 257.896 73.7096L262.674 70.6714C262.947 70.4975 263.25 70.3994 263.559 70.3845C263.869 70.3695 264.177 70.4381 264.461 70.5851C264.745 70.7321 264.997 70.9537 265.199 71.2332C265.4 71.5126 265.545 71.8426 265.624 72.1984L269.771 90.9443C269.899 91.5191 269.845 92.1294 269.619 92.6602C269.394 93.191 269.012 93.6056 268.547 93.8258Z" fill="#FFB9B9"/>
<path d="M269.982 68.6174C264.588 71.1143 260.298 75.3756 256.936 81.1204L246.399 62.9613L253.926 45.993L269.982 68.6174Z" fill="#11319E"/>
<path d="M240.867 33.5056C235.928 35.9433 230.749 35.8443 225.359 33.5056C226.928 30.3289 224.583 27.8408 223.379 24.6339L243.507 23.9242C241.967 26.7101 239.696 30.0016 240.867 33.5056Z" fill="white"/>
<path d="M243.294 24.4543L243.06 24.1775L243.39 23.7859L245.361 21.0563L245.612 21.3108L243.632 24.0514L243.294 24.4543Z" fill="white"/>
<path d="M222 22.795L221.789 23.0959L223.769 25.0535L223.98 24.7526L222 22.795Z" fill="white"/>
<path d="M243.862 26.756L240.397 33.2155L240.675 33.4257L244.141 26.9663L243.862 26.756Z" fill="white"/>
<path d="M222.364 26.7556L222.085 26.9658L225.55 33.4259L225.828 33.2156L222.364 26.7556Z" fill="white"/>
<path d="M244.497 98.5928V105.686L242.416 106.669C242.349 106.7 242.283 106.726 242.213 106.752L235.241 109.186C234.35 109.497 233.116 108.072 232.394 107.089C232.037 106.615 231.834 106.005 231.823 105.369C231.812 104.733 231.994 104.114 232.335 103.623C232.431 103.491 232.537 103.37 232.652 103.26C232.92 103.012 233.237 102.847 233.573 102.779L240.537 101.154C240.787 101.096 241.027 100.989 241.248 100.839L244.497 98.5928Z" fill="white"/>
<path d="M220.088 68.3411H218.896C218.896 50.0144 222.392 38.6296 227.54 38.6296L227.242 40.0445C223.681 40.0445 220.088 48.7941 220.088 68.3411Z" fill="#3F3D56"/>
<path d="M246.916 77.1838C248.562 77.1838 249.897 75.6002 249.897 73.6467C249.897 71.6932 248.562 70.1096 246.916 70.1096C245.27 70.1096 243.935 71.6932 243.935 73.6467C243.935 75.6002 245.27 77.1838 246.916 77.1838Z" fill="#3F3D56"/>
<path d="M215.319 76.8301H214.126C214.126 71.7592 216.533 67.6337 219.492 67.6337V69.0485C217.191 69.0485 215.319 72.5393 215.319 76.8301Z" fill="#3F3D56"/>
<path d="M224.858 76.8301H223.665C223.665 72.5393 221.793 69.0485 219.492 69.0485V67.6337C222.451 67.6337 224.858 71.7592 224.858 76.8301Z" fill="#3F3D56"/>
<path d="M224.261 78.5987C224.92 78.5987 225.454 77.9653 225.454 77.1839C225.454 76.4025 224.92 75.769 224.261 75.769C223.603 75.769 223.069 76.4025 223.069 77.1839C223.069 77.9653 223.603 78.5987 224.261 78.5987Z" fill="#3F3D56"/>
<path d="M214.722 78.5987C215.381 78.5987 215.915 77.9653 215.915 77.1839C215.915 76.4025 215.381 75.769 214.722 75.769C214.064 75.769 213.53 76.4025 213.53 77.1839C213.53 77.9653 214.064 78.5987 214.722 78.5987Z" fill="#3F3D56"/>
<path d="M71.0297 29.6369L50.0888 33.8448C49.5715 33.9495 49.0398 33.8228 48.5967 33.4892C48.1535 33.1556 47.8305 32.6388 47.69 32.0389C46.177 25.5594 43.0138 17.1068 46.085 12.8636C46.2414 11.0785 46.9721 9.43378 48.1248 8.27183C49.2775 7.10987 50.7635 6.52021 52.2734 6.6256C56.0143 -0.322814 62.2454 0.720446 66.4568 5.06004C70.6952 6.79538 72.2932 9.87833 71.7344 14.062C73.5654 15.9638 74.5254 18.1059 74.7278 20.457C74.8237 21.7654 74.6834 23.083 74.3162 24.322C73.949 25.5609 73.3634 26.6927 72.5983 27.6417L71.0297 29.6369Z" fill="#2F2E41"/>
<path d="M67.7737 49.1993L51.5398 48.0661C53.1308 43.7333 53.7663 39.5609 53.1314 35.6019H65.2272C65.1998 38.6416 66.4746 43.8997 67.7737 49.1993Z" fill="#9F616A"/>
<path d="M48.2326 227.194L47.5668 237.995C47.5367 238.484 47.595 238.975 47.7378 239.435C47.8807 239.895 48.1048 240.313 48.395 240.662C48.6853 241.011 49.0351 241.282 49.421 241.457C49.8068 241.632 50.2197 241.708 50.6321 241.678L55.3076 241.342C55.5243 241.326 55.7354 241.254 55.9259 241.131C56.1164 241.008 56.2817 240.836 56.41 240.628C56.5383 240.421 56.6266 240.182 56.6684 239.929C56.7102 239.677 56.7045 239.416 56.6519 239.166L54.0566 226.848L48.2326 227.194Z" fill="#E6E6E6"/>
<path d="M63.3694 226.848L60.7741 239.166C60.7215 239.416 60.7159 239.677 60.7577 239.929C60.7995 240.182 60.8877 240.421 61.016 240.628C61.1443 240.836 61.3096 241.008 61.5001 241.131C61.6907 241.254 61.9017 241.326 62.1184 241.342L66.7939 241.678C67.2063 241.708 67.6192 241.632 68.0051 241.457C68.3909 241.282 68.7407 241.011 69.031 240.662C69.3213 240.313 69.5454 239.895 69.6882 239.435C69.831 238.975 69.8893 238.484 69.8592 237.995L69.1934 227.194L63.3694 226.848Z" fill="#E6E6E6"/>
<path d="M69.495 228.693L63.1857 227.942L56.904 148.268L54.5299 227.685L48.3311 227.422L37.8831 117.434H77.8L69.495 228.693Z" fill="#11319E"/>
<path d="M59.4986 40.187C66.1567 40.187 71.5541 33.7825 71.5541 25.8822C71.5541 17.9819 66.1567 11.5774 59.4986 11.5774C52.8405 11.5774 47.4431 17.9819 47.4431 25.8822C47.4431 33.7825 52.8405 40.187 59.4986 40.187Z" fill="#9F616A"/>
<path d="M73.0856 19.0486C68.1926 18.0375 63.382 17.8987 58.7056 19.1812C55.7267 20.3383 52.1493 20.2317 48.1709 19.2783V9.63171L69.6491 10.0911L73.0856 19.0486Z" fill="#2F2E41"/>
<path d="M67.5216 37.36C62.2477 39.963 56.7177 39.8573 50.9617 37.36C52.6366 33.9677 50.133 31.3109 48.8477 27.8864L70.3404 27.1285C68.6968 30.1034 66.2715 33.6182 67.5216 37.36Z" fill="white"/>
<path d="M47.3676 25.9328L47.1562 26.2338L49.2702 28.324L49.4815 28.0231L47.3676 25.9328Z" fill="white"/>
<path d="M70.7298 30.1593L67.0293 37.057L67.3077 37.2673L71.0082 30.3696L70.7298 30.1593Z" fill="white"/>
<path d="M47.753 30.1589L47.4746 30.3691L51.1742 37.2675L51.4526 37.0573L47.753 30.1589Z" fill="white"/>
<path d="M36.5792 91.1244L27.3481 84.3257L35.2206 56.9668C36.0986 54.1437 37.7804 51.7734 39.9752 50.2657L42.6271 48.4438L42.8577 76.0439L36.5792 91.1244Z" fill="#11319E"/>
<path d="M76.4799 104.412L75.1142 90.5315C75.0413 83.2051 76.0917 76.1218 78.5964 69.5952L79.8697 49.1992L65.8639 42.4005C65.821 42.7392 65.7845 43.0776 65.7435 43.4162L59.1794 47.3107L52.7777 45.5843L52.8131 43.1559L40.0806 49.9546C44.2913 73.1826 41.9947 97.3039 34.7539 125.795L51.5278 131.238L51.6673 121.681L66.6164 120.413C66.7704 123.514 66.8941 126.56 66.966 129.538C75.4013 133.223 75.6911 133.162 83.3768 127.886C80.3161 120.25 77.8926 112.304 76.4799 104.412Z" fill="#11319E"/>
<path d="M98.0135 87.7249L89.4191 84.3257L75.6719 65.3359L79.8696 49.1995L98.9683 80.9266L98.0135 87.7249Z" fill="#11319E"/>
<path d="M71.0787 102.426C71.2193 103.159 71.5989 103.795 72.1342 104.196C72.6696 104.596 73.317 104.729 73.9345 104.564L81.23 102.603L80.1756 97.0778L72.8799 99.0378C72.2624 99.2039 71.7257 99.6541 71.3879 100.29C71.0502 100.925 70.9389 101.694 71.0787 102.426Z" fill="#E6E6E6"/>
<path d="M77.6416 96.0344L81.7797 105.099C88.7398 102.796 94.7719 95.5342 100.56 86.9695L98.9685 80.9263L89.1009 83.9479L77.6416 96.0344Z" fill="#11319E"/>
<path d="M23.6875 67.6L31.6315 69.2831L49.7892 99.9183L40.143 97.225L23.6875 67.6Z" fill="#E6E6E6"/>
<path d="M22.2785 67.225C22.1575 67.2271 22.0391 67.2679 21.9359 67.3429C21.8326 67.4179 21.7483 67.5244 21.6916 67.6514C21.6349 67.7783 21.6081 67.921 21.6138 68.0645C21.6195 68.208 21.6576 68.3471 21.7241 68.4671L38.6968 99.0236C38.7915 99.1945 38.9378 99.3157 39.1056 99.3624L47.0025 101.567C47.1356 101.604 47.2751 101.593 47.4025 101.533C47.5299 101.474 47.6392 101.371 47.7158 101.236C47.7924 101.102 47.8328 100.943 47.8315 100.781C47.8302 100.618 47.7874 100.46 47.7087 100.328L29.0738 68.8872C29.0232 68.8015 28.959 68.7285 28.8846 68.6724C28.8103 68.6162 28.7274 68.578 28.6406 68.5599L22.4058 67.2386C22.3638 67.2297 22.3212 67.2251 22.2785 67.225Z" fill="#3F3D56"/>
<path d="M32.8662 89.0726L33.3379 94.7105L40.7816 93.8338C41.4117 93.7596 41.9911 93.3914 42.3924 92.8103C42.7937 92.2291 42.984 91.4827 42.9215 90.735C42.859 89.9874 42.5487 89.2999 42.059 88.8237C41.5692 88.3475 40.9401 88.1217 40.31 88.1959L32.8662 89.0726Z" fill="#E6E6E6"/>
<path d="M26.3933 88.4196C26.4041 90.342 27.0548 92.1814 28.2036 93.537C29.3524 94.8926 30.9061 95.6546 32.5263 95.6568H33.7502L34.6413 86.8455L27.2634 83.6938L26.3933 88.4196Z" fill="#11319E"/>
<path d="M69.7521 28.1033L69.5188 27.8265L69.8712 27.4083L71.9766 24.4927L72.2271 24.7472L70.113 27.6738L69.7521 28.1033Z" fill="white"/>
<path d="M293 241.217H0V242H293V241.217Z" fill="#E6E5FB"/>
<path d="M111.855 240.825H181.145V141.099C181.145 135.819 176.762 131.523 171.374 131.523H121.626C116.238 131.523 111.855 135.819 111.855 141.099V240.825Z" fill="#E6E6E6"/>
<path d="M117.134 236.702H175.866V152.172C175.866 147.696 172.15 144.054 167.584 144.054H125.416C120.849 144.054 117.134 147.696 117.134 152.172V236.702Z" fill="white"/>
<path d="M111.331 123.761C109.619 123.761 108.225 125.127 108.225 126.806V135.593C108.225 137.271 109.619 138.637 111.331 138.637H181.669C183.382 138.637 184.775 137.271 184.775 135.593V126.806C184.775 125.127 183.382 123.761 181.669 123.761H111.331Z" fill="#3F3D56"/>
<path d="M125.773 225.863C124.968 225.865 124.198 226.246 123.629 226.92C123.061 227.595 122.74 228.509 122.738 229.463C122.74 230.417 123.061 231.332 123.629 232.006C124.198 232.681 124.968 233.061 125.773 233.064H131.452V225.863H125.773Z" fill="#3F3D56"/>
<path d="M136.665 225.863H131.141V233.064H136.665C137.47 233.061 138.24 232.681 138.809 232.006C139.377 231.332 139.698 230.417 139.7 229.463C139.698 228.509 139.377 227.595 138.809 226.92C138.24 226.246 137.47 225.865 136.665 225.863Z" fill="#1E04F7"/>
<path opacity="0.2" d="M138.646 226.744C139.124 227.396 139.388 228.23 139.389 229.094C139.386 230.048 139.066 230.962 138.497 231.637C137.929 232.312 137.158 232.692 136.354 232.695H131.141V233.064H136.665C137.47 233.061 138.24 232.681 138.809 232.006C139.377 231.332 139.698 230.417 139.7 229.463C139.699 228.947 139.605 228.437 139.423 227.967C139.241 227.498 138.976 227.081 138.646 226.744Z" fill="black"/>
<path d="M151.404 171.627C150.85 170.935 150.089 170.53 149.285 170.502C148.481 170.474 147.701 170.824 147.114 171.477C146.531 172.133 146.19 173.037 146.166 173.991C146.142 174.944 146.438 175.871 146.988 176.567L150.884 181.471L155.3 176.531L151.404 171.627Z" fill="#3F3D56"/>
<path d="M158.875 181.033L155.086 176.263L150.67 181.202L154.459 185.972C155.012 186.665 155.774 187.069 156.578 187.097C157.382 187.125 158.162 186.775 158.749 186.122C159.332 185.466 159.673 184.562 159.697 183.609C159.721 182.655 159.425 181.729 158.875 181.033Z" fill="#1E04F7"/>
<path opacity="0.2" d="M159.693 183.347C159.622 184.207 159.291 185.007 158.762 185.6C158.175 186.253 157.395 186.603 156.591 186.575C155.787 186.547 155.025 186.142 154.472 185.45L150.896 180.949L150.67 181.202L154.459 185.972C155.012 186.665 155.774 187.069 156.578 187.097C157.382 187.125 158.162 186.775 158.749 186.122C159.065 185.768 159.313 185.336 159.476 184.857C159.639 184.378 159.713 183.863 159.693 183.347Z" fill="black"/>
<path d="M135.236 182.981C134.682 182.289 133.921 181.884 133.117 181.856C132.313 181.828 131.533 182.178 130.946 182.831C130.363 183.487 130.022 184.391 129.998 185.345C129.974 186.298 130.27 187.225 130.82 187.921L134.716 192.825L139.132 187.885L135.236 182.981Z" fill="#3F3D56"/>
<path d="M142.708 192.387L138.918 187.617L134.502 192.556L138.292 197.326C138.845 198.019 139.606 198.423 140.41 198.451C141.214 198.479 141.994 198.129 142.581 197.476C143.165 196.82 143.505 195.916 143.529 194.963C143.553 194.009 143.258 193.083 142.708 192.387Z" fill="#1E04F7"/>
<path opacity="0.2" d="M143.525 194.701C143.454 195.561 143.123 196.361 142.594 196.954C142.007 197.607 141.227 197.957 140.423 197.929C139.619 197.901 138.858 197.496 138.305 196.804L134.729 192.303L134.502 192.556L138.292 197.326C138.845 198.019 139.606 198.423 140.41 198.451C141.214 198.479 141.994 198.129 142.581 197.476C142.897 197.122 143.145 196.69 143.308 196.211C143.471 195.732 143.545 195.217 143.525 194.701Z" fill="black"/>
<path d="M151.404 193.552C150.85 192.86 150.089 192.455 149.285 192.427C148.481 192.399 147.701 192.749 147.114 193.402C146.531 194.058 146.19 194.962 146.166 195.916C146.142 196.87 146.438 197.796 146.988 198.492L150.884 203.396L155.3 198.456L151.404 193.552Z" fill="#3F3D56"/>
<path d="M158.875 202.958L155.086 198.188L150.67 203.127L154.459 207.897C155.012 208.589 155.774 208.994 156.578 209.022C157.382 209.05 158.162 208.7 158.749 208.047C159.332 207.391 159.673 206.487 159.697 205.533C159.721 204.58 159.425 203.654 158.875 202.958Z" fill="#1E04F7"/>
<path opacity="0.2" d="M159.693 205.272C159.622 206.132 159.291 206.932 158.762 207.525C158.175 208.178 157.395 208.528 156.591 208.5C155.787 208.472 155.025 208.067 154.472 207.375L150.896 202.874L150.67 203.127L154.459 207.897C155.012 208.59 155.774 208.994 156.578 209.022C157.382 209.05 158.162 208.7 158.749 208.047C159.065 207.693 159.313 207.261 159.476 206.782C159.639 206.303 159.713 205.788 159.693 205.272Z" fill="black"/>
<path d="M161.267 216.052C161.844 215.387 162.175 214.478 162.189 213.524C162.203 212.57 161.898 211.648 161.341 210.96C160.781 210.276 160.015 209.882 159.211 209.866C158.407 209.849 157.631 210.211 157.051 210.872L152.965 215.554L157.181 220.734L161.267 216.052Z" fill="#3F3D56"/>
<path d="M153.432 225.031L157.405 220.477L153.189 215.297L149.215 219.851C148.639 220.516 148.307 221.425 148.293 222.379C148.279 223.333 148.584 224.255 149.141 224.943C149.701 225.627 150.467 226.02 151.271 226.037C152.075 226.054 152.852 225.692 153.432 225.031Z" fill="#1E04F7"/>
<path opacity="0.2" d="M151.491 226.029C150.766 225.955 150.087 225.573 149.581 224.952C149.024 224.264 148.719 223.342 148.733 222.388C148.747 221.434 149.079 220.525 149.655 219.861L153.405 215.563L153.189 215.297L149.215 219.851C148.639 220.516 148.307 221.425 148.293 222.379C148.279 223.333 148.584 224.255 149.141 224.943C149.444 225.314 149.811 225.603 150.216 225.79C150.622 225.978 151.057 226.059 151.491 226.029Z" fill="black"/>
<path d="M139.49 204.698C140.066 204.033 140.398 203.124 140.412 202.17C140.426 201.216 140.121 200.294 139.564 199.606C139.004 198.922 138.238 198.528 137.434 198.512C136.63 198.495 135.853 198.857 135.273 199.518L131.188 204.2L135.404 209.38L139.49 204.698Z" fill="#3F3D56"/>
<path d="M131.655 213.677L135.628 209.123L131.412 203.943L127.438 208.497C126.862 209.162 126.53 210.071 126.516 211.025C126.502 211.979 126.807 212.9 127.364 213.589C127.924 214.273 128.69 214.666 129.494 214.683C130.298 214.699 131.075 214.338 131.655 213.677Z" fill="#1E04F7"/>
<path opacity="0.2" d="M129.714 214.675C128.989 214.601 128.31 214.219 127.804 213.598C127.247 212.91 126.942 211.988 126.956 211.034C126.97 210.08 127.302 209.171 127.878 208.506L131.628 204.209L131.412 203.943L127.438 208.497C126.862 209.162 126.53 210.071 126.516 211.025C126.502 211.979 126.807 212.9 127.364 213.589C127.667 213.96 128.033 214.249 128.439 214.436C128.845 214.624 129.279 214.705 129.714 214.675Z" fill="black"/>
<path d="M170.506 190.994C171.082 190.329 171.414 189.421 171.428 188.467C171.442 187.513 171.137 186.591 170.58 185.903C170.02 185.219 169.254 184.825 168.45 184.809C167.646 184.792 166.869 185.154 166.289 185.815L162.204 190.497L166.42 195.677L170.506 190.994Z" fill="#3F3D56"/>
<path d="M162.67 199.974L166.644 195.42L162.428 190.24L158.454 194.794C157.877 195.459 157.546 196.368 157.532 197.322C157.518 198.276 157.823 199.197 158.38 199.886C158.94 200.57 159.706 200.963 160.51 200.98C161.314 200.996 162.09 200.635 162.67 199.974Z" fill="#1E04F7"/>
<path opacity="0.2" d="M160.73 200.972C160.004 200.898 159.326 200.515 158.82 199.895C158.263 199.206 157.958 198.285 157.972 197.331C157.986 196.377 158.318 195.468 158.894 194.803L162.644 190.506L162.428 190.24L158.454 194.794C157.877 195.459 157.546 196.368 157.532 197.322C157.518 198.276 157.823 199.197 158.38 199.886C158.683 200.256 159.049 200.545 159.455 200.733C159.86 200.92 160.295 201.002 160.73 200.972Z" fill="black"/>
<path d="M163.612 219.392C163.059 218.7 162.297 218.296 161.493 218.267C160.69 218.239 159.909 218.59 159.322 219.242C158.739 219.899 158.398 220.802 158.374 221.756C158.351 222.71 158.646 223.636 159.196 224.332L163.092 229.236L167.508 224.297L163.612 219.392Z" fill="#3F3D56"/>
<path d="M171.084 228.798L167.295 224.028L162.878 228.967L166.668 233.737C167.221 234.43 167.983 234.834 168.786 234.862C169.59 234.89 170.371 234.54 170.957 233.888C171.541 233.231 171.882 232.327 171.905 231.374C171.929 230.42 171.634 229.494 171.084 228.798Z" fill="#1E04F7"/>
<path opacity="0.2" d="M171.901 231.112C171.83 231.972 171.5 232.772 170.97 233.366C170.384 234.018 169.603 234.368 168.799 234.34C167.996 234.312 167.234 233.908 166.681 233.215L163.105 228.714L162.878 228.968L166.668 233.737C167.221 234.43 167.983 234.834 168.786 234.862C169.59 234.891 170.371 234.54 170.957 233.888C171.273 233.533 171.522 233.101 171.684 232.622C171.847 232.143 171.921 231.628 171.901 231.112Z" fill="black"/>
<path d="M142.165 219.001C141.612 218.309 140.85 217.904 140.046 217.876C139.243 217.848 138.462 218.198 137.875 218.851C137.292 219.507 136.951 220.411 136.927 221.365C136.904 222.318 137.199 223.244 137.749 223.941L141.645 228.845L146.061 223.905L142.165 219.001Z" fill="#3F3D56"/>
<path d="M149.637 228.406L145.847 223.636L141.431 228.576L145.22 233.346C145.774 234.038 146.535 234.443 147.339 234.471C148.143 234.499 148.923 234.149 149.51 233.496C150.093 232.84 150.434 231.936 150.458 230.982C150.482 230.029 150.186 229.102 149.637 228.406Z" fill="#1E04F7"/>
<path opacity="0.2" d="M150.454 230.721C150.383 231.581 150.052 232.381 149.523 232.974C148.936 233.627 148.156 233.977 147.352 233.949C146.548 233.921 145.787 233.516 145.233 232.824L141.658 228.323L141.431 228.576L145.22 233.346C145.774 234.038 146.535 234.443 147.339 234.471C148.143 234.499 148.923 234.149 149.51 233.496C149.826 233.141 150.074 232.71 150.237 232.231C150.4 231.752 150.474 231.237 150.454 230.721Z" fill="black"/>
<path d="M148.202 206.083C148.202 207.28 147.854 208.441 147.216 209.368C146.578 210.295 145.689 210.933 144.701 211.172C144.123 211.311 143.528 211.311 142.95 211.172C141.962 210.933 141.074 210.295 140.436 209.368C139.798 208.441 139.449 207.28 139.449 206.083C139.449 204.886 139.798 203.726 140.436 202.799C141.074 201.871 141.962 201.234 142.95 200.994C143.528 200.856 144.123 200.856 144.701 200.994C145.689 201.234 146.578 201.871 147.216 202.798C147.854 203.726 148.202 204.886 148.202 206.083Z" fill="#1E04F7"/>
<path opacity="0.2" d="M144.701 200.994V211.172C144.123 211.311 143.528 211.311 142.95 211.172V200.994C143.528 200.856 144.123 200.856 144.701 200.994Z" fill="black"/>
<path d="M150.182 185.333C150.182 186.53 149.834 187.69 149.196 188.618C148.558 189.545 147.669 190.182 146.681 190.422C146.103 190.56 145.508 190.56 144.93 190.422C143.942 190.182 143.054 189.545 142.416 188.617C141.778 187.69 141.429 186.53 141.429 185.333C141.429 184.136 141.778 182.975 142.416 182.048C143.054 181.121 143.942 180.484 144.93 180.244C145.508 180.105 146.103 180.105 146.681 180.244C147.669 180.483 148.558 181.121 149.196 182.048C149.834 182.975 150.182 184.136 150.182 185.333Z" fill="#1E04F7"/>
<path opacity="0.2" d="M146.681 180.244V190.422C146.103 190.56 145.508 190.56 144.93 190.422V180.244C145.508 180.105 146.103 180.105 146.681 180.244Z" fill="black"/>
<path d="M150.182 215.088C150.182 216.285 149.834 217.446 149.196 218.373C148.558 219.3 147.669 219.938 146.681 220.177C146.103 220.316 145.508 220.316 144.93 220.177C143.942 219.938 143.054 219.3 142.416 218.373C141.778 217.446 141.429 216.285 141.429 215.088C141.429 213.891 141.778 212.731 142.416 211.804C143.054 210.876 143.942 210.239 144.93 209.999C145.508 209.861 146.103 209.861 146.681 209.999C147.669 210.239 148.558 210.876 149.196 211.803C149.834 212.731 150.182 213.891 150.182 215.088Z" fill="#1E04F7"/>
<path opacity="0.2" d="M146.681 209.999V220.177C146.103 220.316 145.508 220.316 144.93 220.177V209.999C145.508 209.861 146.103 209.861 146.681 209.999Z" fill="black"/>
<path d="M161.07 229.574C161.07 230.771 160.722 231.932 160.084 232.859C159.446 233.787 158.558 234.424 157.569 234.663C156.991 234.802 156.396 234.802 155.819 234.663C154.83 234.424 153.942 233.786 153.304 232.859C152.666 231.932 152.318 230.771 152.318 229.574C152.318 228.377 152.666 227.217 153.304 226.29C153.942 225.362 154.83 224.725 155.819 224.485C156.396 224.347 156.991 224.347 157.569 224.485C158.558 224.725 159.446 225.362 160.084 226.29C160.722 227.217 161.07 228.377 161.07 229.574Z" fill="#1E04F7"/>
<path opacity="0.2" d="M157.569 224.485V234.663C156.991 234.802 156.396 234.802 155.819 234.663V224.485C156.396 224.347 156.991 224.347 157.569 224.485Z" fill="black"/>
<path d="M170.689 202.922C171.415 203.752 171.878 204.855 171.998 206.044C172.118 207.232 171.888 208.433 171.347 209.444C171.03 210.034 170.617 210.542 170.132 210.94C169.301 211.618 168.298 211.934 167.292 211.836C166.287 211.737 165.341 211.23 164.615 210.399C163.888 209.568 163.426 208.466 163.306 207.277C163.186 206.088 163.416 204.887 163.956 203.876C164.273 203.287 164.686 202.778 165.171 202.381C166.003 201.703 167.006 201.386 168.011 201.484C169.017 201.583 169.963 202.091 170.689 202.922Z" fill="#1E04F7"/>
<path opacity="0.2" d="M165.171 202.381L171.347 209.444C171.03 210.034 170.617 210.542 170.132 210.94L163.957 203.876C164.273 203.287 164.686 202.778 165.171 202.381Z" fill="black"/>
<path d="M172.009 214.276C172.735 215.106 173.197 216.209 173.317 217.398C173.437 218.586 173.208 219.788 172.667 220.798C172.35 221.388 171.937 221.896 171.452 222.294C170.621 222.972 169.618 223.288 168.612 223.19C167.607 223.091 166.661 222.584 165.935 221.753C165.208 220.922 164.746 219.82 164.626 218.631C164.506 217.442 164.736 216.241 165.276 215.23C165.593 214.641 166.006 214.132 166.491 213.735C167.322 213.057 168.326 212.74 169.331 212.838C170.336 212.937 171.282 213.445 172.009 214.276Z" fill="#1E04F7"/>
<path opacity="0.2" d="M166.491 213.735L172.667 220.798C172.35 221.388 171.937 221.896 171.452 222.294L165.276 215.23C165.593 214.641 166.006 214.132 166.491 213.735Z" fill="black"/>
<path d="M132.744 217.016C133.47 217.847 133.933 218.95 134.053 220.138C134.173 221.327 133.943 222.528 133.402 223.539C133.085 224.128 132.672 224.637 132.187 225.034C131.356 225.712 130.353 226.029 129.347 225.93C128.342 225.832 127.396 225.324 126.67 224.494C125.944 223.663 125.481 222.56 125.361 221.372C125.241 220.183 125.471 218.982 126.012 217.971C126.328 217.381 126.742 216.873 127.226 216.476C128.058 215.797 129.061 215.481 130.066 215.579C131.072 215.678 132.018 216.185 132.744 217.016Z" fill="#1E04F7"/>
<path opacity="0.2" d="M127.227 216.476L133.402 223.539C133.085 224.128 132.672 224.637 132.187 225.034L126.012 217.971C126.329 217.381 126.742 216.873 127.227 216.476Z" fill="black"/>
<path opacity="0.2" d="M118.619 123.761H116.969V138.248H118.619V123.761Z" fill="black"/>
<path opacity="0.2" d="M128.188 123.761H126.538V138.248H128.188V123.761Z" fill="black"/>
<path opacity="0.2" d="M137.756 123.761H136.106V138.248H137.756V123.761Z" fill="black"/>
<path opacity="0.2" d="M147.325 123.761H145.675V138.248H147.325V123.761Z" fill="black"/>
<path opacity="0.2" d="M156.894 123.761H155.244V138.248H156.894V123.761Z" fill="black"/>
<path opacity="0.2" d="M166.462 123.761H164.812V138.248H166.462V123.761Z" fill="black"/>
<path opacity="0.2" d="M176.031 123.761H174.381V138.248H176.031V123.761Z" fill="black"/>
<rect x="117" y="190" width="59" height="16" fill="#E6E6E6"/>
<g clip-path="url(#clip1_158_1550)">
<mask id="mask0_158_1550" style="mask-type:luminance" maskUnits="userSpaceOnUse" x="244" y="56" width="5" height="6">
<path d="M244.312 56.3302H245.693C246.453 56.3302 247.074 56.9529 247.074 57.7139V58.5862C246.989 60.0873 247.532 61.0098 248.704 61.3538C247.571 61.2788 246.495 60.7953 245.682 59.981C244.869 59.1667 244.387 58.0886 244.312 56.9535V56.3302H244.312Z" fill="white"/>
</mask>
<g mask="url(#mask0_158_1550)">
<path d="M248.704 56.3302H244.312V61.3538H248.704V56.3302Z" fill="white"/>
</g>
<mask id="mask1_158_1550" style="mask-type:luminance" maskUnits="userSpaceOnUse" x="244" y="56" width="4" height="6">
<path d="M244.438 56.4569V56.9493C244.513 58.059 244.986 59.1047 245.772 59.8916C246.356 60.4768 247.083 60.8892 247.873 61.0927C246.262 60.1451 245.397 58.3045 245.693 56.4569H244.438Z" fill="white"/>
</mask>
<g mask="url(#mask1_158_1550)">
<path d="M247.873 56.4569H244.438V61.0927H247.873V56.4569Z" fill="white"/>
</g>
<mask id="mask2_158_1550" style="mask-type:luminance" maskUnits="userSpaceOnUse" x="247" y="58" width="3" height="4">
<path d="M247.074 58.5864C246.989 60.0875 247.532 61.01 248.704 61.3539H249.326V59.9702C249.326 59.2092 248.705 58.5865 247.945 58.5865H247.074V58.5864Z" fill="white"/>
</mask>
<g mask="url(#mask2_158_1550)">
<path d="M249.326 58.5864H246.989V61.3539H249.326V58.5864Z" fill="white"/>
</g>
<mask id="mask3_158_1550" style="mask-type:luminance" maskUnits="userSpaceOnUse" x="247" y="58" width="2" height="4">
<path d="M247.074 58.5864C246.989 60.0875 247.532 61.01 248.704 61.3539C247.707 60.8264 247.211 59.6754 247.51 58.5864H247.074Z" fill="white"/>
</mask>
<g mask="url(#mask3_158_1550)">
<path d="M248.704 58.5864H246.989V61.3539H248.704V58.5864Z" fill="white"/>
</g>
<mask id="mask4_158_1550" style="mask-type:luminance" maskUnits="userSpaceOnUse" x="244" y="56" width="5" height="6">
<path d="M244.312 56.3302H245.693C246.453 56.3302 247.074 56.9529 247.074 57.7139V58.5862C246.989 60.0873 247.532 61.0098 248.704 61.3538C247.571 61.2788 246.495 60.7953 245.682 59.981C244.869 59.1667 244.387 58.0886 244.312 56.9535V56.3302H244.312Z" fill="white"/>
</mask>
<g mask="url(#mask4_158_1550)">
<path d="M248.704 56.3302H244.312V61.3538H248.704V56.3302Z" fill="white"/>
</g>
<mask id="mask5_158_1550" style="mask-type:luminance" maskUnits="userSpaceOnUse" x="244" y="56" width="4" height="6">
<path d="M244.438 56.4569V56.9493C244.513 58.059 244.986 59.1047 245.772 59.8916C246.356 60.4768 247.083 60.8892 247.873 61.0927C246.262 60.1451 245.397 58.3045 245.693 56.4569H244.438Z" fill="white"/>
</mask>
<g mask="url(#mask5_158_1550)">
<path d="M247.873 56.4569H244.438V61.0927H247.873V56.4569Z" fill="white"/>
</g>
<mask id="mask6_158_1550" style="mask-type:luminance" maskUnits="userSpaceOnUse" x="247" y="58" width="2" height="4">
<path d="M247.074 58.5864C246.989 60.0875 247.532 61.01 248.704 61.3539C247.707 60.8264 247.211 59.6754 247.51 58.5864H247.074Z" fill="white"/>
</mask>
<g mask="url(#mask6_158_1550)">
<path d="M248.704 58.5864H246.989V61.3539H248.704V58.5864Z" fill="white"/>
</g>
<mask id="mask7_158_1550" style="mask-type:luminance" maskUnits="userSpaceOnUse" x="247" y="58" width="3" height="4">
<path d="M247.074 58.5864C246.989 60.0875 247.532 61.01 248.704 61.3539H249.326V59.9702C249.326 59.2092 248.705 58.5865 247.945 58.5865H247.074V58.5864Z" fill="white"/>
</mask>
<g mask="url(#mask7_158_1550)">
<path d="M249.326 58.5864H246.989V61.3539H249.326V58.5864Z" fill="white"/>
</g>
<mask id="mask8_158_1550" style="mask-type:luminance" maskUnits="userSpaceOnUse" x="244" y="56" width="5" height="6">
<path d="M244.312 56.3302H245.693C246.453 56.3302 247.074 56.9529 247.074 57.7139V58.5862C246.989 60.0873 247.532 61.0098 248.704 61.3538C247.571 61.2788 246.495 60.7953 245.682 59.981C244.869 59.1667 244.387 58.0886 244.312 56.9535V56.3302H244.312Z" fill="white"/>
</mask>
<g mask="url(#mask8_158_1550)">
<path d="M248.704 56.3302H244.312V61.3538H248.704V56.3302Z" fill="white"/>
</g>
<mask id="mask9_158_1550" style="mask-type:luminance" maskUnits="userSpaceOnUse" x="244" y="56" width="4" height="6">
<path d="M244.438 56.4569V56.9493C244.513 58.059 244.986 59.1047 245.772 59.8916C246.356 60.4768 247.083 60.8892 247.873 61.0927C246.262 60.1451 245.397 58.3045 245.693 56.4569H244.438Z" fill="white"/>
</mask>
<g mask="url(#mask9_158_1550)">
<path d="M247.873 56.4569H244.438V61.0927H247.873V56.4569Z" fill="white"/>
</g>
<mask id="mask10_158_1550" style="mask-type:luminance" maskUnits="userSpaceOnUse" x="247" y="58" width="2" height="4">
<path d="M247.074 58.5864C246.989 60.0875 247.532 61.01 248.704 61.3539C247.707 60.8264 247.211 59.6754 247.51 58.5864H247.074Z" fill="white"/>
</mask>
<g mask="url(#mask10_158_1550)">
<path d="M248.704 58.5864H246.989V61.3539H248.704V58.5864Z" fill="white"/>
</g>
<mask id="mask11_158_1550" style="mask-type:luminance" maskUnits="userSpaceOnUse" x="247" y="58" width="3" height="4">
<path d="M247.074 58.5864C246.989 60.0875 247.532 61.01 248.704 61.3539H249.326V59.9702C249.326 59.2092 248.705 58.5865 247.945 58.5865H247.074V58.5864Z" fill="white"/>
</mask>
<g mask="url(#mask11_158_1550)">
<path d="M249.326 58.5864H246.989V61.3539H249.326V58.5864Z" fill="white"/>
</g>
</g>
<g clip-path="url(#clip2_158_1550)">
<mask id="mask12_158_1550" style="mask-type:luminance" maskUnits="userSpaceOnUse" x="242" y="58" width="6" height="6">
<path d="M246.997 63.8866L245.616 63.8763C244.857 63.8707 244.24 63.2433 244.245 62.4824L244.252 61.61C244.349 60.1097 243.812 59.1831 242.643 58.8305C243.775 58.9139 244.848 59.4053 245.654 60.2257C246.461 61.046 246.936 62.1277 247.002 63.2634L246.997 63.8866L246.997 63.8866Z" fill="white"/>
</mask>
<g mask="url(#mask12_158_1550)">
<path d="M242.605 63.8539L246.997 63.8866L247.034 58.8632L242.643 58.8305L242.605 63.8539Z" fill="white"/>
</g>
<mask id="mask13_158_1550" style="mask-type:luminance" maskUnits="userSpaceOnUse" x="243" y="59" width="4" height="5">
<path d="M246.872 63.759L246.875 63.2666C246.81 62.1565 246.344 61.1073 245.564 60.3145C244.985 59.725 244.261 59.3072 243.472 59.0978C245.076 60.0574 245.927 61.9044 245.617 63.7497L246.872 63.759Z" fill="white"/>
</mask>
<g mask="url(#mask13_158_1550)">
<path d="M243.438 63.7335L246.872 63.759L246.906 59.1234L243.472 59.0978L243.438 63.7335Z" fill="white"/>
</g>
<mask id="mask14_158_1550" style="mask-type:luminance" maskUnits="userSpaceOnUse" x="242" y="58" width="3" height="4">
<path d="M244.252 61.6099C244.348 60.1096 243.812 59.183 242.643 58.8304L242.021 58.8257L242.01 60.2094C242.005 60.9704 242.622 61.5977 243.381 61.6033L244.252 61.6098L244.252 61.6099Z" fill="white"/>
</mask>
<g mask="url(#mask14_158_1550)">
<path d="M242 61.5932L244.337 61.6106L244.358 58.8432L242.02 58.8258L242 61.5932Z" fill="white"/>
</g>
<mask id="mask15_158_1550" style="mask-type:luminance" maskUnits="userSpaceOnUse" x="242" y="58" width="3" height="4">
<path d="M244.252 61.6099C244.348 60.1096 243.812 59.183 242.643 58.8304C243.636 59.3653 244.124 60.5199 243.816 61.6067L244.252 61.6099Z" fill="white"/>
</mask>
<g mask="url(#mask15_158_1550)">
<path d="M242.622 61.5978L244.337 61.6106L244.358 58.8432L242.642 58.8304L242.622 61.5978Z" fill="white"/>
</g>
<mask id="mask16_158_1550" style="mask-type:luminance" maskUnits="userSpaceOnUse" x="242" y="58" width="3" height="4">
<path d="M244.252 61.6099C244.348 60.1096 243.812 59.183 242.643 58.8304L242.021 58.8257L242.01 60.2094C242.005 60.9704 242.622 61.5977 243.381 61.6033L244.252 61.6098L244.252 61.6099Z" fill="white"/>
</mask>
<g mask="url(#mask16_158_1550)">
<path d="M242 61.5932L244.337 61.6106L244.358 58.8432L242.02 58.8258L242 61.5932Z" fill="white"/>
</g>
<mask id="mask17_158_1550" style="mask-type:luminance" maskUnits="userSpaceOnUse" x="242" y="58" width="3" height="4">
<path d="M244.252 61.6099C244.348 60.1096 243.812 59.183 242.643 58.8304C243.636 59.3653 244.124 60.5199 243.816 61.6067L244.252 61.6099Z" fill="white"/>
</mask>
<g mask="url(#mask17_158_1550)">
<path d="M242.622 61.5978L244.337 61.6106L244.358 58.8432L242.642 58.8304L242.622 61.5978Z" fill="white"/>
</g>
<mask id="mask18_158_1550" style="mask-type:luminance" maskUnits="userSpaceOnUse" x="242" y="58" width="6" height="6">
<path d="M246.997 63.8866L245.616 63.8763C244.857 63.8707 244.24 63.2433 244.245 62.4824L244.252 61.61C244.349 60.1097 243.812 59.1831 242.643 58.8305C243.775 58.9139 244.848 59.4053 245.654 60.2257C246.461 61.046 246.936 62.1277 247.002 63.2634L246.997 63.8866L246.997 63.8866Z" fill="white"/>
</mask>
<g mask="url(#mask18_158_1550)">
<path d="M242.605 63.8539L246.997 63.8866L247.034 58.8632L242.643 58.8305L242.605 63.8539Z" fill="white"/>
</g>
<mask id="mask19_158_1550" style="mask-type:luminance" maskUnits="userSpaceOnUse" x="243" y="59" width="4" height="5">
<path d="M246.872 63.759L246.875 63.2666C246.809 62.1565 246.344 61.1073 245.564 60.3145C244.984 59.725 244.26 59.3072 243.472 59.0978C245.076 60.0574 245.927 61.9044 245.617 63.7497L246.872 63.759Z" fill="white"/>
</mask>
<g mask="url(#mask19_158_1550)">
<path d="M243.437 63.7335L246.872 63.759L246.906 59.1234L243.472 59.0978L243.437 63.7335Z" fill="white"/>
</g>
<mask id="mask20_158_1550" style="mask-type:luminance" maskUnits="userSpaceOnUse" x="242" y="58" width="3" height="4">
<path d="M244.252 61.6099C244.348 60.1096 243.812 59.183 242.643 58.8304L242.021 58.8257L242.01 60.2094C242.005 60.9704 242.622 61.5977 243.381 61.6033L244.252 61.6098L244.252 61.6099Z" fill="white"/>
</mask>
<g mask="url(#mask20_158_1550)">
<path d="M242 61.5932L244.337 61.6106L244.358 58.8432L242.02 58.8258L242 61.5932Z" fill="white"/>
</g>
<mask id="mask21_158_1550" style="mask-type:luminance" maskUnits="userSpaceOnUse" x="242" y="58" width="3" height="4">
<path d="M244.252 61.6099C244.348 60.1096 243.812 59.183 242.643 58.8304C243.636 59.3653 244.124 60.5199 243.816 61.6067L244.252 61.6099Z" fill="white"/>
</mask>
<g mask="url(#mask21_158_1550)">
<path d="M242.622 61.5978L244.337 61.6106L244.358 58.8432L242.642 58.8304L242.622 61.5978Z" fill="white"/>
</g>
<mask id="mask22_158_1550" style="mask-type:luminance" maskUnits="userSpaceOnUse" x="242" y="58" width="6" height="6">
<path d="M246.997 63.8866L245.616 63.8763C244.857 63.8707 244.24 63.2433 244.245 62.4824L244.252 61.61C244.349 60.1097 243.812 59.1831 242.643 58.8305C243.775 58.9139 244.848 59.4053 245.654 60.2257C246.461 61.046 246.936 62.1277 247.002 63.2634L246.997 63.8866L246.997 63.8866Z" fill="white"/>
</mask>
<g mask="url(#mask22_158_1550)">
<path d="M242.605 63.8539L246.997 63.8866L247.034 58.8632L242.643 58.8305L242.605 63.8539Z" fill="white"/>
</g>
<mask id="mask23_158_1550" style="mask-type:luminance" maskUnits="userSpaceOnUse" x="243" y="59" width="4" height="5">
<path d="M246.872 63.759L246.875 63.2666C246.809 62.1565 246.344 61.1073 245.564 60.3145C244.984 59.725 244.26 59.3072 243.472 59.0978C245.076 60.0574 245.927 61.9044 245.617 63.7497L246.872 63.759Z" fill="white"/>
</mask>
<g mask="url(#mask23_158_1550)">
<path d="M243.437 63.7335L246.872 63.759L246.906 59.1234L243.472 59.0978L243.437 63.7335Z" fill="white"/>
</g>
</g>
<path d="M247.512 73.293H246.32C246.32 53.2823 242.848 39.3371 239.464 39.3371L239.166 37.9222C242.2 37.9222 244.135 43.7261 245.224 48.5951C246.7 55.1959 247.512 63.9671 247.512 73.293Z" fill="#3F3D56"/>
<g clip-path="url(#clip3_158_1550)">
<mask id="mask24_158_1550" style="mask-type:luminance" maskUnits="userSpaceOnUse" x="67" y="56" width="5" height="6">
<path d="M67.3121 56.3302H68.6932C69.4529 56.3302 70.0743 56.9529 70.0743 57.7139V58.5862C69.9888 60.0873 70.532 61.0098 71.7041 61.3538C70.571 61.2788 69.4949 60.7953 68.6822 59.981C67.8694 59.1667 67.3868 58.0886 67.312 56.9535V56.3302H67.3121Z" fill="white"/>
</mask>
<g mask="url(#mask24_158_1550)">
<path d="M71.7043 56.3302H67.3123V61.3538H71.7043V56.3302Z" fill="white"/>
</g>
<mask id="mask25_158_1550" style="mask-type:luminance" maskUnits="userSpaceOnUse" x="67" y="56" width="4" height="6">
<path d="M67.4385 56.4569V56.9493C67.5127 58.059 67.9862 59.1047 68.7717 59.8916C69.3558 60.4768 70.0828 60.8892 70.8727 61.0927C69.262 60.1451 68.3968 58.3045 68.6932 56.4569H67.4385Z" fill="white"/>
</mask>
<g mask="url(#mask25_158_1550)">
<path d="M70.8727 56.4569H67.4385V61.0927H70.8727V56.4569Z" fill="white"/>
</g>
<mask id="mask26_158_1550" style="mask-type:luminance" maskUnits="userSpaceOnUse" x="70" y="58" width="3" height="4">
<path d="M70.0744 58.5864C69.9889 60.0875 70.5321 61.01 71.7041 61.3539H72.3262V59.9702C72.3262 59.2092 71.7046 58.5865 70.9451 58.5865H70.0744V58.5864Z" fill="white"/>
</mask>
<g mask="url(#mask26_158_1550)">
<path d="M72.3264 58.5864H69.989V61.3539H72.3264V58.5864Z" fill="white"/>
</g>
<mask id="mask27_158_1550" style="mask-type:luminance" maskUnits="userSpaceOnUse" x="70" y="58" width="2" height="4">
<path d="M70.0744 58.5864C69.9889 60.0875 70.5321 61.01 71.7041 61.3539C70.7073 60.8264 70.2106 59.6754 70.5097 58.5864H70.0744Z" fill="white"/>
</mask>
<g mask="url(#mask27_158_1550)">
<path d="M71.7043 58.5864H69.989V61.3539H71.7043V58.5864Z" fill="white"/>
</g>
<mask id="mask28_158_1550" style="mask-type:luminance" maskUnits="userSpaceOnUse" x="67" y="56" width="5" height="6">
<path d="M67.3121 56.3302H68.6932C69.4529 56.3302 70.0743 56.9529 70.0743 57.7139V58.5862C69.9888 60.0873 70.532 61.0098 71.7041 61.3538C70.571 61.2788 69.4949 60.7953 68.6822 59.981C67.8694 59.1667 67.3868 58.0886 67.312 56.9535V56.3302H67.3121Z" fill="white"/>
</mask>
<g mask="url(#mask28_158_1550)">
<path d="M71.7043 56.3302H67.3123V61.3538H71.7043V56.3302Z" fill="white"/>
</g>
<mask id="mask29_158_1550" style="mask-type:luminance" maskUnits="userSpaceOnUse" x="67" y="56" width="4" height="6">
<path d="M67.4385 56.4569V56.9493C67.5127 58.059 67.9862 59.1047 68.7717 59.8916C69.3558 60.4768 70.0828 60.8892 70.8727 61.0927C69.262 60.1451 68.3968 58.3045 68.6932 56.4569H67.4385Z" fill="white"/>
</mask>
<g mask="url(#mask29_158_1550)">
<path d="M70.8727 56.4569H67.4385V61.0927H70.8727V56.4569Z" fill="white"/>
</g>
<mask id="mask30_158_1550" style="mask-type:luminance" maskUnits="userSpaceOnUse" x="70" y="58" width="2" height="4">
<path d="M70.0744 58.5864C69.9889 60.0875 70.5321 61.01 71.7041 61.3539C70.7073 60.8264 70.2106 59.6754 70.5097 58.5864H70.0744Z" fill="white"/>
</mask>
<g mask="url(#mask30_158_1550)">
<path d="M71.7043 58.5864H69.989V61.3539H71.7043V58.5864Z" fill="white"/>
</g>
<mask id="mask31_158_1550" style="mask-type:luminance" maskUnits="userSpaceOnUse" x="70" y="58" width="3" height="4">
<path d="M70.0744 58.5864C69.9889 60.0875 70.5321 61.01 71.7041 61.3539H72.3262V59.9702C72.3262 59.2092 71.7046 58.5865 70.9451 58.5865H70.0744V58.5864Z" fill="white"/>
</mask>
<g mask="url(#mask31_158_1550)">
<path d="M72.3264 58.5864H69.989V61.3539H72.3264V58.5864Z" fill="white"/>
</g>
<mask id="mask32_158_1550" style="mask-type:luminance" maskUnits="userSpaceOnUse" x="67" y="56" width="5" height="6">
<path d="M67.3121 56.3302H68.6932C69.4529 56.3302 70.0743 56.9529 70.0743 57.7139V58.5862C69.9888 60.0873 70.532 61.0098 71.7041 61.3538C70.571 61.2788 69.4949 60.7953 68.6822 59.981C67.8694 59.1667 67.3868 58.0886 67.312 56.9535V56.3302H67.3121Z" fill="white"/>
</mask>
<g mask="url(#mask32_158_1550)">
<path d="M71.7043 56.3302H67.3123V61.3538H71.7043V56.3302Z" fill="white"/>
</g>
<mask id="mask33_158_1550" style="mask-type:luminance" maskUnits="userSpaceOnUse" x="67" y="56" width="4" height="6">
<path d="M67.4385 56.4569V56.9493C67.5127 58.059 67.9862 59.1047 68.7717 59.8916C69.3558 60.4768 70.0828 60.8892 70.8727 61.0927C69.262 60.1451 68.3968 58.3045 68.6932 56.4569H67.4385Z" fill="white"/>
</mask>
<g mask="url(#mask33_158_1550)">
<path d="M70.8727 56.4569H67.4385V61.0927H70.8727V56.4569Z" fill="white"/>
</g>
<mask id="mask34_158_1550" style="mask-type:luminance" maskUnits="userSpaceOnUse" x="70" y="58" width="2" height="4">
<path d="M70.0744 58.5864C69.9889 60.0875 70.5321 61.01 71.7041 61.3539C70.7073 60.8264 70.2106 59.6754 70.5097 58.5864H70.0744Z" fill="white"/>
</mask>
<g mask="url(#mask34_158_1550)">
<path d="M71.7043 58.5864H69.989V61.3539H71.7043V58.5864Z" fill="white"/>
</g>
<mask id="mask35_158_1550" style="mask-type:luminance" maskUnits="userSpaceOnUse" x="70" y="58" width="3" height="4">
<path d="M70.0744 58.5864C69.9889 60.0875 70.5321 61.01 71.7041 61.3539H72.3262V59.9702C72.3262 59.2092 71.7046 58.5865 70.9451 58.5865H70.0744V58.5864Z" fill="white"/>
</mask>
<g mask="url(#mask35_158_1550)">
<path d="M72.3264 58.5864H69.989V61.3539H72.3264V58.5864Z" fill="white"/>
</g>
</g>
<g clip-path="url(#clip4_158_1550)">
<mask id="mask36_158_1550" style="mask-type:luminance" maskUnits="userSpaceOnUse" x="65" y="58" width="6" height="6">
<path d="M69.9972 63.8866L68.6161 63.8763C67.8565 63.8707 67.2397 63.2433 67.2454 62.4824L67.2519 61.61C67.3485 60.1097 66.8122 59.1831 65.6428 58.8305C66.7752 58.9139 67.8477 59.4053 68.6544 60.2257C69.4611 61.046 69.9356 62.1277 70.002 63.2634L69.9973 63.8866L69.9972 63.8866Z" fill="white"/>
</mask>
<g mask="url(#mask36_158_1550)">
<path d="M65.6052 63.8539L69.9971 63.8866L70.0345 58.8632L65.6426 58.8305L65.6052 63.8539Z" fill="white"/>
</g>
<mask id="mask37_158_1550" style="mask-type:luminance" maskUnits="userSpaceOnUse" x="66" y="59" width="4" height="5">
<path d="M69.8718 63.759L69.8755 63.2666C69.8095 62.1565 69.3438 61.1073 68.5642 60.3145C67.9845 59.725 67.2605 59.3072 66.4723 59.0978C68.0758 60.0574 68.9273 61.9044 68.6172 63.7497L69.8718 63.759Z" fill="white"/>
</mask>
<g mask="url(#mask37_158_1550)">
<path d="M66.4377 63.7335L69.8718 63.759L69.9063 59.1234L66.4723 59.0978L66.4377 63.7335Z" fill="white"/>
</g>
<mask id="mask38_158_1550" style="mask-type:luminance" maskUnits="userSpaceOnUse" x="65" y="58" width="3" height="4">
<path d="M67.2518 61.6099C67.3484 60.1096 66.8121 59.183 65.6427 58.8304L65.0206 58.8257L65.0103 60.2094C65.0047 60.9704 65.6216 61.5977 66.3811 61.6033L67.2518 61.6098L67.2518 61.6099Z" fill="white"/>
</mask>
<g mask="url(#mask38_158_1550)">
<path d="M64.9998 61.5932L67.3372 61.6106L67.3578 58.8432L65.0204 58.8258L64.9998 61.5932Z" fill="white"/>
</g>
<mask id="mask39_158_1550" style="mask-type:luminance" maskUnits="userSpaceOnUse" x="65" y="58" width="3" height="4">
<path d="M67.2518 61.6099C67.3484 60.1096 66.8121 59.183 65.6427 58.8304C66.6355 59.3653 67.1237 60.5199 66.8164 61.6067L67.2518 61.6099Z" fill="white"/>
</mask>
<g mask="url(#mask39_158_1550)">
<path d="M65.6219 61.5978L67.3372 61.6106L67.3578 58.8432L65.6425 58.8304L65.6219 61.5978Z" fill="white"/>
</g>
<mask id="mask40_158_1550" style="mask-type:luminance" maskUnits="userSpaceOnUse" x="65" y="58" width="3" height="4">
<path d="M67.2518 61.6099C67.3484 60.1096 66.8121 59.183 65.6427 58.8304L65.0206 58.8257L65.0103 60.2094C65.0047 60.9704 65.6216 61.5977 66.3811 61.6033L67.2518 61.6098L67.2518 61.6099Z" fill="white"/>
</mask>
<g mask="url(#mask40_158_1550)">
<path d="M64.9998 61.5932L67.3372 61.6106L67.3578 58.8432L65.0204 58.8258L64.9998 61.5932Z" fill="white"/>
</g>
<mask id="mask41_158_1550" style="mask-type:luminance" maskUnits="userSpaceOnUse" x="65" y="58" width="3" height="4">
<path d="M67.2518 61.6099C67.3484 60.1096 66.8121 59.183 65.6427 58.8304C66.6355 59.3653 67.1237 60.5199 66.8164 61.6067L67.2518 61.6099Z" fill="white"/>
</mask>
<g mask="url(#mask41_158_1550)">
<path d="M65.6219 61.5978L67.3372 61.6106L67.3578 58.8432L65.6425 58.8304L65.6219 61.5978Z" fill="white"/>
</g>
<mask id="mask42_158_1550" style="mask-type:luminance" maskUnits="userSpaceOnUse" x="65" y="58" width="6" height="6">
<path d="M69.9972 63.8866L68.6161 63.8763C67.8565 63.8707 67.2397 63.2433 67.2454 62.4824L67.2519 61.61C67.3485 60.1097 66.8122 59.1831 65.6428 58.8305C66.7752 58.9139 67.8477 59.4053 68.6544 60.2257C69.4611 61.046 69.9356 62.1277 70.002 63.2634L69.9973 63.8866L69.9972 63.8866Z" fill="white"/>
</mask>
<g mask="url(#mask42_158_1550)">
<path d="M65.6052 63.8539L69.9971 63.8866L70.0345 58.8632L65.6426 58.8305L65.6052 63.8539Z" fill="white"/>
</g>
<mask id="mask43_158_1550" style="mask-type:luminance" maskUnits="userSpaceOnUse" x="66" y="59" width="4" height="5">
<path d="M69.8716 63.759L69.8752 63.2666C69.8093 62.1565 69.3435 61.1073 68.564 60.3145C67.9843 59.725 67.2603 59.3072 66.472 59.0978C68.0755 60.0574 68.9271 61.9044 68.6169 63.7497L69.8716 63.759Z" fill="white"/>
</mask>
<g mask="url(#mask43_158_1550)">
<path d="M66.4375 63.7335L69.8716 63.759L69.9061 59.1234L66.472 59.0978L66.4375 63.7335Z" fill="white"/>
</g>
<mask id="mask44_158_1550" style="mask-type:luminance" maskUnits="userSpaceOnUse" x="65" y="58" width="3" height="4">
<path d="M67.2518 61.6099C67.3484 60.1096 66.8121 59.183 65.6427 58.8304L65.0206 58.8257L65.0103 60.2094C65.0047 60.9704 65.6216 61.5977 66.3811 61.6033L67.2518 61.6098L67.2518 61.6099Z" fill="white"/>
</mask>
<g mask="url(#mask44_158_1550)">
<path d="M64.9998 61.5932L67.3372 61.6106L67.3578 58.8432L65.0204 58.8258L64.9998 61.5932Z" fill="white"/>
</g>
<mask id="mask45_158_1550" style="mask-type:luminance" maskUnits="userSpaceOnUse" x="65" y="58" width="3" height="4">
<path d="M67.2518 61.6099C67.3484 60.1096 66.8121 59.183 65.6427 58.8304C66.6355 59.3653 67.1237 60.5199 66.8164 61.6067L67.2518 61.6099Z" fill="white"/>
</mask>
<g mask="url(#mask45_158_1550)">
<path d="M65.6219 61.5978L67.3372 61.6106L67.3578 58.8432L65.6425 58.8304L65.6219 61.5978Z" fill="white"/>
</g>
<mask id="mask46_158_1550" style="mask-type:luminance" maskUnits="userSpaceOnUse" x="65" y="58" width="6" height="6">
<path d="M69.9972 63.8866L68.6161 63.8763C67.8565 63.8707 67.2397 63.2433 67.2454 62.4824L67.2519 61.61C67.3485 60.1097 66.8122 59.1831 65.6428 58.8305C66.7752 58.9139 67.8477 59.4053 68.6544 60.2257C69.4611 61.046 69.9356 62.1277 70.002 63.2634L69.9973 63.8866L69.9972 63.8866Z" fill="white"/>
</mask>
<g mask="url(#mask46_158_1550)">
<path d="M65.6052 63.8539L69.9971 63.8866L70.0345 58.8632L65.6426 58.8305L65.6052 63.8539Z" fill="white"/>
</g>
<mask id="mask47_158_1550" style="mask-type:luminance" maskUnits="userSpaceOnUse" x="66" y="59" width="4" height="5">
<path d="M69.8716 63.759L69.8752 63.2666C69.8093 62.1565 69.3435 61.1073 68.564 60.3145C67.9843 59.725 67.2603 59.3072 66.472 59.0978C68.0755 60.0574 68.9271 61.9044 68.6169 63.7497L69.8716 63.759Z" fill="white"/>
</mask>
<g mask="url(#mask47_158_1550)">
<path d="M66.4375 63.7335L69.8716 63.759L69.9061 59.1234L66.472 59.0978L66.4375 63.7335Z" fill="white"/>
</g>
</g>
<path d="M128.959 202C128.695 202 128.491 201.932 128.347 201.796C128.211 201.652 128.143 201.448 128.143 201.184V194.356C128.143 194.092 128.211 193.892 128.347 193.756C128.491 193.612 128.695 193.54 128.959 193.54H131.287C132.703 193.54 133.795 193.904 134.563 194.632C135.339 195.36 135.727 196.404 135.727 197.764C135.727 198.444 135.627 199.048 135.427 199.576C135.235 200.096 134.947 200.536 134.563 200.896C134.187 201.256 133.723 201.532 133.171 201.724C132.627 201.908 131.999 202 131.287 202H128.959ZM129.679 200.728H131.191C131.687 200.728 132.115 200.668 132.475 200.548C132.843 200.42 133.147 200.236 133.387 199.996C133.635 199.748 133.819 199.44 133.939 199.072C134.059 198.696 134.119 198.26 134.119 197.764C134.119 196.772 133.875 196.032 133.387 195.544C132.899 195.056 132.167 194.812 131.191 194.812H129.679V200.728ZM140.031 202.12C139.367 202.12 138.795 201.996 138.315 201.748C137.835 201.5 137.463 201.148 137.199 200.692C136.943 200.236 136.815 199.696 136.815 199.072C136.815 198.464 136.939 197.932 137.187 197.476C137.443 197.02 137.791 196.664 138.231 196.408C138.679 196.144 139.187 196.012 139.755 196.012C140.171 196.012 140.543 196.08 140.871 196.216C141.207 196.352 141.491 196.548 141.723 196.804C141.963 197.06 142.143 197.372 142.263 197.74C142.391 198.1 142.455 198.508 142.455 198.964C142.455 199.108 142.403 199.22 142.299 199.3C142.203 199.372 142.063 199.408 141.879 199.408H138.027V198.544H141.399L141.207 198.724C141.207 198.356 141.151 198.048 141.039 197.8C140.935 197.552 140.779 197.364 140.571 197.236C140.371 197.1 140.119 197.032 139.815 197.032C139.479 197.032 139.191 197.112 138.951 197.272C138.719 197.424 138.539 197.644 138.411 197.932C138.291 198.212 138.231 198.548 138.231 198.94V199.024C138.231 199.68 138.383 200.172 138.687 200.5C138.999 200.82 139.455 200.98 140.055 200.98C140.263 200.98 140.495 200.956 140.751 200.908C141.015 200.852 141.263 200.76 141.495 200.632C141.663 200.536 141.811 200.496 141.939 200.512C142.067 200.52 142.167 200.564 142.239 200.644C142.319 200.724 142.367 200.824 142.383 200.944C142.399 201.056 142.375 201.172 142.311 201.292C142.255 201.412 142.155 201.516 142.011 201.604C141.731 201.78 141.407 201.912 141.039 202C140.679 202.08 140.343 202.12 140.031 202.12ZM145.647 202.12C144.983 202.12 144.483 201.932 144.147 201.556C143.811 201.172 143.643 200.612 143.643 199.876V194.2C143.643 193.952 143.707 193.764 143.835 193.636C143.963 193.508 144.147 193.444 144.387 193.444C144.627 193.444 144.811 193.508 144.939 193.636C145.075 193.764 145.143 193.952 145.143 194.2V199.804C145.143 200.172 145.219 200.444 145.371 200.62C145.531 200.796 145.755 200.884 146.043 200.884C146.107 200.884 146.167 200.884 146.223 200.884C146.279 200.876 146.335 200.868 146.391 200.86C146.503 200.844 146.579 200.876 146.619 200.956C146.659 201.028 146.679 201.18 146.679 201.412C146.679 201.612 146.639 201.768 146.559 201.88C146.479 201.992 146.347 202.06 146.163 202.084C146.083 202.092 145.999 202.1 145.911 202.108C145.823 202.116 145.735 202.12 145.647 202.12ZM148.243 202.096C148.003 202.096 147.819 202.032 147.691 201.904C147.563 201.768 147.499 201.576 147.499 201.328V196.792C147.499 196.544 147.563 196.356 147.691 196.228C147.819 196.1 147.999 196.036 148.231 196.036C148.463 196.036 148.643 196.1 148.771 196.228C148.899 196.356 148.963 196.544 148.963 196.792V197.668L148.831 197.308C148.991 196.908 149.239 196.592 149.575 196.36C149.911 196.128 150.311 196.012 150.775 196.012C151.247 196.012 151.635 196.124 151.939 196.348C152.243 196.572 152.455 196.916 152.575 197.38H152.407C152.567 196.956 152.831 196.624 153.199 196.384C153.567 196.136 153.991 196.012 154.471 196.012C154.919 196.012 155.287 196.1 155.575 196.276C155.871 196.452 156.091 196.72 156.235 197.08C156.379 197.432 156.451 197.88 156.451 198.424V201.328C156.451 201.576 156.383 201.768 156.247 201.904C156.119 202.032 155.935 202.096 155.695 202.096C155.455 202.096 155.271 202.032 155.143 201.904C155.015 201.768 154.951 201.576 154.951 201.328V198.484C154.951 198.036 154.875 197.708 154.723 197.5C154.579 197.292 154.331 197.188 153.979 197.188C153.587 197.188 153.279 197.328 153.055 197.608C152.831 197.88 152.719 198.26 152.719 198.748V201.328C152.719 201.576 152.655 201.768 152.527 201.904C152.399 202.032 152.215 202.096 151.975 202.096C151.735 202.096 151.547 202.032 151.411 201.904C151.283 201.768 151.219 201.576 151.219 201.328V198.484C151.219 198.036 151.143 197.708 150.991 197.5C150.847 197.292 150.603 197.188 150.259 197.188C149.867 197.188 149.559 197.328 149.335 197.608C149.111 197.88 148.999 198.26 148.999 198.748V201.328C148.999 201.84 148.747 202.096 148.243 202.096ZM159.931 202.12C159.507 202.12 159.127 202.04 158.791 201.88C158.463 201.712 158.203 201.488 158.011 201.208C157.827 200.928 157.735 200.612 157.735 200.26C157.735 199.828 157.847 199.488 158.071 199.24C158.295 198.984 158.659 198.8 159.163 198.688C159.667 198.576 160.343 198.52 161.191 198.52H161.791V199.384H161.203C160.707 199.384 160.311 199.408 160.015 199.456C159.719 199.504 159.507 199.588 159.379 199.708C159.259 199.82 159.199 199.98 159.199 200.188C159.199 200.452 159.291 200.668 159.475 200.836C159.659 201.004 159.915 201.088 160.243 201.088C160.507 201.088 160.739 201.028 160.939 200.908C161.147 200.78 161.311 200.608 161.431 200.392C161.551 200.176 161.611 199.928 161.611 199.648V198.268C161.611 197.868 161.523 197.58 161.347 197.404C161.171 197.228 160.875 197.14 160.459 197.14C160.227 197.14 159.975 197.168 159.703 197.224C159.439 197.28 159.159 197.376 158.863 197.512C158.711 197.584 158.575 197.604 158.455 197.572C158.343 197.54 158.255 197.476 158.191 197.38C158.127 197.276 158.095 197.164 158.095 197.044C158.095 196.924 158.127 196.808 158.191 196.696C158.255 196.576 158.363 196.488 158.515 196.432C158.883 196.28 159.235 196.172 159.571 196.108C159.915 196.044 160.227 196.012 160.507 196.012C161.083 196.012 161.555 196.1 161.923 196.276C162.299 196.452 162.579 196.72 162.763 197.08C162.947 197.432 163.039 197.888 163.039 198.448V201.328C163.039 201.576 162.979 201.768 162.859 201.904C162.739 202.032 162.567 202.096 162.343 202.096C162.119 202.096 161.943 202.032 161.815 201.904C161.695 201.768 161.635 201.576 161.635 201.328V200.752H161.731C161.675 201.032 161.563 201.276 161.395 201.484C161.235 201.684 161.031 201.84 160.783 201.952C160.535 202.064 160.251 202.12 159.931 202.12Z" fill="#11319E"/>
</g>
<defs>
<clipPath id="clip0_158_1550">
<rect width="293" height="242" fill="white"/>
</clipPath>
<clipPath id="clip1_158_1550">
<rect width="7.26603" height="7.85319" fill="white" transform="translate(242.073 56.1467)"/>
</clipPath>
<clipPath id="clip2_158_1550">
<rect width="7.26603" height="7.85319" fill="white" transform="translate(249.266 63.9071) rotate(-179.573)"/>
</clipPath>
<clipPath id="clip3_158_1550">
<rect width="7.26603" height="7.85319" fill="white" transform="translate(65.0735 56.1467)"/>
</clipPath>
<clipPath id="clip4_158_1550">
<rect width="7.26603" height="7.85319" fill="white" transform="translate(72.2659 63.9071) rotate(-179.573)"/>
</clipPath>
</defs>
</svg>
