<svg width="300" height="278" viewBox="0 0 300 278" fill="none" xmlns="http://www.w3.org/2000/svg">
<g clip-path="url(#clip0_581_1018)">
<path d="M297.777 161.148H68.7154C68.1262 161.147 67.5612 160.877 67.1446 160.397C66.7279 159.917 66.4936 159.266 66.4929 158.587V2.56061C66.4936 1.88172 66.7279 1.23085 67.1446 0.750803C67.5612 0.270756 68.1262 0.000741106 68.7154 0H297.777C298.367 0.000741108 298.932 0.270757 299.348 0.750804C299.765 1.23085 299.999 1.88172 300 2.56061V158.587C299.999 159.266 299.765 159.917 299.348 160.397C298.932 160.877 298.367 161.147 297.777 161.148ZM68.7154 1.02424C68.3618 1.02469 68.0229 1.1867 67.7729 1.47473C67.5229 1.76275 67.3823 2.15328 67.3819 2.56061V158.587C67.3823 158.994 67.5229 159.385 67.7729 159.673C68.0229 159.961 68.3618 160.123 68.7154 160.123H297.777C298.131 160.123 298.47 159.961 298.72 159.673C298.97 159.385 299.11 158.994 299.111 158.587V2.56061C299.11 2.15328 298.97 1.76276 298.72 1.47473C298.47 1.1867 298.131 1.02469 297.777 1.02424H68.7154Z" fill="#E6E6E6"/>
<path d="M161.167 12.4611C160.704 12.47 160.264 12.6878 159.94 13.0676C159.615 13.4473 159.434 13.9586 159.434 14.4912C159.434 15.0238 159.615 15.535 159.94 15.9148C160.264 16.2945 160.704 16.5123 161.167 16.5212H205.345C205.811 16.5292 206.261 16.3237 206.597 15.95C206.932 15.5763 207.125 15.0647 207.133 14.5274C207.141 13.9901 206.964 13.4709 206.641 13.0836C206.318 12.6963 205.874 12.4725 205.408 12.4612L205.403 12.4611C205.384 12.4607 205.364 12.4607 205.345 12.4611H161.167Z" fill="#3F3D56"/>
<path d="M215.363 11.8958C215.298 11.9707 215.262 12.0723 215.262 12.1783C215.262 12.2842 215.298 12.3858 215.363 12.4607L216.852 14.1756H213.182C213.09 14.1759 213.002 14.2182 212.937 14.2931C212.872 14.3679 212.836 14.4694 212.836 14.5751C212.836 14.6809 212.872 14.7823 212.937 14.8572C213.002 14.932 213.09 14.9743 213.182 14.9746H216.852L215.363 16.6895C215.331 16.7266 215.306 16.7706 215.288 16.8191C215.271 16.8675 215.262 16.9195 215.262 16.9719C215.262 17.0244 215.271 17.0763 215.288 17.1248C215.306 17.1733 215.331 17.2173 215.363 17.2544C215.396 17.2915 215.434 17.3209 215.476 17.341C215.518 17.3611 215.563 17.3714 215.609 17.3714C215.654 17.3714 215.699 17.3611 215.741 17.341C215.783 17.3209 215.822 17.2915 215.854 17.2544L217.934 14.8576C217.999 14.7827 218.036 14.6811 218.036 14.5751C218.036 14.4692 217.999 14.3676 217.934 14.2926L215.854 11.8958C215.822 11.8587 215.783 11.8293 215.741 11.8092C215.699 11.7891 215.654 11.7788 215.609 11.7788C215.563 11.7788 215.518 11.7891 215.476 11.8092C215.434 11.8293 215.396 11.8587 215.363 11.8958Z" fill="#E6E6E6"/>
<path d="M151.129 11.8958C151.194 11.9707 151.231 12.0723 151.231 12.1783C151.231 12.2842 151.195 12.3858 151.129 12.4607L149.641 14.1756H153.311C153.357 14.1754 153.402 14.1856 153.444 14.2056C153.487 14.2255 153.525 14.2549 153.557 14.2919C153.59 14.329 153.615 14.373 153.633 14.4216C153.65 14.4701 153.659 14.5221 153.659 14.5746C153.659 14.6272 153.651 14.6792 153.633 14.7278C153.616 14.7764 153.59 14.8205 153.558 14.8576C153.526 14.8948 153.487 14.9242 153.445 14.9443C153.403 14.9644 153.358 14.9747 153.312 14.9746H149.641L151.129 16.6895C151.162 16.7266 151.187 16.7706 151.205 16.8191C151.222 16.8675 151.231 16.9195 151.231 16.9719C151.231 17.0244 151.222 17.0764 151.205 17.1248C151.187 17.1733 151.162 17.2173 151.129 17.2544C151.097 17.2915 151.059 17.3209 151.017 17.341C150.975 17.3611 150.93 17.3714 150.884 17.3714C150.839 17.3714 150.794 17.3611 150.752 17.341C150.71 17.3209 150.671 17.2915 150.639 17.2544L148.559 14.8576C148.494 14.7827 148.457 14.6811 148.457 14.5751C148.457 14.4692 148.494 14.3676 148.559 14.2926L150.639 11.8958C150.704 11.8209 150.792 11.7788 150.884 11.7788C150.976 11.7788 151.064 11.8209 151.129 11.8958Z" fill="#E6E6E6"/>
<path d="M66.3605 169.742C64.3519 169.742 62.3883 169.056 60.7182 167.77C59.0481 166.484 57.7463 164.657 56.9777 162.519C56.209 160.381 56.0079 158.028 56.3997 155.758C56.7916 153.489 57.7589 151.404 59.1792 149.767C60.5995 148.131 62.4091 147.016 64.3792 146.565C66.3493 146.113 68.3913 146.345 70.247 147.231C72.1028 148.116 73.6889 149.616 74.8049 151.54C75.9208 153.465 76.5164 155.727 76.5164 158.041C76.5164 161.144 75.4464 164.121 73.5418 166.315C71.6372 168.509 69.054 169.742 66.3605 169.742Z" fill="#11319E"/>
<path d="M70.3677 156.887H67.3623V153.424C67.3623 153.118 67.2567 152.824 67.0688 152.608C66.8809 152.392 66.6261 152.27 66.3604 152.27C66.0947 152.27 65.8399 152.392 65.652 152.608C65.4642 152.824 65.3586 153.118 65.3586 153.424V156.887H62.3531C62.0874 156.887 61.8326 157.009 61.6447 157.225C61.4569 157.441 61.3513 157.735 61.3513 158.041C61.3513 158.347 61.4569 158.641 61.6447 158.857C61.8326 159.074 62.0874 159.195 62.3531 159.195H65.3586V162.658C65.3586 162.964 65.4641 163.258 65.652 163.474C65.8399 163.691 66.0947 163.812 66.3604 163.812C66.6261 163.812 66.8809 163.691 67.0688 163.474C67.2567 163.258 67.3622 162.964 67.3622 162.658V159.195H70.3677C70.6334 159.195 70.8882 159.074 71.0761 158.857C71.2639 158.641 71.3695 158.347 71.3695 158.041C71.3695 157.735 71.2639 157.441 71.0761 157.225C70.8882 157.009 70.6334 156.887 70.3677 156.887Z" fill="white"/>
<path d="M115.535 33.2461H85.0134V57.1451H115.535V33.2461Z" fill="#F1F1F1"/>
<path d="M157.021 33.2461H126.5V57.1451H157.021V33.2461Z" fill="#F1F1F1"/>
<path d="M198.507 33.2461H167.986V57.1451H198.507V33.2461Z" fill="#F1F1F1"/>
<path d="M239.994 33.2461H209.472V57.1451H239.994V33.2461Z" fill="#F1F1F1"/>
<path d="M281.479 33.2461H250.958V57.1451H281.479V33.2461Z" fill="#F1F1F1"/>
<path d="M115.647 75.2401H85.1255V99.1391H115.647V75.2401Z" fill="#F1F1F1"/>
<path d="M157.133 75.2401H126.612V99.1391H157.133V75.2401Z" fill="#F1F1F1"/>
<path d="M198.619 75.2401H168.097V99.1391H198.619V75.2401Z" fill="#F1F1F1"/>
<path d="M240.105 75.2401H209.583V99.1391H240.105V75.2401Z" fill="#F1F1F1"/>
<path d="M281.591 75.2401H251.07V99.1391H281.591V75.2401Z" fill="#F1F1F1"/>
<path d="M115.759 117.234H85.2373V141.133H115.759V117.234Z" fill="#F1F1F1"/>
<path d="M157.245 117.234H126.723V141.133H157.245V117.234Z" fill="#F1F1F1"/>
<path d="M198.731 117.234H168.209V141.133H198.731V117.234Z" fill="#F1F1F1"/>
<path d="M240.217 117.234H209.695V141.133H240.217V117.234Z" fill="#F1F1F1"/>
<path d="M281.703 117.234H251.181V141.133H281.703V117.234Z" fill="#F1F1F1"/>
<path d="M174.32 45.1956C176.448 45.1956 178.173 43.2085 178.173 40.7572C178.173 38.306 176.448 36.3188 174.32 36.3188C172.193 36.3188 170.468 38.306 170.468 40.7572C170.468 43.2085 172.193 45.1956 174.32 45.1956Z" fill="#1E04F7"/>
<path d="M132.242 87.1896C134.369 87.1896 136.094 85.2025 136.094 82.7513C136.094 80.3 134.369 78.3129 132.242 78.3129C130.114 78.3129 128.389 80.3 128.389 82.7513C128.389 85.2025 130.114 87.1896 132.242 87.1896Z" fill="#1E04F7"/>
<path d="M174.32 129.184C176.448 129.184 178.173 127.197 178.173 124.745C178.173 122.294 176.448 120.307 174.32 120.307C172.193 120.307 170.468 122.294 170.468 124.745C170.468 127.197 172.193 129.184 174.32 129.184Z" fill="#1E04F7"/>
<path d="M216.695 87.1896C218.823 87.1896 220.548 85.2025 220.548 82.7513C220.548 80.3 218.823 78.3129 216.695 78.3129C214.568 78.3129 212.843 80.3 212.843 82.7513C212.843 85.2025 214.568 87.1896 216.695 87.1896Z" fill="#3F3D56"/>
<path d="M257.885 87.1896C260.013 87.1896 261.737 85.2025 261.737 82.7513C261.737 80.3 260.013 78.3129 257.885 78.3129C255.757 78.3129 254.033 80.3 254.033 82.7513C254.033 85.2025 255.757 87.1896 257.885 87.1896Z" fill="#3F3D56"/>
<path d="M132.242 129.184C134.369 129.184 136.094 127.197 136.094 124.745C136.094 122.294 134.369 120.307 132.242 120.307C130.114 120.307 128.389 122.294 128.389 124.745C128.389 127.197 130.114 129.184 132.242 129.184Z" fill="#3F3D56"/>
<path d="M31.238 167.137C35.1896 167.137 38.393 163.447 38.393 158.894C38.393 154.341 35.1896 150.65 31.238 150.65C27.2864 150.65 24.083 154.341 24.083 158.894C24.083 163.447 27.2864 167.137 31.238 167.137Z" fill="#FFB8B8"/>
<path d="M28.6547 207.673C28.5645 207.673 28.474 207.668 28.3831 207.659C27.9331 207.616 27.4961 207.463 27.1008 207.212C26.7055 206.96 26.3607 206.616 26.0891 206.2C25.8175 205.784 25.6252 205.307 25.5247 204.8C25.4243 204.293 25.4181 203.767 25.5064 203.257C25.5273 203.138 25.5535 203.021 25.585 202.906L15.0248 188.516C14.6807 188.043 14.4781 187.455 14.4469 186.84C14.4157 186.224 14.5576 185.613 14.8516 185.097L14.8708 185.07L24.3762 174.272C24.8953 173.683 25.596 173.356 26.3244 173.362C27.0528 173.368 27.7492 173.707 28.2606 174.305C28.772 174.902 29.0565 175.71 29.0517 176.549C29.0468 177.388 28.7529 178.191 28.2346 178.78C28.2227 178.794 28.2106 178.807 28.1985 178.821L21.314 186.361L28.8508 200.298C28.9936 200.307 29.1356 200.327 29.2759 200.358C30.0555 200.538 30.7495 201.044 31.2231 201.78C31.6966 202.516 31.916 203.428 31.8386 204.34C31.7612 205.251 31.3925 206.097 30.8041 206.713C30.2157 207.329 29.4496 207.671 28.6547 207.673Z" fill="#FFB8B8"/>
<path d="M43.0221 273.624H46.5938L48.2927 257.753L43.0215 257.753L43.0221 273.624Z" fill="#FFB8B8"/>
<path d="M42.1113 272.281L49.1448 272.281C49.7334 272.281 50.3165 272.414 50.8603 272.674C51.4042 272.933 51.8983 273.314 52.3145 273.793C52.7307 274.273 53.0609 274.842 53.2862 275.469C53.5114 276.095 53.6274 276.767 53.6274 277.445V277.613L42.1115 277.613L42.1113 272.281Z" fill="#2F2E41"/>
<path d="M7.52393 267.935L10.5926 270.04L19.1005 257.405L14.5713 254.298L7.52393 267.935Z" fill="#FFB8B8"/>
<path d="M7.33758 266.244L13.381 270.39C14.4024 271.09 15.1406 272.23 15.4328 273.558C15.725 274.885 15.5475 276.292 14.9394 277.469L14.8648 277.613L4.96997 270.826L7.33758 266.244Z" fill="#2F2E41"/>
<path d="M47.4365 268.019H43.4373C43.1134 268.019 42.8009 267.881 42.5601 267.632C42.3194 267.382 42.1674 267.039 42.1337 266.668L38.1019 223.002C38.0917 222.892 38.0504 222.789 37.9844 222.709C37.9184 222.629 37.8313 222.576 37.7366 222.559C37.6419 222.541 37.5448 222.56 37.4603 222.612C37.3758 222.665 37.3086 222.748 37.2691 222.848L29.9956 241.404L17.1182 265.597C16.9515 265.908 16.6935 266.138 16.3913 266.247C16.0891 266.356 15.763 266.336 15.4727 266.19L10.3283 263.582C10.1582 263.496 10.006 263.369 9.88171 263.21C9.75743 263.051 9.66394 262.863 9.60745 262.659C9.55096 262.455 9.53275 262.239 9.55404 262.026C9.57532 261.814 9.6356 261.609 9.7309 261.425L21.5687 238.588L25.1993 219.346C24.0574 211.002 28.9525 198.596 29.0022 198.471L29.0264 198.411L42.5102 192.339L42.5779 192.434C47.8955 212.539 51.1358 234.176 48.7432 266.635C48.7137 267.011 48.5635 267.362 48.3219 267.618C48.0803 267.873 47.7647 268.016 47.4365 268.019Z" fill="#2F2E41"/>
<path d="M28.483 200.444L28.4202 200.292C28.3902 200.219 25.392 192.933 23.0808 185.146C22.6366 183.64 22.4687 182.045 22.5876 180.46C22.7066 178.876 23.1099 177.337 23.772 175.941C24.4427 174.531 25.3602 173.297 26.4665 172.317C27.5727 171.337 28.8436 170.632 30.1986 170.248C32.5509 169.598 35.0275 169.944 37.1771 171.222C39.3267 172.5 41.0064 174.625 41.91 177.21C43.7433 182.492 43.1591 188.13 42.6092 192.564L42.5983 192.653L42.5281 192.691L28.483 200.444Z" fill="#11319E"/>
<path d="M39.9131 154.237H28.5518V148.531C31.0454 147.39 33.4856 146.419 34.9607 148.531C36.2742 148.531 37.5338 149.132 38.4626 150.202C39.3913 151.272 39.9131 152.724 39.9131 154.237Z" fill="#2F2E41"/>
<path d="M27.9228 147.524C21.1308 147.524 19.2297 157.333 19.2297 162.867C19.2297 165.953 20.4411 167.057 22.3446 167.43L23.0169 163.299L24.5913 167.608C25.126 167.611 25.6878 167.599 26.2701 167.586L26.8039 166.32L27.9944 167.564C32.7622 167.572 36.6158 168.373 36.6158 162.867C36.6158 157.333 34.9486 147.524 27.9228 147.524Z" fill="#2F2E41"/>
<path d="M58.1128 158.502C58.156 158.593 58.1959 158.687 58.2325 158.783C58.4153 159.259 58.5088 159.774 58.5068 160.294C58.5049 160.815 58.4075 161.328 58.2211 161.802C58.0348 162.276 57.7636 162.699 57.4254 163.044C57.0872 163.389 56.6896 163.647 56.2586 163.803C56.1583 163.838 56.0565 163.868 55.9535 163.891L50.0559 181.468C49.8609 182.042 49.5104 182.529 49.0563 182.856C48.6023 183.183 48.0688 183.332 47.5352 183.282L47.5056 183.275L34.723 178.842C34.0252 178.6 33.4395 178.048 33.0947 177.309C32.7498 176.569 32.6742 175.702 32.8843 174.898C33.0944 174.094 33.5731 173.419 34.2151 173.022C34.8571 172.624 35.6098 172.537 36.3076 172.779C36.3235 172.785 36.3394 172.79 36.3553 172.796L45.3996 176.142L52.4017 161.84C52.3398 161.691 52.2871 161.538 52.2438 161.381C52.0066 160.507 52.0599 159.562 52.3932 158.731C52.7265 157.899 53.3161 157.24 54.0476 156.881C54.779 156.522 55.6001 156.49 56.3513 156.789C57.1026 157.089 57.7304 157.699 58.1128 158.502Z" fill="#FFB8B8"/>
<path d="M59.5951 278H0.308783C0.226889 278 0.148348 277.963 0.0904402 277.896C0.0325322 277.829 0 277.739 0 277.644C0 277.55 0.0325322 277.459 0.0904402 277.393C0.148348 277.326 0.226889 277.289 0.308783 277.289H59.5951C59.677 277.289 59.7555 277.326 59.8134 277.393C59.8714 277.459 59.9039 277.55 59.9039 277.644C59.9039 277.739 59.8714 277.829 59.8134 277.896C59.7555 277.963 59.677 278 59.5951 278Z" fill="#CCCCCC"/>
<path d="M98.9588 18C98.6948 18 98.4908 17.932 98.3468 17.796C98.2108 17.652 98.1428 17.448 98.1428 17.184V10.356C98.1428 10.092 98.2108 9.892 98.3468 9.756C98.4908 9.612 98.6948 9.54 98.9588 9.54H101.287C102.703 9.54 103.795 9.904 104.563 10.632C105.339 11.36 105.727 12.404 105.727 13.764C105.727 14.444 105.627 15.048 105.427 15.576C105.235 16.096 104.947 16.536 104.563 16.896C104.187 17.256 103.723 17.532 103.171 17.724C102.627 17.908 101.999 18 101.287 18H98.9588ZM99.6788 16.728H101.191C101.687 16.728 102.115 16.668 102.475 16.548C102.843 16.42 103.147 16.236 103.387 15.996C103.635 15.748 103.819 15.44 103.939 15.072C104.059 14.696 104.119 14.26 104.119 13.764C104.119 12.772 103.875 12.032 103.387 11.544C102.899 11.056 102.167 10.812 101.191 10.812H99.6788V16.728ZM110.031 18.12C109.367 18.12 108.795 17.996 108.315 17.748C107.835 17.5 107.463 17.148 107.199 16.692C106.943 16.236 106.815 15.696 106.815 15.072C106.815 14.464 106.939 13.932 107.187 13.476C107.443 13.02 107.791 12.664 108.231 12.408C108.679 12.144 109.187 12.012 109.755 12.012C110.171 12.012 110.543 12.08 110.871 12.216C111.207 12.352 111.491 12.548 111.723 12.804C111.963 13.06 112.143 13.372 112.263 13.74C112.391 14.1 112.455 14.508 112.455 14.964C112.455 15.108 112.403 15.22 112.299 15.3C112.203 15.372 112.063 15.408 111.879 15.408H108.027V14.544H111.399L111.207 14.724C111.207 14.356 111.151 14.048 111.039 13.8C110.935 13.552 110.779 13.364 110.571 13.236C110.371 13.1 110.119 13.032 109.815 13.032C109.479 13.032 109.191 13.112 108.951 13.272C108.719 13.424 108.539 13.644 108.411 13.932C108.291 14.212 108.231 14.548 108.231 14.94V15.024C108.231 15.68 108.383 16.172 108.687 16.5C108.999 16.82 109.455 16.98 110.055 16.98C110.263 16.98 110.495 16.956 110.751 16.908C111.015 16.852 111.263 16.76 111.495 16.632C111.663 16.536 111.811 16.496 111.939 16.512C112.067 16.52 112.167 16.564 112.239 16.644C112.319 16.724 112.367 16.824 112.383 16.944C112.399 17.056 112.375 17.172 112.311 17.292C112.255 17.412 112.155 17.516 112.011 17.604C111.731 17.78 111.407 17.912 111.039 18C110.679 18.08 110.343 18.12 110.031 18.12ZM115.647 18.12C114.983 18.12 114.483 17.932 114.147 17.556C113.811 17.172 113.643 16.612 113.643 15.876V10.2C113.643 9.952 113.707 9.764 113.835 9.636C113.963 9.508 114.147 9.444 114.387 9.444C114.627 9.444 114.811 9.508 114.939 9.636C115.075 9.764 115.143 9.952 115.143 10.2V15.804C115.143 16.172 115.219 16.444 115.371 16.62C115.531 16.796 115.755 16.884 116.043 16.884C116.107 16.884 116.167 16.884 116.223 16.884C116.279 16.876 116.335 16.868 116.391 16.86C116.503 16.844 116.579 16.876 116.619 16.956C116.659 17.028 116.679 17.18 116.679 17.412C116.679 17.612 116.639 17.768 116.559 17.88C116.479 17.992 116.347 18.06 116.163 18.084C116.083 18.092 115.999 18.1 115.911 18.108C115.823 18.116 115.735 18.12 115.647 18.12ZM118.243 18.096C118.003 18.096 117.819 18.032 117.691 17.904C117.563 17.768 117.499 17.576 117.499 17.328V12.792C117.499 12.544 117.563 12.356 117.691 12.228C117.819 12.1 117.999 12.036 118.231 12.036C118.463 12.036 118.643 12.1 118.771 12.228C118.899 12.356 118.963 12.544 118.963 12.792V13.668L118.831 13.308C118.991 12.908 119.239 12.592 119.575 12.36C119.911 12.128 120.311 12.012 120.775 12.012C121.247 12.012 121.635 12.124 121.939 12.348C122.243 12.572 122.455 12.916 122.575 13.38H122.407C122.567 12.956 122.831 12.624 123.199 12.384C123.567 12.136 123.991 12.012 124.471 12.012C124.919 12.012 125.287 12.1 125.575 12.276C125.871 12.452 126.091 12.72 126.235 13.08C126.379 13.432 126.451 13.88 126.451 14.424V17.328C126.451 17.576 126.383 17.768 126.247 17.904C126.119 18.032 125.935 18.096 125.695 18.096C125.455 18.096 125.271 18.032 125.143 17.904C125.015 17.768 124.951 17.576 124.951 17.328V14.484C124.951 14.036 124.875 13.708 124.723 13.5C124.579 13.292 124.331 13.188 123.979 13.188C123.587 13.188 123.279 13.328 123.055 13.608C122.831 13.88 122.719 14.26 122.719 14.748V17.328C122.719 17.576 122.655 17.768 122.527 17.904C122.399 18.032 122.215 18.096 121.975 18.096C121.735 18.096 121.547 18.032 121.411 17.904C121.283 17.768 121.219 17.576 121.219 17.328V14.484C121.219 14.036 121.143 13.708 120.991 13.5C120.847 13.292 120.603 13.188 120.259 13.188C119.867 13.188 119.559 13.328 119.335 13.608C119.111 13.88 118.999 14.26 118.999 14.748V17.328C118.999 17.84 118.747 18.096 118.243 18.096ZM129.931 18.12C129.507 18.12 129.127 18.04 128.791 17.88C128.463 17.712 128.203 17.488 128.011 17.208C127.827 16.928 127.735 16.612 127.735 16.26C127.735 15.828 127.847 15.488 128.071 15.24C128.295 14.984 128.659 14.8 129.163 14.688C129.667 14.576 130.343 14.52 131.191 14.52H131.791V15.384H131.203C130.707 15.384 130.311 15.408 130.015 15.456C129.719 15.504 129.507 15.588 129.379 15.708C129.259 15.82 129.199 15.98 129.199 16.188C129.199 16.452 129.291 16.668 129.475 16.836C129.659 17.004 129.915 17.088 130.243 17.088C130.507 17.088 130.739 17.028 130.939 16.908C131.147 16.78 131.311 16.608 131.431 16.392C131.551 16.176 131.611 15.928 131.611 15.648V14.268C131.611 13.868 131.523 13.58 131.347 13.404C131.171 13.228 130.875 13.14 130.459 13.14C130.227 13.14 129.975 13.168 129.703 13.224C129.439 13.28 129.159 13.376 128.863 13.512C128.711 13.584 128.575 13.604 128.455 13.572C128.343 13.54 128.255 13.476 128.191 13.38C128.127 13.276 128.095 13.164 128.095 13.044C128.095 12.924 128.127 12.808 128.191 12.696C128.255 12.576 128.363 12.488 128.515 12.432C128.883 12.28 129.235 12.172 129.571 12.108C129.915 12.044 130.227 12.012 130.507 12.012C131.083 12.012 131.555 12.1 131.923 12.276C132.299 12.452 132.579 12.72 132.763 13.08C132.947 13.432 133.039 13.888 133.039 14.448V17.328C133.039 17.576 132.979 17.768 132.859 17.904C132.739 18.032 132.567 18.096 132.343 18.096C132.119 18.096 131.943 18.032 131.815 17.904C131.695 17.768 131.635 17.576 131.635 17.328V16.752H131.731C131.675 17.032 131.563 17.276 131.395 17.484C131.235 17.684 131.031 17.84 130.783 17.952C130.535 18.064 130.251 18.12 129.931 18.12Z" fill="#3454C1"/>
<g clip-path="url(#clip1_581_1018)">
<mask id="mask0_581_1018" style="mask-type:luminance" maskUnits="userSpaceOnUse" x="81" y="6" width="9" height="11">
<path d="M81.4104 6.63H84.0448C85.4938 6.63 86.6793 7.81786 86.6793 9.26942V10.9334C86.5162 13.7966 87.5523 15.5564 89.788 16.2125C87.6268 16.0694 85.5741 15.1473 84.0237 13.594C82.4733 12.0407 81.5529 9.98413 81.4102 7.81886V6.63H81.4104Z" fill="white"/>
</mask>
<g mask="url(#mask0_581_1018)">
<path d="M89.7882 6.63H81.4104V16.2125H89.7882V6.63Z" fill="url(#paint0_linear_581_1018)"/>
</g>
<mask id="mask1_581_1018" style="mask-type:luminance" maskUnits="userSpaceOnUse" x="81" y="6" width="8" height="10">
<path d="M81.6514 6.87158V7.8109C81.7929 9.9275 82.6962 11.9222 84.1944 13.4233C85.3086 14.5395 86.6955 15.3262 88.2021 15.7144C85.1298 13.9068 83.4793 10.3959 84.0447 6.87158H81.6514Z" fill="white"/>
</mask>
<g mask="url(#mask1_581_1018)">
<path d="M88.2021 6.87158H81.6514V15.7144H88.2021V6.87158Z" fill="url(#paint1_linear_581_1018)"/>
</g>
<mask id="mask2_581_1018" style="mask-type:luminance" maskUnits="userSpaceOnUse" x="86" y="10" width="5" height="7">
<path d="M86.6792 10.9336C86.5162 13.7968 87.5523 15.5566 89.7879 16.2126H90.9746V13.5732C90.9746 12.1215 89.7889 10.9338 88.3401 10.9338H86.6792V10.9336Z" fill="white"/>
</mask>
<g mask="url(#mask2_581_1018)">
<path d="M90.9747 10.9336H86.5161V16.2126H90.9747V10.9336Z" fill="url(#paint2_linear_581_1018)"/>
</g>
<mask id="mask3_581_1018" style="mask-type:luminance" maskUnits="userSpaceOnUse" x="86" y="10" width="4" height="7">
<path d="M86.6792 10.9336C86.5162 13.7968 87.5523 15.5566 89.7879 16.2126C87.8866 15.2063 86.939 13.0109 87.5097 10.9336H86.6792Z" fill="white"/>
</mask>
<g mask="url(#mask3_581_1018)">
<path d="M89.7881 10.9336H86.5161V16.2126H89.7881V10.9336Z" fill="url(#paint3_linear_581_1018)"/>
</g>
<mask id="mask4_581_1018" style="mask-type:luminance" maskUnits="userSpaceOnUse" x="81" y="6" width="9" height="11">
<path d="M81.4104 6.63H84.0448C85.4938 6.63 86.6793 7.81786 86.6793 9.26942V10.9334C86.5162 13.7966 87.5523 15.5564 89.788 16.2125C87.6268 16.0694 85.5741 15.1473 84.0237 13.594C82.4733 12.0407 81.5529 9.98413 81.4102 7.81886V6.63H81.4104Z" fill="white"/>
</mask>
<g mask="url(#mask4_581_1018)">
<path d="M89.7882 6.63H81.4104V16.2125H89.7882V6.63Z" fill="url(#paint4_linear_581_1018)"/>
</g>
<mask id="mask5_581_1018" style="mask-type:luminance" maskUnits="userSpaceOnUse" x="81" y="6" width="8" height="10">
<path d="M81.6514 6.87158V7.8109C81.7929 9.9275 82.6962 11.9222 84.1944 13.4233C85.3086 14.5395 86.6955 15.3262 88.2021 15.7144C85.1298 13.9068 83.4793 10.3959 84.0447 6.87158H81.6514Z" fill="white"/>
</mask>
<g mask="url(#mask5_581_1018)">
<path d="M88.2021 6.87158H81.6514V15.7144H88.2021V6.87158Z" fill="url(#paint5_linear_581_1018)"/>
</g>
<mask id="mask6_581_1018" style="mask-type:luminance" maskUnits="userSpaceOnUse" x="86" y="10" width="4" height="7">
<path d="M86.6792 10.9336C86.5162 13.7968 87.5523 15.5566 89.7879 16.2126C87.8866 15.2063 86.939 13.0109 87.5097 10.9336H86.6792Z" fill="white"/>
</mask>
<g mask="url(#mask6_581_1018)">
<path d="M89.7881 10.9336H86.5161V16.2126H89.7881V10.9336Z" fill="url(#paint6_linear_581_1018)"/>
</g>
<mask id="mask7_581_1018" style="mask-type:luminance" maskUnits="userSpaceOnUse" x="86" y="10" width="5" height="7">
<path d="M86.6792 10.9336C86.5162 13.7968 87.5523 15.5566 89.7879 16.2126H90.9746V13.5732C90.9746 12.1215 89.7889 10.9338 88.3401 10.9338H86.6792V10.9336Z" fill="white"/>
</mask>
<g mask="url(#mask7_581_1018)">
<path d="M90.9747 10.9336H86.5161V16.2126H90.9747V10.9336Z" fill="url(#paint7_linear_581_1018)"/>
</g>
<mask id="mask8_581_1018" style="mask-type:luminance" maskUnits="userSpaceOnUse" x="81" y="6" width="9" height="11">
<path d="M81.4104 6.63H84.0448C85.4938 6.63 86.6793 7.81786 86.6793 9.26942V10.9334C86.5162 13.7966 87.5523 15.5564 89.788 16.2125C87.6268 16.0694 85.5741 15.1473 84.0237 13.594C82.4733 12.0407 81.5529 9.98413 81.4102 7.81886V6.63H81.4104Z" fill="white"/>
</mask>
<g mask="url(#mask8_581_1018)">
<path d="M89.7882 6.63H81.4104V16.2125H89.7882V6.63Z" fill="url(#paint8_linear_581_1018)"/>
</g>
<mask id="mask9_581_1018" style="mask-type:luminance" maskUnits="userSpaceOnUse" x="81" y="6" width="8" height="10">
<path d="M81.6514 6.87158V7.8109C81.7929 9.9275 82.6962 11.9222 84.1944 13.4233C85.3086 14.5395 86.6955 15.3262 88.2021 15.7144C85.1298 13.9068 83.4793 10.3959 84.0447 6.87158H81.6514Z" fill="white"/>
</mask>
<g mask="url(#mask9_581_1018)">
<path d="M88.2021 6.87158H81.6514V15.7144H88.2021V6.87158Z" fill="url(#paint9_linear_581_1018)"/>
</g>
<mask id="mask10_581_1018" style="mask-type:luminance" maskUnits="userSpaceOnUse" x="86" y="10" width="4" height="7">
<path d="M86.6792 10.9336C86.5162 13.7968 87.5523 15.5566 89.7879 16.2126C87.8866 15.2063 86.939 13.0109 87.5097 10.9336H86.6792Z" fill="white"/>
</mask>
<g mask="url(#mask10_581_1018)">
<path d="M89.7881 10.9336H86.5161V16.2126H89.7881V10.9336Z" fill="url(#paint10_linear_581_1018)"/>
</g>
<mask id="mask11_581_1018" style="mask-type:luminance" maskUnits="userSpaceOnUse" x="86" y="10" width="5" height="7">
<path d="M86.6792 10.9336C86.5162 13.7968 87.5523 15.5566 89.7879 16.2126H90.9746V13.5732C90.9746 12.1215 89.7889 10.9338 88.3401 10.9338H86.6792V10.9336Z" fill="white"/>
</mask>
<g mask="url(#mask11_581_1018)">
<path d="M90.9747 10.9336H86.5161V16.2126H90.9747V10.9336Z" fill="url(#paint11_linear_581_1018)"/>
</g>
</g>
<g clip-path="url(#clip2_581_1018)">
<mask id="mask12_581_1018" style="mask-type:luminance" maskUnits="userSpaceOnUse" x="78" y="11" width="9" height="11">
<path d="M86.532 21.0436L83.8976 21.024C82.4486 21.0132 81.2721 19.8165 81.2829 18.365L81.2953 16.7011C81.4797 13.8391 80.4567 12.0717 78.226 11.399C80.386 11.5581 82.4318 12.4955 83.9706 14.0603C85.5094 15.6251 86.4144 17.6885 86.5411 19.8548L86.5322 21.0436L86.532 21.0436Z" fill="white"/>
</mask>
<g mask="url(#mask12_581_1018)">
<path d="M78.1544 20.9812L86.532 21.0436L86.6033 11.4614L78.2257 11.399L78.1544 20.9812Z" fill="url(#paint12_linear_581_1018)"/>
</g>
<mask id="mask13_581_1018" style="mask-type:luminance" maskUnits="userSpaceOnUse" x="79" y="11" width="8" height="10">
<path d="M86.2927 20.8003L86.2997 19.861C86.1739 17.7434 85.2855 15.742 83.7985 14.2299C82.6927 13.1054 81.3117 12.3083 79.808 11.909C82.8668 13.7394 84.4911 17.2625 83.8994 20.7825L86.2927 20.8003Z" fill="white"/>
</mask>
<g mask="url(#mask13_581_1018)">
<path d="M79.7422 20.7515L86.2927 20.8003L86.3586 11.9577L79.808 11.909L79.7422 20.7515Z" fill="url(#paint13_linear_581_1018)"/>
</g>
<mask id="mask14_581_1018" style="mask-type:luminance" maskUnits="userSpaceOnUse" x="77" y="11" width="5" height="6">
<path d="M81.2954 16.7009C81.4798 13.839 80.4568 12.0716 78.2261 11.3989L77.0395 11.3901L77.0198 14.0294C77.009 15.4811 78.1858 16.6776 79.6346 16.6884L81.2954 16.7007L81.2954 16.7009Z" fill="white"/>
</mask>
<g mask="url(#mask14_581_1018)">
<path d="M77 16.669L81.4585 16.7021L81.4978 11.4233L77.0393 11.3901L77 16.669Z" fill="url(#paint14_linear_581_1018)"/>
</g>
<mask id="mask15_581_1018" style="mask-type:luminance" maskUnits="userSpaceOnUse" x="78" y="11" width="4" height="6">
<path d="M81.2954 16.7009C81.4798 13.839 80.4568 12.0716 78.2261 11.3989C80.1199 12.4194 81.051 14.6217 80.465 16.6947L81.2954 16.7009Z" fill="white"/>
</mask>
<g mask="url(#mask15_581_1018)">
<path d="M78.1866 16.6778L81.4585 16.7021L81.4978 11.4233L78.2259 11.3989L78.1866 16.6778Z" fill="url(#paint15_linear_581_1018)"/>
</g>
<mask id="mask16_581_1018" style="mask-type:luminance" maskUnits="userSpaceOnUse" x="77" y="11" width="5" height="6">
<path d="M81.2951 16.7009C81.4795 13.839 80.4565 12.0716 78.2258 11.3989L77.0392 11.3901L77.0196 14.0294C77.0088 15.4811 78.1855 16.6776 79.6343 16.6884L81.2951 16.7007L81.2951 16.7009Z" fill="white"/>
</mask>
<g mask="url(#mask16_581_1018)">
<path d="M76.9998 16.669L81.4583 16.7021L81.4976 11.4233L77.0391 11.3901L76.9998 16.669Z" fill="url(#paint16_linear_581_1018)"/>
</g>
<mask id="mask17_581_1018" style="mask-type:luminance" maskUnits="userSpaceOnUse" x="78" y="11" width="4" height="6">
<path d="M81.2951 16.7009C81.4795 13.839 80.4565 12.0716 78.2258 11.3989C80.1197 12.4194 81.0508 14.6217 80.4647 16.6947L81.2951 16.7009Z" fill="white"/>
</mask>
<g mask="url(#mask17_581_1018)">
<path d="M78.1864 16.6778L81.4583 16.7021L81.4976 11.4233L78.2257 11.3989L78.1864 16.6778Z" fill="url(#paint17_linear_581_1018)"/>
</g>
<mask id="mask18_581_1018" style="mask-type:luminance" maskUnits="userSpaceOnUse" x="78" y="11" width="9" height="11">
<path d="M86.532 21.0436L83.8976 21.024C82.4486 21.0132 81.2721 19.8165 81.2829 18.365L81.2953 16.7011C81.4797 13.8391 80.4567 12.0717 78.226 11.399C80.386 11.5581 82.4318 12.4955 83.9706 14.0603C85.5094 15.6251 86.4144 17.6885 86.5411 19.8548L86.5322 21.0436L86.532 21.0436Z" fill="white"/>
</mask>
<g mask="url(#mask18_581_1018)">
<path d="M78.1544 20.9812L86.532 21.0436L86.6033 11.4614L78.2257 11.399L78.1544 20.9812Z" fill="url(#paint18_linear_581_1018)"/>
</g>
<mask id="mask19_581_1018" style="mask-type:luminance" maskUnits="userSpaceOnUse" x="79" y="11" width="8" height="10">
<path d="M86.2927 20.8003L86.2997 19.861C86.1739 17.7434 85.2855 15.742 83.7985 14.2299C82.6927 13.1054 81.3117 12.3083 79.808 11.909C82.8668 13.7394 84.4911 17.2625 83.8994 20.7825L86.2927 20.8003Z" fill="white"/>
</mask>
<g mask="url(#mask19_581_1018)">
<path d="M79.7422 20.7515L86.2927 20.8003L86.3586 11.9577L79.808 11.909L79.7422 20.7515Z" fill="url(#paint19_linear_581_1018)"/>
</g>
<mask id="mask20_581_1018" style="mask-type:luminance" maskUnits="userSpaceOnUse" x="77" y="11" width="5" height="6">
<path d="M81.2951 16.7009C81.4795 13.839 80.4565 12.0716 78.2258 11.3989L77.0392 11.3901L77.0196 14.0294C77.0088 15.4811 78.1855 16.6776 79.6343 16.6884L81.2951 16.7007L81.2951 16.7009Z" fill="white"/>
</mask>
<g mask="url(#mask20_581_1018)">
<path d="M76.9998 16.669L81.4583 16.7021L81.4976 11.4233L77.0391 11.3901L76.9998 16.669Z" fill="url(#paint20_linear_581_1018)"/>
</g>
<mask id="mask21_581_1018" style="mask-type:luminance" maskUnits="userSpaceOnUse" x="78" y="11" width="4" height="6">
<path d="M81.2951 16.7009C81.4795 13.839 80.4565 12.0716 78.2258 11.3989C80.1197 12.4194 81.0508 14.6217 80.4647 16.6947L81.2951 16.7009Z" fill="white"/>
</mask>
<g mask="url(#mask21_581_1018)">
<path d="M78.1864 16.6778L81.4583 16.7021L81.4976 11.4233L78.2257 11.3989L78.1864 16.6778Z" fill="url(#paint21_linear_581_1018)"/>
</g>
<mask id="mask22_581_1018" style="mask-type:luminance" maskUnits="userSpaceOnUse" x="78" y="11" width="9" height="11">
<path d="M86.532 21.0436L83.8976 21.024C82.4486 21.0132 81.2721 19.8165 81.2829 18.365L81.2953 16.7011C81.4797 13.8391 80.4567 12.0717 78.226 11.399C80.386 11.5581 82.4318 12.4955 83.9706 14.0603C85.5094 15.6251 86.4144 17.6885 86.5411 19.8548L86.5322 21.0436L86.532 21.0436Z" fill="white"/>
</mask>
<g mask="url(#mask22_581_1018)">
<path d="M78.1544 20.9812L86.532 21.0436L86.6033 11.4614L78.2257 11.399L78.1544 20.9812Z" fill="url(#paint22_linear_581_1018)"/>
</g>
<mask id="mask23_581_1018" style="mask-type:luminance" maskUnits="userSpaceOnUse" x="79" y="11" width="8" height="10">
<path d="M86.2927 20.8003L86.2997 19.861C86.1739 17.7434 85.2855 15.742 83.7985 14.2299C82.6927 13.1054 81.3117 12.3083 79.808 11.909C82.8668 13.7394 84.4911 17.2625 83.8994 20.7825L86.2927 20.8003Z" fill="white"/>
</mask>
<g mask="url(#mask23_581_1018)">
<path d="M79.7422 20.7515L86.2927 20.8003L86.3586 11.9577L79.808 11.909L79.7422 20.7515Z" fill="url(#paint23_linear_581_1018)"/>
</g>
</g>
</g>
<defs>
<linearGradient id="paint0_linear_581_1018" x1="89.8991" y1="17.4767" x2="78.9206" y2="2.07381" gradientUnits="userSpaceOnUse">
<stop stop-color="#191F27"/>
<stop offset="0.14" stop-color="#1972EE"/>
<stop offset="0.44" stop-color="#4794FF"/>
<stop offset="0.86" stop-color="#75AFFF"/>
<stop offset="1" stop-color="#82B7FF"/>
</linearGradient>
<linearGradient id="paint1_linear_581_1018" x1="89.5129" y1="17.752" x2="78.5344" y2="2.3489" gradientUnits="userSpaceOnUse">
<stop stop-color="#3454C1"/>
<stop offset="0.14" stop-color="#5678EA"/>
<stop offset="0.56" stop-color="#4291FF"/>
<stop offset="0.86" stop-color="#71ADFF"/>
<stop offset="1" stop-color="#A4CAFF"/>
</linearGradient>
<linearGradient id="paint2_linear_581_1018" x1="82.7034" y1="11.9365" x2="96.6545" y2="15.7009" gradientUnits="userSpaceOnUse">
<stop stop-color="#131727"/>
<stop offset="0.29" stop-color="#4469E9"/>
<stop offset="0.93" stop-color="#587EFF"/>
<stop offset="1" stop-color="#678AFF"/>
</linearGradient>
<linearGradient id="paint3_linear_581_1018" x1="82.663" y1="12.0863" x2="96.6141" y2="15.8507" gradientUnits="userSpaceOnUse">
<stop stop-color="#3454C1"/>
<stop offset="0.17" stop-color="#3454C1"/>
<stop offset="0.35" stop-color="#3454C1"/>
<stop offset="0.53" stop-color="#5374E5"/>
<stop offset="0.71" stop-color="#6687F9"/>
<stop offset="0.9" stop-color="#6C8DFF"/>
<stop offset="1" stop-color="#8BA5FF"/>
</linearGradient>
<linearGradient id="paint4_linear_581_1018" x1="89.8991" y1="17.4767" x2="78.9206" y2="2.07381" gradientUnits="userSpaceOnUse">
<stop stop-color="#191F27"/>
<stop offset="0.14" stop-color="#1972EE"/>
<stop offset="0.44" stop-color="#4794FF"/>
<stop offset="0.86" stop-color="#75AFFF"/>
<stop offset="1" stop-color="#82B7FF"/>
</linearGradient>
<linearGradient id="paint5_linear_581_1018" x1="89.5129" y1="17.752" x2="78.5344" y2="2.3489" gradientUnits="userSpaceOnUse">
<stop stop-color="#3454C1"/>
<stop offset="0.14" stop-color="#5678EA"/>
<stop offset="0.56" stop-color="#4291FF"/>
<stop offset="0.86" stop-color="#71ADFF"/>
<stop offset="1" stop-color="#A4CAFF"/>
</linearGradient>
<linearGradient id="paint6_linear_581_1018" x1="82.663" y1="12.0863" x2="96.6141" y2="15.8507" gradientUnits="userSpaceOnUse">
<stop stop-color="#3454C1"/>
<stop offset="0.17" stop-color="#3454C1"/>
<stop offset="0.35" stop-color="#3454C1"/>
<stop offset="0.53" stop-color="#5374E5"/>
<stop offset="0.71" stop-color="#6687F9"/>
<stop offset="0.9" stop-color="#6C8DFF"/>
<stop offset="1" stop-color="#8BA5FF"/>
</linearGradient>
<linearGradient id="paint7_linear_581_1018" x1="82.7034" y1="11.9365" x2="96.6545" y2="15.7009" gradientUnits="userSpaceOnUse">
<stop stop-color="#131727"/>
<stop offset="0.29" stop-color="#4469E9"/>
<stop offset="0.93" stop-color="#587EFF"/>
<stop offset="1" stop-color="#678AFF"/>
</linearGradient>
<linearGradient id="paint8_linear_581_1018" x1="89.8991" y1="17.4767" x2="78.9206" y2="2.07381" gradientUnits="userSpaceOnUse">
<stop stop-color="#191F27"/>
<stop offset="0.14" stop-color="#1972EE"/>
<stop offset="0.44" stop-color="#4794FF"/>
<stop offset="0.86" stop-color="#75AFFF"/>
<stop offset="1" stop-color="#82B7FF"/>
</linearGradient>
<linearGradient id="paint9_linear_581_1018" x1="89.5129" y1="17.752" x2="78.5344" y2="2.3489" gradientUnits="userSpaceOnUse">
<stop stop-color="#3454C1"/>
<stop offset="0.14" stop-color="#5678EA"/>
<stop offset="0.56" stop-color="#4291FF"/>
<stop offset="0.86" stop-color="#71ADFF"/>
<stop offset="1" stop-color="#A4CAFF"/>
</linearGradient>
<linearGradient id="paint10_linear_581_1018" x1="82.663" y1="12.0863" x2="96.6141" y2="15.8507" gradientUnits="userSpaceOnUse">
<stop stop-color="#3454C1"/>
<stop offset="0.17" stop-color="#3454C1"/>
<stop offset="0.35" stop-color="#3454C1"/>
<stop offset="0.53" stop-color="#5374E5"/>
<stop offset="0.71" stop-color="#6687F9"/>
<stop offset="0.9" stop-color="#6C8DFF"/>
<stop offset="1" stop-color="#8BA5FF"/>
</linearGradient>
<linearGradient id="paint11_linear_581_1018" x1="82.7034" y1="11.9365" x2="96.6545" y2="15.7009" gradientUnits="userSpaceOnUse">
<stop stop-color="#131727"/>
<stop offset="0.29" stop-color="#4469E9"/>
<stop offset="0.93" stop-color="#587EFF"/>
<stop offset="1" stop-color="#678AFF"/>
</linearGradient>
<linearGradient id="paint12_linear_581_1018" x1="78.1242" y1="10.134" x2="88.9878" y2="25.6182" gradientUnits="userSpaceOnUse">
<stop stop-color="#191F27"/>
<stop offset="0.14" stop-color="#1972EE"/>
<stop offset="0.44" stop-color="#4794FF"/>
<stop offset="0.86" stop-color="#75AFFF"/>
<stop offset="1" stop-color="#82B7FF"/>
</linearGradient>
<linearGradient id="paint13_linear_581_1018" x1="78.5124" y1="9.86165" x2="89.3759" y2="25.3461" gradientUnits="userSpaceOnUse">
<stop stop-color="#3454C1"/>
<stop offset="0.14" stop-color="#5678EA"/>
<stop offset="0.56" stop-color="#4291FF"/>
<stop offset="0.86" stop-color="#71ADFF"/>
<stop offset="1" stop-color="#A4CAFF"/>
</linearGradient>
<linearGradient id="paint14_linear_581_1018" x1="85.2786" y1="15.7276" x2="71.3558" y2="11.8595" gradientUnits="userSpaceOnUse">
<stop stop-color="#131727"/>
<stop offset="0.29" stop-color="#4469E9"/>
<stop offset="0.93" stop-color="#587EFF"/>
<stop offset="1" stop-color="#678AFF"/>
</linearGradient>
<linearGradient id="paint15_linear_581_1018" x1="85.3201" y1="15.5781" x2="71.3974" y2="11.71" gradientUnits="userSpaceOnUse">
<stop stop-color="#3454C1"/>
<stop offset="0.17" stop-color="#3454C1"/>
<stop offset="0.35" stop-color="#3454C1"/>
<stop offset="0.53" stop-color="#5374E5"/>
<stop offset="0.71" stop-color="#6687F9"/>
<stop offset="0.9" stop-color="#6C8DFF"/>
<stop offset="1" stop-color="#8BA5FF"/>
</linearGradient>
<linearGradient id="paint16_linear_581_1018" x1="85.2783" y1="15.7276" x2="71.3556" y2="11.8595" gradientUnits="userSpaceOnUse">
<stop stop-color="#131727"/>
<stop offset="0.29" stop-color="#4469E9"/>
<stop offset="0.93" stop-color="#587EFF"/>
<stop offset="1" stop-color="#678AFF"/>
</linearGradient>
<linearGradient id="paint17_linear_581_1018" x1="85.3199" y1="15.5781" x2="71.3971" y2="11.71" gradientUnits="userSpaceOnUse">
<stop stop-color="#3454C1"/>
<stop offset="0.17" stop-color="#3454C1"/>
<stop offset="0.35" stop-color="#3454C1"/>
<stop offset="0.53" stop-color="#5374E5"/>
<stop offset="0.71" stop-color="#6687F9"/>
<stop offset="0.9" stop-color="#6C8DFF"/>
<stop offset="1" stop-color="#8BA5FF"/>
</linearGradient>
<linearGradient id="paint18_linear_581_1018" x1="78.1242" y1="10.134" x2="88.9878" y2="25.6182" gradientUnits="userSpaceOnUse">
<stop stop-color="#191F27"/>
<stop offset="0.14" stop-color="#1972EE"/>
<stop offset="0.44" stop-color="#4794FF"/>
<stop offset="0.86" stop-color="#75AFFF"/>
<stop offset="1" stop-color="#82B7FF"/>
</linearGradient>
<linearGradient id="paint19_linear_581_1018" x1="78.5124" y1="9.86165" x2="89.3759" y2="25.3461" gradientUnits="userSpaceOnUse">
<stop stop-color="#3454C1"/>
<stop offset="0.14" stop-color="#5678EA"/>
<stop offset="0.56" stop-color="#4291FF"/>
<stop offset="0.86" stop-color="#71ADFF"/>
<stop offset="1" stop-color="#A4CAFF"/>
</linearGradient>
<linearGradient id="paint20_linear_581_1018" x1="85.2783" y1="15.7276" x2="71.3556" y2="11.8595" gradientUnits="userSpaceOnUse">
<stop stop-color="#131727"/>
<stop offset="0.29" stop-color="#4469E9"/>
<stop offset="0.93" stop-color="#587EFF"/>
<stop offset="1" stop-color="#678AFF"/>
</linearGradient>
<linearGradient id="paint21_linear_581_1018" x1="85.3199" y1="15.5781" x2="71.3971" y2="11.71" gradientUnits="userSpaceOnUse">
<stop stop-color="#3454C1"/>
<stop offset="0.17" stop-color="#3454C1"/>
<stop offset="0.35" stop-color="#3454C1"/>
<stop offset="0.53" stop-color="#5374E5"/>
<stop offset="0.71" stop-color="#6687F9"/>
<stop offset="0.9" stop-color="#6C8DFF"/>
<stop offset="1" stop-color="#8BA5FF"/>
</linearGradient>
<linearGradient id="paint22_linear_581_1018" x1="78.1242" y1="10.134" x2="88.9878" y2="25.6182" gradientUnits="userSpaceOnUse">
<stop stop-color="#191F27"/>
<stop offset="0.14" stop-color="#1972EE"/>
<stop offset="0.44" stop-color="#4794FF"/>
<stop offset="0.86" stop-color="#75AFFF"/>
<stop offset="1" stop-color="#82B7FF"/>
</linearGradient>
<linearGradient id="paint23_linear_581_1018" x1="78.5124" y1="9.86165" x2="89.3759" y2="25.3461" gradientUnits="userSpaceOnUse">
<stop stop-color="#3454C1"/>
<stop offset="0.14" stop-color="#5678EA"/>
<stop offset="0.56" stop-color="#4291FF"/>
<stop offset="0.86" stop-color="#71ADFF"/>
<stop offset="1" stop-color="#A4CAFF"/>
</linearGradient>
<clipPath id="clip0_581_1018">
<rect width="300" height="278" fill="white"/>
</clipPath>
<clipPath id="clip1_581_1018">
<rect width="13.86" height="14.98" fill="white" transform="translate(77.1401 6.28003)"/>
</clipPath>
<clipPath id="clip2_581_1018">
<rect width="13.86" height="14.98" fill="white" transform="translate(90.8596 21.0828) rotate(-179.573)"/>
</clipPath>
</defs>
</svg>
