<svg width="312" height="210" viewBox="0 0 312 210" fill="none" xmlns="http://www.w3.org/2000/svg">
<path d="M157.596 59.0227C154.77 54.3589 151.421 49.3793 146.175 47.8564C140.101 46.0928 133.861 49.5962 128.568 53.0534C112.739 63.3926 97.4955 74.5974 82.9072 86.6164L82.9232 86.7975C94.2808 86.0161 105.638 85.2347 116.996 84.4533C125.202 83.8887 133.689 83.2463 140.941 79.3736C143.693 77.904 146.375 75.941 149.494 75.8042C153.368 75.6343 156.746 78.3336 159.4 81.1537C175.103 97.8357 179.647 123.347 197.264 138.003C186.155 110.671 172.891 84.2618 157.596 59.0227Z" fill="#F2F2F2"/>
<path d="M254.119 200.517C252.383 198.329 251.673 197.817 249.96 195.609C236.013 177.613 222.904 159.009 210.633 139.798C202.298 126.75 194.377 113.452 186.868 99.9029C183.294 93.4616 179.817 86.9697 176.438 80.4273C173.817 75.3545 171.254 70.2513 168.749 65.1178C168.033 63.6516 167.337 62.1786 166.644 60.7023C165.012 57.2305 163.411 53.7419 161.691 50.3173C159.731 46.4141 157.346 42.3222 153.748 39.6998C152.11 38.4574 150.152 37.7057 148.102 37.5325C145.173 37.3438 142.47 38.5504 139.929 39.8684C121.34 49.5387 103.937 61.663 88.1963 75.459C72.4151 89.286 58.3093 104.907 46.1664 122.004C45.7949 122.533 44.9164 122.028 45.2914 121.495C46.7679 119.412 48.2736 117.352 49.8086 115.313C68.8953 89.9885 92.2984 68.2104 118.948 50.9746C123.432 48.0759 128 45.3131 132.652 42.6862C134.997 41.3615 137.351 40.0537 139.747 38.8268C142.095 37.6235 144.588 36.5415 147.271 36.5011C156.4 36.3595 161.127 46.6737 164.374 53.6138C165.394 55.798 166.427 57.9754 167.472 60.1461C171.421 68.3873 175.523 76.5533 179.776 84.644C182.402 89.6393 185.084 94.6053 187.824 99.5422C196.352 114.916 205.416 129.978 215.015 144.729C227.732 164.269 240.348 181.53 254.835 199.802C255.234 200.308 254.521 201.029 254.119 200.517Z" fill="#E4E4E4"/>
<path d="M87.2944 70.366C86.764 69.7761 86.237 69.1863 85.7031 68.5964C81.4934 63.9516 76.9763 59.3608 71.1954 56.698C68.4391 55.3883 65.4301 54.6924 62.3773 54.6588C59.2217 54.6689 56.1371 55.4947 53.2214 56.6508C51.8429 57.2002 50.4948 57.8238 49.1671 58.4878C47.65 59.2496 46.16 60.0619 44.6769 60.881C41.8929 62.418 39.1449 64.0224 36.4332 65.6943C31.0375 69.0211 25.8107 72.6018 20.753 76.4365C18.1311 78.4252 15.5634 80.479 13.0497 82.598C10.7118 84.5665 8.42108 86.5877 6.1777 88.6618C5.69797 89.1034 4.98166 88.3888 5.4614 87.9472C6.05265 87.3978 6.65067 86.8518 7.24869 86.3125C8.93799 84.789 10.6543 83.2946 12.3978 81.8295C15.5769 79.1532 18.8384 76.5803 22.1822 74.1108C27.3819 70.2682 32.7606 66.6863 38.3183 63.3651C41.0956 61.7068 43.9111 60.1181 46.7648 58.5991C47.6264 58.1406 48.4981 57.6924 49.3799 57.2676C51.3807 56.2608 53.4596 55.4165 55.5965 54.743C58.6234 53.7661 61.826 53.4523 64.9856 53.8229C68.0363 54.2656 70.9756 55.28 73.6484 56.8126C79.3244 59.9777 83.7266 64.8718 88.0107 69.648C88.4433 70.1334 87.7303 70.8513 87.2944 70.366Z" fill="#E4E4E4"/>
<path d="M203.594 118.498L217.195 113.535L223.948 111.071C226.147 110.268 228.341 109.355 230.615 108.78C232.591 108.217 234.688 108.244 236.649 108.857C238.398 109.502 239.998 110.492 241.356 111.768C242.743 113.042 244.033 114.416 245.216 115.881C246.687 117.643 248.135 119.425 249.59 121.2C255.595 128.527 261.561 135.885 267.488 143.276C273.415 150.666 279.302 158.088 285.149 165.541C291.01 173.012 296.832 180.515 302.613 188.049C303.321 188.972 304.028 189.895 304.735 190.819C305.126 191.329 306.007 190.826 305.611 190.309C299.787 182.699 293.923 175.121 288.018 167.573C282.099 160.008 276.138 152.475 270.137 144.974C264.136 137.473 258.095 130.004 252.013 122.568C250.497 120.716 248.98 118.865 247.459 117.017C246.177 115.457 244.909 113.881 243.503 112.43C240.921 109.766 237.695 107.412 233.834 107.348C231.564 107.311 229.367 108.029 227.258 108.79C224.984 109.611 222.715 110.447 220.444 111.276L206.748 116.273L203.324 117.523C202.717 117.745 202.979 118.722 203.594 118.498Z" fill="#E4E4E4"/>
<path d="M69.4058 62.5425C62.494 58.9985 53.6425 59.6926 47.291 64.1203C59.4059 66.2055 71.3883 68.9955 83.1768 72.4761C78.2815 69.6141 74.4522 65.13 69.4058 62.5425Z" fill="#F2F2F2"/>
<path d="M47.2232 64.1081L45.8926 65.1871C46.3427 64.8094 46.8106 64.4554 47.2912 64.1203C47.2685 64.1164 47.2459 64.112 47.2232 64.1081Z" fill="#F2F2F2"/>
<path d="M240.844 118.547C239.505 116.922 238.058 115.219 236.055 114.559L234.186 114.632C248.418 139.722 267.64 161.646 290.672 179.057C274.063 158.887 257.453 138.717 240.844 118.547Z" fill="#F2F2F2"/>
<path d="M124.579 105.135C125.445 108.271 127.394 111.001 130.082 112.841C131.122 113.547 132.351 114.224 132.707 115.427C132.894 116.194 132.779 117.004 132.385 117.689C131.992 118.365 131.514 118.987 130.962 119.542L130.912 119.73C128.332 118.206 125.879 116.277 124.454 113.645C123.029 111.013 122.83 107.564 124.579 105.135Z" fill="#F2F2F2"/>
<path d="M210.452 179.774C211.317 182.91 213.266 185.64 215.954 187.48C216.994 188.186 218.223 188.863 218.579 190.067C218.766 190.834 218.651 191.643 218.257 192.328C217.864 193.004 217.386 193.627 216.834 194.181L216.784 194.37C214.204 192.845 211.751 190.916 210.326 188.284C208.901 185.652 208.702 182.203 210.452 179.774Z" fill="#F2F2F2"/>
<path d="M39.0766 174.626C39.9418 177.762 41.891 180.492 44.5794 182.333C45.6188 183.038 46.8485 183.716 47.204 184.919C47.3911 185.686 47.2758 186.495 46.8821 187.18C46.489 187.856 46.0108 188.479 45.459 189.034L45.4086 189.222C42.8294 187.697 40.3756 185.768 38.9508 183.137C37.5261 180.505 37.3272 177.055 39.0766 174.626Z" fill="#F2F2F2"/>
<path d="M236.286 37.5034C246.667 37.5034 255.082 29.108 255.082 18.7517C255.082 8.39542 246.667 0 236.286 0C225.905 0 217.49 8.39542 217.49 18.7517C217.49 29.108 225.905 37.5034 236.286 37.5034Z" fill="#3454C1"/>
<path d="M270.206 4.36454C261.096 3.13614 250.696 8.04821 248.335 16.9111C247.74 15.3353 246.659 13.989 245.246 13.0666C243.834 12.1443 242.165 11.6938 240.479 11.7801C238.793 11.8664 237.179 12.485 235.869 13.5467C234.559 14.6084 233.621 16.0581 233.19 17.6864L234.233 18.4316C253.754 22.6431 273.962 22.552 293.444 18.1645C287.107 11.5209 279.315 5.59291 270.206 4.36454Z" fill="#F0F0F0"/>
<path d="M231.14 29.3668C222.031 28.1384 211.631 33.0505 209.27 41.9134C208.675 40.3375 207.593 38.9912 206.181 38.0689C204.769 37.1466 203.099 36.696 201.414 36.7823C199.728 36.8686 198.113 37.4873 196.803 38.549C195.493 39.6107 194.555 41.0604 194.125 42.6887L195.168 43.4339C214.689 47.6454 234.896 47.5542 254.378 43.1668C248.042 36.5232 240.249 30.5952 231.14 29.3668Z" fill="#F0F0F0"/>
<path d="M310.646 34.0944C310.608 34.0945 310.571 34.0887 310.535 34.0772C213.088 3.33239 127.202 7.35281 72.3125 16.1394C64.8426 17.3348 57.3526 18.7154 50.0508 20.2432C48.1866 20.6328 46.2526 21.0504 44.3027 21.4852C41.9739 22.0026 39.676 22.5354 37.4726 23.0683C36.521 23.2931 35.588 23.5196 34.6736 23.748C33.2885 24.0891 31.883 24.4446 30.3765 24.8352C28.693 25.2683 26.9825 25.7225 25.2915 26.1853C25.2853 26.1875 25.279 26.1893 25.2726 26.1907L25.2727 26.1911C23.3627 26.7113 21.4627 27.2467 19.6254 27.7813C18.6309 28.0679 17.6707 28.3505 16.751 28.6295C16.6482 28.6578 16.5572 28.6851 16.4648 28.7131L16.2672 28.7731C16.1528 28.8079 16.0398 28.842 15.9268 28.8743L15.9196 28.8765L15.9197 28.8769L15.6207 28.9695C15.264 29.0772 14.916 29.1824 14.5737 29.2873C5.52769 32.0693 0.554804 34.0485 0.505676 34.0678C0.460752 34.0858 0.412723 34.0948 0.364327 34.0942C0.315931 34.0937 0.268118 34.0836 0.223619 34.0646C0.179119 34.0456 0.138801 34.0181 0.104972 33.9836C0.0711432 33.949 0.0444628 33.9082 0.0264552 33.8634C0.00844756 33.8185 -0.000530722 33.7706 2.42422e-05 33.7223C0.000579206 33.6741 0.0106613 33.6264 0.0296944 33.582C0.0487274 33.5376 0.0763363 33.4973 0.11095 33.4636C0.145563 33.4299 0.1865 33.4032 0.231424 33.3853C0.280913 33.3659 5.27809 31.3767 14.357 28.5842C14.7006 28.479 15.0495 28.3738 15.4072 28.2657L15.6851 28.1796C15.6946 28.176 15.7042 28.1731 15.7139 28.1702C15.8263 28.1383 15.9386 28.1042 16.0527 28.0697L16.2507 28.0097C16.3493 27.9799 16.4465 27.9505 16.546 27.9232C17.4594 27.646 18.4229 27.3627 19.4199 27.0751C21.2579 26.5401 23.1597 26.0047 25.0712 25.4837C25.0771 25.4816 25.0832 25.4801 25.0892 25.4783C26.7862 25.0141 28.5029 24.5577 30.1918 24.1232C31.7007 23.7322 33.1089 23.376 34.4964 23.0342C35.4147 22.8062 36.3495 22.5791 37.3008 22.3531C39.5067 21.8195 41.8092 21.2859 44.1421 20.7674C46.0952 20.3322 48.0324 19.9136 49.8996 19.5236C57.2128 17.9933 64.7144 16.6106 72.1957 15.4134C127.164 6.61423 213.173 2.58733 310.757 33.3763C310.841 33.4027 310.912 33.4582 310.959 33.5328C311.005 33.6073 311.023 33.696 311.01 33.7828C310.997 33.8695 310.953 33.9486 310.886 34.0058C310.819 34.063 310.734 34.0944 310.646 34.0944Z" fill="#CCCCCC"/>
<path d="M93.9311 154.367C93.8035 153.995 93.5887 153.658 93.3046 153.385C93.1997 153.288 93.0862 153.201 92.9655 153.124C92.0036 152.484 90.5663 152.341 89.6523 153.124C89.5602 153.204 89.4751 153.291 89.398 153.385C89.1252 153.72 88.8451 154.047 88.5577 154.367C88.0859 154.904 87.6031 155.422 87.0982 155.926C86.9545 156.066 86.8108 156.209 86.6633 156.349C86.5786 156.433 86.4938 156.514 86.409 156.595C86.0847 156.904 85.753 157.202 85.4177 157.496C85.2407 157.654 85.0638 157.809 84.8833 157.959C84.6142 158.184 84.3452 158.408 84.0725 158.625C84.0467 158.643 84.0209 158.662 83.9951 158.684C83.9877 158.687 83.984 158.695 83.9766 158.698C83.9729 158.698 83.9693 158.698 83.9656 158.706C83.9556 158.71 83.9467 158.716 83.9398 158.724C83.8587 158.779 83.8034 158.816 83.7629 158.849C83.7776 158.842 83.7924 158.831 83.8071 158.823C83.7408 158.875 83.6707 158.926 83.6044 158.978C82.9594 159.452 82.2997 159.908 81.6253 160.334C79.9566 161.4 78.2039 162.328 76.3845 163.11C76.2629 163.158 76.1376 163.21 76.0123 163.258C71.2487 165.205 66.0812 165.964 60.9571 165.471C60.4337 165.431 59.9104 165.375 59.3871 165.306C58.7827 165.217 58.1819 165.111 57.5849 164.989C55.3119 164.537 53.0879 163.867 50.9436 162.989C48.2614 161.764 45.7103 160.271 43.3294 158.533C42.9609 158.272 42.5886 158.011 42.2164 157.757C42.6402 156.72 43.0567 155.683 43.4621 154.639C43.6648 154.135 43.8601 153.632 44.0518 153.124C45.5592 149.216 46.9744 145.271 48.3306 141.311C49.7016 137.299 50.9952 133.265 52.2114 129.207C52.3367 128.795 52.4584 128.383 52.5763 127.971C53.2139 125.828 53.8257 123.679 54.4117 121.526C54.467 121.316 54.5259 121.11 54.5775 120.901C54.747 120.283 54.9129 119.665 55.0751 119.048C55.4436 117.654 54.6107 115.989 53.1439 115.654C52.4376 115.473 51.6887 115.573 51.0548 115.933C50.421 116.292 49.9517 116.883 49.7459 117.581C49.5874 118.176 49.4289 118.768 49.2667 119.364C48.4891 122.243 47.6709 125.112 46.8122 127.971C46.6869 128.383 46.5616 128.795 46.4363 129.207C44.542 135.435 42.4621 141.601 40.1968 147.705C39.924 148.444 39.6476 149.18 39.3675 149.914C39.2312 150.275 39.0948 150.635 38.9548 150.995C38.6857 151.705 38.4093 152.415 38.1329 153.124C37.9744 153.54 37.8122 153.955 37.6501 154.367C37.5432 154.628 37.44 154.889 37.3368 155.146C36.286 154.77 35.1973 154.509 34.0899 154.367L33.913 154.345C33.0545 154.242 32.1862 154.249 31.3295 154.367C30.0473 154.516 28.8137 154.945 27.7158 155.622C26.6179 156.299 25.6825 157.209 24.9757 158.287C23.2177 161.048 23.2399 164.997 25.7054 167.342C28.2447 169.758 32.0887 169.74 35.0776 168.229C36.6616 167.374 37.9971 166.125 38.9548 164.603C39.3216 164.052 39.6587 163.481 39.9646 162.894C40.042 162.945 40.1194 162.996 40.1968 163.052C40.4916 163.258 40.7864 163.467 41.0776 163.673C42.774 164.899 44.5618 165.994 46.4252 166.949C50.4321 168.936 54.7452 170.238 59.1844 170.799C59.2839 170.81 59.3797 170.824 59.4792 170.835C59.9694 170.898 60.4632 170.946 60.9571 170.986C68.0414 171.519 75.1344 170.072 81.441 166.809C81.9754 166.534 82.5049 166.244 83.0295 165.942C83.8439 165.471 84.64 164.971 85.4177 164.441C85.8415 164.155 86.2543 163.864 86.6633 163.559C88.451 162.245 90.1174 160.775 91.6424 159.165C92.221 158.559 92.7751 157.932 93.3046 157.286C93.8053 156.758 94.0939 156.064 94.1154 155.338C94.1125 155.006 94.0501 154.677 93.9311 154.367ZM32.9032 163.125C32.9806 163.07 33.058 163.011 33.1317 162.952C33.1096 163.008 33.0027 163.07 32.9032 163.125ZM34.0862 161.938C34.0015 162.033 33.9241 162.129 33.8393 162.224C33.5814 162.512 33.3044 162.783 33.0101 163.033C32.9695 163.07 32.9253 163.107 32.8811 163.14C32.8806 163.14 32.8801 163.14 32.8797 163.14C32.8792 163.14 32.8788 163.141 32.8785 163.141C32.8781 163.141 32.8778 163.142 32.8777 163.142C32.8775 163.143 32.8774 163.143 32.8774 163.144C32.8242 163.167 32.7725 163.194 32.7226 163.224C32.5641 163.32 32.402 163.408 32.2361 163.489C31.9114 163.608 31.5773 163.701 31.2374 163.765C30.9761 163.784 30.7139 163.786 30.4524 163.772H30.445C30.2645 163.732 30.0861 163.683 29.9106 163.625C29.8221 163.581 29.7374 163.53 29.6526 163.478C29.6194 163.449 29.5899 163.419 29.5715 163.401C29.5355 163.368 29.5022 163.332 29.472 163.294C29.472 163.294 29.4719 163.293 29.4718 163.293C29.4716 163.292 29.4713 163.292 29.471 163.292C29.4706 163.291 29.4702 163.291 29.4698 163.291C29.4693 163.291 29.4688 163.291 29.4683 163.291C29.4278 163.217 29.3836 163.144 29.343 163.07C29.3409 163.068 29.3396 163.065 29.3394 163.063C29.3099 162.971 29.2841 162.875 29.262 162.78C29.254 162.612 29.2552 162.444 29.2656 162.276C29.3151 162.041 29.3816 161.81 29.4647 161.585C29.5393 161.425 29.6242 161.27 29.719 161.121C29.7263 161.107 29.7632 161.048 29.8037 160.982C29.8074 160.978 29.8074 160.978 29.8074 160.974C29.8627 160.912 29.918 160.846 29.9769 160.787C30.0765 160.676 30.1833 160.581 30.2902 160.482C30.4981 160.346 30.7134 160.222 30.9352 160.11C31.287 159.985 31.648 159.888 32.015 159.82C32.5562 159.777 33.1 159.782 33.6403 159.834C34.152 159.923 34.6569 160.047 35.1514 160.206C34.8517 160.786 34.5105 161.344 34.1305 161.875C34.1157 161.897 34.101 161.919 34.0862 161.938ZM29.988 160.728C29.9555 160.78 29.9172 160.828 29.8737 160.871C29.903 160.817 29.9417 160.769 29.988 160.728Z" fill="#00155D"/>
<path d="M82.8525 116.816C82.8193 117.97 82.7861 119.125 82.7529 120.279C82.6829 122.842 82.6104 125.406 82.5355 127.971C82.4581 130.857 82.377 133.743 82.2923 136.626C82.2517 138.116 82.2099 139.605 82.167 141.094C82.0527 145.105 81.9397 149.115 81.8279 153.124C81.8168 153.54 81.8021 153.952 81.791 154.367C81.7358 156.356 81.6805 158.345 81.6252 160.334C81.5625 162.493 81.5011 164.651 81.4409 166.809C81.3967 168.427 81.3512 170.046 81.3045 171.666C80.9729 183.406 80.6412 195.146 80.3095 206.886C80.2955 207.613 79.9997 208.307 79.4844 208.821C78.969 209.335 78.2741 209.63 77.5454 209.644C76.8141 209.638 76.1144 209.346 75.5973 208.83C75.0802 208.314 74.7871 207.616 74.7812 206.886C74.9655 200.283 75.1523 193.679 75.3414 187.076C75.5073 181.105 75.6756 175.134 75.8463 169.162C75.9016 167.195 75.9569 165.227 76.0122 163.257C76.097 160.294 76.1805 157.33 76.2628 154.367C76.2739 153.952 76.2886 153.54 76.2997 153.124C76.307 152.76 76.3181 152.4 76.3291 152.036C76.4913 146.282 76.6535 140.526 76.8156 134.77C76.882 132.505 76.9458 130.239 77.0073 127.971C77.081 125.386 77.1547 122.803 77.2284 120.22C77.2616 119.084 77.2911 117.952 77.3242 116.816C77.3382 116.089 77.634 115.395 78.1493 114.881C78.6647 114.367 79.3596 114.072 80.0883 114.058C80.8196 114.064 81.5192 114.356 82.0363 114.872C82.5534 115.388 82.8466 116.086 82.8525 116.816Z" fill="#00155D"/>
<path d="M234.483 117.581C231.585 128.53 228.12 139.323 224.104 149.915C222.996 152.837 221.862 155.753 220.65 158.634L220.929 157.975C220.388 159.347 219.697 160.656 218.869 161.877C218.813 161.955 218.755 162.033 218.697 162.111C218.983 161.745 219.038 161.673 218.86 161.894C218.767 162.005 218.674 162.116 218.577 162.223C218.319 162.511 218.042 162.782 217.748 163.033C217.674 163.097 217.599 163.158 217.523 163.219L217.869 162.951C217.828 163.045 217.547 163.171 217.459 163.224C217.175 163.395 216.879 163.545 216.573 163.672L217.233 163.394C216.732 163.596 216.208 163.739 215.674 163.821L216.409 163.722C215.884 163.795 215.351 163.8 214.825 163.739L215.56 163.838C215.129 163.779 214.707 163.665 214.305 163.501L214.965 163.779C214.75 163.685 214.543 163.575 214.346 163.449C214.246 163.384 213.939 163.152 214.341 163.458C214.758 163.776 214.394 163.485 214.308 163.401C214.237 163.33 214.172 163.254 214.102 163.182C213.777 162.849 214.469 163.754 214.248 163.365C214.13 163.17 214.022 162.969 213.925 162.764L214.203 163.422C214.077 163.109 213.987 162.782 213.935 162.447L214.034 163.18C213.981 162.765 213.981 162.344 214.033 161.929L213.934 162.662C214.002 162.198 214.125 161.743 214.301 161.309L214.022 161.967C214.145 161.675 214.29 161.392 214.456 161.122C214.533 160.983 214.623 160.851 214.725 160.728C214.743 160.734 214.257 161.284 214.515 161.007C214.582 160.934 214.645 160.857 214.713 160.785C214.822 160.67 214.939 160.564 215.054 160.455C215.439 160.089 214.516 160.81 214.96 160.521C215.282 160.31 215.621 160.125 215.973 159.97L215.313 160.248C215.903 160.006 216.522 159.84 217.154 159.755L216.419 159.854C217.211 159.763 218.011 159.772 218.8 159.882L218.065 159.783C219.065 159.934 220.042 160.209 220.974 160.599L220.314 160.321C222.3 161.172 224.059 162.435 225.815 163.674C227.511 164.899 229.299 165.994 231.161 166.949C235.168 168.936 239.482 170.238 243.921 170.8C250.288 171.578 256.749 170.748 262.711 168.387C268.673 166.026 273.945 162.209 278.044 157.287C278.544 156.757 278.832 156.064 278.853 155.337C278.848 154.606 278.558 153.907 278.044 153.387C277.03 152.458 275.114 152.196 274.135 153.387C273.206 154.517 272.209 155.589 271.147 156.596C270.651 157.065 270.142 157.519 269.62 157.96C269.322 158.211 269.02 158.458 268.713 158.699C268.568 158.813 268.117 159.117 268.81 158.626C268.651 158.739 268.499 158.862 268.342 158.978C266.021 160.685 263.506 162.112 260.849 163.23L261.509 162.952C258.658 164.145 255.663 164.963 252.601 165.387L253.335 165.288C250.185 165.702 246.993 165.697 243.844 165.274L244.579 165.373C241.43 164.941 238.351 164.104 235.418 162.883L236.078 163.161C233.248 161.912 230.562 160.36 228.067 158.532C226.769 157.573 225.4 156.713 223.972 155.96C222.308 155.112 220.506 154.566 218.65 154.347C215.172 153.938 211.627 155.29 209.715 158.288C207.955 161.048 207.977 164.996 210.442 167.342C212.98 169.759 216.825 169.739 219.816 168.227C222.697 166.771 224.428 163.747 225.645 160.895C228.384 154.477 230.808 147.911 233.067 141.311C235.302 134.782 237.329 128.186 239.148 121.525C239.373 120.7 239.595 119.874 239.814 119.047C240.183 117.654 239.349 115.988 237.883 115.655C237.177 115.474 236.427 115.573 235.793 115.932C235.158 116.292 234.689 116.883 234.483 117.581Z" fill="#00155D"/>
<path d="M262.063 116.816L261.068 152.037L260.078 187.075L259.519 206.887C259.525 207.616 259.818 208.314 260.335 208.83C260.852 209.345 261.552 209.638 262.283 209.644C263.011 209.63 263.706 209.335 264.222 208.821C264.737 208.307 265.033 207.614 265.047 206.887L266.042 171.665L267.031 136.628L267.591 116.816C267.585 116.086 267.292 115.388 266.775 114.873C266.258 114.357 265.558 114.064 264.827 114.058C264.098 114.072 263.403 114.367 262.888 114.881C262.373 115.395 262.077 116.089 262.063 116.816Z" fill="#00155D"/>
<path opacity="0.2" d="M166.389 197.053H167.247V158.063H187.27V157.209H167.247V140.758H182.71C182.483 140.47 182.25 140.186 182.01 139.906H167.247V129.04C166.963 128.919 166.677 128.803 166.389 128.693V139.906H149.564V125.984C149.275 125.997 148.991 126.016 148.705 126.041V139.906H135.283V129.518C134.995 129.646 134.711 129.78 134.429 129.92V139.906H123.146V140.758H134.429V157.209H123.146V158.063H134.429V197.053H135.283V158.063C137.046 158.063 138.791 158.409 140.42 159.082C142.048 159.755 143.528 160.741 144.775 161.985C146.021 163.228 147.01 164.705 147.684 166.329C148.359 167.954 148.706 169.696 148.705 171.454V197.053H149.564V158.063H166.389V197.053ZM135.283 157.209V140.758H148.705V157.209H135.283ZM149.564 157.209V140.758H149.9C152.066 140.758 154.21 141.183 156.211 142.01C158.211 142.837 160.029 144.049 161.56 145.577C163.091 147.104 164.305 148.918 165.134 150.914C165.962 152.91 166.389 155.049 166.389 157.209H149.564Z" fill="white"/>
<path d="M161.147 185.362C160.066 190.171 157.478 194.511 153.758 197.753C153.485 197.989 153.212 198.217 152.928 198.441C152.239 198.503 151.555 198.567 150.876 198.632C150.312 198.684 149.755 198.739 149.202 198.79L149.103 198.801L149.033 198.198L148.753 195.757C147.666 193.987 146.993 191.996 146.782 189.931C146.572 187.867 146.829 185.781 147.537 183.829C148.51 181.211 150.271 178.899 152.003 176.604C154.395 173.435 156.721 170.302 156.806 166.438C157.982 167.941 158.961 169.588 159.717 171.339C159.004 171.674 158.363 172.145 157.83 172.725C157.679 172.891 157.528 173.122 157.631 173.321C157.72 173.49 157.941 173.531 158.132 173.553C158.593 173.6 159.057 173.648 159.518 173.696C159.887 173.736 160.255 173.773 160.624 173.814C161.07 175.274 161.372 176.773 161.527 178.292C161.775 180.654 161.647 183.04 161.147 185.362Z" fill="#00155D"/>
<path d="M173.382 175.726C171.208 177.303 169.936 179.572 168.949 182.072C167.936 182.395 167.026 182.975 166.306 183.756C166.155 183.921 166.004 184.153 166.107 184.351C166.196 184.521 166.417 184.561 166.609 184.583C167.069 184.631 167.534 184.679 167.994 184.726C167.007 187.683 166.1 190.742 164.353 193.238C163.191 194.886 161.677 196.257 159.919 197.25C159.44 197.522 158.945 197.766 158.438 197.981C156.566 198.125 154.729 198.278 152.928 198.441C152.239 198.503 151.555 198.567 150.875 198.632C150.311 198.684 149.755 198.739 149.202 198.79C149.198 198.588 149.198 198.386 149.202 198.183C149.319 192.796 151.305 187.617 154.822 183.528C154.988 183.337 155.158 183.149 155.331 182.962C157.113 181.063 159.208 179.483 161.526 178.292C165.178 176.398 169.272 175.511 173.382 175.726Z" fill="#3454C1"/>
<path d="M151.513 196.746L151.089 197.996L150.875 198.632C150.312 198.684 149.755 198.739 149.202 198.79L149.103 198.801C148.491 198.864 147.883 198.926 147.275 198.989C147.116 198.805 146.958 198.617 146.803 198.426C142.956 193.779 141.11 187.801 141.667 181.8C142.224 175.798 145.14 170.261 149.777 166.398C149.291 168.938 149.858 171.372 150.791 173.788C150.691 173.828 150.595 173.869 150.503 173.913C149.79 174.248 149.149 174.719 148.616 175.299C148.465 175.464 148.314 175.696 148.417 175.895C148.506 176.064 148.727 176.104 148.918 176.126C149.379 176.174 149.844 176.222 150.304 176.27C150.673 176.31 151.041 176.347 151.41 176.387C151.583 176.406 151.756 176.424 151.929 176.443C151.955 176.498 151.977 176.549 152.003 176.604C153.054 178.877 154.185 181.16 154.823 183.528C154.982 184.122 155.108 184.725 155.199 185.333C155.482 187.389 155.298 189.483 154.66 191.459C154.022 193.434 152.947 195.242 151.513 196.746Z" fill="#3454C1"/>
<path d="M188.61 143.418C185.438 137.244 180.522 132.049 174.741 128.231C168.941 124.419 162.286 122.097 155.369 121.473C154.463 121.391 153.554 121.343 152.642 121.329C151.566 121.313 135.37 125.973 129.945 129.779C124.522 133.538 120.061 138.516 116.923 144.312C113.789 150.14 112.248 156.687 112.454 163.297C112.722 169.946 114.58 176.435 117.872 182.223C121.12 187.993 125.731 192.883 131.304 196.47C136.957 200.068 142.635 209.609 149.309 209.946C156.034 210.285 163.702 201.285 169.835 198.552C175.968 195.797 181.271 191.486 185.213 186.049C189.045 180.721 191.523 174.546 192.436 168.052C193.385 161.403 192.943 154.546 190.667 148.191C190.083 146.559 189.396 144.964 188.61 143.418C187.955 142.129 186.032 141.654 184.829 142.428C184.209 142.809 183.76 143.414 183.575 144.117C183.39 144.819 183.484 145.566 183.837 146.201C184.222 146.958 184.58 147.728 184.911 148.509L184.633 147.851C185.886 150.857 186.738 154.013 187.167 157.241L187.068 156.508C187.525 160.009 187.517 163.555 187.044 167.054L187.143 166.32C186.665 169.819 185.729 173.24 184.358 176.496L184.637 175.837C183.932 177.498 183.11 179.107 182.178 180.653C181.706 181.434 181.204 182.196 180.674 182.941C180.442 183.267 180.202 183.588 179.96 183.908C179.644 184.325 180.39 183.363 180.064 183.772C180.008 183.842 179.953 183.912 179.897 183.981C179.73 184.19 179.56 184.397 179.388 184.602C178.239 185.97 176.985 187.246 175.637 188.42C175.302 188.712 174.961 188.998 174.614 189.277C174.441 189.416 174.27 189.561 174.09 189.69C174.097 189.686 174.672 189.249 174.332 189.503C174.225 189.582 174.119 189.663 174.011 189.742C173.296 190.271 172.562 190.772 171.809 191.247C170.076 192.336 168.257 193.285 166.371 194.083L167.031 193.805C163.778 195.171 160.358 196.105 156.861 196.581L157.596 196.483C154.1 196.954 150.557 196.96 147.059 196.501L147.794 196.6C144.615 196.174 141.506 195.336 138.545 194.105L139.205 194.383C137.49 193.661 135.837 192.801 134.261 191.813C133.481 191.323 132.721 190.802 131.982 190.251C131.877 190.173 131.772 190.093 131.667 190.014C131.329 189.76 131.909 190.201 131.914 190.204C131.718 190.064 131.529 189.914 131.348 189.754C130.991 189.464 130.64 189.167 130.294 188.864C128.909 187.647 127.617 186.331 126.426 184.926C126.128 184.574 125.837 184.218 125.551 183.856C125.428 183.699 125.203 183.381 125.7 184.05C125.635 183.962 125.567 183.876 125.501 183.788C125.342 183.578 125.185 183.366 125.031 183.153C124.489 182.406 123.975 181.64 123.487 180.857C122.385 179.082 121.423 177.225 120.611 175.302L120.889 175.96C119.559 172.803 118.65 169.486 118.184 166.093L118.283 166.826C117.862 163.698 117.856 160.529 118.265 157.4L118.166 158.133C118.585 155.103 119.402 152.141 120.596 149.324L120.318 149.983C121.069 148.219 121.956 146.516 122.97 144.888C123.477 144.073 124.015 143.279 124.583 142.504C124.712 142.328 124.843 142.153 124.975 141.979C125.094 141.821 125.422 141.43 124.862 142.121C124.917 142.054 124.97 141.984 125.024 141.915C125.336 141.521 125.655 141.133 125.982 140.752C127.22 139.306 128.56 137.952 129.993 136.7C130.355 136.383 130.723 136.073 131.097 135.77C131.266 135.632 131.437 135.496 131.609 135.361C131.678 135.307 131.748 135.254 131.816 135.199C131.08 135.784 131.612 135.358 131.779 135.233C132.549 134.658 133.34 134.111 134.151 133.593C135.954 132.443 137.851 131.445 139.821 130.612L139.161 130.89C142.021 129.692 154.692 126.864 156.997 127.173L156.262 127.074C159.649 127.546 162.96 128.459 166.109 129.789L165.449 129.511C167.045 130.187 168.596 130.964 170.093 131.838C170.841 132.275 171.574 132.736 172.292 133.221C172.632 133.451 172.968 133.685 173.301 133.925C173.468 134.045 173.633 134.166 173.797 134.289C173.889 134.357 173.979 134.426 174.071 134.494C174.454 134.78 173.543 134.079 173.945 134.396C175.288 135.449 176.564 136.586 177.766 137.798C178.355 138.398 178.925 139.016 179.474 139.653C179.756 139.98 180.032 140.312 180.302 140.649C180.437 140.816 180.894 141.421 180.334 140.68C180.47 140.861 180.609 141.041 180.744 141.224C181.909 142.796 182.943 144.461 183.837 146.201C184.498 147.487 186.412 147.967 187.619 147.191C188.239 146.81 188.688 146.205 188.873 145.503C189.058 144.8 188.964 144.053 188.61 143.418Z" fill="#00155D"/>
<path d="M156.403 188.42C156.117 188.433 155.835 188.358 155.594 188.206C155.352 188.053 155.164 187.831 155.054 187.568C154.943 187.305 154.917 187.015 154.978 186.736C155.038 186.458 155.183 186.205 155.393 186.011C155.428 185.872 155.453 185.772 155.489 185.633C155.476 185.602 155.463 185.572 155.451 185.542C154.168 182.491 145.985 190.996 145.631 193.863C145.475 195.13 145.541 196.415 145.825 197.66C143.174 191.891 141.798 185.621 141.789 179.275C141.788 177.683 141.877 176.091 142.054 174.509C142.201 173.211 142.405 171.923 142.665 170.644C144.086 163.705 147.136 157.201 151.566 151.666C154.099 151.807 156.32 151.422 156.534 146.524C156.572 145.652 157.22 144.898 157.363 144.04C157.121 144.071 156.875 144.091 156.633 144.107C156.558 144.111 156.478 144.115 156.403 144.119L156.375 144.12C156.109 144.132 155.845 144.067 155.616 143.933C155.386 143.799 155.2 143.601 155.08 143.364C154.961 143.127 154.912 142.861 154.941 142.597C154.969 142.333 155.074 142.083 155.241 141.877C155.346 141.749 155.45 141.62 155.555 141.492C155.713 141.295 155.876 141.101 156.034 140.903C156.053 140.884 156.07 140.864 156.086 140.844C156.268 140.618 156.451 140.397 156.633 140.171C156.3 139.656 155.852 139.224 155.325 138.909C153.497 137.841 150.975 138.581 149.655 140.231C148.331 141.88 148.081 144.194 148.541 146.255C148.993 148.008 149.741 149.672 150.753 151.175C150.654 151.302 150.551 151.425 150.452 151.551C148.64 153.876 147.061 156.372 145.737 159.003C146.111 156.084 141.531 145.543 139.76 143.311C137.632 140.629 133.269 141.799 132.894 145.199C132.891 145.232 132.887 145.265 132.884 145.298C133.147 145.446 133.404 145.603 133.656 145.769C133.973 145.98 134.218 146.282 134.36 146.634C134.502 146.986 134.534 147.373 134.452 147.744C134.369 148.115 134.176 148.452 133.899 148.712C133.621 148.972 133.271 149.142 132.895 149.2L132.856 149.206C129.334 154.222 140.624 167.279 143.45 164.347C142.12 168.108 141.286 172.025 140.968 176C140.788 178.345 140.799 180.701 141 183.045L140.988 182.962C140.36 177.857 129.588 170.268 126.443 170.9C124.631 171.265 122.846 171.182 123.121 173.005C123.125 173.035 123.13 173.064 123.134 173.093C123.623 173.291 124.098 173.52 124.558 173.777C124.821 173.925 125.078 174.082 125.33 174.249C125.647 174.46 125.892 174.761 126.034 175.113C126.176 175.466 126.208 175.853 126.125 176.224C126.043 176.595 125.85 176.932 125.573 177.192C125.295 177.451 124.945 177.621 124.568 177.679L124.53 177.685C124.502 177.689 124.478 177.693 124.451 177.697C122.848 183.2 134.736 192.081 141.963 189.255H141.967C142.683 192.36 143.721 195.382 145.064 198.273H156.126C156.165 198.151 156.201 198.024 156.237 197.901C155.213 197.966 154.185 197.905 153.176 197.72C153.996 196.715 154.817 195.702 155.638 194.698C155.656 194.679 155.673 194.659 155.689 194.638C156.106 194.124 156.526 193.614 156.942 193.1L156.943 193.099C156.965 191.523 156.783 189.95 156.403 188.42L156.403 188.42ZM143.736 163.56L143.741 163.552L143.736 163.568V163.56ZM141.285 185.596L141.19 185.382C141.194 185.228 141.194 185.074 141.19 184.916C141.19 184.872 141.182 184.829 141.182 184.785C141.218 185.058 141.25 185.331 141.289 185.604L141.285 185.596Z" fill="#00155D"/>
<path d="M32.1107 165.456C34.3497 165.456 36.1647 163.645 36.1647 161.412C36.1647 159.178 34.3497 157.367 32.1107 157.367C29.8717 157.367 28.0566 159.178 28.0566 161.412C28.0566 163.645 29.8717 165.456 32.1107 165.456Z" fill="#00155D"/>
<path d="M80.7591 209.578C82.9981 209.578 84.8131 207.767 84.8131 205.533C84.8131 203.3 82.9981 201.489 80.7591 201.489C78.5201 201.489 76.7051 203.3 76.7051 205.533C76.7051 207.767 78.5201 209.578 80.7591 209.578Z" fill="#00155D"/>
<path d="M265.402 209.578C267.641 209.578 269.456 207.767 269.456 205.533C269.456 203.3 267.641 201.489 265.402 201.489C263.163 201.489 261.348 203.3 261.348 205.533C261.348 207.767 263.163 209.578 265.402 209.578Z" fill="#00155D"/>
<path d="M275.353 158.103C277.592 158.103 279.407 156.292 279.407 154.058C279.407 151.824 277.592 150.014 275.353 150.014C273.114 150.014 271.299 151.824 271.299 154.058C271.299 156.292 273.114 158.103 275.353 158.103Z" fill="#00155D"/>
<path d="M263.559 120.599C265.798 120.599 267.613 118.788 267.613 116.555C267.613 114.321 265.798 112.51 263.559 112.51C261.32 112.51 259.505 114.321 259.505 116.555C259.505 118.788 261.32 120.599 263.559 120.599Z" fill="#00155D"/>
<path d="M94.3957 154.058C94.3932 155.091 93.9928 156.084 93.2772 156.831C92.5616 157.577 91.5856 158.021 90.5512 158.07C89.5168 158.119 88.5032 157.769 87.7201 157.093C86.937 156.417 86.4443 155.467 86.3441 154.438C86.2439 153.41 86.5438 152.383 87.1817 151.569C87.8196 150.755 88.7467 150.217 89.7712 150.066C90.7956 149.915 91.839 150.163 92.6854 150.758C93.5318 151.354 94.1164 152.251 94.3183 153.264C94.3703 153.525 94.3962 153.792 94.3957 154.058Z" fill="#00155D"/>
<path d="M175.476 132.365C177.715 132.365 179.53 130.554 179.53 128.32C179.53 126.087 177.715 124.276 175.476 124.276C173.237 124.276 171.422 126.087 171.422 128.32C171.422 130.554 173.237 132.365 175.476 132.365Z" fill="#00155D"/>
<path d="M135.304 128.321C135.301 129.354 134.901 130.346 134.185 131.093C133.47 131.84 132.494 132.283 131.459 132.332C130.425 132.381 129.411 132.031 128.628 131.355C127.845 130.679 127.353 129.729 127.252 128.701C127.152 127.672 127.452 126.645 128.09 125.831C128.728 125.017 129.655 124.479 130.679 124.328C131.704 124.178 132.747 124.425 133.594 125.021C134.44 125.616 135.025 126.513 135.226 127.526C135.278 127.788 135.304 128.054 135.304 128.321Z" fill="#00155D"/>
<path d="M82.9699 116.555C82.9675 117.588 82.567 118.58 81.8514 119.327C81.1358 120.074 80.1598 120.518 79.1254 120.567C78.091 120.615 77.0774 120.266 76.2943 119.59C75.5112 118.914 75.0186 117.963 74.9184 116.935C74.8182 115.907 75.118 114.879 75.7559 114.065C76.3938 113.252 77.321 112.714 78.3454 112.563C79.3699 112.412 80.4132 112.66 81.2596 113.255C82.106 113.85 82.6906 114.747 82.8925 115.761C82.9445 116.022 82.9704 116.288 82.9699 116.555Z" fill="#00155D"/>
<path d="M217.859 166.927C220.098 166.927 221.913 165.116 221.913 162.882C221.913 160.649 220.098 158.838 217.859 158.838C215.62 158.838 213.805 160.649 213.805 162.882C213.805 165.116 215.62 166.927 217.859 166.927Z" fill="#00155D"/>
<path d="M154.1 130.159C157.357 130.159 159.997 127.525 159.997 124.276C159.997 121.027 157.357 118.393 154.1 118.393C150.843 118.393 148.203 121.027 148.203 124.276C148.203 127.525 150.843 130.159 154.1 130.159Z" fill="#00155D"/>
</svg>
