<svg width="24" height="24" viewBox="0 0 24 24" fill="none" xmlns="http://www.w3.org/2000/svg">
<path d="M8.7 18.0006H3C1.507 18.0006 0 16.8666 0 14.3346V9.29462C0.0210272 6.99679 0.881427 4.78593 2.41918 3.07836C3.95693 1.3708 6.06592 0.284354 8.349 0.0236213C9.63736 -0.0699044 10.9308 0.115003 12.1413 0.565779C13.3518 1.01655 14.4512 1.72263 15.3646 2.63604C16.278 3.54945 16.9841 4.64877 17.4348 5.85932C17.8856 7.06986 18.0705 8.36326 17.977 9.65162C17.7159 11.9356 16.6286 14.0453 14.9198 15.5832C13.211 17.121 10.9988 17.9808 8.7 18.0006ZM20 9.08062H19.988C19.988 9.31762 19.988 9.55462 19.976 9.79262C19.59 15.2006 14.647 19.7786 9.084 19.9816V19.9966C9.7846 21.2117 10.7924 22.2213 12.0062 22.924C13.2201 23.6268 14.5974 23.9981 16 24.0006H21C21.7956 24.0006 22.5587 23.6846 23.1213 23.1219C23.6839 22.5593 24 21.7963 24 21.0006V16.0006C23.9986 14.5977 23.6282 13.2199 22.9262 12.0053C22.2241 10.7907 21.2149 9.78207 20 9.08062Z" fill="#3454C1"/>
</svg>
