<svg width="245" height="248" viewBox="0 0 245 248" fill="none" xmlns="http://www.w3.org/2000/svg">
<rect x="0.621269" y="44.2947" width="154" height="184" rx="9.5" transform="rotate(-16.4748 0.621269 44.2947)" fill="#2E2E2E" stroke="#505050"/>
<rect x="12.8174" y="48.509" width="133" height="159" rx="10" transform="rotate(-16.4748 12.8174 48.509)" fill="#383838"/>
<path d="M76.3545 15.6408C76.9661 17.7088 75.9453 19.6723 74.3014 20.1585C72.6575 20.6447 70.7329 19.5522 70.1214 17.4841C69.5098 15.4161 70.5305 13.4526 72.1744 12.9664C73.8184 12.4803 75.7429 13.5728 76.3545 15.6408Z" stroke="#3454C1" stroke-width="1.5"/>
<rect x="43.9355" y="26.7924" width="61" height="17" rx="2" transform="rotate(-16.4748 43.9355 26.7924)" fill="#3454C1"/>
<rect x="90.5" y="63.5" width="154" height="184" rx="9.5" fill="#2E2E2E" stroke="#4C4C4C"/>
<rect x="101" y="71" width="133" height="159" rx="10" fill="#3D3D3D"/>
<path d="M171.25 57.5C171.25 59.6566 169.714 61.25 168 61.25C166.286 61.25 164.75 59.6566 164.75 57.5C164.75 55.3434 166.286 53.75 168 53.75C169.714 53.75 171.25 55.3434 171.25 57.5Z" stroke="#3454C1" stroke-width="1.5"/>
<rect x="137" y="59" width="61" height="17" rx="2" fill="#3454C1"/>
</svg>
