<svg width="245" height="248" viewBox="0 0 245 248" fill="none" xmlns="http://www.w3.org/2000/svg">
<rect x="0.621269" y="44.2947" width="154" height="184" rx="9.5" transform="rotate(-16.4748 0.621269 44.2947)" fill="white" stroke="#D2D2D2"/>
<rect x="12.8171" y="48.509" width="133" height="159" rx="10" transform="rotate(-16.4748 12.8171 48.509)" fill="#E6E6E6"/>
<path d="M76.3543 15.6408C76.9658 17.7088 75.9451 19.6723 74.3012 20.1585C72.6572 20.6447 70.7327 19.5522 70.1211 17.4841C69.5095 15.4161 70.5303 13.4526 72.1742 12.9664C73.8181 12.4803 75.7427 13.5728 76.3543 15.6408Z" stroke="#3454C1" stroke-width="1.5"/>
<rect x="43.9358" y="26.7924" width="61" height="17" rx="2" transform="rotate(-16.4748 43.9358 26.7924)" fill="#3454C1"/>
<rect x="90.5" y="63.5" width="154" height="184" rx="9.5" fill="white" stroke="#D2D2D2"/>
<rect x="101" y="71" width="133" height="159" rx="10" fill="#E6E6E6"/>
<path d="M171.25 57.5C171.25 59.6566 169.714 61.25 168 61.25C166.286 61.25 164.75 59.6566 164.75 57.5C164.75 55.3434 166.286 53.75 168 53.75C169.714 53.75 171.25 55.3434 171.25 57.5Z" stroke="#3454C1" stroke-width="1.5"/>
<rect x="137" y="59" width="61" height="17" rx="2" fill="#3454C1"/>
</svg>
