<svg width="30" height="30" viewBox="0 0 30 30" fill="none" xmlns="http://www.w3.org/2000/svg">
<path d="M17.5488 3.00293H21.0059L21.1963 3.04688L21.3281 3.13477L21.416 3.25195L21.4746 3.41309L21.4893 3.58887V6.95801L21.4746 7.22168L21.4307 7.36816L21.3428 7.5L21.2695 7.55859L21.1084 7.61719L20.8301 7.64648L19.3945 7.66113L18.7354 7.67578L18.3398 7.69043L18.0762 7.71973L17.9004 7.76367L17.7393 7.83691L17.5781 7.93945L17.4756 8.04199L17.3584 8.23242L17.2852 8.42285L17.2412 8.62793L17.2266 8.75977L17.2119 9.36035L17.1973 11.6309H20.874L21.0498 11.6748L21.167 11.748L21.2549 11.8506L21.3135 11.9971L21.3281 12.0703V16.0986L21.2842 16.2744L21.1963 16.4062L21.123 16.4648L20.9619 16.5234L20.874 16.5381L20.6104 16.5527H17.1973V26.3818L17.168 26.6309L17.0654 26.8359L16.9482 26.9238L16.8164 26.9678L16.6113 26.9971H12.6416L12.4658 26.9678L12.3193 26.8945L12.2021 26.7627L12.1436 26.5869L12.1289 26.4697V16.5527H9.21387L8.9502 16.5381L8.77441 16.4941L8.65723 16.4062L8.56934 16.2891L8.52539 16.1572L8.51074 16.0547V12.1143L8.54004 11.9678L8.62793 11.792L8.75977 11.6895L8.93555 11.6309H12.1289V8.65723L12.1582 8.18848L12.2168 7.70508L12.3193 7.17773L12.4512 6.70898L12.583 6.34277L12.7588 5.94727L12.9199 5.63965L13.0811 5.37598L13.2861 5.08301L13.4473 4.87793L13.6084 4.70215L13.7109 4.58496L13.8574 4.43848L13.9746 4.33594L14.165 4.1748L14.4434 3.96973L14.751 3.7793L15.0732 3.60352L15.3662 3.47168L15.6738 3.35449L15.9814 3.25195L16.4502 3.13477L16.9922 3.04688L17.2998 3.01758L17.5488 3.00293Z" fill="#3F6DD8"/>
</svg>
