<svg width="30" height="30" viewBox="0 0 30 30" fill="none" xmlns="http://www.w3.org/2000/svg">
<g clip-path="url(#clip0_51_1943)">
<path d="M14.209 0H15.9961L17.1094 0.131836L17.7393 0.234375L18.4424 0.380859L19.1162 0.556641L19.6436 0.717773L20.3027 0.952148L20.8447 1.17188L21.1377 1.30371L21.5479 1.49414L21.9873 1.71387L22.3096 1.88965L22.6611 2.09473L22.9688 2.28516L23.2617 2.47559L23.584 2.69531L23.8477 2.88574L24.0234 3.01758L24.2725 3.20801L24.5068 3.39844L24.668 3.53027L24.8877 3.7207L25.0342 3.91113L25.1074 4.05762L25.1514 4.2041L25.1807 4.33594V4.51172L25.1221 4.76074L25.0195 4.96582L24.917 5.09766L22.3096 7.70508L22.2363 7.79297L22.002 7.99805L21.8408 8.08594L21.6943 8.14453L21.5039 8.18848H21.2988L21.0791 8.12988L20.874 8.02734L20.6689 7.86621L20.4199 7.67578L20.1562 7.48535L19.8633 7.29492L19.4971 7.0752L19.1455 6.88477L18.8232 6.72363L18.3838 6.5332L17.8564 6.34277L17.417 6.21094L16.9482 6.09375L16.5527 6.02051L16.1572 5.96191L15.7617 5.91797L15.2051 5.88867H14.4287L13.9453 5.93262L13.4326 6.00586L12.9346 6.1084L12.4365 6.24023L12.0264 6.37207L11.6309 6.51855L11.1914 6.70898L10.7666 6.91406L10.4297 7.10449L10.0928 7.30957L9.77051 7.5293L9.49219 7.73438L9.28711 7.89551L9.09668 8.05664L8.8916 8.23242L8.65723 8.45215L8.34961 8.75977L8.24707 8.87695L8.11523 9.02344L7.9834 9.18457L7.77832 9.43359L7.66113 9.59473L7.48535 9.84375L7.33887 10.0635L7.17773 10.3271L7.13379 10.415H7.10449L7.0752 10.5029L6.89941 10.8252L6.70898 11.2061L6.51855 11.6455L6.32812 12.1729L6.21094 12.5537L6.09375 13.0225L5.99121 13.5498L5.91797 14.1064L5.88867 14.5166L5.87402 14.9854L5.88867 15.4834L5.93262 16.0107L6.00586 16.5234L6.09375 16.9775L6.19629 17.3877L6.34277 17.8711L6.5332 18.3838L6.72363 18.8232L7.00195 19.3799L7.23633 19.7754L7.39746 20.0244L7.58789 20.3027L7.76367 20.5371L7.9248 20.7422L8.27637 21.1523L8.4375 21.3135L8.54004 21.4307L8.64258 21.5332L8.67188 21.5479V21.5771L8.73047 21.6064L8.87695 21.7529L8.99414 21.8555L9.19922 22.0312L9.4043 22.1924L9.59473 22.3389L9.84375 22.5146L10.1074 22.6904L10.4736 22.9102L10.7373 23.0566L10.9717 23.1738L11.3672 23.3643L11.8066 23.54L12.1289 23.6572L12.6709 23.8184L13.1104 23.9209L13.4912 23.9941L14.0332 24.0674L14.5898 24.1113H15.1318L15.8789 24.0674L16.4355 23.9941L16.9629 23.8916L17.4902 23.7598L18.0762 23.5693L18.4863 23.4082L18.9111 23.2178L19.292 23.0273L19.5996 22.8516L19.7607 22.7637L19.9951 22.6172L20.2295 22.4561L20.4932 22.2656L20.6982 22.1045L20.8887 21.9434L21.0938 21.7676L21.3428 21.5332L21.6797 21.1963L21.7822 21.0791L21.8262 21.0205H21.8555L21.8848 20.9619L22.0459 20.7715L22.207 20.5664L22.3975 20.3174L22.5879 20.0391L22.793 19.7168L22.9688 19.4092L23.1885 18.999L23.3936 18.5449L23.5107 18.252H16.4941L16.2598 18.1934L16.0986 18.1055L15.9521 17.9883L15.8203 17.8418L15.7031 17.6221L15.6592 17.4463L15.6445 17.2705V13.3154L15.6738 13.125L15.7324 12.9492L15.835 12.7881L15.9961 12.6123L16.1426 12.5098L16.3037 12.4365L16.4795 12.3926H28.9746L29.1797 12.4365L29.4141 12.5537L29.5752 12.6855L29.707 12.8613L29.8096 13.0957L29.8828 13.4766L29.9707 14.1797L30 14.458V15.7764L29.9121 16.7725L29.8096 17.5488L29.6777 18.252L29.5312 18.8672L29.3848 19.3945L29.1504 20.1123L28.96 20.6104L28.8135 20.9619L28.623 21.3867L28.418 21.8115L28.2275 22.1777L28.0371 22.5146L27.7881 22.9248L27.627 23.1738L27.4512 23.4375L27.2754 23.6865L27.1582 23.8477L26.9824 24.082L26.8213 24.2871L26.5576 24.6094L26.4258 24.7559L26.2939 24.917L26.1914 25.0195L26.0889 25.1367L25.8691 25.3711L25.4443 25.7959L25.3271 25.8984L25.2246 26.001L25.1074 26.1035L24.9609 26.2354L24.7998 26.3672L24.5801 26.5576L24.3896 26.7041L24.1699 26.8799L23.9502 27.041L23.4521 27.3926L23.1592 27.583L22.8076 27.8027L22.5439 27.9639L22.3389 28.0957L21.958 28.3008L21.3721 28.5938L20.918 28.7988L20.332 29.0332L19.9805 29.165L19.4385 29.3408L18.8232 29.5166L18.208 29.6631L17.6953 29.7656L17.0654 29.8682L15.9521 30H14.2969L13.8135 29.9561L13.125 29.8828L12.4951 29.7949L11.8213 29.6631L11.3086 29.5459L10.7812 29.3994L10.2686 29.2383L9.84375 29.0918L9.46289 28.9453L9.03809 28.7695L8.67188 28.6084L7.96875 28.2568L7.63184 28.0664L7.32422 27.8906L6.94336 27.6562L6.44531 27.3193L6.19629 27.1436L5.88867 26.9092L5.69824 26.7627L5.44922 26.5576L5.28809 26.4258L5.12695 26.2793L4.96582 26.1475L4.83398 26.0156L4.7168 25.9131L3.99902 25.1953L3.89648 25.0781L3.73535 24.9023L3.60352 24.7412L3.47168 24.5947L3.17871 24.2285L3.03223 24.0381L2.82715 23.7598L2.62207 23.4668L2.44629 23.2031L2.24121 22.8809L2.02148 22.5146L1.88965 22.2803L1.69922 21.9287L1.49414 21.5332L1.28906 21.0938L1.11328 20.6836L0.908203 20.1562L0.805664 19.8633L0.644531 19.3799L0.498047 18.8672L0.351562 18.2666L0.234375 17.6953L0.117188 16.9482L0.0439453 16.2891L0 15.7764V14.1797L0.0732422 13.4473L0.146484 12.8467L0.234375 12.3047L0.351562 11.7334L0.483398 11.1914L0.629883 10.6641L0.820312 10.0781L1.04004 9.49219L1.23047 9.03809L1.40625 8.65723L1.61133 8.23242L1.78711 7.89551L1.91895 7.66113L2.08008 7.38281L2.25586 7.08984L2.49023 6.72363L2.65137 6.48926L2.75391 6.34277L2.90039 6.1377L3.13477 5.83008L3.2373 5.69824L3.41309 5.47852L3.54492 5.31738L3.66211 5.18555L3.79395 5.02441L3.92578 4.89258L4.02832 4.77539L4.2334 4.55566L4.73145 4.05762L4.84863 3.95508L5.03906 3.7793L5.18555 3.64746L5.34668 3.51562L5.53711 3.35449L5.74219 3.19336L6.00586 2.98828L6.26953 2.79785L6.5625 2.59277L6.82617 2.41699L7.10449 2.24121L7.36816 2.08008L7.74902 1.86035L7.9541 1.74316L8.65723 1.3916L9.22852 1.14258L9.66797 0.966797L10.1074 0.805664L10.6494 0.629883L11.3379 0.439453L11.9238 0.307617L12.5537 0.19043L13.2861 0.0878906L14.0186 0.0146484L14.209 0Z" fill="#147FE7"/>
<path d="M14.209 0H15.9961L17.1094 0.131836L17.7393 0.234375L18.4424 0.380859L19.1162 0.556641L19.6436 0.717773L20.3027 0.952148L20.8447 1.17188L21.1377 1.30371L21.5479 1.49414L21.9873 1.71387L22.3096 1.88965L22.6611 2.09473L22.9688 2.28516L23.2617 2.47559L23.584 2.69531L23.8477 2.88574L24.0234 3.01758L24.2725 3.20801L24.5068 3.39844L24.668 3.53027L24.8877 3.7207L25.0342 3.91113L25.1074 4.05762L25.1514 4.2041L25.1807 4.33594V4.51172L25.1221 4.76074L25.0195 4.96582L24.917 5.09766L22.3096 7.70508L22.2363 7.79297L22.002 7.99805L21.8408 8.08594L21.6943 8.14453L21.5039 8.18848H21.2988L21.0791 8.12988L20.874 8.02734L20.6689 7.86621L20.4199 7.67578L20.1562 7.48535L19.8633 7.29492L19.4971 7.0752L19.1455 6.88477L18.8232 6.72363L18.3838 6.5332L17.8564 6.34277L17.417 6.21094L16.9482 6.09375L16.5527 6.02051L16.1572 5.96191L15.7617 5.91797L15.2051 5.88867H14.4287L13.9453 5.93262L13.4326 6.00586L12.9346 6.1084L12.4365 6.24023L12.0264 6.37207L11.6309 6.51855L11.1914 6.70898L10.7666 6.91406L10.4297 7.10449L10.0928 7.30957L9.77051 7.5293L9.49219 7.73438L9.28711 7.89551L9.09668 8.05664L8.8916 8.23242L8.65723 8.45215L8.34961 8.75977L8.24707 8.87695L8.11523 9.02344L7.9834 9.18457L7.77832 9.43359L7.66113 9.59473L7.48535 9.84375L7.33887 10.0635L7.17773 10.3271L7.13379 10.415H7.10449L7.0752 10.5029L6.89941 10.8252L6.70898 11.2061L6.51855 11.6455L6.32812 12.1729L6.21094 12.5537L6.09375 13.0225L5.99121 13.5498L5.91797 14.1064L5.88867 14.5166L5.87402 14.9854L5.88867 15.4834L5.93262 16.0107L6.00586 16.5234L6.09375 16.9775L6.19629 17.3877L6.34277 17.8711L6.5332 18.3838L6.72363 18.8232L7.00195 19.3799L7.10449 19.5557V19.585L6.92871 19.6729L6.57715 19.8779L6.38672 19.9951L6.22559 20.083L5.94727 20.2441L5.74219 20.3613L5.36133 20.5811L4.95117 20.8154L4.80469 20.9033L4.59961 21.0205L4.24805 21.2256L3.91113 21.416L3.55957 21.6211L3.14941 21.8555L2.92969 21.9873L2.76855 22.0752L2.53418 22.207L2.25586 22.3682L2.03613 22.5L1.97754 22.4414L1.78711 22.0898L1.61133 21.7676L1.34766 21.2256L1.14258 20.7568L0.922852 20.2002L0.805664 19.8633L0.644531 19.3799L0.498047 18.8672L0.351562 18.2666L0.234375 17.6953L0.117188 16.9482L0.0439453 16.2891L0 15.7764V14.1797L0.0732422 13.4473L0.146484 12.8467L0.234375 12.3047L0.351562 11.7334L0.483398 11.1914L0.629883 10.6641L0.820312 10.0781L1.04004 9.49219L1.23047 9.03809L1.40625 8.65723L1.61133 8.23242L1.78711 7.89551L1.91895 7.66113L2.08008 7.38281L2.25586 7.08984L2.49023 6.72363L2.65137 6.48926L2.75391 6.34277L2.90039 6.1377L3.13477 5.83008L3.2373 5.69824L3.41309 5.47852L3.54492 5.31738L3.66211 5.18555L3.79395 5.02441L3.92578 4.89258L4.02832 4.77539L4.2334 4.55566L4.73145 4.05762L4.84863 3.95508L5.03906 3.7793L5.18555 3.64746L5.34668 3.51562L5.53711 3.35449L5.74219 3.19336L6.00586 2.98828L6.26953 2.79785L6.5625 2.59277L6.82617 2.41699L7.10449 2.24121L7.36816 2.08008L7.74902 1.86035L7.9541 1.74316L8.65723 1.3916L9.22852 1.14258L9.66797 0.966797L10.1074 0.805664L10.6494 0.629883L11.3379 0.439453L11.9238 0.307617L12.5537 0.19043L13.2861 0.0878906L14.0186 0.0146484L14.209 0Z" fill="#FD5026"/>
<path d="M7.0752 19.585L7.13379 19.5996L7.26562 19.8193L7.45605 20.1123L7.63184 20.3613L7.76367 20.5371L7.9248 20.7422L8.27637 21.1523L8.4375 21.3135L8.54004 21.4307L8.64258 21.5332L8.67188 21.5479V21.5771L8.73047 21.6064L8.87695 21.7529L8.99414 21.8555L9.19922 22.0312L9.4043 22.1924L9.59473 22.3389L9.84375 22.5146L10.1074 22.6904L10.4736 22.9102L10.7373 23.0566L10.9717 23.1738L11.3672 23.3643L11.8066 23.54L12.1289 23.6572L12.6709 23.8184L13.1104 23.9209L13.4912 23.9941L14.0332 24.0674L14.5898 24.1113H15.1318L15.8789 24.0674L16.4355 23.9941L16.9629 23.8916L17.4902 23.7598L18.0762 23.5693L18.4863 23.4082L18.9111 23.2178L19.292 23.0273L19.5557 22.8809L19.5996 22.9395L19.7314 23.1592L19.79 23.2764L19.9951 23.6279L20.1123 23.833L20.2734 24.1113L20.4785 24.4629L20.6543 24.7705L20.874 25.1514L20.9912 25.3564L21.1963 25.708L21.3135 25.9131L21.5186 26.2646L21.6357 26.4697L21.8408 26.8213L21.958 27.0264L22.1631 27.3779L22.251 27.5244L22.3975 27.7734V27.8174H22.4268L22.4854 27.9346V27.9639L22.5146 27.9785L22.3682 28.0811L21.958 28.3008L21.3721 28.5938L20.918 28.7988L20.332 29.0332L19.9805 29.165L19.4385 29.3408L18.8232 29.5166L18.208 29.6631L17.6953 29.7656L17.0654 29.8682L15.9521 30H14.2969L13.8135 29.9561L13.125 29.8828L12.4951 29.7949L11.8213 29.6631L11.3086 29.5459L10.7812 29.3994L10.2686 29.2383L9.84375 29.0918L9.46289 28.9453L9.03809 28.7695L8.67188 28.6084L7.96875 28.2568L7.63184 28.0664L7.32422 27.8906L6.94336 27.6562L6.44531 27.3193L6.19629 27.1436L5.88867 26.9092L5.69824 26.7627L5.44922 26.5576L5.28809 26.4258L5.12695 26.2793L4.96582 26.1475L4.83398 26.0156L4.7168 25.9131L3.99902 25.1953L3.89648 25.0781L3.73535 24.9023L3.60352 24.7412L3.47168 24.5947L3.17871 24.2285L3.03223 24.0381L2.82715 23.7598L2.62207 23.4668L2.44629 23.2031L2.24121 22.8809L2.02148 22.5146L2.08008 22.4561L2.41699 22.2656L2.56348 22.1777L2.88574 21.9873L3.04688 21.8994L3.28125 21.7676L3.63281 21.5625L3.96973 21.3721L4.32129 21.167L4.6875 20.9619L4.81934 20.874L4.98047 20.7861L5.39062 20.5518L6.15234 20.1123L6.34277 19.9951L6.50391 19.9072L6.88477 19.6875L7.03125 19.5996L7.0752 19.585Z" fill="#13B04E"/>
<path d="M2.02148 7.5L2.24121 7.61719L2.62207 7.83691L2.87109 7.9834L3.10547 8.11523L3.45703 8.32031L3.86719 8.55469L4.11621 8.70117L4.73145 9.05273L4.90723 9.15527V9.18457L4.98047 9.19922L5.00977 9.21387V9.24316L5.08301 9.25781L5.49316 9.49219L5.84473 9.69727L6.22559 9.91699L6.54785 10.1074L6.76758 10.2246L7.0166 10.3711L7.10449 10.415L7.0752 10.5029L6.89941 10.8252L6.70898 11.2061L6.51855 11.6455L6.32812 12.1729L6.21094 12.5537L6.09375 13.0225L5.99121 13.5498L5.91797 14.1064L5.88867 14.5166L5.87402 14.9854L5.88867 15.4834L5.93262 16.0107L6.00586 16.5234L6.09375 16.9775L6.19629 17.3877L6.34277 17.8711L6.5332 18.3838L6.72363 18.8232L7.00195 19.3799L7.10449 19.5557V19.585L6.92871 19.6729L6.57715 19.8779L6.38672 19.9951L6.22559 20.083L5.94727 20.2441L5.74219 20.3613L5.36133 20.5811L4.95117 20.8154L4.80469 20.9033L4.59961 21.0205L4.24805 21.2256L3.91113 21.416L3.55957 21.6211L3.14941 21.8555L2.92969 21.9873L2.76855 22.0752L2.53418 22.207L2.25586 22.3682L2.03613 22.5L1.97754 22.4414L1.78711 22.0898L1.61133 21.7676L1.34766 21.2256L1.14258 20.7568L0.922852 20.2002L0.805664 19.8633L0.644531 19.3799L0.498047 18.8672L0.351562 18.2666L0.234375 17.6953L0.117188 16.9482L0.0439453 16.2891L0 15.7764V14.1797L0.0732422 13.4473L0.146484 12.8467L0.234375 12.3047L0.351562 11.7334L0.483398 11.1914L0.629883 10.6641L0.820312 10.0781L1.04004 9.49219L1.23047 9.03809L1.40625 8.65723L1.61133 8.23242L1.78711 7.89551L1.91895 7.66113L2.00684 7.51465L2.02148 7.5Z" fill="#FED40A"/>
<path d="M14.9854 0H15.9961L17.1094 0.131836L17.7393 0.234375L18.4424 0.380859L19.1162 0.556641L19.6436 0.717773L20.3027 0.952148L20.8447 1.17188L21.1377 1.30371L21.5479 1.49414L21.9873 1.71387L22.3096 1.88965L22.6611 2.09473L22.9688 2.28516L23.2617 2.47559L23.584 2.69531L23.8477 2.88574L24.0234 3.01758L24.2725 3.20801L24.5068 3.39844L24.668 3.53027L24.8877 3.7207L25.0342 3.91113L25.1074 4.05762L25.1514 4.2041L25.1807 4.33594V4.51172L25.1221 4.76074L25.0195 4.96582L24.917 5.09766L22.3096 7.70508L22.2363 7.79297L22.002 7.99805L21.8408 8.08594L21.6943 8.14453L21.5039 8.18848H21.2988L21.0791 8.12988L20.874 8.02734L20.6689 7.86621L20.4199 7.67578L20.1562 7.48535L19.8633 7.29492L19.4971 7.0752L19.1455 6.88477L18.8232 6.72363L18.3838 6.5332L17.8564 6.34277L17.417 6.21094L16.9482 6.09375L16.5527 6.02051L16.1572 5.96191L15.7617 5.91797L15.2051 5.88867L15.0293 5.85938L14.9854 5.78613V1.64062L15 1.49414V0.205078L14.9854 0Z" fill="#D84322"/>
<path d="M19.5557 22.8809L19.5996 22.9395L19.7314 23.1592L19.79 23.2764L19.9951 23.6279L20.1123 23.833L20.2734 24.1113L20.4785 24.4629L20.6543 24.7705L20.874 25.1514L20.9912 25.3564L21.1963 25.708L21.3135 25.9131L21.5186 26.2646L21.6357 26.4697L21.8408 26.8213L21.958 27.0264L22.1631 27.3779L22.251 27.5244L22.3975 27.7734V27.8174H22.4268L22.4854 27.9346V27.9639L22.5146 27.9785L22.3682 28.0811L21.958 28.3008L21.3721 28.5938L20.918 28.7988L20.332 29.0332L19.9805 29.165L19.4385 29.3408L18.8232 29.5166L18.208 29.6631L17.6953 29.7656L17.0654 29.8682L15.9521 30H15L14.9854 29.8975L15 29.6777V27.4365L14.9854 26.499L15 26.0596V24.126L15.4102 24.0967L15.8789 24.0674L16.4355 23.9941L16.9629 23.8916L17.4902 23.7598L18.0762 23.5693L18.4863 23.4082L18.9111 23.2178L19.292 23.0273L19.5557 22.8809Z" fill="#0E9644"/>
<path d="M19.8926 0.820312L19.9805 0.834961L20.4492 1.01074L20.9473 1.21582L21.5186 1.47949L21.9873 1.71387L22.3096 1.88965L22.6611 2.09473L22.749 2.15332L22.7051 2.16797L22.5732 2.10938L22.5 2.08008V2.05078L22.4414 2.02148L22.3975 1.99219L22.3096 1.97754V1.94824H22.2803V1.91895L22.2363 1.93359L22.1338 1.86035L22.0459 1.83105L21.9287 1.77246L21.8555 1.74316V1.71387L21.7676 1.69922L21.7383 1.68457V1.65527L21.6504 1.64062L21.6211 1.62598V1.59668L21.5332 1.58203L21.2988 1.46484L21.2549 1.4502V1.4209H21.2256V1.3916L21.1816 1.40625L21.1377 1.3916V1.3623H21.1084V1.33301H21.0352V1.30371L20.9033 1.25977H20.874V1.23047H20.8301V1.20117L20.7422 1.18652L20.7129 1.17188V1.14258L20.6689 1.15723L20.6104 1.14258V1.11328H20.5371V1.08398L20.4199 1.05469V1.02539H20.3174L20.2441 0.966797L19.9805 0.908203V0.878906H19.9512V0.849609L19.8926 0.834961V0.820312Z" fill="#FB5327"/>
<path d="M17.0508 0.131836L17.2998 0.161133L17.8125 0.249023L18.3105 0.351562L18.2959 0.380859H18.208L18.0615 0.351562L17.8711 0.307617L17.6367 0.263672L17.4902 0.234375L17.1094 0.175781L17.0508 0.146484V0.131836Z" fill="#FD5525"/>
<path d="M19.8926 0.820312L19.9805 0.834961L20.4492 1.01074L20.6982 1.11328L20.7129 1.14258L20.6689 1.15723L20.6104 1.14258V1.11328H20.5371V1.08398L20.4199 1.05469V1.02539H20.3174L20.2441 0.966797L19.9805 0.908203V0.878906H19.9512V0.849609L19.8926 0.834961V0.820312Z" fill="#FD5226"/>
<path d="M18.3252 0.366211L18.501 0.395508L18.9551 0.512695L18.9404 0.541992L18.7793 0.512695L18.7207 0.483398L18.5596 0.454102L18.457 0.424805L18.3105 0.395508L18.3252 0.366211Z" fill="#FD5D28"/>
<path d="M17.0508 0.131836L17.2998 0.161133L17.4902 0.19043L17.5195 0.219727L17.4902 0.234375L17.1094 0.175781L17.0508 0.146484V0.131836Z" fill="#FD5226"/>
<path d="M19.3652 0.644531L19.541 0.688477L19.7607 0.761719L19.7021 0.776367L19.541 0.732422L19.4824 0.717773L19.3945 0.688477L19.3652 0.673828V0.644531Z" fill="#FC5425"/>
<path d="M19.8926 0.820312L19.9805 0.834961L20.1855 0.908203L20.1709 0.952148L20.0098 0.908203H19.9805V0.878906H19.9512V0.849609L19.8926 0.834961V0.820312Z" fill="#FD5525"/>
<path d="M7.76367 20.6104L7.83691 20.625L7.91016 20.7275L7.89551 20.7715L7.82227 20.7129V20.6836H7.79297V20.6396H7.76367V20.6104Z" fill="#0E9A45"/>
<path d="M7.55859 20.2881L7.63184 20.3613L7.67578 20.4199L7.66113 20.4492L7.61719 20.4346V20.4053L7.55859 20.376L7.54395 20.3027L7.55859 20.2881Z" fill="#0F9C46"/>
<path d="M16.9482 6.03516L16.9629 6.06445H17.0508L17.1094 6.12305L16.9482 6.09375L16.8604 6.0791L16.9189 6.0498L16.9482 6.06445V6.03516Z" fill="#FD5B24"/>
<path d="M18.3105 6.48926H18.3984V6.51855L18.5156 6.5332L18.5596 6.5918L18.4863 6.57715L18.3105 6.50391V6.48926Z" fill="#FD5027"/>
<path d="M18.7207 0.46875L18.8379 0.483398L18.9551 0.512695L18.9404 0.541992L18.7793 0.512695L18.7207 0.483398V0.46875Z" fill="#FB5325"/>
<path d="M23.3936 2.57812L23.5254 2.65137L23.6426 2.73926L23.5986 2.75391L23.4668 2.65137L23.3936 2.60742V2.57812Z" fill="#FD5C24"/>
<path d="M16.6553 6.00586H16.7578L16.8604 6.0498V6.06445L16.7285 6.0498L16.6553 6.03516V6.00586Z" fill="#FD5A2D"/>
</g>
<defs>
<clipPath id="clip0_51_1943">
<rect width="30" height="30" fill="white"/>
</clipPath>
</defs>
</svg>
