<svg width="200" height="218" viewBox="0 0 200 218" fill="none" xmlns="http://www.w3.org/2000/svg">
<mask id="mask0_623_671" style="mask-type:luminance" maskUnits="userSpaceOnUse" x="63" y="9" width="120" height="137">
<path d="M63.0033 9H100.639C121.339 9 138.274 25.9694 138.274 46.706V70.4775C135.944 111.381 150.746 136.52 182.684 145.892C151.81 143.849 122.485 130.675 100.337 108.486C78.1888 86.2957 65.0398 56.9162 63.0005 25.9837V9H63.0033Z" fill="white"/>
</mask>
<g mask="url(#mask0_623_671)">
<path d="M182.687 9H63.0034V145.892H182.687V9Z" fill="url(#paint0_linear_623_671)"/>
</g>
<mask id="mask1_623_671" style="mask-type:luminance" maskUnits="userSpaceOnUse" x="66" y="12" width="95" height="127">
<path d="M66.4478 12.4509V25.8697C68.47 56.107 81.3744 84.6031 102.777 106.046C118.694 121.993 138.507 133.232 160.029 138.777C116.14 112.954 92.5609 62.7978 100.639 12.4509H66.4478Z" fill="white"/>
</mask>
<g mask="url(#mask1_623_671)">
<path d="M160.029 12.4509H66.4478V138.777H160.029V12.4509Z" fill="url(#paint1_linear_623_671)"/>
</g>
<mask id="mask2_623_671" style="mask-type:luminance" maskUnits="userSpaceOnUse" x="138" y="70" width="62" height="76">
<path d="M138.273 70.4803C135.944 111.384 150.745 136.523 182.683 145.895H199.635V108.189C199.635 87.4498 182.698 70.4832 162 70.4832H138.273V70.4803Z" fill="white"/>
</mask>
<g mask="url(#mask2_623_671)">
<path d="M199.638 70.4803H135.944V145.895H199.638V70.4803Z" fill="url(#paint2_linear_623_671)"/>
</g>
<mask id="mask3_623_671" style="mask-type:luminance" maskUnits="userSpaceOnUse" x="138" y="70" width="45" height="76">
<path d="M138.273 70.4803C135.944 111.384 150.745 136.523 182.683 145.895C155.521 131.519 141.985 100.156 150.137 70.4803H138.273Z" fill="white"/>
</mask>
<g mask="url(#mask3_623_671)">
<path d="M182.686 70.4803H135.944V145.895H182.686V70.4803Z" fill="url(#paint3_linear_623_671)"/>
</g>
<mask id="mask4_623_671" style="mask-type:luminance" maskUnits="userSpaceOnUse" x="63" y="9" width="120" height="137">
<path d="M63.0033 9H100.639C121.339 9 138.274 25.9694 138.274 46.706V70.4775C135.944 111.381 150.746 136.52 182.684 145.892C151.81 143.849 122.485 130.675 100.337 108.486C78.1888 86.2957 65.0398 56.9162 63.0005 25.9837V9H63.0033Z" fill="white"/>
</mask>
<g mask="url(#mask4_623_671)">
<path d="M182.687 9H63.0034V145.892H182.687V9Z" fill="url(#paint4_linear_623_671)"/>
</g>
<mask id="mask5_623_671" style="mask-type:luminance" maskUnits="userSpaceOnUse" x="66" y="12" width="95" height="127">
<path d="M66.4478 12.4509V25.8697C68.47 56.107 81.3744 84.6031 102.777 106.046C118.694 121.993 138.507 133.232 160.029 138.777C116.14 112.954 92.5609 62.7978 100.639 12.4509H66.4478Z" fill="white"/>
</mask>
<g mask="url(#mask5_623_671)">
<path d="M160.029 12.4509H66.4478V138.777H160.029V12.4509Z" fill="url(#paint5_linear_623_671)"/>
</g>
<mask id="mask6_623_671" style="mask-type:luminance" maskUnits="userSpaceOnUse" x="138" y="70" width="45" height="76">
<path d="M138.273 70.4803C135.944 111.384 150.745 136.523 182.683 145.895C155.521 131.519 141.985 100.156 150.137 70.4803H138.273Z" fill="white"/>
</mask>
<g mask="url(#mask6_623_671)">
<path d="M182.686 70.4803H135.944V145.895H182.686V70.4803Z" fill="url(#paint6_linear_623_671)"/>
</g>
<mask id="mask7_623_671" style="mask-type:luminance" maskUnits="userSpaceOnUse" x="138" y="70" width="62" height="76">
<path d="M138.273 70.4803C135.944 111.384 150.745 136.523 182.683 145.895H199.635V108.189C199.635 87.4498 182.698 70.4832 162 70.4832H138.273V70.4803Z" fill="white"/>
</mask>
<g mask="url(#mask7_623_671)">
<path d="M199.638 70.4803H135.944V145.895H199.638V70.4803Z" fill="url(#paint7_linear_623_671)"/>
</g>
<mask id="mask8_623_671" style="mask-type:luminance" maskUnits="userSpaceOnUse" x="63" y="9" width="120" height="137">
<path d="M63.0033 9H100.639C121.339 9 138.274 25.9694 138.274 46.706V70.4775C135.944 111.381 150.746 136.52 182.684 145.892C151.81 143.849 122.485 130.675 100.337 108.486C78.1888 86.2957 65.0398 56.9162 63.0005 25.9837V9H63.0033Z" fill="white"/>
</mask>
<g mask="url(#mask8_623_671)">
<path d="M182.687 9H63.0034V145.892H182.687V9Z" fill="url(#paint8_linear_623_671)"/>
</g>
<mask id="mask9_623_671" style="mask-type:luminance" maskUnits="userSpaceOnUse" x="66" y="12" width="95" height="127">
<path d="M66.4478 12.4509V25.8697C68.47 56.107 81.3744 84.6031 102.777 106.046C118.694 121.993 138.507 133.232 160.029 138.777C116.14 112.954 92.5609 62.7978 100.639 12.4509H66.4478Z" fill="white"/>
</mask>
<g mask="url(#mask9_623_671)">
<path d="M160.029 12.4509H66.4478V138.777H160.029V12.4509Z" fill="url(#paint9_linear_623_671)"/>
</g>
<mask id="mask10_623_671" style="mask-type:luminance" maskUnits="userSpaceOnUse" x="138" y="70" width="45" height="76">
<path d="M138.273 70.4803C135.944 111.384 150.745 136.523 182.683 145.895C155.521 131.519 141.985 100.156 150.137 70.4803H138.273Z" fill="white"/>
</mask>
<g mask="url(#mask10_623_671)">
<path d="M182.686 70.4803H135.944V145.895H182.686V70.4803Z" fill="url(#paint10_linear_623_671)"/>
</g>
<mask id="mask11_623_671" style="mask-type:luminance" maskUnits="userSpaceOnUse" x="138" y="70" width="62" height="76">
<path d="M138.273 70.4803C135.944 111.384 150.745 136.523 182.683 145.895H199.635V108.189C199.635 87.4498 182.698 70.4832 162 70.4832H138.273V70.4803Z" fill="white"/>
</mask>
<g mask="url(#mask11_623_671)">
<path d="M199.638 70.4803H135.944V145.895H199.638V70.4803Z" fill="url(#paint11_linear_623_671)"/>
</g>
<g clip-path="url(#clip0_623_671)">
<mask id="mask12_623_671" style="mask-type:luminance" maskUnits="userSpaceOnUse" x="17" y="77" width="120" height="138">
<path d="M136.171 214.909L98.5373 214.628C77.8374 214.474 61.0295 197.379 61.1839 176.643L61.3609 152.873C63.9947 111.988 49.3808 86.739 17.5133 77.1291C48.3716 79.402 77.597 92.7937 99.5794 115.148C121.562 137.502 134.492 166.979 136.301 197.925L136.174 214.909L136.171 214.909Z" fill="white"/>
</mask>
<g mask="url(#mask12_623_671)">
<path d="M16.4913 214.018L136.171 214.909L137.19 78.0201L17.5104 77.1291L16.4913 214.018Z" fill="url(#paint12_linear_623_671)"/>
</g>
<mask id="mask13_623_671" style="mask-type:luminance" maskUnits="userSpaceOnUse" x="40" y="84" width="93" height="128">
<path d="M132.753 211.432L132.853 198.014C131.056 167.762 118.364 139.171 97.1215 117.569C81.3242 101.504 61.5954 90.1184 40.1148 84.413C83.811 110.562 107.016 160.892 98.5636 211.178L132.753 211.432Z" fill="white"/>
</mask>
<g mask="url(#mask13_623_671)">
<path d="M39.1743 210.736L132.753 211.432L133.694 85.1097L40.1148 84.413L39.1743 210.736Z" fill="url(#paint13_linear_623_671)"/>
</g>
<mask id="mask14_623_671" style="mask-type:luminance" maskUnits="userSpaceOnUse" x="0" y="77" width="62" height="76">
<path d="M61.3606 152.87C63.9945 111.985 49.3805 86.7361 17.513 77.1262L0.561761 77L0.281056 114.705C0.12666 135.444 16.9374 152.536 37.6345 152.69L61.3606 152.867L61.3606 152.87Z" fill="white"/>
</mask>
<g mask="url(#mask14_623_671)">
<path d="M-0.00255288 152.413L63.6899 152.887L64.2514 77.4743L0.558878 77.0001L-0.00255288 152.413Z" fill="url(#paint14_linear_623_671)"/>
</g>
<mask id="mask15_623_671" style="mask-type:luminance" maskUnits="userSpaceOnUse" x="17" y="77" width="45" height="76">
<path d="M61.3606 152.87C63.9945 111.985 49.3805 86.7361 17.513 77.1262C44.5679 91.7043 57.8699 123.167 49.4975 152.781L61.3606 152.87Z" fill="white"/>
</mask>
<g mask="url(#mask15_623_671)">
<path d="M16.9488 152.539L63.6899 152.887L64.2514 77.4743L17.5102 77.1263L16.9488 152.539Z" fill="url(#paint15_linear_623_671)"/>
</g>
<mask id="mask16_623_671" style="mask-type:luminance" maskUnits="userSpaceOnUse" x="0" y="77" width="62" height="76">
<path d="M61.3606 152.87C63.9945 111.985 49.3805 86.7361 17.513 77.1262L0.561761 77L0.281056 114.705C0.12666 135.444 16.9374 152.536 37.6345 152.69L61.3606 152.867L61.3606 152.87Z" fill="white"/>
</mask>
<g mask="url(#mask16_623_671)">
<path d="M-0.00255288 152.413L63.6899 152.887L64.2514 77.4743L0.558878 77.0001L-0.00255288 152.413Z" fill="url(#paint16_linear_623_671)"/>
</g>
<mask id="mask17_623_671" style="mask-type:luminance" maskUnits="userSpaceOnUse" x="17" y="77" width="45" height="76">
<path d="M61.3606 152.87C63.9945 111.985 49.3805 86.7361 17.513 77.1262C44.5679 91.7043 57.8699 123.167 49.4975 152.781L61.3606 152.87Z" fill="white"/>
</mask>
<g mask="url(#mask17_623_671)">
<path d="M16.9488 152.539L63.6899 152.887L64.2514 77.4743L17.5102 77.1263L16.9488 152.539Z" fill="url(#paint17_linear_623_671)"/>
</g>
<mask id="mask18_623_671" style="mask-type:luminance" maskUnits="userSpaceOnUse" x="17" y="77" width="120" height="138">
<path d="M136.171 214.909L98.5373 214.628C77.8374 214.474 61.0295 197.379 61.1839 176.643L61.3609 152.873C63.9947 111.988 49.3808 86.739 17.5133 77.1291C48.3716 79.402 77.597 92.7937 99.5794 115.148C121.562 137.502 134.492 166.979 136.301 197.925L136.174 214.909L136.171 214.909Z" fill="white"/>
</mask>
<g mask="url(#mask18_623_671)">
<path d="M16.4913 214.018L136.171 214.909L137.19 78.0201L17.5104 77.1291L16.4913 214.018Z" fill="url(#paint18_linear_623_671)"/>
</g>
<mask id="mask19_623_671" style="mask-type:luminance" maskUnits="userSpaceOnUse" x="40" y="84" width="93" height="128">
<path d="M132.753 211.432L132.853 198.014C131.056 167.762 118.364 139.171 97.1215 117.569C81.3242 101.504 61.5954 90.1184 40.1148 84.413C83.811 110.562 107.016 160.892 98.5636 211.178L132.753 211.432Z" fill="white"/>
</mask>
<g mask="url(#mask19_623_671)">
<path d="M39.1743 210.736L132.753 211.432L133.694 85.1097L40.1148 84.413L39.1743 210.736Z" fill="url(#paint19_linear_623_671)"/>
</g>
<mask id="mask20_623_671" style="mask-type:luminance" maskUnits="userSpaceOnUse" x="0" y="77" width="62" height="76">
<path d="M61.3606 152.87C63.9945 111.985 49.3805 86.7361 17.513 77.1262L0.561761 77L0.281056 114.705C0.12666 135.444 16.9374 152.536 37.6345 152.69L61.3606 152.867L61.3606 152.87Z" fill="white"/>
</mask>
<g mask="url(#mask20_623_671)">
<path d="M-0.00255288 152.413L63.6899 152.887L64.2514 77.4743L0.558878 77.0001L-0.00255288 152.413Z" fill="url(#paint20_linear_623_671)"/>
</g>
<mask id="mask21_623_671" style="mask-type:luminance" maskUnits="userSpaceOnUse" x="17" y="77" width="45" height="76">
<path d="M61.3606 152.87C63.9945 111.985 49.3805 86.7361 17.513 77.1262C44.5679 91.7043 57.8699 123.167 49.4975 152.781L61.3606 152.87Z" fill="white"/>
</mask>
<g mask="url(#mask21_623_671)">
<path d="M16.9488 152.539L63.6899 152.887L64.2514 77.4743L17.5102 77.1263L16.9488 152.539Z" fill="url(#paint21_linear_623_671)"/>
</g>
<mask id="mask22_623_671" style="mask-type:luminance" maskUnits="userSpaceOnUse" x="17" y="77" width="120" height="138">
<path d="M136.171 214.909L98.5373 214.628C77.8374 214.474 61.0295 197.379 61.1839 176.643L61.3609 152.873C63.9947 111.988 49.3808 86.739 17.5133 77.1291C48.3716 79.402 77.597 92.7937 99.5794 115.148C121.562 137.502 134.492 166.979 136.301 197.925L136.174 214.909L136.171 214.909Z" fill="white"/>
</mask>
<g mask="url(#mask22_623_671)">
<path d="M16.4913 214.018L136.171 214.909L137.19 78.0201L17.5104 77.1291L16.4913 214.018Z" fill="url(#paint22_linear_623_671)"/>
</g>
<mask id="mask23_623_671" style="mask-type:luminance" maskUnits="userSpaceOnUse" x="40" y="84" width="93" height="128">
<path d="M132.753 211.432L132.853 198.014C131.056 167.762 118.364 139.171 97.1215 117.569C81.3242 101.504 61.5954 90.1184 40.1148 84.413C83.811 110.562 107.016 160.892 98.5636 211.178L132.753 211.432Z" fill="white"/>
</mask>
<g mask="url(#mask23_623_671)">
<path d="M39.1743 210.736L132.753 211.432L133.694 85.1097L40.1148 84.413L39.1743 210.736Z" fill="url(#paint23_linear_623_671)"/>
</g>
</g>
<defs>
<linearGradient id="paint0_linear_623_671" x1="184.271" y1="163.953" x2="27.4347" y2="-56.0885" gradientUnits="userSpaceOnUse">
<stop stop-color="#191F27"/>
<stop offset="0.14" stop-color="#1972EE"/>
<stop offset="0.44" stop-color="#4794FF"/>
<stop offset="0.86" stop-color="#75AFFF"/>
<stop offset="1" stop-color="#82B7FF"/>
</linearGradient>
<linearGradient id="paint1_linear_623_671" x1="178.756" y1="167.886" x2="21.9196" y2="-52.1589" gradientUnits="userSpaceOnUse">
<stop stop-color="#3454C1"/>
<stop offset="0.14" stop-color="#5678EA"/>
<stop offset="0.56" stop-color="#4291FF"/>
<stop offset="0.86" stop-color="#71ADFF"/>
<stop offset="1" stop-color="#A4CAFF"/>
</linearGradient>
<linearGradient id="paint2_linear_623_671" x1="81.4764" y1="84.8082" x2="280.779" y2="138.585" gradientUnits="userSpaceOnUse">
<stop stop-color="#131727"/>
<stop offset="0.29" stop-color="#4469E9"/>
<stop offset="0.93" stop-color="#587EFF"/>
<stop offset="1" stop-color="#678AFF"/>
</linearGradient>
<linearGradient id="paint3_linear_623_671" x1="80.899" y1="86.9482" x2="280.201" y2="140.725" gradientUnits="userSpaceOnUse">
<stop stop-color="#3454C1"/>
<stop offset="0.17" stop-color="#3454C1"/>
<stop offset="0.35" stop-color="#3454C1"/>
<stop offset="0.53" stop-color="#5374E5"/>
<stop offset="0.71" stop-color="#6687F9"/>
<stop offset="0.9" stop-color="#6C8DFF"/>
<stop offset="1" stop-color="#8BA5FF"/>
</linearGradient>
<linearGradient id="paint4_linear_623_671" x1="184.271" y1="163.953" x2="27.4347" y2="-56.0885" gradientUnits="userSpaceOnUse">
<stop stop-color="#191F27"/>
<stop offset="0.14" stop-color="#1972EE"/>
<stop offset="0.44" stop-color="#4794FF"/>
<stop offset="0.86" stop-color="#75AFFF"/>
<stop offset="1" stop-color="#82B7FF"/>
</linearGradient>
<linearGradient id="paint5_linear_623_671" x1="178.756" y1="167.886" x2="21.9196" y2="-52.1589" gradientUnits="userSpaceOnUse">
<stop stop-color="#3454C1"/>
<stop offset="0.14" stop-color="#5678EA"/>
<stop offset="0.56" stop-color="#4291FF"/>
<stop offset="0.86" stop-color="#71ADFF"/>
<stop offset="1" stop-color="#A4CAFF"/>
</linearGradient>
<linearGradient id="paint6_linear_623_671" x1="80.899" y1="86.9482" x2="280.201" y2="140.725" gradientUnits="userSpaceOnUse">
<stop stop-color="#3454C1"/>
<stop offset="0.17" stop-color="#3454C1"/>
<stop offset="0.35" stop-color="#3454C1"/>
<stop offset="0.53" stop-color="#5374E5"/>
<stop offset="0.71" stop-color="#6687F9"/>
<stop offset="0.9" stop-color="#6C8DFF"/>
<stop offset="1" stop-color="#8BA5FF"/>
</linearGradient>
<linearGradient id="paint7_linear_623_671" x1="81.4764" y1="84.8082" x2="280.779" y2="138.585" gradientUnits="userSpaceOnUse">
<stop stop-color="#131727"/>
<stop offset="0.29" stop-color="#4469E9"/>
<stop offset="0.93" stop-color="#587EFF"/>
<stop offset="1" stop-color="#678AFF"/>
</linearGradient>
<linearGradient id="paint8_linear_623_671" x1="184.271" y1="163.953" x2="27.4347" y2="-56.0885" gradientUnits="userSpaceOnUse">
<stop stop-color="#191F27"/>
<stop offset="0.14" stop-color="#1972EE"/>
<stop offset="0.44" stop-color="#4794FF"/>
<stop offset="0.86" stop-color="#75AFFF"/>
<stop offset="1" stop-color="#82B7FF"/>
</linearGradient>
<linearGradient id="paint9_linear_623_671" x1="178.756" y1="167.886" x2="21.9196" y2="-52.1589" gradientUnits="userSpaceOnUse">
<stop stop-color="#3454C1"/>
<stop offset="0.14" stop-color="#5678EA"/>
<stop offset="0.56" stop-color="#4291FF"/>
<stop offset="0.86" stop-color="#71ADFF"/>
<stop offset="1" stop-color="#A4CAFF"/>
</linearGradient>
<linearGradient id="paint10_linear_623_671" x1="80.899" y1="86.9482" x2="280.201" y2="140.725" gradientUnits="userSpaceOnUse">
<stop stop-color="#3454C1"/>
<stop offset="0.17" stop-color="#3454C1"/>
<stop offset="0.35" stop-color="#3454C1"/>
<stop offset="0.53" stop-color="#5374E5"/>
<stop offset="0.71" stop-color="#6687F9"/>
<stop offset="0.9" stop-color="#6C8DFF"/>
<stop offset="1" stop-color="#8BA5FF"/>
</linearGradient>
<linearGradient id="paint11_linear_623_671" x1="81.4764" y1="84.8082" x2="280.779" y2="138.585" gradientUnits="userSpaceOnUse">
<stop stop-color="#131727"/>
<stop offset="0.29" stop-color="#4469E9"/>
<stop offset="0.93" stop-color="#587EFF"/>
<stop offset="1" stop-color="#678AFF"/>
</linearGradient>
<linearGradient id="paint12_linear_623_671" x1="16.0606" y1="59.057" x2="171.255" y2="280.26" gradientUnits="userSpaceOnUse">
<stop stop-color="#191F27"/>
<stop offset="0.14" stop-color="#1972EE"/>
<stop offset="0.44" stop-color="#4794FF"/>
<stop offset="0.86" stop-color="#75AFFF"/>
<stop offset="1" stop-color="#82B7FF"/>
</linearGradient>
<linearGradient id="paint13_linear_623_671" x1="21.6054" y1="55.1656" x2="176.799" y2="276.372" gradientUnits="userSpaceOnUse">
<stop stop-color="#3454C1"/>
<stop offset="0.14" stop-color="#5678EA"/>
<stop offset="0.56" stop-color="#4291FF"/>
<stop offset="0.86" stop-color="#71ADFF"/>
<stop offset="1" stop-color="#A4CAFF"/>
</linearGradient>
<linearGradient id="paint14_linear_623_671" x1="118.263" y1="138.965" x2="-80.634" y2="83.7058" gradientUnits="userSpaceOnUse">
<stop stop-color="#131727"/>
<stop offset="0.29" stop-color="#4469E9"/>
<stop offset="0.93" stop-color="#587EFF"/>
<stop offset="1" stop-color="#678AFF"/>
</linearGradient>
<linearGradient id="paint15_linear_623_671" x1="118.856" y1="136.829" x2="-80.0406" y2="81.5702" gradientUnits="userSpaceOnUse">
<stop stop-color="#3454C1"/>
<stop offset="0.17" stop-color="#3454C1"/>
<stop offset="0.35" stop-color="#3454C1"/>
<stop offset="0.53" stop-color="#5374E5"/>
<stop offset="0.71" stop-color="#6687F9"/>
<stop offset="0.9" stop-color="#6C8DFF"/>
<stop offset="1" stop-color="#8BA5FF"/>
</linearGradient>
<linearGradient id="paint16_linear_623_671" x1="118.263" y1="138.965" x2="-80.634" y2="83.7058" gradientUnits="userSpaceOnUse">
<stop stop-color="#131727"/>
<stop offset="0.29" stop-color="#4469E9"/>
<stop offset="0.93" stop-color="#587EFF"/>
<stop offset="1" stop-color="#678AFF"/>
</linearGradient>
<linearGradient id="paint17_linear_623_671" x1="118.856" y1="136.829" x2="-80.0406" y2="81.5702" gradientUnits="userSpaceOnUse">
<stop stop-color="#3454C1"/>
<stop offset="0.17" stop-color="#3454C1"/>
<stop offset="0.35" stop-color="#3454C1"/>
<stop offset="0.53" stop-color="#5374E5"/>
<stop offset="0.71" stop-color="#6687F9"/>
<stop offset="0.9" stop-color="#6C8DFF"/>
<stop offset="1" stop-color="#8BA5FF"/>
</linearGradient>
<linearGradient id="paint18_linear_623_671" x1="16.0606" y1="59.057" x2="171.255" y2="280.26" gradientUnits="userSpaceOnUse">
<stop stop-color="#191F27"/>
<stop offset="0.14" stop-color="#1972EE"/>
<stop offset="0.44" stop-color="#4794FF"/>
<stop offset="0.86" stop-color="#75AFFF"/>
<stop offset="1" stop-color="#82B7FF"/>
</linearGradient>
<linearGradient id="paint19_linear_623_671" x1="21.6054" y1="55.1656" x2="176.799" y2="276.372" gradientUnits="userSpaceOnUse">
<stop stop-color="#3454C1"/>
<stop offset="0.14" stop-color="#5678EA"/>
<stop offset="0.56" stop-color="#4291FF"/>
<stop offset="0.86" stop-color="#71ADFF"/>
<stop offset="1" stop-color="#A4CAFF"/>
</linearGradient>
<linearGradient id="paint20_linear_623_671" x1="118.263" y1="138.965" x2="-80.634" y2="83.7058" gradientUnits="userSpaceOnUse">
<stop stop-color="#131727"/>
<stop offset="0.29" stop-color="#4469E9"/>
<stop offset="0.93" stop-color="#587EFF"/>
<stop offset="1" stop-color="#678AFF"/>
</linearGradient>
<linearGradient id="paint21_linear_623_671" x1="118.856" y1="136.829" x2="-80.0406" y2="81.5702" gradientUnits="userSpaceOnUse">
<stop stop-color="#3454C1"/>
<stop offset="0.17" stop-color="#3454C1"/>
<stop offset="0.35" stop-color="#3454C1"/>
<stop offset="0.53" stop-color="#5374E5"/>
<stop offset="0.71" stop-color="#6687F9"/>
<stop offset="0.9" stop-color="#6C8DFF"/>
<stop offset="1" stop-color="#8BA5FF"/>
</linearGradient>
<linearGradient id="paint22_linear_623_671" x1="16.0606" y1="59.057" x2="171.255" y2="280.26" gradientUnits="userSpaceOnUse">
<stop stop-color="#191F27"/>
<stop offset="0.14" stop-color="#1972EE"/>
<stop offset="0.44" stop-color="#4794FF"/>
<stop offset="0.86" stop-color="#75AFFF"/>
<stop offset="1" stop-color="#82B7FF"/>
</linearGradient>
<linearGradient id="paint23_linear_623_671" x1="21.6054" y1="55.1656" x2="176.799" y2="276.372" gradientUnits="userSpaceOnUse">
<stop stop-color="#3454C1"/>
<stop offset="0.14" stop-color="#5678EA"/>
<stop offset="0.56" stop-color="#4291FF"/>
<stop offset="0.86" stop-color="#71ADFF"/>
<stop offset="1" stop-color="#A4CAFF"/>
</linearGradient>
<clipPath id="clip0_623_671">
<rect width="198" height="214" fill="white" transform="translate(197.995 215.468) rotate(-179.573)"/>
</clipPath>
</defs>
</svg>
