<svg width="13" height="13" viewBox="0 0 13 13" fill="none" xmlns="http://www.w3.org/2000/svg">
<mask id="mask0_1007_4015" style="mask-type:luminance" maskUnits="userSpaceOnUse" x="1" y="4" width="8" height="9">
<path d="M8.41987 12.8579L6.09273 12.8406C4.81273 12.8311 3.7734 11.7761 3.78295 10.4964L3.79389 9.02948C3.95676 6.50637 3.05309 4.9482 1.08254 4.35514C2.99069 4.49541 4.79787 5.32185 6.15717 6.70139C7.51647 8.08093 8.316 9.90001 8.42786 11.8098L8.42004 12.8579L8.41987 12.8579Z" fill="white"/>
</mask>
<g mask="url(#mask0_1007_4015)">
<path d="M1.01952 12.8029L8.42004 12.8579L8.48306 4.41013L1.08254 4.35514L1.01952 12.8029Z" fill="white"/>
</g>
<mask id="mask1_1007_4015" style="mask-type:luminance" maskUnits="userSpaceOnUse" x="2" y="4" width="7" height="9">
<path d="M8.2085 12.6433L8.21467 11.8152C8.10355 9.94832 7.31873 8.18387 6.00517 6.85074C5.02833 5.85936 3.80838 5.15669 2.4801 4.8046C5.1821 6.41834 6.61699 9.52435 6.09434 12.6276L8.2085 12.6433Z" fill="white"/>
</mask>
<g mask="url(#mask1_1007_4015)">
<path d="M2.42195 12.6003L8.2085 12.6433L8.26665 4.84759L2.4801 4.8046L2.42195 12.6003Z" fill="white"/>
</g>
<mask id="mask2_1007_4015" style="mask-type:luminance" maskUnits="userSpaceOnUse" x="0" y="4" width="4" height="6">
<path d="M3.79427 9.02931C3.95714 6.50619 3.05347 4.94802 1.08292 4.35497L0.034723 4.34718L0.0173654 6.67406C0.00781813 7.95392 1.04733 9.00872 2.32715 9.01823L3.79427 9.02913L3.79427 9.02931Z" fill="white"/>
</mask>
<g mask="url(#mask2_1007_4015)">
<path d="M-0.000491645 9.00113L3.93799 9.0304L3.9727 4.37646L0.0342249 4.3472L-0.000491645 9.00113Z" fill="white"/>
</g>
<mask id="mask3_1007_4015" style="mask-type:luminance" maskUnits="userSpaceOnUse" x="1" y="4" width="3" height="6">
<path d="M3.79427 9.02931C3.95714 6.50619 3.05347 4.94802 1.08292 4.35497C2.75588 5.25462 3.57842 7.19628 3.06071 9.02386L3.79427 9.02931Z" fill="white"/>
</mask>
<g mask="url(#mask3_1007_4015)">
<path d="M1.04771 9.00892L3.93799 9.0304L3.9727 4.37646L1.08242 4.35498L1.04771 9.00892Z" fill="white"/>
</g>
<mask id="mask4_1007_4015" style="mask-type:luminance" maskUnits="userSpaceOnUse" x="0" y="4" width="4" height="6">
<path d="M3.79427 9.02931C3.95714 6.50619 3.05347 4.94802 1.08292 4.35497L0.034723 4.34718L0.0173654 6.67406C0.00781813 7.95392 1.04733 9.00872 2.32715 9.01823L3.79427 9.02913L3.79427 9.02931Z" fill="white"/>
</mask>
<g mask="url(#mask4_1007_4015)">
<path d="M-0.000491645 9.00113L3.93799 9.0304L3.9727 4.37646L0.0342249 4.3472L-0.000491645 9.00113Z" fill="white"/>
</g>
<mask id="mask5_1007_4015" style="mask-type:luminance" maskUnits="userSpaceOnUse" x="1" y="4" width="3" height="6">
<path d="M3.79427 9.02931C3.95714 6.50619 3.05347 4.94802 1.08292 4.35497C2.75588 5.25462 3.57842 7.19628 3.06071 9.02386L3.79427 9.02931Z" fill="white"/>
</mask>
<g mask="url(#mask5_1007_4015)">
<path d="M1.04771 9.00892L3.93799 9.0304L3.9727 4.37646L1.08242 4.35498L1.04771 9.00892Z" fill="white"/>
</g>
<mask id="mask6_1007_4015" style="mask-type:luminance" maskUnits="userSpaceOnUse" x="1" y="4" width="8" height="9">
<path d="M8.41987 12.8579L6.09273 12.8406C4.81273 12.8311 3.7734 11.7761 3.78295 10.4964L3.79389 9.02948C3.95676 6.50637 3.05309 4.9482 1.08254 4.35514C2.99069 4.49541 4.79787 5.32185 6.15717 6.70139C7.51647 8.08093 8.316 9.90001 8.42786 11.8098L8.42004 12.8579L8.41987 12.8579Z" fill="white"/>
</mask>
<g mask="url(#mask6_1007_4015)">
<path d="M1.01952 12.8029L8.42004 12.8579L8.48306 4.41013L1.08254 4.35514L1.01952 12.8029Z" fill="white"/>
</g>
<mask id="mask7_1007_4015" style="mask-type:luminance" maskUnits="userSpaceOnUse" x="2" y="4" width="7" height="9">
<path d="M8.2085 12.6433L8.21467 11.8152C8.10355 9.94832 7.31873 8.18387 6.00517 6.85074C5.02833 5.85936 3.80838 5.15669 2.4801 4.8046C5.1821 6.41834 6.61699 9.52435 6.09434 12.6276L8.2085 12.6433Z" fill="white"/>
</mask>
<g mask="url(#mask7_1007_4015)">
<path d="M2.42195 12.6003L8.2085 12.6433L8.26665 4.84759L2.4801 4.8046L2.42195 12.6003Z" fill="white"/>
</g>
<mask id="mask8_1007_4015" style="mask-type:luminance" maskUnits="userSpaceOnUse" x="0" y="4" width="4" height="6">
<path d="M3.79427 9.02931C3.95714 6.50619 3.05347 4.94802 1.08292 4.35497L0.034723 4.34718L0.0173654 6.67406C0.00781813 7.95392 1.04733 9.00872 2.32715 9.01823L3.79427 9.02913L3.79427 9.02931Z" fill="white"/>
</mask>
<g mask="url(#mask8_1007_4015)">
<path d="M-0.000491645 9.00113L3.93799 9.0304L3.9727 4.37646L0.0342249 4.3472L-0.000491645 9.00113Z" fill="white"/>
</g>
<mask id="mask9_1007_4015" style="mask-type:luminance" maskUnits="userSpaceOnUse" x="1" y="4" width="3" height="6">
<path d="M3.79427 9.02931C3.95714 6.50619 3.05347 4.94802 1.08292 4.35497C2.75588 5.25462 3.57842 7.19628 3.06071 9.02386L3.79427 9.02931Z" fill="white"/>
</mask>
<g mask="url(#mask9_1007_4015)">
<path d="M1.04771 9.00892L3.93799 9.0304L3.9727 4.37646L1.08242 4.35498L1.04771 9.00892Z" fill="white"/>
</g>
<mask id="mask10_1007_4015" style="mask-type:luminance" maskUnits="userSpaceOnUse" x="1" y="4" width="8" height="9">
<path d="M8.41987 12.8579L6.09273 12.8406C4.81273 12.8311 3.7734 11.7761 3.78295 10.4964L3.79389 9.02948C3.95676 6.50637 3.05309 4.9482 1.08254 4.35514C2.99069 4.49541 4.79787 5.32185 6.15717 6.70139C7.51647 8.08093 8.316 9.90001 8.42786 11.8098L8.42004 12.8579L8.41987 12.8579Z" fill="white"/>
</mask>
<g mask="url(#mask10_1007_4015)">
<path d="M1.01952 12.8029L8.42004 12.8579L8.48306 4.41013L1.08254 4.35514L1.01952 12.8029Z" fill="white"/>
</g>
<mask id="mask11_1007_4015" style="mask-type:luminance" maskUnits="userSpaceOnUse" x="2" y="4" width="7" height="9">
<path d="M8.2085 12.6433L8.21467 11.8152C8.10355 9.94832 7.31873 8.18387 6.00517 6.85074C5.02833 5.85936 3.80838 5.15669 2.4801 4.8046C5.1821 6.41834 6.61699 9.52435 6.09434 12.6276L8.2085 12.6433Z" fill="white"/>
</mask>
<g mask="url(#mask11_1007_4015)">
<path d="M2.42195 12.6003L8.2085 12.6433L8.26665 4.84759L2.4801 4.8046L2.42195 12.6003Z" fill="white"/>
</g>
<mask id="mask12_1007_4015" style="mask-type:luminance" maskUnits="userSpaceOnUse" x="4" y="0" width="8" height="9">
<path d="M4.53765 1.306e-06L6.86479 0.0172919C8.14479 0.0268022 9.18412 1.08178 9.17457 2.36146L9.16363 3.82843C9.00076 6.35154 9.90443 7.90971 11.875 8.50277C9.96683 8.3625 8.15965 7.53606 6.80035 6.15652C5.44105 4.77698 4.64152 2.9579 4.52966 1.04808L4.53748 0L4.53765 1.306e-06Z" fill="white"/>
</mask>
<g mask="url(#mask12_1007_4015)">
<path d="M11.938 0.0549855L4.53748 0L4.47446 8.44778L11.875 8.50277L11.938 0.0549855Z" fill="white"/>
</g>
<mask id="mask13_1007_4015" style="mask-type:luminance" maskUnits="userSpaceOnUse" x="4" y="0" width="7" height="9">
<path d="M4.74976 0.214478L4.74358 1.04257C4.8547 2.90947 5.63952 4.67392 6.95308 6.00705C7.92992 6.99843 9.14988 7.70109 10.4781 8.05319C7.77615 6.43945 6.34126 3.33344 6.86391 0.230186L4.74976 0.214478Z" fill="white"/>
</mask>
<g mask="url(#mask13_1007_4015)">
<path d="M10.5363 0.257471L4.74976 0.214478L4.6916 8.0102L10.4781 8.05319L10.5363 0.257471Z" fill="white"/>
</g>
<mask id="mask14_1007_4015" style="mask-type:luminance" maskUnits="userSpaceOnUse" x="9" y="3" width="4" height="6">
<path d="M9.16545 3.82872C9.00258 6.35184 9.90624 7.91001 11.8768 8.50306L12.925 8.51085L12.9424 6.18397C12.9519 4.90412 11.9124 3.84931 10.6326 3.8398L9.16545 3.8289L9.16545 3.82872Z" fill="white"/>
</mask>
<g mask="url(#mask14_1007_4015)">
<path d="M12.9606 3.8569L9.02209 3.82764L8.98738 8.48157L12.9259 8.51084L12.9606 3.8569Z" fill="white"/>
</g>
<mask id="mask15_1007_4015" style="mask-type:luminance" maskUnits="userSpaceOnUse" x="9" y="3" width="3" height="6">
<path d="M9.16545 3.82872C9.00258 6.35184 9.90624 7.91001 11.8768 8.50306C10.2038 7.60341 9.3813 5.66176 9.89901 3.83417L9.16545 3.82872Z" fill="white"/>
</mask>
<g mask="url(#mask15_1007_4015)">
<path d="M11.9124 3.84911L9.02209 3.82764L8.98738 8.48157L11.8777 8.50305L11.9124 3.84911Z" fill="white"/>
</g>
<mask id="mask16_1007_4015" style="mask-type:luminance" maskUnits="userSpaceOnUse" x="9" y="3" width="4" height="6">
<path d="M9.16545 3.82872C9.00258 6.35184 9.90624 7.91001 11.8768 8.50306L12.925 8.51085L12.9424 6.18397C12.9519 4.90412 11.9124 3.84931 10.6326 3.8398L9.16545 3.8289L9.16545 3.82872Z" fill="white"/>
</mask>
<g mask="url(#mask16_1007_4015)">
<path d="M12.9606 3.8569L9.02209 3.82764L8.98738 8.48157L12.9259 8.51084L12.9606 3.8569Z" fill="white"/>
</g>
<mask id="mask17_1007_4015" style="mask-type:luminance" maskUnits="userSpaceOnUse" x="9" y="3" width="3" height="6">
<path d="M9.16545 3.82872C9.00258 6.35184 9.90624 7.91001 11.8768 8.50306C10.2038 7.60341 9.3813 5.66176 9.89901 3.83417L9.16545 3.82872Z" fill="white"/>
</mask>
<g mask="url(#mask17_1007_4015)">
<path d="M11.9124 3.84911L9.02209 3.82764L8.98738 8.48157L11.8777 8.50305L11.9124 3.84911Z" fill="white"/>
</g>
<mask id="mask18_1007_4015" style="mask-type:luminance" maskUnits="userSpaceOnUse" x="4" y="0" width="8" height="9">
<path d="M4.53765 1.306e-06L6.86479 0.0172919C8.14479 0.0268022 9.18412 1.08178 9.17457 2.36146L9.16363 3.82843C9.00076 6.35154 9.90443 7.90971 11.875 8.50277C9.96683 8.3625 8.15965 7.53606 6.80035 6.15652C5.44105 4.77698 4.64152 2.9579 4.52966 1.04808L4.53748 0L4.53765 1.306e-06Z" fill="white"/>
</mask>
<g mask="url(#mask18_1007_4015)">
<path d="M11.938 0.0549855L4.53748 0L4.47446 8.44778L11.875 8.50277L11.938 0.0549855Z" fill="white"/>
</g>
<mask id="mask19_1007_4015" style="mask-type:luminance" maskUnits="userSpaceOnUse" x="4" y="0" width="7" height="9">
<path d="M4.74976 0.214478L4.74358 1.04257C4.8547 2.90947 5.63952 4.67392 6.95308 6.00705C7.92992 6.99843 9.14988 7.70109 10.4781 8.05319C7.77615 6.43945 6.34126 3.33344 6.86391 0.230186L4.74976 0.214478Z" fill="white"/>
</mask>
<g mask="url(#mask19_1007_4015)">
<path d="M10.5363 0.257471L4.74976 0.214478L4.6916 8.0102L10.4781 8.05319L10.5363 0.257471Z" fill="white"/>
</g>
<mask id="mask20_1007_4015" style="mask-type:luminance" maskUnits="userSpaceOnUse" x="9" y="3" width="4" height="6">
<path d="M9.16545 3.82872C9.00258 6.35184 9.90624 7.91001 11.8768 8.50306L12.925 8.51085L12.9424 6.18397C12.9519 4.90412 11.9124 3.84931 10.6326 3.8398L9.16545 3.8289L9.16545 3.82872Z" fill="white"/>
</mask>
<g mask="url(#mask20_1007_4015)">
<path d="M12.9606 3.8569L9.02209 3.82764L8.98738 8.48157L12.9259 8.51084L12.9606 3.8569Z" fill="white"/>
</g>
<mask id="mask21_1007_4015" style="mask-type:luminance" maskUnits="userSpaceOnUse" x="9" y="3" width="3" height="6">
<path d="M9.16545 3.82872C9.00258 6.35184 9.90624 7.91001 11.8768 8.50306C10.2038 7.60341 9.3813 5.66176 9.89901 3.83417L9.16545 3.82872Z" fill="white"/>
</mask>
<g mask="url(#mask21_1007_4015)">
<path d="M11.9124 3.84911L9.02209 3.82764L8.98738 8.48157L11.8777 8.50305L11.9124 3.84911Z" fill="white"/>
</g>
<mask id="mask22_1007_4015" style="mask-type:luminance" maskUnits="userSpaceOnUse" x="4" y="0" width="8" height="9">
<path d="M4.53765 1.306e-06L6.86479 0.0172919C8.14479 0.0268022 9.18412 1.08178 9.17457 2.36146L9.16363 3.82843C9.00076 6.35154 9.90443 7.90971 11.875 8.50277C9.96683 8.3625 8.15965 7.53606 6.80035 6.15652C5.44105 4.77698 4.64152 2.9579 4.52966 1.04808L4.53748 0L4.53765 1.306e-06Z" fill="white"/>
</mask>
<g mask="url(#mask22_1007_4015)">
<path d="M11.938 0.0549855L4.53748 0L4.47446 8.44778L11.875 8.50277L11.938 0.0549855Z" fill="white"/>
</g>
<mask id="mask23_1007_4015" style="mask-type:luminance" maskUnits="userSpaceOnUse" x="4" y="0" width="7" height="9">
<path d="M4.74976 0.214478L4.74358 1.04257C4.8547 2.90947 5.63952 4.67392 6.95308 6.00705C7.92992 6.99843 9.14988 7.70109 10.4781 8.05319C7.77615 6.43945 6.34126 3.33344 6.86391 0.230186L4.74976 0.214478Z" fill="white"/>
</mask>
<g mask="url(#mask23_1007_4015)">
<path d="M10.5363 0.257471L4.74976 0.214478L4.6916 8.0102L10.4781 8.05319L10.5363 0.257471Z" fill="white"/>
</g>
</svg>
