<svg width="183" height="160" viewBox="0 0 183 160" fill="none" xmlns="http://www.w3.org/2000/svg">
<path d="M91.3908 126.162C92.2296 126.162 92.9096 125.484 92.9096 124.647C92.9096 123.81 92.2296 123.132 91.3908 123.132C90.552 123.132 89.8721 123.81 89.8721 124.647C89.8721 125.484 90.552 126.162 91.3908 126.162Z" fill="#CFCFCF"/>
<path d="M47.269 12.0906V18.7388" stroke="#3454C1" stroke-linecap="round" stroke-linejoin="round"/>
<path d="M43.9219 15.4148H50.6013" stroke="#3454C1" stroke-linecap="round" stroke-linejoin="round"/>
<path d="M123.13 54.021C110.158 54.021 96.9543 53.4954 84.6028 50.063C72.4837 46.708 61.3565 40.1989 51.4381 32.6693C44.9446 27.7682 39.0401 23.8565 30.6094 24.4441C22.3618 24.8893 14.4747 27.9619 8.10707 33.2105C-2.61721 42.5799 -1.00547 59.9426 3.28734 72.095C9.7343 90.4473 29.3541 103.234 46.0295 111.505C65.2929 121.107 86.4625 126.688 107.679 129.888C126.276 132.718 150.173 134.759 166.29 122.653C181.09 111.505 185.151 86.0872 181.524 68.9255C180.644 63.8556 177.938 59.281 173.915 56.0619C163.516 48.4705 148.003 53.5417 136.318 53.7891C131.979 53.8819 127.562 53.9901 123.13 54.021Z" fill="#F0F1FF"/>
<path d="M102.146 0.5C102.709 0.5 103.164 0.956062 103.164 1.51562C103.164 2.07499 102.709 2.53027 102.146 2.53027C101.582 2.53016 101.127 2.07491 101.127 1.51562C101.127 0.956135 101.582 0.500111 102.146 0.5Z" fill="#3454C1" stroke="#1300E9"/>
<path d="M23.2324 121.014V127.662" stroke="#3454C1" stroke-linecap="round" stroke-linejoin="round"/>
<path d="M19.9009 124.338H26.5648" stroke="#3454C1" stroke-linecap="round" stroke-linejoin="round"/>
<path d="M92.0105 159.976C123.431 159.976 148.902 158.391 148.902 156.435C148.902 154.48 123.431 152.895 92.0105 152.895C60.5903 152.895 35.1191 154.48 35.1191 156.435C35.1191 158.391 60.5903 159.976 92.0105 159.976Z" fill="#D9E2FF"/>
<path d="M137.744 118.509H39.4741C38.8165 118.509 38.1667 118.366 37.5699 118.09C36.9731 117.815 36.4434 117.413 36.0175 116.913C35.5916 116.413 35.2796 115.827 35.1031 115.195C34.9266 114.563 34.8898 113.9 34.9953 113.252L47.5638 37.215C47.7336 36.1567 48.2765 35.1937 49.0947 34.4993C49.913 33.8048 50.9528 33.4246 52.0271 33.427H150.297C150.954 33.4271 151.603 33.5699 152.199 33.8457C152.796 34.1214 153.325 34.5234 153.749 35.0236C154.174 35.5239 154.485 36.1105 154.659 36.7426C154.834 37.3746 154.868 38.0371 154.76 38.6838L142.254 114.721C142.08 115.786 141.529 116.753 140.702 117.448C139.875 118.143 138.825 118.52 137.744 118.509Z" fill="#3454C1"/>
<path d="M138.955 31.4383L80.624 5.45583C78.9046 4.68996 76.8884 5.45966 76.1207 7.175L57.6336 48.4836C56.8659 50.199 57.6374 52.2104 59.3568 52.9763L117.688 78.9587C119.407 79.7246 121.423 78.9549 122.191 77.2395L140.678 35.9309C141.446 34.2156 140.674 32.2042 138.955 31.4383Z" fill="white" stroke="#D1D8FF" stroke-linecap="round" stroke-linejoin="round"/>
<path d="M89.1743 39.4412C90.7097 37.2919 92.9427 35.7382 95.4949 35.0436C98.0472 34.3489 100.762 34.5559 103.178 35.6295C105.595 36.7031 107.566 38.5773 108.756 40.9344C109.946 43.2916 110.282 45.9868 109.709 48.5632" stroke="#BABABA" stroke-width="0.68" stroke-linecap="round" stroke-linejoin="round"/>
<path d="M117.07 37.1066C117.951 37.1066 118.666 36.3936 118.666 35.5141C118.666 34.6346 117.951 33.9216 117.07 33.9216C116.188 33.9216 115.474 34.6346 115.474 35.5141C115.474 36.3936 116.188 37.1066 117.07 37.1066Z" fill="#BABABA"/>
<path d="M93.9478 26.8095C94.8294 26.8095 95.544 26.0965 95.544 25.217C95.544 24.3375 94.8294 23.6245 93.9478 23.6245C93.0662 23.6245 92.3516 24.3375 92.3516 25.217C92.3516 26.0965 93.0662 26.8095 93.9478 26.8095Z" fill="#BABABA"/>
<path d="M137.31 118.478H38.5598C37.3582 118.474 36.2072 117.995 35.359 117.146C34.5108 116.297 34.0345 115.147 34.0345 113.948V44.4816C34.0201 43.8789 34.1263 43.2795 34.3471 42.7183C34.5678 42.1572 34.8986 41.6456 35.3201 41.2136C35.7415 40.7817 36.2452 40.438 36.8015 40.2026C37.3578 39.9673 37.9555 39.8451 38.5598 39.8433H74.5295C75.3641 39.8463 76.1818 40.0788 76.8926 40.5152C77.6035 40.9516 78.18 41.5751 78.5588 42.317L83.6885 52.3358C84.066 53.0789 84.6422 53.7033 85.3533 54.1399C86.0645 54.5765 86.8828 54.8082 87.7179 54.8096H137.31C138.51 54.8096 139.661 55.2852 140.51 56.1319C141.358 56.9785 141.835 58.1268 141.835 59.3242V113.948C141.835 115.147 141.359 116.297 140.511 117.146C139.662 117.995 138.511 118.474 137.31 118.478Z" fill="white" stroke="#BDC9FF" stroke-linecap="round" stroke-linejoin="round"/>
<path d="M122.107 57.1751C116.402 57.172 110.824 58.8569 106.08 62.0167C101.335 65.1764 97.6356 69.6691 95.4503 74.9264C93.2651 80.1837 92.6917 85.9695 93.8028 91.5519C94.9139 97.1343 97.6595 102.263 101.692 106.288C105.725 110.314 110.864 113.056 116.459 114.167C122.054 115.279 127.854 114.71 133.125 112.532C138.396 110.355 142.901 106.667 146.071 101.935C149.24 97.2031 150.932 91.6395 150.932 85.9481C150.932 78.3197 147.896 71.0035 142.49 65.6079C137.085 60.2124 129.753 57.1792 122.107 57.1751Z" fill="white" stroke="#CCD7FF" stroke-linecap="round" stroke-linejoin="round"/>
<path d="M142.625 106.821L150.312 114.489" stroke="#C8CDFF" stroke-linecap="round" stroke-linejoin="round"/>
<path d="M149.444 110.763L147.055 113.255C145.985 114.373 146.025 116.144 147.145 117.212L167.869 136.977C168.989 138.045 170.765 138.005 171.835 136.888L174.223 134.396C175.294 133.278 175.254 131.507 174.134 130.439L153.41 110.674C152.29 109.606 150.514 109.646 149.444 110.763Z" fill="#3454C1"/>
<path d="M164.787 1.51538V8.17909" stroke="#1300E9" stroke-linecap="round" stroke-linejoin="round"/>
<path d="M161.439 4.85498H168.119" stroke="#1300E9" stroke-linecap="round" stroke-linejoin="round"/>
</svg>
