<svg width="220" height="192" viewBox="0 0 220 192" fill="none" xmlns="http://www.w3.org/2000/svg">
<path d="M109.672 151.398C110.678 151.398 111.494 150.584 111.494 149.58C111.494 148.576 110.678 147.762 109.672 147.762C108.665 147.762 107.849 148.576 107.849 149.58C107.849 150.584 108.665 151.398 109.672 151.398Z" fill="#CFCFCF"/>
<path d="M56.7241 14.509V22.4871" stroke="#3454C1" stroke-linecap="round" stroke-linejoin="round"/>
<path d="M52.7075 18.4982H60.723" stroke="#3454C1" stroke-linecap="round" stroke-linejoin="round"/>
<path d="M147.759 64.8269C132.193 64.8269 116.348 64.1961 101.526 60.0772C86.9827 56.051 73.6297 48.2399 61.7273 39.2042C53.9349 33.3227 46.8493 28.6286 36.7323 29.3336C26.8348 29.868 17.37 33.5552 9.72873 39.8536C-3.14073 51.0972 -1.20659 71.933 3.94491 86.5162C11.6815 108.539 35.2259 123.883 55.2368 133.81C78.3534 145.332 103.758 152.029 129.218 155.87C151.534 159.265 180.212 161.714 199.553 147.187C217.314 133.81 222.186 103.307 217.834 82.7127C216.779 76.6287 213.531 71.139 208.703 67.276C196.224 58.1661 177.608 64.2517 163.586 64.5486C158.378 64.6599 153.078 64.7898 147.759 64.8269Z" fill="#252525"/>
<path d="M122.578 0.5C123.309 0.5 123.901 1.09141 123.901 1.81836C123.901 2.54527 123.309 3.13672 122.578 3.13672C121.846 3.13656 121.255 2.54517 121.255 1.81836C121.255 1.09151 121.846 0.500158 122.578 0.5Z" fill="#3454C1" stroke="#1300E9"/>
<path d="M27.8794 145.22V153.198" stroke="#3454C1" stroke-linecap="round" stroke-linejoin="round"/>
<path d="M23.8818 149.209H31.8787" stroke="#3454C1" stroke-linecap="round" stroke-linejoin="round"/>
<path d="M110.415 191.976C148.121 191.976 178.687 190.073 178.687 187.727C178.687 185.38 148.121 183.478 110.415 183.478C72.7102 183.478 42.144 185.38 42.144 187.727C42.144 190.073 72.7102 191.976 110.415 191.976Z" fill="#252525"/>
<path d="M165.297 142.215H47.37C46.5808 142.214 45.8012 142.042 45.085 141.712C44.3688 141.381 43.7331 140.899 43.222 140.299C42.7109 139.699 42.3365 138.996 42.1247 138.237C41.9129 137.479 41.8688 136.683 41.9954 135.906L57.0779 44.6591C57.2817 43.3891 57.9332 42.2335 58.9151 41.4001C59.897 40.5668 61.1448 40.1105 62.434 40.1134H180.361C181.149 40.1135 181.928 40.2849 182.644 40.6158C183.359 40.9467 183.994 41.4291 184.504 42.0294C185.013 42.6298 185.386 43.3337 185.595 44.0922C185.805 44.8507 185.846 45.6456 185.717 46.4217L170.708 137.669C170.5 138.947 169.839 140.108 168.846 140.942C167.854 141.775 166.594 142.227 165.297 142.215Z" fill="#3454C1"/>
<path d="M166.75 37.7269L96.7511 6.54719C94.6878 5.62812 92.2683 6.55178 91.3471 8.61024L69.162 58.1818C68.2407 60.2403 69.1666 62.6541 71.2299 63.5732L141.229 94.7529C143.292 95.672 145.711 94.7483 146.633 92.6898L168.818 43.1182C169.739 41.0598 168.813 38.646 166.75 37.7269Z" fill="#202020" stroke="#494949" stroke-linecap="round" stroke-linejoin="round"/>
<path d="M107.012 47.3306C108.854 44.7514 111.534 42.887 114.597 42.0533C117.659 41.2197 120.917 41.4681 123.817 42.7565C126.717 44.0448 129.082 46.2939 130.51 49.1226C131.938 51.9512 132.342 55.1855 131.653 58.2773" stroke="#BABABA" stroke-width="0.68" stroke-linecap="round" stroke-linejoin="round"/>
<path d="M140.487 44.529C141.545 44.529 142.403 43.6734 142.403 42.618C142.403 41.5626 141.545 40.707 140.487 40.707C139.429 40.707 138.572 41.5626 138.572 42.618C138.572 43.6734 139.429 44.529 140.487 44.529Z" fill="#BABABA"/>
<path d="M112.74 32.1722C113.798 32.1722 114.656 31.3166 114.656 30.2612C114.656 29.2058 113.798 28.3502 112.74 28.3502C111.682 28.3502 110.825 29.2058 110.825 30.2612C110.825 31.3166 111.682 32.1722 112.74 32.1722Z" fill="#BABABA"/>
<path d="M164.776 142.177H46.2728C44.8309 142.172 43.4497 141.598 42.4318 140.579C41.4139 139.56 40.8424 138.18 40.8424 136.741V53.3792C40.825 52.656 40.9526 51.9367 41.2175 51.2633C41.4824 50.5899 41.8794 49.976 42.3851 49.4576C42.8909 48.9392 43.4952 48.5268 44.1628 48.2444C44.8304 47.962 45.5477 47.8154 46.2728 47.8131H89.4376C90.4392 47.8168 91.4204 48.0958 92.2734 48.6195C93.1265 49.1432 93.8183 49.8913 94.2729 50.7817L100.429 62.8045C100.882 63.6962 101.573 64.4455 102.427 64.9695C103.28 65.4934 104.262 65.7715 105.264 65.7731H164.776C166.216 65.7731 167.597 66.3439 168.616 67.3599C169.634 68.3759 170.206 69.7539 170.206 71.1908V136.741C170.206 138.18 169.635 139.56 168.617 140.579C167.599 141.598 166.218 142.172 164.776 142.177Z" fill="#202020" stroke="#494949" stroke-linecap="round" stroke-linejoin="round"/>
<path d="M146.532 68.6118C139.686 68.6082 132.993 70.6301 127.299 74.4219C121.605 78.2137 117.166 83.605 114.543 89.914C111.921 96.2229 111.233 103.166 112.566 109.865C113.899 116.564 117.194 122.718 122.034 127.549C126.873 132.38 133.04 135.67 139.754 137.004C146.469 138.338 153.428 137.655 159.754 135.042C166.079 132.429 171.485 128.004 175.289 122.325C179.093 116.647 181.123 109.97 181.123 103.14C181.123 93.986 177.479 85.2063 170.993 78.7315C164.506 72.2567 155.708 68.6167 146.532 68.6118Z" fill="#212121" stroke="#494949" stroke-linecap="round" stroke-linejoin="round"/>
<path d="M171.155 128.188L180.379 137.391" stroke="#C8CDFF" stroke-linecap="round" stroke-linejoin="round"/>
<path d="M179.337 132.919L176.471 135.91C175.186 137.251 175.234 139.376 176.578 140.658L201.448 164.377C202.792 165.658 204.923 165.61 206.207 164.27L209.073 161.279C210.358 159.938 210.31 157.812 208.966 156.531L184.096 132.812C182.752 131.531 180.621 131.579 179.337 132.919Z" fill="#3454C1"/>
<path d="M197.749 1.81848V9.81514" stroke="#1300E9" stroke-linecap="round" stroke-linejoin="round"/>
<path d="M193.732 5.82611H201.748" stroke="#1300E9" stroke-linecap="round" stroke-linejoin="round"/>
</svg>
