<svg width="269" height="269" viewBox="0 0 269 269" fill="none" xmlns="http://www.w3.org/2000/svg">
<path d="M134.5 238.112C192.11 238.112 238.813 235.385 238.813 232.022C238.813 228.658 192.11 225.931 134.5 225.931C76.8897 225.931 30.1873 228.658 30.1873 232.022C30.1873 235.385 76.8897 238.112 134.5 238.112Z" fill="#F5F5F5"/>
<path d="M128.256 183.743H24.374C22.6793 183.74 21.3074 182.366 21.3074 180.671V34.6418C21.3219 32.9578 22.69 31.5994 24.374 31.5967H128.256C129.953 31.5967 131.328 32.9718 131.328 34.6687V180.671C131.328 182.368 129.953 183.743 128.256 183.743ZM24.374 31.7043C22.7535 31.7075 21.4419 33.0213 21.4419 34.6418V180.671C21.4419 182.292 22.7535 183.605 24.374 183.609H128.256C129.877 183.606 131.191 182.292 131.194 180.671V34.6418C131.191 33.0208 129.877 31.707 128.256 31.7043H24.374Z" fill="#E6E6E6"/>
<path d="M244.631 183.743H140.743C139.048 183.74 137.674 182.366 137.671 180.671V34.6418C137.689 32.9567 139.058 31.5994 140.743 31.5967H244.631C246.313 31.6026 247.678 32.96 247.692 34.6418V180.671C247.692 182.364 246.324 183.737 244.631 183.743ZM140.743 31.7043C139.122 31.7075 137.809 33.0208 137.806 34.6418V180.671C137.809 182.292 139.122 183.605 140.743 183.609H244.631C246.252 183.606 247.565 182.292 247.569 180.671V34.6418C247.565 33.0208 246.252 31.707 244.631 31.7043H140.743Z" fill="#E6E6E6"/>
<path d="M46.2357 211.009H24.0647V211.143H46.2357V211.009Z" fill="#E0E0E0"/>
<path d="M91.4277 209.933H69.1921V210.067H91.4277V209.933Z" fill="#E0E0E0"/>
<path d="M120.361 209.933H114.981V210.067H120.361V209.933Z" fill="#E0E0E0"/>
<path d="M66.5883 214.527H41.7058V214.662H66.5883V214.527Z" fill="#E0E0E0"/>
<path d="M152.652 210.939H141.031V211.073H152.652V210.939Z" fill="#E0E0E0"/>
<path d="M172.467 210.939H157.44V211.073H172.467V210.939Z" fill="#E0E0E0"/>
<path d="M244.935 213.215H211.343V213.349H244.935V213.215Z" fill="#E0E0E0"/>
<path d="M269 205.73H0V205.865H269V205.73Z" fill="#EBEBEB"/>
<path opacity="0.8" d="M180.141 42.7601L178.8 61.1996C178.755 61.8419 178.478 62.4251 178.051 62.862C177.559 63.386 176.862 63.7136 176.11 63.7136H161.319C160.773 63.7136 160.279 63.5404 159.89 63.2397C159.284 62.7888 158.922 62.0415 158.981 61.199L160.321 42.7596C160.419 41.3705 161.622 40.245 163.011 40.245H177.801C179.192 40.2461 180.238 41.371 180.141 42.7601Z" fill="#E0E0E0"/>
<path d="M173.726 51.1083C173.536 53.8284 171.569 56.0331 169.334 56.0331C167.098 56.0331 165.44 53.8284 165.63 51.1083C165.821 48.3881 167.787 46.1834 170.023 46.1834C172.258 46.1834 173.916 48.3887 173.726 51.1083Z" fill="white"/>
<path d="M175.591 62.4434H162.055C161.197 62.4434 160.603 62.0318 160.581 61.454C160.55 60.6174 164.94 56.9865 169.104 57.3012C169.119 57.3023 169.134 57.3012 169.149 57.3012C169.166 57.3012 169.183 57.3012 169.199 57.3012C171.75 57.312 174.152 58.3906 176.171 59.9864C178.179 61.574 176.278 62.4434 175.591 62.4434Z" fill="white"/>
<path d="M103.845 63.0428C100.966 63.0788 98.4305 60.7632 98.1927 57.8817C97.9554 54.9997 100.105 52.626 102.984 52.59C105.864 52.5539 108.4 54.8695 108.637 57.7515C108.875 60.6331 106.725 63.0067 103.845 63.0428ZM103.213 55.3671C101.864 55.3838 100.857 56.4964 100.968 57.8468C101.08 59.1971 102.268 60.2817 103.617 60.2651C104.966 60.2484 105.973 59.1358 105.862 57.7854C105.751 56.435 104.563 55.3504 103.213 55.3671Z" fill="#E0E0E0"/>
<path d="M104.104 54.9641L102.122 54.9888L101.071 42.2291L103.053 42.2043L104.104 54.9641Z" fill="#E0E0E0"/>
<path d="M104.931 42.7768L101.21 42.8236L101.046 40.8395L104.767 40.7932L104.931 42.7768Z" fill="#E0E0E0"/>
<path d="M105.144 45.3264L101.645 45.37L101.481 43.3859L104.981 43.3423L105.144 45.3264Z" fill="#E0E0E0"/>
<path d="M105.446 48.9224L102.392 48.9606L102.228 46.9764L105.283 46.9382L105.446 48.9224Z" fill="#E0E0E0"/>
<path d="M42.6683 171.497C42.6796 171.658 42.7017 171.82 42.7286 171.976C42.9088 173.014 43.4479 173.95 44.1962 174.65C45.0597 175.457 46.2083 175.957 47.4404 175.957H92.896C95.1986 175.957 96.9702 174.214 97.0509 171.976C97.0563 171.82 97.0558 171.658 97.0445 171.497C96.9584 170.27 96.3801 169.151 95.5171 168.35C94.6536 167.543 93.505 167.042 92.273 167.042H46.8168C44.3528 167.042 42.4961 169.038 42.6683 171.497Z" fill="#F0F0F0"/>
<path d="M97.0487 171.975C97.046 172.121 97.0331 172.266 97.0089 172.406C96.8895 171.244 96.3213 170.189 95.4955 169.425C94.6325 168.618 93.485 168.118 92.253 168.118L43.9126 168.193C44.6513 167.478 45.6702 167.042 46.8162 167.042H92.2718C93.5038 167.042 94.6519 167.542 95.5143 168.349C96.3773 169.151 96.9599 170.27 97.046 171.497C97.0541 171.658 97.0568 171.819 97.0487 171.975Z" fill="#E0E0E0"/>
<path d="M89.2704 169.192L89.4227 171.367L91.4606 170.612L91.9228 171.685L89.8418 172.372L91.2955 174.196L90.3561 174.883L88.9412 172.987L87.8109 174.883L86.8048 174.196L87.9841 172.372L85.8262 171.685L86.1371 170.619L88.2994 171.346L88.1487 169.192H89.2704Z" fill="white"/>
<path d="M76.8388 169.192L76.9911 171.367L79.029 170.612L79.4911 171.685L77.4102 172.372L78.8638 174.196L77.9245 174.883L76.5095 172.987L75.3792 174.883L74.3732 174.196L75.5524 172.372L73.3945 171.685L73.7055 170.619L75.8677 171.346L75.7171 169.192H76.8388Z" fill="white"/>
<path d="M64.4074 169.192L64.5597 171.367L66.5976 170.612L67.0598 171.685L64.9788 172.372L66.4324 174.196L65.4931 174.883L64.0782 172.987L62.9478 174.883L61.9418 174.196L63.121 172.372L60.9631 171.685L61.2741 170.619L63.4363 171.346L63.2857 169.192H64.4074Z" fill="white"/>
<path d="M51.9758 169.192L52.128 171.367L54.166 170.612L54.6281 171.685L52.5471 172.372L54.0008 174.196L53.0615 174.883L51.6465 172.987L50.5162 174.883L49.5101 174.196L50.6894 172.372L48.5315 171.685L48.8425 170.619L51.0047 171.346L50.854 169.192H51.9758Z" fill="white"/>
<path d="M82.1714 165.472H80.0527L80.0624 164.934H82.1805L82.1714 165.472Z" fill="#E0E0E0"/>
<path d="M91.2841 165.472H84.3691L84.3783 164.934H91.2937L91.2841 165.472Z" fill="#E0E0E0"/>
<g opacity="0.8">
<path d="M144.929 162.759L153.502 175.958L181.778 147.681C182.026 147.433 181.684 147.046 181.407 147.263L154.46 168.384L149.371 160.179L144.929 162.759Z" fill="#E0E0E0"/>
</g>
<path opacity="0.1" d="M139.803 68.8398L119.499 144.779H126.329L146.409 68.8398H139.803Z" fill="white"/>
<path opacity="0.1" d="M150.344 68.8398L130.04 144.779H143.587L163.667 68.8398H150.344Z" fill="white"/>
<path d="M224.084 138.321L228.367 77.3633C228.509 75.3496 226.983 73.7178 224.959 73.72L118.578 73.8125C116.554 73.8141 114.799 75.4486 114.657 77.4623L110.374 138.42C110.233 140.434 111.758 142.065 113.782 142.063L220.163 141.971C222.187 141.968 223.943 140.335 224.084 138.321Z" fill="#263238"/>
<path d="M222.719 136.991L227.002 76.0339C227.144 74.0202 225.618 72.3884 223.594 72.3906L117.213 72.4831C115.189 72.4847 113.434 74.1192 113.292 76.1329L109.009 137.09C108.868 139.105 110.393 140.736 112.417 140.734L218.798 140.641C220.822 140.64 222.578 139.005 222.719 136.991Z" fill="#3454C1"/>
<path opacity="0.6" d="M219.899 137.891C219.747 138.032 219.484 138.202 219.096 138.203L112.715 138.295C111.999 138.295 111.416 137.672 111.466 136.962L115.749 76.0049C115.776 75.6218 115.961 75.3738 116.113 75.2323C116.265 75.0908 116.528 74.9219 116.916 74.9208L223.298 74.8288C224.013 74.8283 224.597 75.4507 224.547 76.1614L220.264 137.118C220.236 137.502 220.05 137.75 219.899 137.891Z" fill="white"/>
<path d="M184.514 104.381H147.173C146.507 104.381 145.91 104.919 145.84 105.582L145.269 111.042C145.199 111.705 145.684 112.243 146.35 112.243H183.691C184.357 112.243 184.954 111.705 185.024 111.042L185.595 105.582C185.665 104.919 185.18 104.381 184.514 104.381Z" fill="white"/>
<path d="M151.614 126.684H145.787C145.121 126.684 144.524 127.222 144.454 127.885L143.883 133.345C143.813 134.009 144.298 134.547 144.964 134.547H150.791C151.458 134.547 152.055 134.009 152.124 133.345L152.696 127.885C152.766 127.222 152.282 126.684 151.614 126.684Z" fill="white"/>
<path d="M161.675 126.684H155.848C155.182 126.684 154.585 127.222 154.515 127.885L153.944 133.345C153.874 134.009 154.359 134.547 155.025 134.547H160.852C161.519 134.547 162.116 134.009 162.185 133.345L162.757 127.885C162.827 127.222 162.343 126.684 161.675 126.684Z" fill="white"/>
<path d="M171.737 126.684H165.91C165.243 126.684 164.646 127.222 164.577 127.885L164.005 133.345C163.936 134.009 164.42 134.547 165.087 134.547H170.914C171.58 134.547 172.177 134.009 172.247 133.345L172.818 127.885C172.888 127.222 172.404 126.684 171.737 126.684Z" fill="white"/>
<path d="M181.798 126.684H175.971C175.304 126.684 174.707 127.222 174.638 127.885L174.066 133.345C173.997 134.009 174.481 134.547 175.148 134.547H180.975C181.641 134.547 182.238 134.009 182.308 133.345L182.879 127.885C182.949 127.222 182.465 126.684 181.798 126.684Z" fill="white"/>
<path d="M151.857 122.964H175.215C176.351 122.964 177.367 122.048 177.485 120.918L177.766 118.237C177.884 117.107 177.06 116.191 175.924 116.191H152.566C151.431 116.191 150.414 117.107 150.296 118.237L150.016 120.918C149.897 122.048 150.721 122.964 151.857 122.964Z" stroke="#3454C1" stroke-miterlimit="10" stroke-linecap="round" stroke-linejoin="round"/>
<path d="M185.859 93.0099H148.519C147.852 93.0099 147.255 93.5479 147.186 94.2113L146.614 99.6715C146.545 100.335 147.029 100.873 147.696 100.873H185.036C185.703 100.873 186.3 100.335 186.369 99.6715L186.941 94.2113C187.011 93.5479 186.526 93.0099 185.859 93.0099Z" fill="white"/>
<path d="M151.714 108.312C151.791 107.578 151.255 106.982 150.517 106.982C149.779 106.982 149.118 107.578 149.041 108.312C148.964 109.047 149.501 109.642 150.239 109.642C150.977 109.642 151.637 109.047 151.714 108.312Z" fill="#263238"/>
<path d="M155.821 108.312C155.898 107.578 155.362 106.982 154.623 106.982C153.885 106.982 153.225 107.578 153.148 108.312C153.071 109.047 153.607 109.642 154.345 109.642C155.083 109.642 155.744 109.047 155.821 108.312Z" fill="#263238"/>
<path d="M159.927 108.312C160.004 107.578 159.468 106.982 158.73 106.982C157.992 106.982 157.331 107.578 157.254 108.312C157.177 109.047 157.713 109.642 158.452 109.642C159.19 109.642 159.851 109.047 159.927 108.312Z" fill="#263238"/>
<path d="M164.035 108.312C164.112 107.578 163.576 106.982 162.838 106.982C162.099 106.982 161.439 107.578 161.362 108.312C161.285 109.047 161.821 109.642 162.559 109.642C163.297 109.642 163.958 109.047 164.035 108.312Z" fill="#263238"/>
<path d="M168.222 108.312C168.299 107.578 167.762 106.982 167.025 106.982C166.287 106.982 165.626 107.578 165.549 108.312C165.472 109.047 166.009 109.642 166.747 109.642C167.484 109.642 168.145 109.047 168.222 108.312Z" fill="#263238"/>
<path d="M153.06 96.9416C153.137 96.2073 152.6 95.6117 151.862 95.6117C151.124 95.6117 150.463 96.2073 150.386 96.9416C150.309 97.676 150.846 98.2716 151.583 98.2716C152.322 98.2721 152.983 97.6765 153.06 96.9416Z" fill="#263238"/>
<path d="M157.167 96.9416C157.243 96.2073 156.708 95.6117 155.969 95.6117C155.231 95.6117 154.57 96.2073 154.493 96.9416C154.416 97.676 154.952 98.2716 155.69 98.2716C156.429 98.2721 157.09 97.6765 157.167 96.9416Z" fill="#263238"/>
<path d="M161.273 96.9416C161.35 96.2073 160.814 95.6117 160.076 95.6117C159.338 95.6117 158.677 96.2073 158.6 96.9416C158.523 97.676 159.06 98.2716 159.797 98.2716C160.536 98.2721 161.196 97.6765 161.273 96.9416Z" fill="#263238"/>
<path d="M165.38 96.9416C165.457 96.2073 164.921 95.6117 164.183 95.6117C163.445 95.6117 162.784 96.2073 162.708 96.9416C162.631 97.676 163.167 98.2716 163.905 98.2716C164.643 98.2716 165.303 97.6765 165.38 96.9416Z" fill="#263238"/>
<path d="M169.487 96.9416C169.564 96.2073 169.027 95.6117 168.29 95.6117C167.552 95.6117 166.891 96.2073 166.814 96.9416C166.737 97.676 167.273 98.2716 168.012 98.2716C168.749 98.2721 169.41 97.6765 169.487 96.9416Z" fill="#263238"/>
<path d="M173.594 96.9416C173.671 96.2073 173.135 95.6117 172.397 95.6117C171.659 95.6117 170.998 96.2073 170.921 96.9416C170.844 97.676 171.38 98.2716 172.119 98.2716C172.856 98.2721 173.517 97.6765 173.594 96.9416Z" fill="#263238"/>
<path d="M170.105 80.9685L169.814 83.7262C169.788 83.9748 169.564 84.176 169.315 84.176C169.065 84.176 168.884 83.9743 168.91 83.7262L169.201 80.9685C169.295 80.0781 168.644 79.3528 167.749 79.3528H166.757C165.862 79.3528 165.057 80.0781 164.964 80.9685L164.712 83.5299H163.807L164.059 80.9685C164.206 79.5815 165.459 78.4528 166.852 78.4528H167.844C169.237 78.4528 170.252 79.581 170.105 80.9685Z" fill="#3454C1"/>
<path d="M170.124 83.6251L169.557 88.9981C169.521 89.3381 169.216 89.613 168.874 89.613H163.475C163.134 89.613 162.886 89.3381 162.922 88.9981L163.489 83.6251C163.512 83.4056 163.649 83.2124 163.834 83.1043C163.935 83.0446 164.051 83.0101 164.172 83.0101H169.571C169.688 83.0101 169.794 83.0424 169.881 83.0984C170.049 83.206 170.148 83.4013 170.124 83.6251Z" fill="#3454C1"/>
<path d="M212.247 72.0355L199.1 72.1135" stroke="#263238" stroke-miterlimit="10" stroke-linecap="round" stroke-linejoin="round"/>
<path d="M219.414 72L214.767 72.0204" stroke="#263238" stroke-miterlimit="10" stroke-linecap="round" stroke-linejoin="round"/>
<g opacity="0.3">
<path d="M127.131 74.9052H142.182L126.88 138.295H114.767C114.756 138.295 114.745 138.295 114.734 138.295C113.235 138.287 112.177 136.853 112.529 135.397L127.131 74.9052Z" fill="white"/>
<path d="M148.864 74.9052H155.254L139.953 138.295H133.563L148.864 74.9052Z" fill="white"/>
</g>
<path d="M46.6199 54.1567H49.6736C46.6 54.1567 44.2823 56.6482 44.4975 59.7223L50.9793 152.419C51.1939 155.492 53.8603 157.984 56.9339 157.984H53.8802C50.8066 157.984 48.1408 155.493 47.9256 152.419L41.4432 59.7218C41.2286 56.6482 43.5457 54.1567 46.6199 54.1567Z" fill="#407BFF"/>
<path d="M46.6198 54.1566H49.6735C46.5999 54.1566 44.2822 56.6481 44.4974 59.7222L50.9792 152.419C51.1939 155.492 53.8602 157.984 56.9338 157.984H53.8801C50.8065 157.984 47.7103 155.493 47.4951 152.419L41.0128 59.7217C40.7981 56.6481 43.5457 54.1566 46.6198 54.1566Z" fill="#263238"/>
<path d="M54.7903 157.984H92.1797C95.2533 157.984 97.571 155.492 97.3558 152.418L90.874 59.7217C90.6588 56.6481 87.993 54.1561 84.9194 54.1561H47.53C44.4564 54.1561 42.1387 56.6476 42.3539 59.7217L48.8358 152.418C49.051 155.492 51.7168 157.984 54.7903 157.984Z" fill="#3454C1"/>
<g opacity="0.6">
<path d="M84.8189 55.9423C86.9532 55.9423 88.8114 57.68 88.9604 59.8153L95.4422 152.511C95.5117 153.505 95.1948 154.434 94.5497 155.126C93.9068 155.817 93.0067 156.197 92.0168 156.197H54.6274C52.4932 156.197 50.6355 154.46 50.4859 152.324L44.0035 59.6286C43.9341 58.6349 44.251 57.7058 44.8961 57.0134C45.539 56.3232 46.4391 55.9428 47.429 55.9428L84.8189 55.9423Z" fill="white"/>
</g>
<g opacity="0.3">
<path d="M74.2617 156.197H59.3494L71.6475 55.9423H83.6492C84.743 55.9423 85.7221 56.4006 86.414 57.1329L74.2617 156.197Z" fill="white"/>
<path d="M56.6728 156.197H53.3179L65.616 55.9423H68.9704L56.6728 156.197Z" fill="white"/>
</g>
<path d="M55.5085 99.7473H82.592" stroke="white" stroke-miterlimit="10" stroke-linecap="round" stroke-linejoin="round"/>
<path d="M59.0022 103.752H80.2166" stroke="white" stroke-miterlimit="10" stroke-linecap="round" stroke-linejoin="round"/>
<path d="M56.3166 81.2799L56.3537 82.344H55.6597L55.6226 81.2713L54.3938 79.3404H55.1309L55.9788 80.6746L56.733 79.3404H57.4147L56.3166 81.2799Z" fill="#3454C1"/>
<path d="M57.4432 80.8425C57.4115 79.95 58.0824 79.2893 59.0298 79.2893C59.9724 79.2893 60.6944 79.9462 60.7256 80.8425C60.7573 81.7394 60.0816 82.3957 59.139 82.3957C58.1921 82.3957 57.475 81.7345 57.4432 80.8425ZM60.0229 80.8425C60.003 80.2717 59.5861 79.8816 59.0508 79.8816C58.5149 79.8816 58.1259 80.2722 58.1458 80.8425C58.1658 81.4133 58.5822 81.8039 59.118 81.8039C59.6539 81.8034 60.0428 81.4128 60.0229 80.8425Z" fill="#3454C1"/>
<path d="M61.2317 81.0227L61.1731 79.3409H61.8671L61.9247 80.9974C61.9446 81.5683 62.2018 81.8039 62.6219 81.8039C63.0459 81.8039 63.2821 81.5677 63.2621 80.9974L63.2046 79.3409H63.89L63.9486 81.0227C63.9798 81.9067 63.4913 82.3957 62.6386 82.3957C61.7859 82.3957 61.2629 81.9067 61.2317 81.0227Z" fill="#3454C1"/>
<path d="M66.5945 82.344L65.9866 81.5075H65.9521H65.3479L65.3775 82.344H64.6835L64.5786 79.3404H65.8768C66.6784 79.3404 67.1938 79.7568 67.2175 80.4304C67.2336 80.8807 67.0184 81.2115 66.6338 81.3789L67.3407 82.344H66.5945ZM65.858 79.9069H65.2915L65.328 80.9539H65.894C66.318 80.9539 66.5256 80.7564 66.5138 80.4304C66.5025 80.1 66.2814 79.9069 65.858 79.9069Z" fill="#3454C1"/>
<path d="M68.8075 80.8425C68.7757 79.9371 69.4472 79.2893 70.3811 79.2893C70.8998 79.2893 71.3393 79.4781 71.6341 79.8214L71.2027 80.2335C70.9934 80.0016 70.7367 79.8816 70.4365 79.8816C69.8749 79.8816 69.4902 80.276 69.5101 80.8425C69.53 81.409 69.9421 81.8039 70.5038 81.8039C70.804 81.8039 71.0525 81.6834 71.2452 81.4478L71.7051 81.8599C71.4345 82.2074 71.0084 82.3963 70.4855 82.3963C69.5564 82.3957 68.8392 81.7474 68.8075 80.8425Z" fill="#3454C1"/>
<path d="M71.8868 80.8425C71.8551 79.95 72.5265 79.2893 73.4734 79.2893C74.416 79.2893 75.138 79.9462 75.1692 80.8425C75.2009 81.7394 74.5252 82.3957 73.5826 82.3957C72.6357 82.3957 71.9186 81.7345 71.8868 80.8425ZM74.4665 80.8425C74.4466 80.2717 74.0297 79.8816 73.4944 79.8816C72.9585 79.8816 72.5695 80.2722 72.5894 80.8425C72.6094 81.4133 73.0258 81.8039 73.5616 81.8039C74.0969 81.8034 74.4864 81.4128 74.4665 80.8425Z" fill="#3454C1"/>
<path d="M75.6426 79.3404H77.0053C77.9861 79.3404 78.6796 79.9327 78.7119 80.8425C78.7441 81.7522 78.0916 82.3446 77.1102 82.3446H75.7475L75.6426 79.3404ZM77.0559 81.7732C77.6515 81.7732 78.0291 81.4171 78.0087 80.8425C77.9888 80.2679 77.5864 79.9117 76.9903 79.9117H76.356L76.4211 81.7738H77.0559V81.7732Z" fill="#3454C1"/>
<path d="M81.5929 81.7861L81.6123 82.344H79.2897L79.1848 79.3404H81.4519L81.4713 79.8983H79.8939L79.9165 80.5504H81.3094L81.3287 81.091H79.9359L79.9601 81.7861H81.5929Z" fill="#3454C1"/>
<path d="M61.5352 93.5075L61.5567 94.7148H55.8932L55.8765 93.7604L58.8769 90.8632C59.6107 90.1499 59.735 89.6995 59.7269 89.2724C59.7151 88.5697 59.2245 88.1636 58.2808 88.1636C57.5346 88.1636 56.9137 88.4159 56.4952 88.9646L55.4827 88.1964C56.0616 87.3953 57.1182 86.9235 58.3803 86.9235C60.0487 86.9235 61.1392 87.7681 61.1629 89.1293C61.1758 89.8755 60.9794 90.556 59.9319 91.5546L57.9139 93.5081H61.5352V93.5075Z" fill="#263238"/>
<path d="M67.7943 92.4106C67.8169 93.7055 66.8598 94.8246 64.796 94.8246C63.7093 94.8246 62.6171 94.4953 61.894 93.9358L62.4891 92.827C63.0454 93.2875 63.8852 93.5845 64.7519 93.5845C65.7725 93.5845 66.3686 93.1342 66.3557 92.4213C66.3438 91.7295 65.8306 91.2797 64.6674 91.2797H63.9648L63.9481 90.3032L65.6563 88.2292H62.1663L62.1458 87.0333H67.3811L67.3972 87.9877L65.5702 90.2048C67.0233 90.3909 67.7738 91.2576 67.7943 92.4106Z" fill="#263238"/>
<path d="M74.9626 92.509C74.9879 93.9358 73.7629 94.8246 71.853 94.8246C69.9431 94.8246 68.71 93.9358 68.6847 92.509C68.6702 91.6638 69.0979 91.0387 69.8817 90.6766C69.2614 90.336 68.9112 89.7873 68.8988 89.0631C68.8757 87.7461 70.0135 86.923 71.7147 86.923C73.4272 86.923 74.6048 87.7461 74.628 89.0631C74.6403 89.7873 74.2993 90.336 73.6795 90.6766C74.487 91.0387 74.9481 91.6638 74.9626 92.509ZM73.524 92.4655C73.5105 91.7079 72.844 91.2361 71.79 91.2361C70.7366 91.2361 70.1077 91.7079 70.1211 92.4655C70.1346 93.2445 70.7797 93.7055 71.8331 93.7055C72.887 93.705 73.5374 93.2439 73.524 92.4655ZM70.3046 89.1288C70.3159 89.7873 70.8722 90.2042 71.7723 90.2042C72.6831 90.2042 73.2362 89.7873 73.2243 89.1288C73.2125 88.4374 72.6126 88.042 71.7346 88.042C70.8561 88.0426 70.2922 88.4374 70.3046 89.1288Z" fill="#263238"/>
<path d="M82.1186 92.509C82.1439 93.9358 80.9189 94.8246 79.009 94.8246C77.0991 94.8246 75.866 93.9358 75.8407 92.509C75.8262 91.6638 76.2539 91.0387 77.0377 90.6766C76.4174 90.336 76.0672 89.7873 76.0548 89.0631C76.0317 87.7461 77.1696 86.923 78.8707 86.923C80.5832 86.923 81.7608 87.7461 81.784 89.0631C81.7969 89.7873 81.4553 90.336 80.8355 90.6766C81.643 91.0387 82.1035 91.6638 82.1186 92.509ZM80.68 92.4655C80.6665 91.7079 80 91.2361 78.946 91.2361C77.8926 91.2361 77.2637 91.7079 77.2771 92.4655C77.2906 93.2445 77.9357 93.7055 78.9891 93.7055C80.043 93.705 80.6934 93.2439 80.68 92.4655ZM77.4601 89.1288C77.4719 89.7873 78.0277 90.2042 78.9277 90.2042C79.8386 90.2042 80.3916 89.7873 80.3798 89.1288C80.368 88.4374 79.7681 88.042 78.8895 88.042C78.0121 88.0426 77.4482 88.4374 77.4601 89.1288Z" fill="#263238"/>
<path d="M41.2749 67.5921L42.2288 80.5961" stroke="#407BFF" stroke-miterlimit="10" stroke-linecap="round" stroke-linejoin="round"/>
<path d="M40.8401 61.6682L41.0919 65.1001" stroke="#407BFF" stroke-miterlimit="10" stroke-linecap="round" stroke-linejoin="round"/>
<path d="M66.373 48.739V40.8218" stroke="#3454C1" stroke-miterlimit="10" stroke-linecap="round" stroke-linejoin="round"/>
<path d="M60.1059 50.4137L56.1489 43.5618" stroke="#3454C1" stroke-miterlimit="10" stroke-linecap="round" stroke-linejoin="round"/>
<path d="M76.5971 43.5618L72.6401 50.417" stroke="#3454C1" stroke-miterlimit="10" stroke-linecap="round" stroke-linejoin="round"/>
<path d="M168.874 189.246C166.155 200.14 165.051 211.436 165.609 222.65" stroke="#407BFF" stroke-miterlimit="10"/>
<path d="M166.361 188.783C166.385 189.787 167.286 193.338 168.291 193.314C169.295 193.29 170.023 189.699 169.999 188.694C169.975 187.69 169.141 186.895 168.136 186.919C167.131 186.944 166.337 187.779 166.361 188.783Z" fill="#FF9500"/>
<path d="M170.274 200.076C170.25 199.071 169.349 195.52 168.344 195.544C167.34 195.568 166.612 199.159 166.636 200.164C166.661 201.168 167.494 201.963 168.499 201.939C169.503 201.914 170.298 201.08 170.274 200.076Z" fill="#FF9500"/>
<path d="M162.671 196.386C163.675 196.361 167.227 195.461 167.202 194.456C167.178 193.451 163.588 192.723 162.583 192.748C161.578 192.772 160.783 193.606 160.808 194.611C160.832 195.615 161.666 196.41 162.671 196.386Z" fill="#FF9500"/>
<path d="M173.963 192.473C172.959 192.497 169.408 193.398 169.432 194.402C169.456 195.406 173.047 196.134 174.052 196.11C175.056 196.086 175.851 195.252 175.826 194.248C175.802 193.243 174.968 192.448 173.963 192.473Z" fill="#FF9500"/>
<path d="M162.941 191.82C163.668 192.513 166.817 194.387 167.509 193.66C168.203 192.933 166.178 189.879 165.451 189.186C164.724 188.493 163.572 188.52 162.879 189.248C162.186 189.975 162.213 191.127 162.941 191.82Z" fill="#FF9500"/>
<path d="M173.693 197.038C172.966 196.345 169.818 194.471 169.125 195.198C168.432 195.926 170.456 198.979 171.183 199.673C171.91 200.366 173.062 200.338 173.755 199.61C174.449 198.883 174.421 197.732 173.693 197.038Z" fill="#FF9500"/>
<path d="M165.708 199.805C166.401 199.078 168.276 195.929 167.548 195.236C166.82 194.544 163.767 196.567 163.073 197.295C162.38 198.022 162.408 199.174 163.136 199.867C163.864 200.56 165.015 200.533 165.708 199.805Z" fill="#FF9500"/>
<path d="M170.926 189.053C170.234 189.781 168.359 192.928 169.086 193.622C169.814 194.315 172.868 192.291 173.561 191.563C174.255 190.836 174.227 189.684 173.499 188.991C172.771 188.298 171.619 188.326 170.926 189.053Z" fill="#FF9500"/>
<path d="M166.163 194.482C166.192 195.671 167.18 196.613 168.369 196.584C169.559 196.555 170.5 195.567 170.471 194.378C170.442 193.188 169.454 192.247 168.265 192.276C167.075 192.304 166.134 193.292 166.163 194.482Z" fill="white"/>
<path d="M165.854 210.495C165.854 210.495 166.226 205 169.242 204.131C172.257 203.262 173.364 202.084 173.364 202.084C173.364 202.084 173.059 210.601 165.854 210.495Z" fill="#407BFF"/>
<path opacity="0.5" d="M165.854 210.495C165.854 210.495 166.226 205 169.242 204.131C172.257 203.262 173.364 202.084 173.364 202.084C173.364 202.084 173.059 210.601 165.854 210.495Z" fill="white"/>
<path d="M165.456 214.701C165.456 214.701 165.084 209.206 162.069 208.337C159.053 207.468 157.946 206.29 157.946 206.29C157.946 206.29 158.252 214.806 165.456 214.701Z" fill="#407BFF"/>
<path opacity="0.5" d="M165.456 214.701C165.456 214.701 165.084 209.206 162.069 208.337C159.053 207.468 157.946 206.29 157.946 206.29C157.946 206.29 158.252 214.806 165.456 214.701Z" fill="white"/>
<path d="M176.84 226.144C176.84 230.432 171.734 233.902 165.44 233.902C159.14 233.902 154.04 230.432 154.04 226.144C154.04 223.976 155.347 222.012 157.461 220.608C158.682 219.79 160.173 219.161 161.83 218.79H169.05C170.755 219.177 172.283 219.828 173.521 220.678C175.576 222.082 176.84 224.008 176.84 226.144Z" fill="#407BFF"/>
<path opacity="0.8" d="M169.05 218.79C170.755 219.177 172.283 219.828 173.521 220.678C175.576 222.082 176.84 224.008 176.84 226.144C176.84 230.432 171.734 233.902 165.44 233.902C159.14 233.902 154.04 230.432 154.04 226.144C154.04 223.976 155.347 222.012 157.461 220.608C158.682 219.79 160.173 219.161 161.83 218.79H169.05Z" fill="white"/>
<path d="M165.473 219.488C165.473 220.766 165.473 222.045 165.473 223.323" stroke="#407BFF" stroke-miterlimit="10"/>
<path d="M174.023 218.67L173.417 220.555L173.408 220.575H157.467L157.433 220.474L156.857 218.67H174.023Z" fill="#407BFF"/>
<path d="M175.494 227.702C174.395 229.29 172.83 230.557 171.115 231.467C168.376 232.92 156.857 233.295 155.543 226.759C155.525 226.669 155.494 226.58 155.477 226.488C155.163 224.779 156.684 223.258 158.415 223.431C159.49 223.538 160.612 223.41 161.68 223.248C165.801 222.62 170.05 222.85 174.081 223.913C175.727 224.347 176.462 226.302 175.494 227.702Z" fill="#263238"/>
<path d="M92.8103 225.529C93.0121 225.457 93.146 225.298 93.209 225.056C93.2563 224.874 93.188 224.754 93.1224 224.686C92.7076 224.253 91.0247 224.56 90.8343 224.597C90.7901 224.605 90.7557 224.638 90.746 224.682C90.7363 224.725 90.7541 224.769 90.7901 224.795C91.0694 224.992 91.4772 225.253 91.8823 225.417C92.2191 225.552 92.5537 225.621 92.8103 225.529ZM92.9588 224.837C92.9863 224.866 93.0148 224.91 92.9911 225.001C92.9475 225.17 92.8631 225.275 92.7334 225.321C92.4284 225.431 91.8446 225.225 91.1447 224.767C91.8209 224.663 92.7409 224.607 92.9588 224.837Z" fill="#407BFF"/>
<path d="M90.8699 224.814C91.3848 224.75 92.5695 224.142 92.6733 223.616C92.6932 223.516 92.69 223.326 92.443 223.191C92.287 223.104 92.1197 223.09 91.947 223.15C91.2976 223.372 90.7742 224.611 90.7516 224.663C90.7365 224.699 90.7419 224.741 90.7661 224.773C90.7785 224.788 90.7946 224.8 90.8124 224.808C90.8307 224.814 90.85 224.816 90.8699 224.814ZM92.3333 223.382C92.4592 223.452 92.4635 223.521 92.4527 223.573C92.3892 223.894 91.6011 224.392 91.048 224.55C91.2444 224.147 91.6328 223.49 92.0202 223.357C92.1143 223.325 92.202 223.326 92.287 223.36C92.3026 223.367 92.3182 223.374 92.3333 223.382Z" fill="#407BFF"/>
<path d="M85.762 222.646L90.1418 224.416L93.9643 214.296L89.5845 212.526L85.762 222.646Z" fill="#FFB573"/>
<path d="M90.6972 224.058L85.7766 222.069C85.5975 221.996 85.4011 222.06 85.3042 222.222L83.1447 225.826C82.9209 226.2 83.1108 226.716 83.5267 226.876C85.2542 227.541 86.1225 227.776 88.2864 228.65C89.6174 229.188 91.5058 230.11 93.3441 230.853C95.1421 231.58 96.0271 229.847 95.3293 229.376C92.2003 227.262 92.0761 226.041 91.3191 224.618C91.1819 224.362 90.9592 224.163 90.6972 224.058Z" fill="#263238"/>
<path d="M93.9085 219.261L86.3018 216.187L86.9985 213.399L95.1599 216.385L93.9085 219.261Z" fill="#407BFF"/>
<path d="M101.524 102.131C99.9815 106.598 95.4122 117.122 91.8921 112.738C91.2637 111.956 90.7279 111.109 90.3545 110.178C88.8599 106.49 88.4925 100.518 88.3031 99.2131L87.1039 95.1195C87.0829 95.049 87.0721 94.9753 87.0716 94.9021L87.0522 92.5645C87.0522 91.6171 87.8157 91.0538 88.8497 91.1404C88.8497 91.1404 90.5175 90.9457 90.5175 91.9421L90.8425 95.4504H90.8317C90.9995 96.6743 90.5121 98.3744 90.7994 99.495C91.8716 103.708 93.3544 103.897 94.2857 108.245C95.5795 105.11 97.9026 99.679 97.9026 99.679C99.4671 99.8733 102.033 100.658 101.524 102.131Z" fill="#FFB573"/>
<path d="M96.0073 114.343C94.9561 115.965 92.591 116.058 91.451 114.499C90.7543 113.545 90.2023 112.495 89.9623 111.704C88.5652 107.118 87.699 104.275 87.5801 99.4832C88.5549 98.4707 90.141 98.0919 91.4677 98.5627L93.7579 106.327C93.7579 106.327 98.4251 94.7332 100.309 94.3163C102.534 93.8288 103.46 95.8119 104.397 98.2539C105.072 100.012 99.047 109.654 96.0073 114.343Z" fill="#3454C1"/>
<path d="M114.853 82.7148C114.325 85.4059 113.14 91.2765 115.023 93.0724C115.023 93.0724 114.288 95.8022 109.287 95.8022C103.788 95.8022 106.659 93.0724 106.659 93.0724C109.66 92.3557 109.583 90.129 109.06 88.0383L114.853 82.7148Z" fill="#FFB573"/>
<path d="M106.442 76.368C106.475 76.368 106.507 76.3605 106.538 76.3454C106.644 76.2922 106.687 76.163 106.634 76.0571C106.102 74.9945 105.117 74.8713 105.076 74.8665C104.959 74.8519 104.852 74.938 104.838 75.0558C104.825 75.1731 104.909 75.2797 105.026 75.2931C105.059 75.2969 105.825 75.4012 106.25 76.2491C106.288 76.3245 106.364 76.3675 106.442 76.368Z" fill="#263238"/>
<path d="M104.803 78.7196C104.803 78.7196 103.993 80.2066 103.222 80.8764C103.646 81.3832 104.486 81.2794 104.486 81.2794L104.803 78.7196Z" fill="#ED893E"/>
<path d="M105.235 77.9325C105.313 78.2903 105.186 78.6212 104.952 78.6717C104.719 78.7223 104.466 78.4737 104.389 78.116C104.311 77.7582 104.438 77.4273 104.671 77.3768C104.905 77.3262 105.157 77.5753 105.235 77.9325Z" fill="#263238"/>
<path d="M104.779 77.3746L103.866 77.3133C103.866 77.3133 104.452 77.8884 104.779 77.3746Z" fill="#263238"/>
<path d="M86.0686 90.95V90.9601C86.0686 90.955 86.0635 90.955 86.0635 90.95H86.0686Z" fill="#FFB573"/>
<path opacity="0.2" d="M101.331 99.8345C102.284 98.9624 102.928 99.2228 103.367 99.9158C103.8 101.93 101.233 106.148 100.199 107.745L101.331 99.8345Z" fill="black"/>
<path d="M123.366 102.487C123.242 104.704 123.032 107.496 122.693 111.009C122.338 114.716 121.832 119.219 121.138 124.691C113.827 124.691 106.171 124.578 102.615 124.578C102.913 117.31 103.022 109.947 99.762 95.4821C99.5909 94.7219 100.089 93.9698 100.856 93.8331C102.333 93.5701 104.779 93.194 107.269 93.0724C110.368 92.9218 112.907 92.8249 115.635 93.0724C119.224 93.4006 123.302 94.2345 123.302 94.2345C123.302 94.2345 123.753 95.5687 123.366 102.487Z" fill="#3454C1"/>
<path opacity="0.2" d="M123.366 102.487C123.242 104.704 123.032 107.496 122.693 111.009C120.724 108.728 118.863 100.873 119.454 98.1888C120.907 99.1787 122.252 100.701 123.28 102.062C123.312 102.192 123.344 102.331 123.366 102.487Z" fill="black"/>
<path d="M142.351 112.334L146.098 110.228L146.798 114.064C146.798 114.064 143.622 115.28 141.941 114.428L142.351 112.334Z" fill="#FFB573"/>
<path d="M148.608 110.663L148.868 111.915C148.95 112.309 148.786 112.713 148.454 112.939L146.798 114.064L146.098 110.228L147.394 109.903C147.941 109.765 148.493 110.111 148.608 110.663Z" fill="#FFB573"/>
<path d="M119.757 98.6805C120.958 101.124 125.362 110.349 127.298 112.481L127.677 112.879L127.866 113.077C127.931 113.144 127.982 113.203 128.086 113.293C128.449 113.635 128.836 113.922 129.227 114.156C130.013 114.627 130.808 114.903 131.573 115.103C133.106 115.486 134.561 115.548 135.974 115.521C138.804 115.41 141.452 114.935 144.098 114.141L143.617 111.895C142.376 112 141.073 112.077 139.812 112.098C138.546 112.133 137.288 112.097 136.073 111.979C134.863 111.874 133.683 111.662 132.686 111.32C132.194 111.145 131.76 110.923 131.435 110.689C131.272 110.572 131.141 110.45 131.035 110.332C131.013 110.315 130.959 110.248 130.913 110.193L130.773 110.025L130.492 109.691C129.006 107.83 125.084 98.857 123.906 96.6141L119.757 98.6805Z" fill="#FFB573"/>
<path d="M142.292 116.152C139.238 117.797 135.519 118.16 132.205 117.132C129.054 116.152 126.249 113.867 124.625 110.992C122.681 108.133 117.511 100.052 118.16 97.9623C118.929 95.466 120.564 93.9176 123.298 94.589C125.221 95.0549 128.886 104.381 130.656 108.111C131.354 109.151 132.687 110.797 134.176 111.306C136.807 112.216 138.746 111.82 141.502 111.431C142.005 111.734 141.968 112.199 142.222 112.724C142.742 113.785 142.828 115.101 142.292 116.152Z" fill="#3454C1"/>
<path d="M117.565 78.4001C116.74 82.8251 116.485 84.7151 113.95 86.7251C110.137 89.7486 104.883 87.7666 104.369 83.1845C103.907 79.0602 105.335 72.517 109.919 71.2823C114.435 70.067 118.391 73.9755 117.565 78.4001Z" fill="#FFB573"/>
<path d="M133.263 102.887C132.418 103.85 132.152 104.408 130.979 104.929C129.806 105.451 127.246 104.997 126.433 104.001C126.697 104.776 128.238 106.169 129.045 106.277C127.259 107.32 124.746 106.879 123.417 105.287C123.547 106.228 124.434 107.073 125.333 107.39C115.023 107.656 119.364 102.805 112.912 95.906C105.765 88.2637 107.315 81.9482 107.315 81.9482C107.31 80.856 107.068 79.043 105.911 77.5688C104.878 76.2454 105.179 74.4592 105.507 73.4585C105.986 71.9898 107.444 71.4733 108.843 71.3872C109.089 69.9379 112.051 70.2047 112.429 70.4468C112.754 70.6545 112.837 70.6372 113.162 70.429C113.889 69.9626 115.718 69.4757 117.676 71.059C118.872 72.0258 120.149 73.7598 120.192 77.4505C120.236 81.2886 118.405 85.8417 124.749 91.6725C128.488 95.1087 126.701 102.485 133.263 102.887Z" fill="#263238"/>
<path d="M106.465 78.7342C105.921 79.4874 105.765 80.4235 105.885 81.1788C106.065 82.3145 107.172 82.3899 107.974 81.6619C108.695 81.0067 109.471 79.6262 108.88 78.6847C108.298 77.7571 107.087 77.8734 106.465 78.7342Z" fill="#FFB573"/>
<path d="M116.449 124.689C116.449 124.689 114.252 155.573 111.773 175.945C111.03 182.048 109.169 187.966 106.277 193.415L94.1253 216.312L87.9055 213.865C87.9055 213.865 92.1901 192.101 100.593 180.234C100.593 180.234 94.3212 144.764 102.53 124.58L116.449 124.689Z" fill="#2B3659"/>
<path opacity="0.2" d="M107.992 132.168C107.992 132.168 109.841 146.178 110.857 154.48C107.042 149.476 104.12 142.495 107.992 132.168Z" fill="black"/>
<path d="M132.155 228.429C132.299 228.272 132.342 228.07 132.282 227.828C132.237 227.646 132.119 227.571 132.029 227.541C131.457 227.349 130.116 228.396 129.965 228.516C129.93 228.544 129.915 228.589 129.927 228.632C129.939 228.674 129.976 228.705 130.02 228.711C130.361 228.757 130.846 228.8 131.281 228.758C131.644 228.722 131.972 228.629 132.155 228.429ZM131.957 227.749C131.995 227.762 132.041 227.788 132.064 227.88C132.105 228.049 132.081 228.18 131.988 228.281C131.771 228.518 131.157 228.605 130.32 228.523C130.869 228.12 131.655 227.647 131.957 227.749Z" fill="#407BFF"/>
<path d="M130.1 228.691C130.524 228.398 131.282 227.315 131.124 226.802C131.094 226.704 131 226.538 130.717 226.532C130.538 226.527 130.384 226.592 130.26 226.724C129.792 227.22 129.918 228.555 129.924 228.612C129.928 228.651 129.952 228.685 129.989 228.701C130.007 228.709 130.027 228.712 130.047 228.71C130.065 228.709 130.084 228.703 130.1 228.691ZM130.712 226.753C130.856 226.756 130.893 226.815 130.909 226.866C131.005 227.179 130.546 227.981 130.133 228.377C130.114 227.93 130.145 227.171 130.424 226.875C130.492 226.803 130.57 226.763 130.661 226.755C130.678 226.753 130.695 226.753 130.712 226.753Z" fill="#407BFF"/>
<path d="M124.556 229.13L129.268 228.675L127.83 217.972L123.118 218.426L124.556 229.13Z" fill="#FFB573"/>
<path d="M129.588 228.103L124.294 228.613C124.101 228.632 123.958 228.778 123.949 228.966L123.756 233.146C123.736 233.579 124.15 233.948 124.593 233.898C126.436 233.688 127.315 233.496 129.643 233.272C131.075 233.134 133.183 233.079 135.16 232.888C137.095 232.702 137.052 230.763 136.211 230.668C132.441 230.243 131.75 229.221 130.403 228.312C130.161 228.148 129.87 228.075 129.588 228.103Z" fill="#263238"/>
<path d="M121.11 124.681C121.11 124.681 127.138 161.539 128.3 183.374L128.517 222.483L123.639 223.435C123.639 223.435 116.572 198.484 115.759 184.062C113.602 145.795 101.138 145.732 108.636 124.613L121.11 124.681Z" fill="#2B3659"/>
<path d="M130.137 222.644L122.06 223.75L121.241 220.649L129.873 219.526L130.137 222.644Z" fill="#407BFF"/>
<path d="M86.0796 90.9881H86.0635L86.0688 90.9613C86.0688 90.972 86.0742 90.9774 86.0796 90.9881Z" fill="#FFB573"/>
<path d="M86.5972 85.1401H86.906C86.5955 85.1401 86.3567 85.3919 86.3728 85.7029L86.864 95.0716C86.8802 95.382 87.1454 95.6344 87.4558 95.6344H87.147C86.8366 95.6344 86.5713 95.3826 86.5552 95.0716L86.064 85.7029C86.0479 85.3919 86.2867 85.1401 86.5972 85.1401Z" fill="#407BFF"/>
<path opacity="0.1" d="M86.5972 85.1401H86.906C86.5955 85.1401 86.3567 85.3919 86.3728 85.7029L86.864 95.0716C86.8802 95.382 87.1454 95.6344 87.4558 95.6344H87.147C86.8366 95.6344 86.5713 95.3826 86.5552 95.0716L86.064 85.7029C86.0479 85.3919 86.2867 85.1401 86.5972 85.1401Z" fill="white"/>
<path d="M87.239 95.6344H91.0179C91.3289 95.6344 91.5672 95.3826 91.5511 95.0716L91.0599 85.7029C91.0438 85.3925 90.7785 85.1401 90.4681 85.1401H86.6892C86.3788 85.1401 86.1399 85.3919 86.156 85.7029L86.6472 95.0716C86.6634 95.382 86.9286 95.6344 87.239 95.6344Z" fill="#407BFF"/>
<path opacity="0.4" d="M87.239 95.6344H91.0179C91.3289 95.6344 91.5672 95.3826 91.5511 95.0716L91.0599 85.7029C91.0438 85.3925 90.7785 85.1401 90.4681 85.1401H86.6892C86.3788 85.1401 86.1399 85.3919 86.156 85.7029L86.6472 95.0716C86.6634 95.382 86.9286 95.6344 87.239 95.6344Z" fill="white"/>
<path d="M91.3148 94.8763C91.3202 94.9732 91.2879 95.0646 91.2234 95.1346C91.1588 95.1991 91.0673 95.2368 90.9705 95.2368H87.3067C87.0969 95.2368 86.9194 95.0646 86.9086 94.8548L86.4298 85.768C86.4244 85.6712 86.4567 85.5797 86.5212 85.5151C86.5858 85.4452 86.6773 85.4075 86.7741 85.4075H90.4379C90.6477 85.4075 90.8252 85.5797 90.836 85.7895L90.8683 86.4405L91.3148 94.8763Z" fill="#263238"/>
<g opacity="0.1">
<path d="M90.8684 86.4405L89.6526 95.2368H88.1946L89.5719 85.4075H90.438C90.6479 85.4075 90.8254 85.5797 90.8362 85.7895L90.8684 86.4405Z" fill="white"/>
<path d="M87.6673 95.2367H87.3386L88.7164 85.408H89.0457L87.6673 95.2367Z" fill="white"/>
</g>
<path d="M101.424 125.732C98.6847 131.103 97.1939 137.106 97.103 143.134C106.261 150.23 114.766 141.92 125.235 143.324C124.869 138.596 123.263 129.847 121.356 125.506C114.438 125.798 107.959 125.108 101.424 125.732Z" fill="#3454C1"/>
<path d="M102.377 123.812C102.377 123.812 101.638 125.706 101.85 125.706H121.044C121.209 125.706 121.346 125.626 121.356 125.522L121.521 123.884C121.533 123.77 121.389 123.674 121.209 123.674H102.675C102.538 123.674 102.418 123.73 102.377 123.812Z" fill="white"/>
<path d="M105.081 125.868H104.585C104.486 125.868 104.41 125.817 104.417 125.755L104.65 123.626C104.657 123.564 104.743 123.513 104.842 123.513H105.339C105.438 123.513 105.513 123.565 105.506 123.626L105.273 125.755C105.267 125.817 105.18 125.868 105.081 125.868Z" fill="#407BFF"/>
<path d="M117.113 125.868H116.617C116.518 125.868 116.442 125.817 116.449 125.755L116.682 123.626C116.689 123.564 116.775 123.513 116.874 123.513H117.371C117.47 123.513 117.545 123.565 117.538 123.626L117.305 125.755C117.299 125.817 117.212 125.868 117.113 125.868Z" fill="#407BFF"/>
</svg>
