<svg width="200" height="218" viewBox="0 0 200 218" fill="none" xmlns="http://www.w3.org/2000/svg">
<mask id="mask0_1257_4780" style="mask-type:luminance" maskUnits="userSpaceOnUse" x="63" y="9" width="120" height="137">
<path d="M63.0032 9H100.638C121.339 9 138.274 25.9694 138.274 46.706V70.4775C135.944 111.381 150.746 136.52 182.684 145.892C151.809 143.849 122.485 130.675 100.337 108.486C78.1887 86.2957 65.0397 56.9162 63.0004 25.9837V9H63.0032Z" fill="white"/>
</mask>
<g mask="url(#mask0_1257_4780)">
<path d="M182.687 9H63.0033V145.892H182.687V9Z" fill="#D9D9D9" fill-opacity="0.49"/>
</g>
<mask id="mask1_1257_4780" style="mask-type:luminance" maskUnits="userSpaceOnUse" x="66" y="12" width="95" height="127">
<path d="M66.4476 12.4509V25.8697C68.4699 56.107 81.3743 84.6031 102.777 106.046C118.694 121.993 138.507 133.232 160.029 138.777C116.14 112.954 92.5607 62.7978 100.638 12.4509H66.4476Z" fill="white"/>
</mask>
<g mask="url(#mask1_1257_4780)">
<path d="M160.029 12.4509H66.4476V138.777H160.029V12.4509Z" fill="#D9D9D9" fill-opacity="0.5"/>
</g>
<mask id="mask2_1257_4780" style="mask-type:luminance" maskUnits="userSpaceOnUse" x="138" y="70" width="62" height="76">
<path d="M138.273 70.4805C135.944 111.384 150.745 136.523 182.683 145.895H199.635V108.189C199.635 87.4499 182.698 70.4833 162 70.4833H138.273V70.4805Z" fill="white"/>
</mask>
<g mask="url(#mask2_1257_4780)">
<path d="M199.638 70.4805H135.944V145.895H199.638V70.4805Z" fill="#D9D9D9" fill-opacity="0.49"/>
</g>
<mask id="mask3_1257_4780" style="mask-type:luminance" maskUnits="userSpaceOnUse" x="138" y="70" width="45" height="76">
<path d="M138.273 70.4805C135.944 111.384 150.745 136.523 182.683 145.895C155.521 131.519 141.985 100.156 150.136 70.4805H138.273Z" fill="white"/>
</mask>
<g mask="url(#mask3_1257_4780)">
<path d="M182.686 70.4805H135.944V145.895H182.686V70.4805Z" fill="#D9D9D9" fill-opacity="0.49"/>
</g>
<mask id="mask4_1257_4780" style="mask-type:luminance" maskUnits="userSpaceOnUse" x="63" y="9" width="120" height="137">
<path d="M63.0032 9H100.638C121.339 9 138.274 25.9694 138.274 46.706V70.4775C135.944 111.381 150.746 136.52 182.684 145.892C151.809 143.849 122.485 130.675 100.337 108.486C78.1887 86.2957 65.0397 56.9162 63.0004 25.9837V9H63.0032Z" fill="white"/>
</mask>
<g mask="url(#mask4_1257_4780)">
<path d="M182.687 9H63.0033V145.892H182.687V9Z" fill="#D9D9D9" fill-opacity="0.49"/>
</g>
<mask id="mask5_1257_4780" style="mask-type:luminance" maskUnits="userSpaceOnUse" x="66" y="12" width="95" height="127">
<path d="M66.4476 12.4509V25.8697C68.4699 56.107 81.3743 84.6031 102.777 106.046C118.694 121.993 138.507 133.232 160.029 138.777C116.14 112.954 92.5607 62.7978 100.638 12.4509H66.4476Z" fill="white"/>
</mask>
<g mask="url(#mask5_1257_4780)">
<path d="M160.029 12.4509H66.4476V138.777H160.029V12.4509Z" fill="#D9D9D9" fill-opacity="0.5"/>
</g>
<mask id="mask6_1257_4780" style="mask-type:luminance" maskUnits="userSpaceOnUse" x="138" y="70" width="45" height="76">
<path d="M138.273 70.4805C135.944 111.384 150.745 136.523 182.683 145.895C155.521 131.519 141.985 100.156 150.136 70.4805H138.273Z" fill="white"/>
</mask>
<g mask="url(#mask6_1257_4780)">
<path d="M182.686 70.4805H135.944V145.895H182.686V70.4805Z" fill="#D9D9D9" fill-opacity="0.49"/>
</g>
<mask id="mask7_1257_4780" style="mask-type:luminance" maskUnits="userSpaceOnUse" x="138" y="70" width="62" height="76">
<path d="M138.273 70.4805C135.944 111.384 150.745 136.523 182.683 145.895H199.635V108.189C199.635 87.4499 182.698 70.4833 162 70.4833H138.273V70.4805Z" fill="white"/>
</mask>
<g mask="url(#mask7_1257_4780)">
<path d="M199.638 70.4805H135.944V145.895H199.638V70.4805Z" fill="#D9D9D9" fill-opacity="0.49"/>
</g>
<mask id="mask8_1257_4780" style="mask-type:luminance" maskUnits="userSpaceOnUse" x="63" y="9" width="120" height="137">
<path d="M63.0032 9H100.638C121.339 9 138.274 25.9694 138.274 46.706V70.4775C135.944 111.381 150.746 136.52 182.684 145.892C151.809 143.849 122.485 130.675 100.337 108.486C78.1887 86.2957 65.0397 56.9162 63.0004 25.9837V9H63.0032Z" fill="white"/>
</mask>
<g mask="url(#mask8_1257_4780)">
<path d="M182.687 9H63.0033V145.892H182.687V9Z" fill="#D9D9D9" fill-opacity="0.49"/>
</g>
<mask id="mask9_1257_4780" style="mask-type:luminance" maskUnits="userSpaceOnUse" x="66" y="12" width="95" height="127">
<path d="M66.4476 12.4509V25.8697C68.4699 56.107 81.3743 84.6031 102.777 106.046C118.694 121.993 138.507 133.232 160.029 138.777C116.14 112.954 92.5607 62.7978 100.638 12.4509H66.4476Z" fill="white"/>
</mask>
<g mask="url(#mask9_1257_4780)">
<path d="M160.029 12.4509H66.4476V138.777H160.029V12.4509Z" fill="#D9D9D9" fill-opacity="0.5"/>
</g>
<mask id="mask10_1257_4780" style="mask-type:luminance" maskUnits="userSpaceOnUse" x="138" y="70" width="45" height="76">
<path d="M138.273 70.4805C135.944 111.384 150.745 136.523 182.683 145.895C155.521 131.519 141.985 100.156 150.136 70.4805H138.273Z" fill="white"/>
</mask>
<g mask="url(#mask10_1257_4780)">
<path d="M182.686 70.4805H135.944V145.895H182.686V70.4805Z" fill="#D9D9D9" fill-opacity="0.49"/>
</g>
<mask id="mask11_1257_4780" style="mask-type:luminance" maskUnits="userSpaceOnUse" x="138" y="70" width="62" height="76">
<path d="M138.273 70.4805C135.944 111.384 150.745 136.523 182.683 145.895H199.635V108.189C199.635 87.4499 182.698 70.4833 162 70.4833H138.273V70.4805Z" fill="white"/>
</mask>
<g mask="url(#mask11_1257_4780)">
<path d="M199.638 70.4805H135.944V145.895H199.638V70.4805Z" fill="#D9D9D9" fill-opacity="0.49"/>
</g>
<g clip-path="url(#clip0_1257_4780)">
<mask id="mask12_1257_4780" style="mask-type:luminance" maskUnits="userSpaceOnUse" x="17" y="77" width="120" height="138">
<path d="M136.171 214.908L98.5373 214.628C77.8374 214.474 61.0295 197.379 61.1839 176.643L61.3609 152.872C63.9947 111.987 49.3808 86.7387 17.5133 77.1288C48.3716 79.4018 77.597 92.7935 99.5794 115.148C121.562 137.502 134.492 166.978 136.301 197.925L136.174 214.908L136.171 214.908Z" fill="white"/>
</mask>
<g mask="url(#mask12_1257_4780)">
<path d="M16.4913 214.017L136.171 214.908L137.19 78.0198L17.5104 77.1288L16.4913 214.017Z" fill="#D9D9D9" fill-opacity="0.49"/>
</g>
<mask id="mask13_1257_4780" style="mask-type:luminance" maskUnits="userSpaceOnUse" x="40" y="84" width="93" height="128">
<path d="M132.753 211.432L132.853 198.014C131.056 167.762 118.364 139.171 97.1215 117.569C81.3242 101.504 61.5954 90.1183 40.1148 84.4129C83.811 110.562 107.016 160.892 98.5636 211.178L132.753 211.432Z" fill="white"/>
</mask>
<g mask="url(#mask13_1257_4780)">
<path d="M39.1743 210.735L132.753 211.432L133.694 85.1096L40.1148 84.4129L39.1743 210.735Z" fill="#D9D9D9" fill-opacity="0.5"/>
</g>
<mask id="mask14_1257_4780" style="mask-type:luminance" maskUnits="userSpaceOnUse" x="0" y="77" width="62" height="76">
<path d="M61.3606 152.87C63.9945 111.985 49.3805 86.736 17.513 77.1261L0.56176 76.9999L0.281055 114.705C0.126659 135.444 16.9374 152.536 37.6345 152.69L61.3606 152.867L61.3606 152.87Z" fill="white"/>
</mask>
<g mask="url(#mask14_1257_4780)">
<path d="M-0.00255288 152.413L63.6899 152.887L64.2514 77.4741L0.558878 77L-0.00255288 152.413Z" fill="#D9D9D9" fill-opacity="0.49"/>
</g>
<mask id="mask15_1257_4780" style="mask-type:luminance" maskUnits="userSpaceOnUse" x="17" y="77" width="45" height="76">
<path d="M61.3606 152.87C63.9945 111.985 49.3805 86.736 17.513 77.1261C44.5679 91.7042 57.8699 123.167 49.4975 152.781L61.3606 152.87Z" fill="white"/>
</mask>
<g mask="url(#mask15_1257_4780)">
<path d="M16.9488 152.539L63.6899 152.887L64.2514 77.4741L17.5102 77.1262L16.9488 152.539Z" fill="#D9D9D9" fill-opacity="0.49"/>
</g>
<mask id="mask16_1257_4780" style="mask-type:luminance" maskUnits="userSpaceOnUse" x="0" y="77" width="62" height="76">
<path d="M61.3605 152.87C63.9944 111.985 49.3804 86.736 17.5129 77.1261L0.561638 76.9999L0.280933 114.705C0.126537 135.444 16.9373 152.536 37.6344 152.69L61.3605 152.867L61.3605 152.87Z" fill="white"/>
</mask>
<g mask="url(#mask16_1257_4780)">
<path d="M-0.00267495 152.413L63.6898 152.887L64.2513 77.4741L0.558756 77L-0.00267495 152.413Z" fill="#D9D9D9" fill-opacity="0.49"/>
</g>
<mask id="mask17_1257_4780" style="mask-type:luminance" maskUnits="userSpaceOnUse" x="17" y="77" width="45" height="76">
<path d="M61.3605 152.87C63.9944 111.985 49.3804 86.736 17.5129 77.1261C44.5678 91.7042 57.8697 123.167 49.4974 152.781L61.3605 152.87Z" fill="white"/>
</mask>
<g mask="url(#mask17_1257_4780)">
<path d="M16.9486 152.539L63.6898 152.887L64.2513 77.4741L17.5101 77.1262L16.9486 152.539Z" fill="#D9D9D9" fill-opacity="0.49"/>
</g>
<mask id="mask18_1257_4780" style="mask-type:luminance" maskUnits="userSpaceOnUse" x="17" y="77" width="120" height="138">
<path d="M136.171 214.908L98.5372 214.628C77.8373 214.474 61.0294 197.379 61.1838 176.643L61.3607 152.872C63.9946 111.987 49.3807 86.7387 17.5132 77.1288C48.3715 79.4018 77.5969 92.7935 99.5793 115.148C121.562 137.502 134.492 166.978 136.301 197.925L136.174 214.908L136.171 214.908Z" fill="white"/>
</mask>
<g mask="url(#mask18_1257_4780)">
<path d="M16.4912 214.017L136.171 214.908L137.19 78.0198L17.5103 77.1288L16.4912 214.017Z" fill="#D9D9D9" fill-opacity="0.49"/>
</g>
<mask id="mask19_1257_4780" style="mask-type:luminance" maskUnits="userSpaceOnUse" x="40" y="84" width="93" height="128">
<path d="M132.753 211.432L132.853 198.014C131.056 167.762 118.364 139.171 97.1214 117.569C81.3241 101.504 61.5952 90.1183 40.1146 84.4129C83.8109 110.562 107.016 160.892 98.5634 211.178L132.753 211.432Z" fill="white"/>
</mask>
<g mask="url(#mask19_1257_4780)">
<path d="M39.1742 210.735L132.753 211.432L133.694 85.1096L40.1146 84.4129L39.1742 210.735Z" fill="#D9D9D9" fill-opacity="0.5"/>
</g>
<mask id="mask20_1257_4780" style="mask-type:luminance" maskUnits="userSpaceOnUse" x="0" y="77" width="62" height="76">
<path d="M61.3605 152.87C63.9944 111.985 49.3804 86.736 17.5129 77.1261L0.561638 76.9999L0.280933 114.705C0.126537 135.444 16.9373 152.536 37.6344 152.69L61.3605 152.867L61.3605 152.87Z" fill="white"/>
</mask>
<g mask="url(#mask20_1257_4780)">
<path d="M-0.00267495 152.413L63.6898 152.887L64.2513 77.4741L0.558756 77L-0.00267495 152.413Z" fill="#D9D9D9" fill-opacity="0.49"/>
</g>
<mask id="mask21_1257_4780" style="mask-type:luminance" maskUnits="userSpaceOnUse" x="17" y="77" width="45" height="76">
<path d="M61.3605 152.87C63.9944 111.985 49.3804 86.736 17.5129 77.1261C44.5678 91.7042 57.8697 123.167 49.4974 152.781L61.3605 152.87Z" fill="white"/>
</mask>
<g mask="url(#mask21_1257_4780)">
<path d="M16.9486 152.539L63.6898 152.887L64.2513 77.4741L17.5101 77.1262L16.9486 152.539Z" fill="#D9D9D9" fill-opacity="0.49"/>
</g>
<mask id="mask22_1257_4780" style="mask-type:luminance" maskUnits="userSpaceOnUse" x="17" y="77" width="120" height="138">
<path d="M136.171 214.908L98.5372 214.628C77.8373 214.474 61.0294 197.379 61.1838 176.643L61.3607 152.872C63.9946 111.987 49.3807 86.7387 17.5132 77.1288C48.3715 79.4018 77.5969 92.7935 99.5793 115.148C121.562 137.502 134.492 166.978 136.301 197.925L136.174 214.908L136.171 214.908Z" fill="white"/>
</mask>
<g mask="url(#mask22_1257_4780)">
<path d="M16.4912 214.017L136.171 214.908L137.19 78.0198L17.5103 77.1288L16.4912 214.017Z" fill="#D9D9D9" fill-opacity="0.49"/>
</g>
<mask id="mask23_1257_4780" style="mask-type:luminance" maskUnits="userSpaceOnUse" x="40" y="84" width="93" height="128">
<path d="M132.753 211.432L132.853 198.014C131.056 167.762 118.364 139.171 97.1214 117.569C81.3241 101.504 61.5952 90.1183 40.1146 84.4129C83.8109 110.562 107.016 160.892 98.5634 211.178L132.753 211.432Z" fill="white"/>
</mask>
<g mask="url(#mask23_1257_4780)">
<path d="M39.1742 210.735L132.753 211.432L133.694 85.1096L40.1146 84.4129L39.1742 210.735Z" fill="#D9D9D9" fill-opacity="0.5"/>
</g>
</g>
<defs>
<clipPath id="clip0_1257_4780">
<rect width="198" height="214" fill="white" transform="translate(197.995 215.468) rotate(-179.573)"/>
</clipPath>
</defs>
</svg>
