<svg width="37" height="34" viewBox="0 0 37 34" fill="none" xmlns="http://www.w3.org/2000/svg">
<path d="M16.1442 1.05968C15.5588 1.65226 16.2598 2.60617 17.0186 2.23761C17.3366 2.07863 17.4666 1.83293 17.4233 1.46437C17.3727 1.06691 17.1198 0.850114 16.6862 0.850114C16.4188 0.850114 16.3176 0.893473 16.1442 1.05968Z" fill="#11319E"/>
<path d="M19.1721 1.18251C18.9191 1.31982 18.8252 1.49326 18.8252 1.85458C18.8252 2.32431 19.0275 2.48329 19.873 2.70009C20.2705 2.79403 20.8414 2.96025 21.1449 3.06142C21.6436 3.2204 21.7447 3.23486 22.1566 3.16259C22.807 3.06142 23.2695 3.07587 23.7465 3.20595C24.2523 3.35048 24.6281 3.64677 24.8594 4.09481C24.9533 4.28993 25.1123 4.4706 25.2207 4.52118C25.3219 4.57177 25.7121 4.6079 26.0951 4.6079C28.1475 4.6079 29.7229 5.54013 29.9975 6.91317C30.0408 7.10829 30.0336 7.11552 29.4482 7.23114C28.2775 7.45517 27.2803 8.12724 26.8611 8.95829C26.6443 9.40634 26.6516 9.68095 26.9117 9.97001C27.0924 10.1724 27.1719 10.2085 27.4682 10.2085C27.7789 10.2085 27.8223 10.1868 28.0318 9.91942C28.7545 9.00888 29.1809 8.75595 30.1492 8.67646C30.6334 8.64032 30.6984 8.64755 31.1971 8.88603C32.0498 9.29071 32.4834 9.74599 32.4834 10.2446C32.4834 10.5554 32.6424 10.8372 32.9314 11.0323C33.4518 11.3936 33.7842 12.1091 33.683 12.6511C33.6396 12.8751 33.6107 12.8968 33.2133 12.9763C31.8547 13.2581 30.843 14.2626 30.6117 15.5706C30.4744 16.3005 30.7201 16.6763 31.3271 16.6763C31.7391 16.6763 31.992 16.4161 32.1148 15.8597C32.2738 15.137 32.8592 14.5806 33.5818 14.4649C33.8203 14.4216 33.8637 14.4505 34.2467 14.8335C34.7381 15.3393 35.1861 16.1993 35.3451 16.9653C35.4969 17.688 35.4463 19.3284 35.2367 20.2751C34.9838 21.4169 34.5936 22.472 34.2105 23.0573C33.5963 23.9968 32.7363 24.6327 31.9486 24.7411C31.6523 24.7845 31.5873 24.7628 31.0164 24.3798C29.7807 23.5559 27.5043 22.6815 26.89 22.7972C26.5576 22.8622 26.3408 23.1585 26.3408 23.5415C26.3408 24.0184 26.5215 24.163 27.5115 24.4593C28.3932 24.7267 29.4555 25.1964 30.1203 25.6227L30.5467 25.8901L30.5033 26.237C30.4021 27.1403 29.7012 28.0003 28.6533 28.5134C27.8584 28.9036 27.1719 29.0481 26.124 29.0481C25.1412 29.0481 24.4547 28.9253 23.508 28.5712C23.125 28.4267 22.7059 28.311 22.5686 28.311C22.2939 28.311 22.041 28.5061 21.9254 28.7952C21.8459 29.012 21.8459 30.7392 21.9326 31.2378C21.9615 31.4329 21.976 31.6136 21.9615 31.628C21.9182 31.6714 20.5596 31.9171 20.3355 31.9243C20.1477 31.9243 20.1404 31.8954 19.8441 30.6886C19.201 28.0942 18.4494 26.3309 17.4594 25.0735C17.2932 24.8712 17.1631 24.6905 17.1631 24.6688C17.1631 24.5749 19.6057 24.1196 20.9064 23.9751C21.2822 23.9317 21.658 23.8522 21.7592 23.7872C22.2 23.4981 22.1133 22.7032 21.6146 22.4936C21.3979 22.3997 21.2461 22.3997 20.4367 22.4936C19.1432 22.6454 18.0592 22.8477 16.5416 23.2163C13.7955 23.8811 11.5408 23.78 10.1172 22.9272C9.50293 22.5587 8.95371 21.995 8.69355 21.453C8.49121 21.0483 8.45508 20.9038 8.42617 20.1739C8.38281 19.4007 8.36836 19.3429 8.1877 19.155C8.01426 18.9815 7.94922 18.9671 7.60957 18.9888C6.68457 19.0538 5.98359 18.996 5.27539 18.8153C3.84453 18.4468 2.84004 17.7964 2.4498 16.987C2.25469 16.5895 2.24023 16.5245 2.2041 15.2815C2.2041 15.2093 2.03789 14.9997 1.84277 14.8046C1.3875 14.3565 1.36582 14.1181 1.73438 13.446C2.01621 12.9257 2.03789 12.7667 1.87168 12.0729C1.79219 11.7261 1.76328 11.372 1.78496 10.8806C1.81387 10.2735 1.85 10.1145 2.04512 9.71708C2.34863 9.10282 2.85449 8.64032 3.60605 8.28622C3.93848 8.13446 4.24922 7.96103 4.29258 7.90321C4.33594 7.8454 4.44434 7.57079 4.52383 7.28173C4.8707 6.01708 5.65117 5.57626 7.14707 5.80028C7.66738 5.87978 7.88418 5.71356 8.12988 5.06317C8.23828 4.76689 8.62129 4.37665 9.02598 4.13817C9.41621 3.91415 10.3484 3.66845 10.8398 3.66845H11.2084L11.5047 4.18876C12.09 5.23661 12.2129 6.11102 11.8949 6.94208C11.6348 7.61415 11.8154 8.05497 12.3936 8.18505C12.9572 8.3079 13.3041 7.83095 13.5932 6.53017C13.651 6.29169 13.7016 6.22665 13.9111 6.15438C14.0484 6.1038 14.3592 6.06044 14.5977 6.06044C15.1324 6.05321 15.4287 6.2122 15.7033 6.66747C16.1225 7.36845 16.9535 7.35399 17.1703 6.63857C17.2498 6.37841 17.2354 6.31337 17.0619 5.95204C16.809 5.43173 16.202 4.88251 15.66 4.68017C15.3059 4.54286 15.1469 4.52841 14.4893 4.55731C14.0701 4.57899 13.6582 4.61513 13.5643 4.64403C13.427 4.68739 13.3908 4.66571 13.3547 4.53563C13.333 4.44892 13.1885 4.1165 13.0367 3.79853C12.8777 3.48056 12.7549 3.19872 12.7549 3.16259C12.7549 3.13368 13.0873 2.99638 13.4992 2.8663C14.3809 2.57724 14.5615 2.41825 14.5615 1.95575C14.5615 1.53661 14.2652 1.21142 13.8822 1.21142C13.5498 1.21142 12.5742 1.52216 11.8877 1.84013C11.4324 2.05693 11.2301 2.10751 10.623 2.15087C9.71973 2.22314 9.10547 2.3749 8.45508 2.70009C7.84805 2.99638 7.35664 3.40107 7.05312 3.86357L6.8291 4.20321L6.26543 4.22489C5.24648 4.26103 4.38652 4.63681 3.82285 5.27997C3.55547 5.59071 3.07129 6.50126 3.07129 6.7036C3.07129 6.76142 2.87617 6.91317 2.61602 7.04325C1.58984 7.58525 0.787695 8.49579 0.4625 9.50751C0.267383 10.1145 0.195117 11.4298 0.317969 12.1163C0.404687 12.5788 0.397461 12.6149 0.202344 13.0268C0.0216797 13.4099 0 13.5399 0 14.1831C0 14.9636 0.0794922 15.202 0.469727 15.6284C0.635938 15.8091 0.679297 15.9319 0.71543 16.3583C0.838281 17.7819 1.70547 18.9454 3.16523 19.6681C4.15527 20.1522 5.7668 20.5786 6.60508 20.5786H6.87246L6.95195 21.0267C7.26992 22.8622 8.68633 24.2569 10.8398 24.8784C11.8154 25.1602 12.7477 25.2325 14.1785 25.1313L15.3926 25.0518L15.7756 25.471C16.5777 26.3454 17.2498 27.5233 17.7412 28.9253C17.8641 29.2794 18.1604 30.3128 18.3916 31.2161C18.883 33.1095 18.9697 33.3407 19.3021 33.4997C19.5262 33.6009 19.6346 33.5936 21.1883 33.3407C23.2262 33.0083 23.3346 32.9794 23.5152 32.7409C23.6959 32.5241 23.7031 32.2423 23.5586 31.6208C23.5008 31.3679 23.4357 30.9415 23.4068 30.6669L23.3563 30.1683L23.5297 30.2188C25.0545 30.6669 26.7311 30.7102 28.1475 30.3417C30.1348 29.8214 31.5512 28.5061 31.9631 26.8151L32.0859 26.2948L32.4689 26.2081C33.0398 26.0925 33.907 25.6227 34.4201 25.1602C35.5764 24.1124 36.1979 22.9128 36.7182 20.687C36.9061 19.8921 36.9205 19.7042 36.9277 18.3384C36.9277 17.1171 36.9061 16.7702 36.7904 16.3511C36.5375 15.3899 36.0389 14.4722 35.4029 13.7856L35.1066 13.4604L35.1789 12.969C35.3234 12.0007 35.0055 10.9384 34.3479 10.2085C34.1672 10.0061 33.9793 9.71708 33.9287 9.5581C33.6975 8.80653 33.0254 8.08388 32.1365 7.62138C31.7246 7.40458 31.6162 7.31063 31.6162 7.18778C31.6162 6.87704 31.3922 6.15438 31.132 5.61962C30.4383 4.18876 28.7834 3.24208 26.76 3.112L26.059 3.06865L25.8783 2.80849C25.293 1.97021 24.05 1.52216 22.5324 1.60165C21.9037 1.63056 21.6508 1.61611 21.4123 1.52939C21.0004 1.38486 19.6924 1.06689 19.5117 1.06689C19.4322 1.07411 19.2805 1.11747 19.1721 1.18251Z" fill="#11319E"/>
<path d="M19.5551 4.39111C18.9481 4.53565 18.7096 5.25107 19.136 5.67022C19.3311 5.86533 19.3528 5.87256 20.1838 5.87256C20.9788 5.87256 21.051 5.88701 21.369 6.0749C21.7448 6.2917 22.0049 6.66748 22.1928 7.25283C22.3518 7.73701 22.5758 7.93213 22.9877 7.93213C23.5586 7.93213 23.8405 7.48408 23.6743 6.85537C23.3491 5.60518 22.5108 4.71631 21.3907 4.42725C20.9426 4.31162 19.9743 4.28994 19.5551 4.39111Z" fill="#11319E"/>
<path d="M5.52113 8.54633C5.21038 8.71977 5.13089 9.00161 5.23929 9.63032C5.43441 10.7866 5.06585 11.4803 3.98187 11.9717C3.63499 12.1235 3.51214 12.2247 3.43988 12.3981C3.23753 12.8895 3.53382 13.4026 4.06136 13.4748C4.28538 13.5038 4.44437 13.4532 4.91409 13.2147C5.23206 13.0557 5.60062 12.81 5.73792 12.6727L5.98363 12.4198L6.17152 12.5498C6.51839 12.7956 7.05316 12.9329 7.66019 12.9329C8.31058 12.9401 8.67913 12.8534 9.33675 12.5571C10.1028 12.2102 10.2907 11.6176 9.7848 11.1623C9.59691 10.9889 9.51019 10.96 9.25726 10.9889C9.09827 11.0034 8.7514 11.1118 8.49124 11.2202C7.91312 11.4659 7.38558 11.4875 7.03148 11.278L6.793 11.1407L6.81468 10.5264C6.84359 9.91215 6.74241 9.15336 6.59066 8.82094C6.43167 8.47407 5.90413 8.33676 5.52113 8.54633Z" fill="#11319E"/>
<path d="M17.1703 10.5626C16.7728 10.7866 16.7078 11.2419 16.9752 11.9935C17.2064 12.6439 17.5967 13.3304 17.9797 13.7568C18.2254 14.0314 18.2904 14.147 18.247 14.2554C18.1531 14.5011 17.7267 14.8696 17.2715 15.1009C17.033 15.2237 16.7801 15.3683 16.715 15.4261C16.426 15.679 16.491 16.3366 16.8306 16.5679C17.4232 16.987 18.948 16.1415 19.5912 15.0286C19.5984 15.0142 19.808 15.072 20.0609 15.1587C20.3644 15.2599 20.7908 15.3321 21.2822 15.3538C22.0121 15.39 22.0554 15.39 22.2433 15.2237C22.6408 14.8769 22.6191 14.2554 22.2 14.0025C22.041 13.9013 21.8387 13.8579 21.5713 13.8579C20.0609 13.8579 18.8252 12.8462 18.3554 11.2347C18.1603 10.5698 17.6689 10.288 17.1703 10.5626Z" fill="#11319E"/>
<path d="M23.2262 11.1769C23.06 11.3503 23.0166 11.4515 23.0166 11.7189C23.0166 11.9791 23.0527 12.073 23.2189 12.2175C23.3273 12.3187 23.6381 12.6005 23.9055 12.8535C25.0473 13.9085 25.2641 15.231 24.5342 16.6691C24.3969 16.9437 24.3174 17.2183 24.3174 17.399C24.3174 18.0349 25.04 18.3529 25.5242 17.9482C25.7916 17.7242 26.1529 16.9437 26.348 16.1632C26.4709 15.6791 26.4926 15.4261 26.4637 14.8335C26.4059 13.6628 25.9939 12.7523 25.1123 11.8562C24.2234 10.9457 23.6598 10.7505 23.2262 11.1769Z" fill="#11319E"/>
<path d="M10.9699 14.1831C10.6664 14.3131 10.5146 14.6239 10.5146 15.137C10.5074 15.6717 10.334 16.062 9.86423 16.5606L9.50291 16.9436L9.09099 16.7991C8.7947 16.6907 8.42615 16.6401 7.81912 16.6184C6.90857 16.5895 6.61951 16.6473 6.43162 16.9219C6.25818 17.1604 6.29431 17.6446 6.49666 17.8831C6.66287 18.071 6.699 18.0854 7.55896 18.1215C8.26716 18.1577 8.51287 18.201 8.74412 18.3167C9.34392 18.6346 9.62576 19.1116 9.6908 19.9137C9.74861 20.6147 9.77752 20.7159 9.98709 20.911C10.1894 21.0989 10.623 21.1495 10.8832 21.0122C11.1072 20.8893 11.2373 20.5497 11.2373 20.051C11.2373 19.5235 11.0133 18.5696 10.8037 18.2155L10.6664 17.977L11.0638 17.5651C12.1334 16.445 12.4441 14.4504 11.5914 14.1542C11.3023 14.053 11.2517 14.0602 10.9699 14.1831Z" fill="#11319E"/>
<path d="M28.1257 17.5001C27.8295 17.7747 27.8078 18.1144 28.0463 18.548C28.292 19.0105 29.0146 19.7114 29.4988 19.9499L29.8673 20.1378L29.8023 20.4124C29.7662 20.5642 29.7373 20.9327 29.7373 21.2363C29.7373 22.1902 30.1203 23.1079 30.7345 23.6138C31.3054 24.0835 32.0498 23.78 32.0498 23.0863C32.0498 22.8189 32.0064 22.7249 31.7824 22.4864C31.6379 22.3347 31.4644 22.0745 31.3922 21.9155C31.2404 21.5976 31.2115 20.9761 31.3271 20.5714C31.3922 20.3329 31.4283 20.304 31.7968 20.2245C32.2666 20.1161 33.0687 19.7331 33.4084 19.4441C33.6035 19.2851 33.6613 19.1695 33.6902 18.9093C33.7263 18.613 33.7047 18.548 33.5095 18.3312C33.3216 18.1216 33.2494 18.0855 32.9675 18.0927C32.758 18.0999 32.5701 18.1577 32.4256 18.2589C31.3705 19.0032 30.366 18.9527 29.6506 18.1071C29.0002 17.3411 28.9785 17.3267 28.6316 17.3267C28.3931 17.3267 28.2631 17.37 28.1257 17.5001Z" fill="#11319E"/>
<path d="M19.8658 18.1505C19.7358 18.2083 19.5334 18.3962 19.4178 18.5768C19.0781 19.061 18.5072 19.538 18.0809 19.6897C17.575 19.8632 16.6861 19.8632 16.1008 19.6825C15.5299 19.5091 15.2481 19.5741 15.0096 19.9282C14.8795 20.1161 14.8506 20.2462 14.8795 20.4268C14.9518 20.8821 15.2481 21.0845 16.0936 21.2579C17.9219 21.6337 19.5695 21.0339 20.5596 19.6247C21.0004 19.0032 21.0365 18.6852 20.7258 18.3384C20.4873 18.0782 20.1766 18.0132 19.8658 18.1505Z" fill="#11319E"/>
<path d="M23.6598 22.5948C23.284 22.9778 23.4286 23.6643 23.92 23.8305C24.5776 24.0473 25.1557 23.4475 24.8956 22.8116C24.7004 22.3563 24.0211 22.2335 23.6598 22.5948Z" fill="#11319E"/>
</svg>
