<svg width="27" height="35" viewBox="0 0 27 35" fill="none" xmlns="http://www.w3.org/2000/svg">
<path d="M2.255 0.123142C1.97473 0.300877 1.83801 0.464939 1.70813 0.786228C1.53039 1.19638 1.61926 1.53135 2.09094 2.26279C2.65149 3.13095 2.94543 3.71885 3.10949 4.32041C3.23938 4.79209 3.24621 5.01084 3.24621 8.95517V13.0978L3.02063 13.3712C2.22766 14.3077 1.59192 15.6817 1.26379 17.1583C1.00402 18.3409 0.956173 18.9767 0.963009 21.089C0.969845 24.0147 1.1886 25.628 1.68078 26.4005C1.87902 26.7081 2.20715 26.9337 2.47375 26.9337C2.56262 26.9337 2.6925 27.1183 2.92492 27.5694L3.24621 28.1983V30.3585C3.24621 31.5479 3.27356 32.6759 3.31457 32.8741C3.46496 33.6739 3.99133 34.3712 4.75695 34.7745C5.09875 34.9522 5.18762 34.9659 5.87805 34.9659C6.54797 34.9659 6.67102 34.9454 7.01281 34.7882C7.22473 34.6856 7.52551 34.4942 7.68274 34.3507L7.96301 34.0978L8.23645 34.337C8.38 34.4737 8.66711 34.672 8.86535 34.7745C9.20031 34.9522 9.28918 34.9659 9.97961 34.9659C10.6974 34.9659 10.7589 34.9522 11.1964 34.7403C11.5109 34.5831 11.7501 34.3985 11.9757 34.1388C12.2491 33.8243 12.3312 33.7696 12.4747 33.8038C12.5704 33.8175 13.2198 33.8653 13.9239 33.9063C15.4552 33.9815 16.337 34.1046 17.7042 34.4259C19.6935 34.8907 19.9464 34.9386 20.9855 34.9728C21.8195 35.0069 22.0929 34.9933 22.4484 34.8976C24.3693 34.3985 25.5519 32.7306 25.9552 29.962C26.0851 29.087 26.0577 27.0704 25.9142 26.1134C25.4152 22.88 24.0821 19.2569 22.3321 16.3722C21.9698 15.7774 21.9562 15.7433 21.9698 15.3058C22.004 14.1915 21.4913 12.92 20.6095 11.8946L20.2814 11.5187L20.6779 11.505C22.3116 11.4571 23.1593 9.57724 22.1749 8.18955C21.8536 7.73838 20.8009 7.30088 19.5499 7.08896L19.003 6.99326L19.0167 6.76084C19.0782 5.3458 19.0236 4.95615 18.6749 4.26572C18.2648 3.46592 17.5607 2.79599 16.6788 2.36533L16.1866 2.12607L16.1525 1.68857C16.0704 0.663181 15.3663 9.53674e-05 14.3751 9.53674e-05C13.8898 9.53674e-05 13.4523 0.170994 13.131 0.464939C12.878 0.704197 12.6114 1.27158 12.6114 1.5792C12.6114 1.80478 12.5909 1.83213 12.3995 1.87314C12.2833 1.89365 12.1603 1.91416 12.1329 1.91416C12.1056 1.91416 12.0099 1.73642 11.921 1.51767C11.7091 0.977634 11.4972 0.690525 11.1691 0.471775C10.2189 -0.170803 8.87219 0.464939 8.74231 1.61338C8.71496 1.87314 8.76281 2.16025 8.97473 2.90537L9.24817 3.85556L9.06359 4.13584C8.95422 4.28623 8.8175 4.51181 8.75598 4.63486C8.60559 4.92881 8.50988 4.86045 8.50988 4.45713C8.50305 4.05381 8.31164 3.19248 8.07922 2.5499C7.63488 1.32627 7.11535 0.642673 6.32922 0.253025L5.88488 0.0342751L4.16906 0.0137672C2.58996 9.53674e-05 2.44641 0.0069313 2.255 0.123142ZM5.69348 1.33994C6.20617 1.55185 6.62317 2.12607 6.95129 3.07627C7.28625 4.05381 7.29992 4.14951 7.32727 7.7999L7.35461 11.2589L6.95813 11.3956C6.73938 11.4776 6.32238 11.5597 6.02844 11.5802C5.55676 11.6144 5.25598 11.7032 4.56555 12.0108C4.49719 12.0382 4.47668 11.2862 4.47668 8.36045C4.47668 4.85361 4.46984 4.64853 4.33313 4.09482C4.16906 3.43857 3.6632 2.32431 3.25305 1.72275C3.10266 1.49033 2.97277 1.29209 2.97277 1.27158C2.97277 1.24424 3.52649 1.23056 4.20324 1.23056C5.16711 1.23056 5.49524 1.25107 5.69348 1.33994ZM14.628 1.27158C14.8331 1.35361 14.9357 1.68174 14.9357 2.24912C14.9357 2.92588 15.0314 3.04892 15.7423 3.31553C16.9181 3.75303 17.7316 4.68271 17.7931 5.65342C17.8273 6.10459 17.7657 6.74717 17.6837 6.88388C17.6564 6.9249 17.2941 6.99326 16.8361 7.03428C15.9816 7.11631 15.0655 7.34873 14.5255 7.62217C14.1017 7.83408 14.088 7.83408 14.2111 7.59482C14.3546 7.32138 14.7101 7.04111 14.9083 7.04111C15.1134 7.04111 15.3458 6.9249 15.462 6.77451C15.6124 6.57627 15.5714 6.16611 15.3732 5.96787C15.2159 5.81064 15.1613 5.79697 14.7716 5.82431C14.2521 5.87217 13.8829 6.0499 13.5206 6.44638C13.0626 6.94541 12.7413 7.73838 12.6388 8.62021C12.5909 9.03037 12.5636 9.08506 12.0988 9.63877C11.2306 10.6642 10.7931 11.3683 10.3898 12.3595C10.2736 12.6534 10.1915 12.756 10.0753 12.7696C9.99328 12.7833 9.61731 12.6944 9.24133 12.5645L8.55773 12.339L8.59875 10.9718C8.68762 8.12803 9.15246 6.27549 10.1437 4.78525C10.3693 4.43662 10.5607 4.10166 10.5607 4.04013C10.5607 3.97861 10.4239 3.44541 10.253 2.85068C10.0206 2.04404 9.9591 1.74326 10.0138 1.64756C10.1505 1.38779 10.4786 1.38779 10.6154 1.66123C10.6632 1.74326 10.8136 2.10556 10.9571 2.46103C11.1827 3.02842 11.2443 3.12412 11.4493 3.22666C11.6954 3.34287 11.8595 3.32236 13.3839 2.93271C13.712 2.84385 13.8419 2.57724 13.8419 1.99619C13.8419 1.37412 14.1495 1.09385 14.628 1.27158ZM19.714 8.37412C20.9171 8.64072 21.3614 8.9415 21.3614 9.4747C21.3614 9.70713 21.3204 9.82334 21.17 9.9874C20.9308 10.254 20.671 10.3087 19.9396 10.2267C18.9484 10.1173 17.6495 10.3839 17.3693 10.753C17.2462 10.9171 17.2462 10.9649 17.3282 11.546C17.4239 12.2364 17.3898 13.0089 17.2394 13.4464C17.1847 13.6036 17.0275 13.8839 16.8907 14.0685L16.6446 14.4103L16.0431 14.4649C15.715 14.4991 15.0519 14.5196 14.5597 14.5196C13.5411 14.5128 12.9191 14.3761 12.0646 13.9728C11.3878 13.6515 11.3126 13.5831 11.381 13.3097C11.6476 12.1407 13.172 10.0353 14.3614 9.1876C15.0861 8.66806 15.9747 8.34678 16.9523 8.24424C17.5265 8.18955 19.2218 8.26474 19.714 8.37412ZM19.6046 12.6739C20.3019 13.3985 20.6915 14.3077 20.7052 15.1964C20.712 15.7159 20.7052 15.7364 20.4933 15.9278C20.2062 16.1876 19.8849 16.2696 19.1261 16.2696C18.4288 16.2696 17.923 16.1261 17.629 15.8526C17.4103 15.6476 17.4239 15.4562 17.67 15.1349C18.3673 14.2325 18.5587 13.7267 18.6066 12.6329L18.6476 11.9015L18.962 12.1202C19.1329 12.2364 19.4269 12.4894 19.6046 12.6739ZM7.08801 13.0636C7.43664 13.214 8.21594 13.5216 8.8175 13.7335C10.0616 14.1847 10.3009 14.294 10.5812 14.5606C10.9366 14.8888 10.8888 15.627 10.4581 16.4747C9.93859 17.5001 8.44836 19.0655 6.21984 20.9249C5.43371 21.588 4.66809 22.2579 4.5177 22.422C4.18957 22.7843 3.84777 23.5021 3.62219 24.3019C3.33508 25.3067 3.11633 25.6349 2.74035 25.6349C2.48742 25.6349 2.26184 24.0147 2.18664 21.6017C2.0636 17.9376 2.70617 15.5177 4.23059 13.8907C4.57238 13.5216 5.2218 13.0772 5.63195 12.9132C6.11047 12.7218 6.38391 12.756 7.08801 13.0636ZM12.5157 15.4835C13.3429 15.7296 14.1222 15.8116 15.1749 15.7638L16.2071 15.7159L16.2823 16.0167C16.4396 16.5909 17.2667 17.2677 17.9845 17.4044C18.1622 17.4386 18.2101 17.4728 18.1896 17.5616C17.7931 18.8331 17.588 19.756 17.4034 21.0206C17.3214 21.547 17.2599 22.1349 17.2599 22.3263C17.2599 22.9552 16.6378 23.796 16.1046 23.8849C15.5714 23.9669 15.3458 24.5479 15.7013 24.9308C15.8448 25.088 15.8927 25.1017 16.2755 25.0675C16.7677 25.0333 17.3009 24.7735 17.6085 24.4181C17.7247 24.2882 17.8273 24.1993 17.8409 24.213C17.8614 24.2267 18.0392 24.5206 18.2511 24.8692C18.9005 25.9425 19.0782 26.6944 18.9005 27.6104C18.7296 28.5128 18.4835 29.0733 17.7863 30.1603C17.2599 30.9874 16.9318 31.7599 16.7814 32.5255C16.713 32.8673 16.672 32.9493 16.5831 32.922C16.3097 32.8399 14.6622 32.6827 13.7052 32.6417C12.5294 32.5938 11.9347 32.4981 10.8614 32.1905C7.88098 31.336 5.46789 29.5245 4.06652 27.0841L3.77942 26.5919L3.97766 26.4005C4.29211 26.1065 4.5177 25.6622 4.77746 24.8077C5.16711 23.5089 5.33117 23.2696 6.49328 22.3263C6.93078 21.9708 6.9718 21.9503 7.01965 22.0802C7.12902 22.381 7.27942 23.4679 7.34094 24.4386C7.4093 25.546 7.51184 25.9356 7.88781 26.4825C8.14758 26.8585 8.59875 27.2618 8.89953 27.3849C9.11145 27.4737 9.1593 27.4737 9.38488 27.3644C9.65832 27.2276 9.78137 26.9679 9.71301 26.6876C9.68567 26.5919 9.50793 26.3663 9.31652 26.1954C9.01574 25.9151 8.6466 25.3341 8.6466 25.1222C8.6466 25.0743 8.87902 25.0606 9.31652 25.0743C9.95227 25.1017 9.98645 25.0948 10.1437 24.9308C10.3624 24.6915 10.3556 24.3087 10.1368 24.0899C10.007 23.9532 9.8634 23.9122 9.4259 23.8575C8.4757 23.755 8.54406 23.8097 8.44836 23.0509C8.40051 22.6886 8.30481 22.1417 8.22961 21.8409C8.15441 21.5401 8.08606 21.2462 8.07238 21.1847C8.05871 21.1095 8.37316 20.7608 8.95422 20.2071L9.8634 19.3458L10.0138 19.6603C10.1027 19.8312 10.2394 20.0567 10.3282 20.1661C10.5743 20.4532 10.7589 20.9112 10.8273 21.4171C10.8614 21.67 10.9093 21.9024 10.9366 21.9435C11.0255 22.0938 11.3946 22.2237 11.5929 22.1827C11.8116 22.1349 12.0646 21.8546 12.0646 21.67C12.0646 21.5606 12.1124 21.5538 12.4679 21.5812C12.837 21.6153 12.8917 21.6017 13.0489 21.4444C13.3976 21.0958 13.2335 20.5489 12.7482 20.4054C12.5089 20.3302 11.921 19.9474 11.5792 19.6397C11.2648 19.3526 10.9982 18.8536 10.9298 18.4161C10.8956 18.1632 10.923 18.088 11.2169 17.6368C11.6134 17.0216 11.8868 16.379 11.9962 15.8048C12.0441 15.5724 12.1056 15.381 12.1261 15.381C12.1534 15.381 12.3312 15.4288 12.5157 15.4835ZM21.6554 17.6847C23.1661 20.378 24.2667 23.5021 24.7179 26.421C24.8478 27.2413 24.8273 29.2921 24.6837 30.0577C24.4445 31.3907 24.0411 32.3067 23.4464 32.9151C22.8654 33.5167 22.2228 33.7696 21.2931 33.7696C20.5821 33.7696 20.0968 33.7013 18.8868 33.4142C17.8204 33.1681 17.8614 33.2228 18.046 32.505C18.1964 31.9376 18.4288 31.4522 18.8937 30.7276C19.4064 29.9415 19.673 29.3946 19.8917 28.7315C19.9874 28.4376 20.0831 28.1573 20.1036 28.1026C20.1446 27.9864 20.6027 28.4103 21.0538 28.9708C21.3341 29.3263 21.3409 29.3468 21.2794 29.6544C21.2521 29.8321 21.1154 30.1466 20.9855 30.3653C20.7325 30.7687 20.6984 30.9532 20.8282 31.1925C20.9513 31.4249 21.1017 31.5069 21.3888 31.5138C21.6007 31.5138 21.6896 31.4728 21.8741 31.2677C22.004 31.131 22.1407 30.9327 22.1818 30.8233C22.2638 30.6319 22.2706 30.6319 22.4757 30.7413C23.0363 31.0284 23.4669 30.9806 23.6583 30.6114C23.8361 30.2628 23.6378 29.8321 23.2277 29.7091C23.0431 29.6476 22.7902 29.3536 22.3595 28.6769C21.9562 28.0548 21.1222 27.1524 20.589 26.7628C20.254 26.5167 20.2062 26.4552 20.1446 26.1476C20.0421 25.6349 19.8302 25.1153 19.4747 24.5069C18.6134 23.0372 18.4357 22.5108 18.5245 21.7042L18.5724 21.2462L18.8116 21.6085C19.3038 22.3331 20.1173 22.9757 20.8351 23.2149C21.6144 23.4679 22.0382 23.8233 22.462 24.5685C22.7013 24.9991 22.8175 25.088 23.1525 25.088C23.4327 25.088 23.6583 24.9034 23.7198 24.6026C23.7882 24.3019 23.4259 23.6251 22.8927 23.044C22.4552 22.5655 22.0519 22.3126 21.4435 22.1144C20.4523 21.7931 19.6183 20.8292 19.1876 19.5099L19.0509 19.086L19.2696 18.3136L19.4952 17.5411L19.9874 17.4591C20.254 17.4112 20.6232 17.3019 20.8009 17.2062C20.9786 17.1173 21.1564 17.0353 21.1974 17.0284C21.2452 17.0284 21.4503 17.3224 21.6554 17.6847ZM6.59582 31.589C7.27258 32.047 7.34777 32.1153 7.34777 32.2999C7.34777 33.0929 6.69836 33.7696 5.93274 33.7696C5.28332 33.7628 4.70227 33.3185 4.55188 32.7032C4.51086 32.546 4.47668 31.8214 4.47668 31.1036V29.7911L5.16027 30.4405C5.53625 30.796 6.17883 31.3155 6.59582 31.589ZM9.17297 32.9425C9.43274 33.045 9.89074 33.2091 10.1847 33.2911C10.4855 33.38 10.7589 33.4688 10.7863 33.4962C10.8751 33.5782 10.3077 33.7696 9.98645 33.7696C9.5968 33.7696 9.28234 33.6329 9.01574 33.3458C8.76281 33.0792 8.57141 32.7442 8.67395 32.7442C8.68762 32.7442 8.90637 32.8331 9.17297 32.9425Z" fill="white"/>
</svg>
