<svg width="35" height="35" viewBox="0 0 35 35" fill="none" xmlns="http://www.w3.org/2000/svg">
<path d="M14.9093 0.109383C14.5538 0.362312 14.5606 0.280281 14.5606 5.91309V11.1494L14.3897 11.669C14.2188 12.1611 13.7882 12.9199 13.672 12.9199C13.6105 12.9199 13.3712 12.0586 13.2618 11.4365C13.2208 11.2109 13.1661 10.5 13.1319 9.86426C13.0909 8.90723 13.0567 8.66797 12.9405 8.44239C12.2501 7.12305 10.0489 6.9043 7.96397 7.94337C6.84287 8.51075 5.99522 9.29004 5.04502 10.6367C2.3585 14.4648 0.834084 18.3682 0.164163 23.1055C0.0137719 24.1514 -0.0545875 29.2031 0.0684594 30.0303C0.109475 30.3379 0.362405 31.2402 0.62217 32.04C1.15537 33.6533 1.4083 34.1045 2.0167 34.5078C2.65928 34.9316 3.00791 35.0205 3.96494 34.9795C5.33897 34.9248 6.17979 34.6172 7.58799 33.667C8.10752 33.3184 9.03721 32.8125 10.3224 32.1836C11.3956 31.6572 12.5235 31.0625 12.8243 30.8574C13.4806 30.4268 14.0001 29.8799 14.2462 29.374C14.6153 28.6221 14.629 28.4785 14.629 23.1602V18.2588L15.6886 17.5C16.9601 16.584 17.2677 16.4063 17.5343 16.4063C17.6847 16.4063 18.0675 16.6387 19.0382 17.3154L20.337 18.2315L20.3712 23.3516C20.4054 27.3096 20.4327 28.5332 20.5011 28.7451C20.9386 30.085 21.9298 30.9736 24.0626 31.9238C25.7032 32.6553 26.756 33.2295 28.1778 34.1592C28.4718 34.3506 28.9776 34.6104 29.3058 34.7334C29.9005 34.959 29.921 34.9658 31.0694 34.9658C32.2179 34.9658 32.2384 34.9658 32.6417 34.7676C33.1476 34.5147 33.6124 34.0566 33.8517 33.5645C34.1046 33.0313 34.8292 30.6865 34.9317 30.0713C35.0548 29.3057 34.9864 24.1514 34.836 23.1055C34.3985 19.9951 33.6192 17.3633 32.3546 14.6904C31.3702 12.6191 29.6681 10.0352 28.67 9.08497C26.7423 7.26661 23.7345 6.69239 22.4698 7.91602C21.9776 8.3877 21.923 8.56544 21.8683 9.94629C21.8204 11.1016 21.6495 12.2568 21.4649 12.7559L21.3897 12.9404L21.2325 12.79C21.0001 12.5713 20.7335 12.0449 20.5968 11.5459C20.4942 11.1563 20.4806 10.5068 20.4464 5.77637C20.4054 0.170906 20.4054 0.23243 20.0978 0.068367C19.9337 -0.0205002 19.4415 -0.0205002 19.2706 0.068367C18.9288 0.252937 18.9356 0.150398 18.9356 5.89258C18.9356 11.874 18.9288 11.7852 19.4073 12.749C19.8243 13.5898 20.419 14.2734 22.8185 16.6387C24.0284 17.8418 25.0196 18.8809 25.0196 18.9424C25.0196 19.1338 24.8146 19.291 24.6163 19.2637C24.5206 19.2432 23.1603 18.3408 21.6017 17.2471C20.0431 16.1533 18.628 15.1895 18.4571 15.1006C18.1974 14.9639 18.0538 14.9365 17.5001 14.9365C16.9464 14.9365 16.8028 14.9639 16.5431 15.1006C16.3722 15.1895 15.1554 16.0303 13.8292 16.96C11.1974 18.8193 10.4181 19.3457 10.2882 19.3457C10.1651 19.3457 9.98057 19.1133 9.98057 18.9697C9.98057 18.8877 11.0128 17.8008 12.5987 16.2012L15.2237 13.5693L15.5382 12.9199C16.1261 11.7236 16.0987 12.0381 16.0987 5.8584V0.396492L15.8731 0.19825C15.6134 -0.0341721 15.1759 -0.0751877 14.9093 0.109383ZM11.2315 8.85254C11.5187 8.91407 11.6007 9.18751 11.6485 10.3906C11.7101 11.7031 11.8263 12.3936 12.1681 13.3984L12.4278 14.1846L11.4298 15.1963L10.4249 16.208L10.1651 15.9141C9.84385 15.5449 9.53623 14.9365 9.39268 14.3555C9.30381 14.0137 9.29014 13.7471 9.32432 13.207C9.37217 12.3731 9.29697 12.1475 8.90733 11.9834C8.45615 11.7988 8.05283 11.9902 7.85459 12.4756C7.80674 12.5986 7.77256 13.043 7.77256 13.583V14.4854L7.42393 14.5947C6.87705 14.7725 6.30967 15.1006 6.04307 15.4014C5.81748 15.6475 5.79698 15.7022 5.83115 15.9756C5.87217 16.3721 6.09776 16.6113 6.48057 16.6592C6.71299 16.6934 6.81553 16.6592 7.08897 16.4883C7.51963 16.2148 7.99131 15.9961 8.18272 15.9961C8.29209 15.9961 8.40147 16.0986 8.58604 16.3857C8.72276 16.6045 8.94151 16.8984 9.07139 17.042L9.30381 17.3086L8.98936 17.6436C8.49717 18.1699 8.33994 18.71 8.47666 19.3731C8.55186 19.7422 8.55186 19.749 8.3126 20.0772C8.18272 20.2549 7.99815 20.5625 7.90244 20.7539C7.73154 21.0889 7.71104 21.1094 7.40342 21.1572C6.15244 21.335 5.07237 21.8066 4.41612 22.4492C3.90342 22.9619 3.671 23.4063 3.63682 23.96C3.61631 24.3018 3.63682 24.4111 3.77354 24.6025C3.95811 24.876 4.21787 24.9854 4.55283 24.917C4.87412 24.8623 5.01768 24.6982 5.16123 24.2607C5.29795 23.8301 5.5167 23.5225 5.84483 23.2695C6.07725 23.0918 6.79502 22.8184 7.25303 22.7363C7.48545 22.6953 7.49912 22.7022 7.47862 22.8457C7.46494 22.9346 7.40342 23.3584 7.34873 23.7891C7.06846 25.8193 6.4874 26.8652 5.21592 27.6104C4.94248 27.7676 4.68955 27.9522 4.64854 28.0273C4.61436 28.0957 4.58018 28.294 4.58018 28.4717C4.58018 28.9707 4.96299 29.2647 5.48936 29.1621C6.09092 29.0527 7.21885 28.1299 7.76572 27.2959L8.046 26.8789L8.3126 27.1387C8.86631 27.6924 10.0284 28.2188 10.5001 28.1299C11.0675 28.0273 11.2999 27.2822 10.9034 26.8652C10.794 26.749 10.671 26.6602 10.6368 26.6602C10.4864 26.6602 9.70029 26.25 9.42686 26.0313C9.26963 25.9082 9.03037 25.6553 8.88682 25.4775L8.64072 25.1426L8.76377 24.5068C8.83213 24.1514 8.92783 23.3994 8.98252 22.8389C9.08506 21.7725 9.1876 21.417 9.53623 20.959C9.70713 20.7402 9.7208 20.7334 10.0216 20.7881C10.6368 20.9043 11.17 20.6856 12.3048 19.8652L13.0226 19.3389L13.0431 23.7686L13.0567 28.1982L12.8517 28.6221C12.4757 29.3877 11.7989 29.8594 10.0079 30.625C8.96885 31.0693 7.73155 31.7188 6.86338 32.2656C5.63291 33.0449 5.45518 33.1475 4.99717 33.3047C4.64854 33.4277 4.39561 33.4619 3.88975 33.4619C3.29502 33.4619 3.21299 33.4482 2.95323 33.2705C2.59092 33.0381 2.49522 32.833 2.03037 31.4111C1.49717 29.7568 1.4835 29.627 1.52451 26.7217C1.55869 24.1856 1.60655 23.5977 1.91416 21.8887C2.58408 18.1563 4.21787 14.3555 6.48057 11.2998C7.41026 10.0488 8.22373 9.40626 9.33115 9.05079C9.80283 8.9004 10.7667 8.75001 10.9718 8.79102C11.0128 8.79786 11.129 8.8252 11.2315 8.85254ZM25.0333 8.85254C25.9288 9.03712 27.1593 9.72754 27.795 10.4043C28.5675 11.2109 29.8595 13.1934 30.6935 14.834C32.0948 17.6094 32.8878 20.2002 33.3321 23.4609C33.4757 24.5205 33.544 28.9912 33.4278 29.7295C33.3116 30.4473 32.5665 32.7236 32.3546 33.0107C32.0948 33.3457 31.6778 33.5098 31.0626 33.5029C30.3038 33.5029 29.5929 33.2295 28.5606 32.5527C27.3849 31.7871 26.4005 31.2539 24.9376 30.5977C23.0714 29.7637 22.4698 29.3262 22.087 28.5059L21.9093 28.1299L21.8888 23.7344C21.8683 20.1318 21.8819 19.3457 21.9571 19.3867C22.005 19.4141 22.3605 19.667 22.7433 19.9404C23.1261 20.2207 23.6456 20.5352 23.8917 20.6582C24.3019 20.8428 24.3976 20.8633 24.8146 20.8359L25.2862 20.8018L25.4981 21.0957C25.8058 21.5264 25.8946 21.8477 25.9767 22.791C26.0382 23.543 26.1407 24.2334 26.2911 24.9307C26.3458 25.2109 26.1681 25.5117 25.6827 25.9424C25.3341 26.2637 24.6368 26.6602 24.4386 26.6602C24.3839 26.6602 24.2403 26.749 24.1173 26.8584C23.919 27.0361 23.8917 27.0977 23.8917 27.4121C23.8917 27.7266 23.919 27.7881 24.1241 27.9727C24.3429 28.1709 24.3839 28.1777 24.7667 28.1436C25.3067 28.0957 26.0655 27.7197 26.5714 27.2481L26.961 26.8857L27.2071 27.2549C27.8839 28.2598 29.1212 29.1895 29.7843 29.1895C30.1397 29.1895 30.4884 28.8203 30.4884 28.4512C30.4884 28.0957 30.3312 27.9043 29.7501 27.5625C28.8204 27.0088 28.1847 26.1201 27.8907 24.9785C27.7335 24.3701 27.5147 22.8457 27.5763 22.7842C27.6446 22.709 28.3897 22.9004 28.8136 23.0986C29.381 23.3584 29.6954 23.7002 29.8731 24.2402C30.044 24.7529 30.256 24.9512 30.6251 24.9512C31.336 24.9512 31.5958 24.0762 31.1446 23.1807C30.6319 22.1758 29.3878 21.4785 27.5284 21.1572C27.3097 21.1231 27.255 21.0752 27.1251 20.8018C27.0431 20.6309 26.8585 20.3301 26.7149 20.1387C26.4688 19.8106 26.4552 19.7695 26.503 19.4824C26.6329 18.7236 26.4757 18.1494 25.9903 17.6231L25.7169 17.3223L26.0108 16.9736C26.1681 16.7754 26.38 16.4815 26.4825 16.3106C26.5851 16.1328 26.6944 15.9961 26.7286 15.9961C26.9063 15.9961 27.4806 16.2422 27.7813 16.4473C28.0411 16.6182 28.2052 16.6797 28.4171 16.6797C28.9845 16.6797 29.3399 16.126 29.0938 15.6133C28.9366 15.2715 28.171 14.8066 27.3302 14.5332C27.2276 14.5059 27.214 14.3897 27.2208 13.6582C27.2276 12.3184 27.0499 11.9629 26.3868 11.9629C26.1407 11.9629 26.0245 12.0039 25.881 12.1338C25.669 12.332 25.6827 12.2568 25.6759 13.3643C25.669 14.3897 25.5392 14.8818 25.0948 15.5654C24.6026 16.3174 24.712 16.3379 23.5636 15.1895L22.5587 14.1846L22.798 13.5215C23.1671 12.4824 23.3106 11.669 23.3585 10.3701C23.4063 9.0918 23.4337 9.00294 23.8644 8.84571C24.1788 8.7295 24.4864 8.73633 25.0333 8.85254Z" fill="#11319E"/>
</svg>
