<svg width="35" height="35" viewBox="0 0 35 35" fill="none" xmlns="http://www.w3.org/2000/svg">
<path d="M19.0534 0.129883C18.6905 0.293945 18.3481 0.642578 18.1701 1.02539C18.0674 1.25781 18.0263 1.51758 18.0058 2.06445C17.9921 2.47461 17.9647 2.80273 17.9442 2.80273C17.9236 2.80273 17.8004 2.70703 17.6635 2.59082C17.1431 2.13281 15.9586 1.71582 15.1986 1.70898C14.822 1.70898 14.5002 1.98926 14.5002 2.32422C14.5002 2.61133 14.822 2.93945 15.1096 2.93945C16.1571 2.93945 17.2458 3.64355 17.7319 4.62793C17.9579 5.08594 17.9579 5.09961 17.9784 6.22754L18.0058 7.3623L17.4649 7.27344C15.8079 7.01367 14.2195 6.88379 12.5762 6.87695L10.8987 6.87012L10.6248 6.43262C10.2551 5.83105 9.37186 4.93555 8.7351 4.52539C7.61905 3.80762 6.49616 3.48633 5.05146 3.48633C4.2983 3.48633 4.15452 3.50684 3.85326 3.65039C3.47668 3.82129 3.1001 4.2041 2.94947 4.56641C2.80568 4.91504 2.81937 5.5918 2.97685 5.9541C3.33289 6.74707 3.7574 6.97949 4.97615 7.04102C5.86624 7.0957 6.39346 7.23242 6.75634 7.5127L6.92751 7.64258L6.55093 7.7998C5.01038 8.46289 3.78479 9.46094 2.90838 10.7734C0.820079 13.9248 -0.24119 18.9287 0.0463794 24.3018C0.149083 26.2432 0.306562 27.7471 0.505122 28.8135C0.594131 29.2988 0.744763 30.0986 0.833773 30.5908C0.92963 31.0762 1.03918 31.7939 1.08026 32.1768C1.21035 33.3594 1.47053 34.1045 1.92243 34.5762C2.25108 34.9248 2.44964 35 3.02478 35C4.2983 35 5.10624 34.3232 5.59922 32.8535C6.00318 31.6299 6.89328 30.4814 7.99563 29.7432C8.74879 29.2373 9.44717 28.9707 10.7618 28.6699C12.2818 28.3213 13.5553 27.8906 14.644 27.3438C14.8631 27.2275 15.0616 27.1387 15.0822 27.1387C15.1027 27.1387 15.1164 28.6084 15.1164 30.3994V33.667L15.2807 34.0088C15.4519 34.3848 15.8353 34.7607 16.1845 34.9043C16.3146 34.959 16.6227 35 16.8898 35C17.2732 35 17.4307 34.9658 17.7251 34.8086C18.129 34.6035 18.4851 34.1592 18.6083 33.7148C18.6494 33.5576 18.6768 31.9033 18.6768 29.2578V25.0537L19.5532 24.4658L20.4228 23.8779L20.7309 24.3838C21.4909 25.6348 22.8123 26.6738 24.2228 27.125C24.9965 27.3711 25.4552 27.4326 26.6192 27.4395C27.9612 27.4463 28.2282 27.3779 28.6733 26.8926C29.0498 26.4824 29.1526 26.2158 29.1526 25.6553C29.1526 25.0947 29.0088 24.7529 28.6322 24.3906C28.1871 23.9668 27.9612 23.9053 26.6534 23.8643C25.5305 23.8232 25.4758 23.8096 25.0239 23.6045C24.2844 23.2559 23.6887 22.5723 23.4696 21.8135C23.4148 21.6084 23.4285 21.5947 24.5857 20.5898C26.1057 19.2773 27.6873 17.7598 29.0567 16.3105C29.6524 15.668 30.7342 14.5469 31.4463 13.8086C32.8499 12.3594 33.6852 11.3613 34.3014 10.3838C34.8286 9.5498 34.993 9.10547 34.9998 8.51074C35.0067 7.79297 34.8355 7.36914 34.3288 6.86328C33.7674 6.30273 33.3155 6.125 32.5418 6.16602C32.0556 6.19336 31.905 6.23438 31.2135 6.55566C29.8235 7.19824 28.0913 7.68359 26.1057 7.97754C25.2224 8.10742 22.381 8.15527 21.8743 8.0459L21.6141 7.99121L21.6347 7.19824L21.6552 6.40527L22.0797 6.28906C22.7302 6.11133 23.2437 5.81738 23.7709 5.3252C24.5925 4.55957 25.0376 3.60254 25.065 2.57715C25.0786 2.06445 25.0718 2.03027 24.8869 1.87305C24.6678 1.68164 24.435 1.66797 24.1543 1.81152C23.9421 1.9209 23.9284 1.94141 23.812 2.7002C23.7709 2.95996 23.6613 3.34277 23.5723 3.54102C23.2711 4.19043 22.4631 4.89453 21.7784 5.09277L21.6347 5.13379L21.6073 3.2334C21.5867 1.60645 21.5662 1.29199 21.4635 1.05957C21.306 0.704102 20.902 0.287109 20.5597 0.129883C20.19 -0.0410156 19.43 -0.0410156 19.0534 0.129883ZM20.1626 1.38086L20.32 1.52441V4.66895V7.80664L20.1694 7.76562C20.0804 7.74512 19.8339 7.69043 19.6217 7.64941L19.2245 7.56738V4.67578C19.2245 1.75684 19.2451 1.49707 19.4779 1.3125C19.6559 1.18262 19.9846 1.2168 20.1626 1.38086ZM6.21544 4.8125C7.41364 5.07227 8.516 5.74219 9.24177 6.6582L9.52249 7.00684L8.92681 7.11621L8.33798 7.22559L8.05725 6.95898C7.26301 6.20703 6.45508 5.88574 5.19525 5.81738C4.42155 5.77637 4.33939 5.75586 4.22299 5.6123C4.03128 5.37305 4.05182 5.03125 4.27092 4.86035C4.4284 4.7373 4.55164 4.7168 5.11309 4.7168C5.47597 4.7168 5.96895 4.76465 6.21544 4.8125ZM33.0758 7.47852C33.3565 7.59473 33.6441 7.92969 33.7468 8.25781C33.8427 8.58594 33.7331 8.90039 33.2812 9.65234C32.7746 10.4932 31.9119 11.5254 30.5219 12.9541C29.8235 13.6719 28.7828 14.7656 28.2008 15.3809C27.1259 16.5293 25.5648 18.0537 24.4624 19.0381C24.1201 19.332 23.764 19.6533 23.6545 19.749L23.4696 19.9199L23.5997 19.5371C23.8736 18.7373 23.9763 18.0537 23.9763 16.9873C23.9694 15.8936 23.8804 15.3057 23.5586 14.3555C23.3258 13.6582 22.8671 12.7354 22.6069 12.4619C22.3467 12.1885 22.0112 12.1543 21.7305 12.3799C21.4566 12.5986 21.484 12.9541 21.8264 13.5146C22.3878 14.4512 22.7028 15.4902 22.7644 16.6455C22.826 17.8896 22.5932 18.915 21.9633 20.2002C21.4429 21.2529 20.8541 21.9844 20.0941 22.5518C18.5946 23.666 16.027 25.2451 14.4317 26.0449C12.9391 26.79 12.0353 27.1113 10.262 27.5146C8.72825 27.8633 7.77653 28.2939 6.74949 29.1143C5.66084 29.9756 4.83236 31.1514 4.40786 32.4502C4.30515 32.7578 4.15452 33.1133 4.07236 33.2363C3.7574 33.6943 3.02478 33.9268 2.7646 33.6465C2.57289 33.4277 2.39487 32.751 2.28532 31.8145C2.22369 31.3291 2.05937 30.2969 1.90874 29.5244C1.57324 27.7949 1.51846 27.4189 1.39522 25.8398C1.13504 22.5654 1.2172 19.9678 1.66909 17.5342C2.05937 15.4561 2.92892 13.0703 3.80533 11.6895C5.15417 9.56348 7.24932 8.46289 10.5564 8.1416C12.5009 7.9502 15.6915 8.18262 18.5399 8.71582C19.0465 8.81152 19.8682 8.96191 20.3543 9.05078C23.0999 9.56348 25.9071 9.44727 28.9198 8.68164C30.0495 8.39453 30.9807 8.06641 31.8434 7.64941C32.4322 7.36914 32.7198 7.32812 33.0758 7.47852ZM22.9424 23.4951C23.2848 23.96 23.7983 24.3975 24.2844 24.6436C24.9622 24.9785 25.2361 25.04 26.4275 25.0811C27.5093 25.1221 27.5778 25.1289 27.7421 25.2861C27.9817 25.5117 27.9817 25.8262 27.7421 26.0518C27.5709 26.209 27.5367 26.2158 26.5576 26.209C25.7702 26.1953 25.421 26.1611 24.9828 26.0518C23.6271 25.7031 22.4631 24.835 21.7511 23.6455C21.6073 23.3994 21.484 23.1807 21.484 23.1533C21.484 23.1328 21.6757 22.9551 21.9154 22.7705L22.3399 22.4355L22.4837 22.75C22.5658 22.9277 22.7712 23.2627 22.9424 23.4951ZM17.4101 33.3457C17.3074 33.7764 16.7528 33.9199 16.4926 33.5918C16.3488 33.4072 16.3488 33.3662 16.3625 29.9141L16.3831 26.4277L16.8966 26.1338L17.4101 25.8398L17.4307 29.5176C17.4375 31.5342 17.4307 33.2568 17.4101 33.3457Z" fill="#3454C1"/>
<path d="M10.0496 9.98734C7.78329 10.2403 6.25644 11.0264 5.3321 12.4004C4.60633 13.4668 3.49713 15.7295 3.42867 16.2696C3.39443 16.502 3.42182 16.5635 3.59984 16.7481C3.84633 16.9873 4.12705 17.0147 4.38038 16.8233C4.47624 16.7412 4.66111 16.42 4.80489 16.0645C5.42796 14.5674 6.23589 13.1729 6.83157 12.5713C7.72852 11.6621 9.05682 11.2383 11.33 11.1494C12.4118 11.1084 12.4529 11.1016 12.6241 10.9307C12.8568 10.6914 12.8705 10.3155 12.6446 10.0762C12.494 9.91898 12.4666 9.91214 11.5285 9.91898C10.9945 9.92581 10.3303 9.95316 10.0496 9.98734Z" fill="#3454C1"/>
<path d="M3.1275 20.4736C3.0248 20.5283 2.9084 20.665 2.87417 20.7812C2.62083 21.4854 2.60029 23.8643 2.82624 25.5322C2.96318 26.5576 3.38084 28.6699 3.49039 28.8682C3.60679 29.0938 3.75742 29.1826 4.02445 29.1895C4.2367 29.1895 4.34625 29.1143 4.95563 28.5195C6.40032 27.1113 7.94772 26.3115 10.1524 25.8193C11.0288 25.6211 11.96 25.2861 13.0487 24.7734C13.7334 24.4521 13.8292 24.3838 13.9182 24.165C14.0483 23.8711 13.9935 23.625 13.7676 23.4473C13.5006 23.2422 13.2883 23.2764 12.4256 23.6865C11.4533 24.1445 10.4742 24.4863 9.70737 24.6436C7.94087 24.999 6.02374 25.9014 4.78445 26.9678C4.58589 27.1387 4.40787 27.2686 4.39418 27.2549C4.33256 27.1934 4.03129 25.1768 3.95598 24.3018C3.86697 23.3516 3.9012 21.8613 4.01075 21.2939C4.09292 20.9043 3.99706 20.5967 3.75057 20.4736C3.50408 20.3506 3.3603 20.3506 3.1275 20.4736Z" fill="#3454C1"/>
</svg>
