<svg width="29" height="33" viewBox="0 0 29 33" fill="none" xmlns="http://www.w3.org/2000/svg">
<path d="M24.738 3.62447C24.8426 3.72451 24.9468 3.82508 25.0509 3.92565C25.1178 3.98797 25.1847 4.05029 25.2536 4.1145C26.7838 5.57756 27.8201 7.5847 28.3028 9.63463C28.3241 9.72396 28.3241 9.72396 28.3458 9.81509C28.7592 11.6397 28.8021 13.749 28.3028 15.5604C28.2743 15.6642 28.2743 15.6642 28.2452 15.7701C27.745 17.5236 26.8906 19.0259 25.7446 20.4344C24.8629 21.5218 24.4344 22.6762 24.545 24.0878C24.633 24.8633 24.8881 25.586 25.1453 26.3191C25.1703 26.3909 25.1953 26.4627 25.2211 26.5366C25.2439 26.6009 25.2668 26.6651 25.2903 26.7313C25.3399 26.9061 25.3399 26.9061 25.3399 27.1952C25.1265 27.2819 24.9126 27.3674 24.6986 27.4526C24.6378 27.4774 24.5769 27.5021 24.5143 27.5276C24.456 27.5506 24.3978 27.5737 24.3378 27.5974C24.2841 27.619 24.2303 27.6406 24.175 27.6628C24.0392 27.701 24.0392 27.701 23.8946 27.6288C23.0764 25.7483 22.5346 23.4793 23.2736 21.4944C23.6427 20.5639 24.1948 19.778 24.8296 19.0111C25.5693 18.1119 26.1153 17.0921 26.4962 15.994C26.537 15.8789 26.537 15.8789 26.5786 15.7614C26.6563 15.5274 26.723 15.2932 26.7853 15.0546C26.807 14.9719 26.8287 14.8893 26.851 14.8042C27.167 13.3568 27.1379 11.6516 26.7853 10.2128C26.7732 10.1606 26.7612 10.1084 26.7488 10.0546C26.3947 8.53881 25.7174 7.05401 24.6896 5.87682C24.6357 5.81506 24.5819 5.7533 24.5264 5.68967C24.3661 5.50905 24.2033 5.33125 24.0392 5.15417C24.0011 5.11132 23.963 5.06846 23.9237 5.02431C22.1801 3.1514 19.3766 2.28587 16.8849 2.19128C13.4859 2.13377 9.85213 2.74738 7.20127 5.00963C7.15097 5.05249 7.10066 5.09534 7.04884 5.13949C5.49563 6.5787 5.06671 8.72308 4.952 10.7367C4.94574 10.8407 4.93944 10.9446 4.93309 11.0486C4.91784 11.2999 4.90315 11.5512 4.88877 11.8026C4.69131 11.857 4.50714 11.8869 4.30274 11.8977C4.221 11.9023 4.221 11.9023 4.1376 11.9069C4.08143 11.9097 4.02526 11.9126 3.96738 11.9155C3.91009 11.9186 3.8528 11.9218 3.79378 11.925C3.65293 11.9326 3.51206 11.9399 3.37119 11.9471C3.32983 8.91359 3.8336 6.21108 5.99082 3.94823C10.4347 -0.32661 19.5516 -0.756755 24.738 3.62447Z" fill="#11319E"/>
<path d="M10.959 14.7655C11.1346 14.9343 11.2966 15.1109 11.4594 15.292C12.1059 16.0102 12.6445 16.3927 13.5843 16.6145C14.0668 16.7367 14.4776 17.0371 14.7349 17.4665C15.1081 18.1479 15.2315 18.8947 15.2588 19.6615C15.357 22.3505 16.6338 24.967 17.6851 27.3976C17.7152 27.4675 17.7454 27.5374 17.7766 27.6095C17.9237 27.9497 18.0719 28.2895 18.2216 28.6285C18.2752 28.7512 18.3288 28.8738 18.3823 28.9965C18.4075 29.0526 18.4326 29.1087 18.4585 29.1665C18.6273 29.5555 18.6273 29.5555 18.5469 29.7968C18.4259 29.8678 18.4259 29.8678 18.2711 29.9286C18.1883 29.9618 18.1883 29.9618 18.1038 29.9957C18.0458 30.018 17.9878 30.0403 17.9281 30.0633C17.8698 30.0864 17.8116 30.1096 17.7515 30.1334C17.6074 30.1905 17.4629 30.2467 17.3184 30.3026C17.1505 30.1498 17.0556 30.0151 16.9658 29.8072C16.9413 29.7512 16.9169 29.6951 16.8917 29.6374C16.8657 29.5765 16.8398 29.5157 16.8131 29.453C16.7854 29.3892 16.7578 29.3253 16.7293 29.2596C16.639 29.0505 16.5496 28.841 16.4602 28.6315C16.4295 28.56 16.3989 28.4884 16.3673 28.4147C13.7925 22.4064 13.7925 22.4064 13.6664 19.6172C13.6426 19.1847 13.5564 18.7892 13.416 18.3788C13.3922 18.3073 13.3683 18.2357 13.3438 18.162C13.1855 18.0975 13.1855 18.0975 12.9915 18.0581C11.9583 17.8002 11.1815 17.3848 10.4847 16.5677C10.0467 16.036 10.0467 16.036 9.43237 15.7727C8.44076 15.7327 7.14226 16.2439 6.38056 16.8852C5.85698 17.4163 5.44992 18.0525 5.0332 18.6679C4.71294 18.5581 4.45289 18.3841 4.17957 18.1891C4.1148 18.1436 4.1148 18.1436 4.04873 18.0971C3.94306 18.0227 3.83771 17.9479 3.73242 17.873C4.5966 16.1537 5.83703 15.11 7.63477 14.4765C8.81461 14.097 9.91918 14.0141 10.959 14.7655Z" fill="#11319E"/>
<path d="M3.73254 21.3418C3.90602 21.395 4.07903 21.4494 4.25195 21.5044C4.30062 21.5192 4.3493 21.534 4.39945 21.5493C4.70958 21.6491 4.93912 21.761 5.17785 21.9922C5.30331 22.2813 5.32935 22.4524 5.28174 22.7645C5.13969 23.0918 4.98554 23.2241 4.65591 23.3585C4.41036 23.4447 4.21122 23.5098 3.94934 23.5098C3.98362 23.5753 4.0179 23.6409 4.05322 23.7085C4.31584 24.2547 4.25738 24.7325 4.09387 25.3074C3.89897 26.03 3.89897 26.03 4.03064 26.7527C4.28433 27.0402 4.59215 27.1368 4.96106 27.1953C5.44857 27.2162 5.93408 27.2027 6.41992 27.1592C7.8002 27.0447 9.2107 27.0334 10.3584 27.9242C11.393 28.8736 11.7928 30.3482 12.1154 31.6758C12.1154 31.7712 12.1154 31.8666 12.1154 31.9648C11.6622 32.1079 11.2091 32.251 10.7423 32.3984C10.5993 32.1839 10.543 32.0256 10.4724 31.7799C10.4488 31.6998 10.4251 31.6196 10.4007 31.537C10.3522 31.3702 10.304 31.2033 10.2562 31.0363C9.90906 29.8589 9.90906 29.8589 9.0802 29.002C8.61143 28.749 8.16459 28.7005 7.6394 28.7039C7.55803 28.7041 7.55803 28.7041 7.47501 28.7043C7.13844 28.7068 6.80526 28.7222 6.4696 28.749C5.31331 28.839 4.11232 28.8887 3.15442 28.1348C2.65953 27.7 2.4098 27.1844 2.33211 26.5317C2.31179 25.9646 2.40722 25.4509 2.57107 24.9112C2.65445 24.604 2.66627 24.4345 2.51419 24.1489C2.48669 24.1016 2.45918 24.0543 2.43084 24.0056C2.26852 23.6995 2.31024 23.337 2.3595 23.0039C2.43932 22.8376 2.53466 22.7173 2.64856 22.5703C2.64169 22.4223 2.64169 22.4223 2.57629 22.2812C2.55086 22.1369 2.52665 21.9924 2.50403 21.8477C2.58582 21.8328 2.66761 21.818 2.75188 21.8028C2.85896 21.7831 2.96604 21.7635 3.07312 21.7438C3.12706 21.734 3.18099 21.7243 3.23656 21.7143C3.52914 21.6637 3.52914 21.6637 3.80481 21.5586C3.78096 21.4871 3.75711 21.4155 3.73254 21.3418Z" fill="#11319E"/>
<path d="M20.9768 11.1838C21.8067 12.0793 21.8486 12.9496 21.8111 14.1237C21.7265 15.5543 20.9219 16.9365 19.8882 17.9C19.1804 18.4916 18.4792 18.9417 17.5376 18.9143C17.0727 18.8514 16.6716 18.6561 16.3789 18.2839C16.0799 17.793 16.0668 17.3449 16.1621 16.7889C16.6524 16.8286 17.1268 16.9004 17.6074 17.0057C17.6312 17.1011 17.6551 17.1965 17.6796 17.2948C18.0933 17.2337 18.3589 17.0299 18.6914 16.7889C18.7659 16.7353 18.8404 16.6816 18.9172 16.6263C19.7165 15.8617 20.2059 14.7905 20.234 13.689C20.2346 13.6314 20.2353 13.5738 20.236 13.5144C20.237 13.4591 20.238 13.4038 20.2391 13.3469C20.2352 12.8879 20.1256 12.5896 19.7979 12.2543C19.449 11.9879 19.0777 11.9272 18.6462 11.9562C18.2701 12.0113 18.0164 12.1719 17.7654 12.4575C17.6066 12.7167 17.5994 12.9286 17.6028 13.2253C17.6043 13.352 17.6058 13.4787 17.6074 13.6092C17.1543 13.7762 16.7012 13.9431 16.2343 14.1151C15.9165 13.6384 15.9577 13.023 16.0508 12.473C16.2765 11.6355 16.7127 11.081 17.4628 10.6464C18.6308 10.1056 20.0351 10.3094 20.9768 11.1838Z" fill="#11319E"/>
<path d="M11.7965 21.9186C13.9948 23.9362 14.9317 28.0125 15.584 30.8087C15.584 30.8564 15.584 30.904 15.584 30.9532C14.8328 31.132 14.8328 31.132 14.0664 31.3145C14.013 31.1214 13.9597 30.9283 13.9047 30.7293C12.9561 26.3992 12.9561 26.3992 10.5042 22.9803C9.54138 22.5342 8.53693 22.6632 7.5625 23.004C7.48509 23.043 7.40768 23.082 7.32792 23.1222C7.12891 23.2208 7.12891 23.2208 6.91211 23.2208C6.82116 23.108 6.82116 23.108 6.73286 22.952C6.685 22.8689 6.685 22.8689 6.63617 22.7841C6.60352 22.7255 6.57087 22.6669 6.53723 22.6065C6.50374 22.5479 6.47025 22.4893 6.43575 22.429C6.35292 22.2838 6.27086 22.1382 6.18945 21.9923C7.63043 20.7469 10.3157 20.7862 11.7965 21.9186Z" fill="#11319E"/>
<path d="M3.51561 13.248C4.01641 13.248 4.51721 13.248 5.03318 13.248C5.07278 14.129 4.81958 14.5347 4.31504 15.2218C4.23092 15.3373 4.1468 15.4529 4.06268 15.5685C4.01985 15.6271 3.97702 15.6857 3.9329 15.7462C3.61458 16.1824 3.2987 16.6204 2.98335 17.0587C2.90233 17.1712 2.82111 17.2834 2.73974 17.3956C2.61697 17.565 2.49488 17.7348 2.37291 17.9047C2.33517 17.9564 2.29744 18.0082 2.25856 18.0615C2.20715 18.1335 2.20715 18.1335 2.1547 18.207C2.12435 18.249 2.094 18.2911 2.06272 18.3344C1.98051 18.4605 1.98051 18.4605 1.99803 18.668C2.06358 18.6854 2.06358 18.6854 2.13046 18.7032C2.33044 18.7569 2.53007 18.8118 2.72972 18.8667C2.83284 18.8941 2.83284 18.8941 2.93805 18.922C3.39889 19.05 3.76088 19.1772 4.0847 19.5442C4.23731 19.9342 4.20807 20.3644 4.09373 20.7637C3.3821 20.6646 2.68334 20.5344 1.98899 20.3481C1.92661 20.3326 1.86422 20.317 1.79995 20.301C1.23707 20.143 0.882338 19.8342 0.516582 19.3861C0.319155 18.9965 0.346052 18.5106 0.408184 18.0898C0.571426 17.6508 0.849168 17.2796 1.12632 16.9065C1.21045 16.7916 1.29458 16.6767 1.37869 16.5618C1.42152 16.5036 1.46434 16.4454 1.50847 16.3855C1.82817 15.9503 2.14306 15.5116 2.45833 15.0731C2.57988 14.905 2.7026 14.7378 2.82541 14.5706C2.90495 14.461 2.98446 14.3513 3.06395 14.2417C3.10107 14.1918 3.1382 14.1418 3.17645 14.0904C3.2105 14.0431 3.24454 13.9957 3.27961 13.947C3.32457 13.8856 3.32457 13.8856 3.37044 13.823C3.47256 13.6427 3.47256 13.6427 3.51561 13.248Z" fill="#11319E"/>
<path d="M9.25509 18.2909C10.2706 18.2451 11.3101 18.5686 12.1068 19.1925C12.6052 19.6553 12.9127 20.1932 13.1269 20.836C13.3079 20.9241 13.3079 20.9241 13.4883 20.9805C13.4883 21.0044 13.4883 21.0282 13.4883 21.0528C13.4098 21.0563 13.3314 21.0599 13.2506 21.0635C13.1461 21.069 13.0417 21.0744 12.9373 21.0799C12.8857 21.0821 12.8342 21.0844 12.7811 21.0867C12.4621 21.1042 12.2019 21.1627 11.8984 21.2696C11.803 21.2696 11.7077 21.2696 11.6094 21.2696C11.5892 21.2277 11.5689 21.1858 11.5481 21.1426C11.2553 20.572 10.9197 20.208 10.3012 20.0066C9.62028 19.8189 8.9602 19.8968 8.27612 20.0185C8.20357 20.0312 8.13102 20.0439 8.05627 20.057C7.45741 20.1673 6.90466 20.3375 6.33398 20.5469C6.23785 20.5719 6.14153 20.5962 6.04492 20.6192C5.93383 20.4196 5.82437 20.2192 5.7152 20.0185C5.68358 19.9617 5.65195 19.9049 5.61937 19.8464C5.58979 19.7917 5.56021 19.737 5.52974 19.6806C5.50211 19.6303 5.47449 19.5799 5.44603 19.5281C5.39453 19.3907 5.39453 19.3907 5.46679 19.1739C6.57461 18.565 8.01597 18.4028 9.25509 18.2909Z" fill="#11319E"/>
</svg>
