<svg width="331" height="325" viewBox="0 0 331 325" fill="none" xmlns="http://www.w3.org/2000/svg">
<ellipse cx="178" cy="169.5" rx="131" ry="131.5" fill="url(#paint0_linear_1179_4225)"/>
<g clip-path="url(#clip0_1179_4225)">
<path d="M136 193.5C136.006 198.14 137.851 202.588 141.132 205.868C144.412 209.149 148.86 210.995 153.5 211H202.5C207.14 210.995 211.588 209.149 214.868 205.868C218.149 202.588 219.994 198.14 220 193.5V162H136V193.5ZM195.5 177.75C196.538 177.75 197.553 178.058 198.417 178.635C199.28 179.212 199.953 180.032 200.35 180.991C200.748 181.95 200.852 183.006 200.649 184.024C200.447 185.043 199.947 185.978 199.212 186.713C198.478 187.447 197.543 187.947 196.524 188.149C195.506 188.352 194.45 188.248 193.491 187.851C192.532 187.453 191.712 186.78 191.135 185.917C190.558 185.054 190.25 184.039 190.25 183C190.25 181.608 190.803 180.272 191.788 179.288C192.772 178.303 194.108 177.75 195.5 177.75ZM178 177.75C179.038 177.75 180.053 178.058 180.917 178.635C181.78 179.212 182.453 180.032 182.85 180.991C183.248 181.95 183.352 183.006 183.149 184.024C182.947 185.043 182.447 185.978 181.712 186.713C180.978 187.447 180.043 187.947 179.024 188.149C178.006 188.352 176.95 188.248 175.991 187.851C175.032 187.453 174.212 186.78 173.635 185.917C173.058 185.054 172.75 184.039 172.75 183C172.75 181.608 173.303 180.272 174.288 179.288C175.272 178.303 176.608 177.75 178 177.75ZM160.5 177.75C161.538 177.75 162.553 178.058 163.417 178.635C164.28 179.212 164.953 180.032 165.35 180.991C165.748 181.95 165.852 183.006 165.649 184.024C165.447 185.043 164.947 185.978 164.212 186.713C163.478 187.447 162.543 187.947 161.524 188.149C160.506 188.352 159.45 188.248 158.491 187.851C157.532 187.453 156.712 186.78 156.135 185.917C155.558 185.054 155.25 184.039 155.25 183C155.25 181.608 155.803 180.272 156.788 179.288C157.772 178.303 159.108 177.75 160.5 177.75V177.75Z" fill="white"/>
<path d="M202.5 134H199V130.5C199 129.572 198.631 128.682 197.975 128.025C197.318 127.369 196.428 127 195.5 127C194.572 127 193.682 127.369 193.025 128.025C192.369 128.682 192 129.572 192 130.5V134H164V130.5C164 129.572 163.631 128.682 162.975 128.025C162.318 127.369 161.428 127 160.5 127C159.572 127 158.682 127.369 158.025 128.025C157.369 128.682 157 129.572 157 130.5V134H153.5C148.86 134.006 144.412 135.851 141.132 139.132C137.851 142.412 136.006 146.86 136 151.5V155H220V151.5C219.994 146.86 218.149 142.412 214.868 139.132C211.588 135.851 207.14 134.006 202.5 134V134Z" fill="white"/>
</g>
<circle cx="28.5" cy="38.5" r="18.5" fill="#1972EE"/>
<circle cx="85" cy="315" r="10" fill="#1972EE"/>
<circle cx="307.5" cy="33.5" r="13.5" fill="#1972EE"/>
<circle cx="188" cy="10" r="10" fill="#4E8DEA"/>
<circle cx="326" cy="190" r="5" fill="#4E8DEA"/>
<circle cx="5" cy="216" r="5" fill="#4E8DEA"/>
<circle cx="270" cy="295" r="10" fill="#4E8DEA"/>
<defs>
<linearGradient id="paint0_linear_1179_4225" x1="47" y1="169" x2="309" y2="169" gradientUnits="userSpaceOnUse">
<stop stop-color="#4F99FF"/>
<stop offset="1" stop-color="#1972EE"/>
</linearGradient>
<clipPath id="clip0_1179_4225">
<rect width="84" height="84" fill="white" transform="translate(136 127)"/>
</clipPath>
</defs>
</svg>
