<svg width="331" height="325" viewBox="0 0 331 325" fill="none" xmlns="http://www.w3.org/2000/svg">
<ellipse cx="178" cy="169.5" rx="131" ry="131.5" fill="url(#paint0_linear_721_3247)"/>
<circle cx="28.5" cy="38.5" r="18.5" fill="#FF5C3C"/>
<circle cx="85" cy="315" r="10" fill="#FF5C3C"/>
<circle cx="307.5" cy="33.5" r="13.5" fill="#FF785E" fill-opacity="0.95"/>
<circle cx="188" cy="10" r="10" fill="#FFAA9A"/>
<circle cx="326" cy="190" r="5" fill="#FF5C3C"/>
<circle cx="5" cy="216" r="5" fill="#EBA293"/>
<circle cx="270" cy="295" r="10" fill="#F78B75"/>
<rect x="142" y="141" width="71" height="72" rx="20" fill="white"/>
<path d="M182.242 177L190 168.91C190.503 168.314 190.77 167.54 190.746 166.746C190.721 165.952 190.408 165.198 189.869 164.636C189.329 164.074 188.605 163.748 187.843 163.722C187.081 163.697 186.338 163.975 185.766 164.5L178 172.581L170.22 164.475C169.941 164.184 169.61 163.954 169.246 163.797C168.882 163.64 168.492 163.559 168.098 163.559C167.704 163.559 167.313 163.64 166.949 163.797C166.585 163.954 166.254 164.184 165.976 164.475C165.697 164.765 165.476 165.109 165.325 165.489C165.174 165.868 165.097 166.274 165.097 166.685C165.097 167.095 165.174 167.502 165.325 167.881C165.476 168.26 165.697 168.605 165.976 168.895L173.758 177L166 185.087C165.695 185.37 165.45 185.715 165.278 186.101C165.106 186.486 165.012 186.905 165 187.329C164.989 187.754 165.061 188.177 165.212 188.572C165.362 188.967 165.589 189.326 165.878 189.627C166.166 189.927 166.511 190.163 166.89 190.32C167.269 190.478 167.675 190.553 168.083 190.541C168.491 190.529 168.892 190.43 169.262 190.251C169.632 190.072 169.964 189.816 170.236 189.5L178 181.418L185.756 189.5C186.318 190.086 187.082 190.415 187.878 190.415C188.674 190.415 189.437 190.086 190 189.5C190.562 188.913 190.879 188.118 190.879 187.289C190.879 186.46 190.562 185.665 190 185.079L182.242 177Z" fill="#FF7575"/>
<defs>
<linearGradient id="paint0_linear_721_3247" x1="47" y1="169" x2="309" y2="169" gradientUnits="userSpaceOnUse">
<stop stop-color="#FE7C7C"/>
<stop offset="1" stop-color="#FF4F2C"/>
</linearGradient>
</defs>
</svg>
