<svg width="331" height="325" viewBox="0 0 331 325" fill="none" xmlns="http://www.w3.org/2000/svg">
<ellipse cx="178" cy="169.5" rx="131" ry="131.5" fill="url(#paint0_linear_721_3247)"/>
<circle cx="28.5" cy="38.5" r="18.5" fill="#FF5C3C"/>
<circle cx="85" cy="315" r="10" fill="#FF5C3C"/>
<circle cx="307.5" cy="33.5" r="13.5" fill="#FF785E" fill-opacity="0.95"/>
<circle cx="188" cy="10" r="10" fill="#FFAA9A"/>
<circle cx="326" cy="190" r="5" fill="#FF5C3C"/>
<circle cx="5" cy="216" r="5" fill="#EBA293"/>
<circle cx="270" cy="295" r="10" fill="#F78B75"/>
<rect x="137" y="129" width="82" height="82" rx="20" fill="white"/>
<path d="M182.242 173L190 164.91C190.503 164.314 190.77 163.54 190.746 162.746C190.721 161.952 190.408 161.198 189.869 160.636C189.329 160.074 188.605 159.748 187.843 159.722C187.081 159.697 186.338 159.975 185.766 160.5L178 168.581L170.22 160.475C169.941 160.184 169.61 159.954 169.246 159.797C168.882 159.64 168.492 159.559 168.098 159.559C167.704 159.559 167.313 159.64 166.949 159.797C166.585 159.954 166.254 160.184 165.976 160.475C165.697 160.765 165.476 161.109 165.325 161.489C165.174 161.868 165.097 162.274 165.097 162.685C165.097 163.095 165.174 163.502 165.325 163.881C165.476 164.26 165.697 164.605 165.976 164.895L173.758 173L166 181.087C165.695 181.37 165.45 181.715 165.278 182.101C165.106 182.486 165.012 182.905 165 183.329C164.989 183.754 165.061 184.177 165.212 184.572C165.362 184.967 165.589 185.326 165.878 185.627C166.166 185.927 166.511 186.163 166.89 186.32C167.269 186.478 167.675 186.553 168.083 186.541C168.491 186.529 168.892 186.43 169.262 186.251C169.632 186.072 169.964 185.816 170.236 185.5L178 177.418L185.756 185.5C186.318 186.086 187.082 186.415 187.878 186.415C188.674 186.415 189.437 186.086 190 185.5C190.562 184.913 190.879 184.118 190.879 183.289C190.879 182.46 190.562 181.665 190 181.079L182.242 173Z" fill="#FF7575"/>
<defs>
<linearGradient id="paint0_linear_721_3247" x1="47" y1="169" x2="309" y2="169" gradientUnits="userSpaceOnUse">
<stop stop-color="#FE7C7C"/>
<stop offset="1" stop-color="#FF4F2C"/>
</linearGradient>
</defs>
</svg>
