<svg width="331" height="325" viewBox="0 0 331 325" fill="none" xmlns="http://www.w3.org/2000/svg">
<ellipse cx="178" cy="169.5" rx="131" ry="131.5" fill="url(#paint0_linear_1246_4712)"/>
<circle cx="28.5" cy="38.5" r="18.5" fill="#8BFFC3" fill-opacity="0.82"/>
<circle cx="85" cy="315" r="10" fill="#51FBA3"/>
<circle cx="307.5" cy="33.5" r="13.5" fill="#00FF7B"/>
<circle cx="188" cy="10" r="10" fill="#00FF7B" fill-opacity="0.41"/>
<circle cx="326" cy="190" r="5" fill="#00FF7B" fill-opacity="0.67"/>
<circle cx="5" cy="216" r="5" fill="#8BFFC3"/>
<circle cx="270" cy="295" r="10" fill="#00FF7B" fill-opacity="0.45"/>
<path d="M211.979 139.871L148.727 203.096C150.094 203.762 151.594 204.113 153.115 204.121H163.948C164.854 204.118 165.724 204.478 166.362 205.121L172.233 210.987C175.417 214.192 179.747 215.996 184.265 216C186.13 215.998 187.983 215.693 189.749 215.095C195.841 213.098 200.271 207.819 201.18 201.474L212.72 146.67C213.271 144.386 213.009 141.982 211.979 139.871Z" fill="white"/>
<path d="M200.434 134.264L145.754 145.782C136.411 147.065 129.877 155.678 131.161 165.02C131.668 168.709 133.367 172.131 136 174.765L141.867 180.631C142.509 181.272 142.869 182.142 142.868 183.049V193.88C142.876 195.401 143.226 196.901 143.893 198.268L207.135 135.026C205.056 134.005 202.688 133.736 200.434 134.264Z" fill="white"/>
<defs>
<linearGradient id="paint0_linear_1246_4712" x1="47" y1="169" x2="309" y2="169" gradientUnits="userSpaceOnUse">
<stop stop-color="#8BFFC3"/>
<stop offset="1" stop-color="#00FF7B"/>
</linearGradient>
</defs>
</svg>
