<svg width="176" height="173" viewBox="0 0 176 173" fill="none" xmlns="http://www.w3.org/2000/svg">
<ellipse cx="88.0768" cy="87.6208" rx="69.3292" ry="69.5938" fill="url(#paint0_linear_1446_2174)"/>
<circle cx="15.3079" cy="21.2916" r="9.79077" fill="#024DB5"/>
<circle cx="45.2093" cy="167.624" r="5.29231" fill="#1972EE"/>
<circle cx="162.963" cy="18.6455" r="7.14462" fill="#1972EE"/>
<circle cx="99.72" cy="6.20857" r="5.29231" fill="#4E8DEA"/>
<circle cx="172.754" cy="101.47" r="2.64615" fill="#034AB2"/>
<circle cx="2.87076" cy="115.23" r="2.64615" fill="#4E8DEA"/>
<circle cx="143.117" cy="157.039" r="5.29231" fill="#4E8DEA"/>
<g clip-path="url(#clip0_1446_2174)">
<path d="M87.9635 62.9695C88.0629 62.9697 88.1623 62.9699 88.2647 62.9701C89.6914 62.975 91.091 62.9995 92.4923 63.293C92.5875 63.3124 92.6827 63.3318 92.7808 63.3518C97.5056 64.3401 101.801 66.4804 105.285 69.8359C105.382 69.9285 105.382 69.9285 105.48 70.023C106.407 70.916 107.261 71.824 108.02 72.8633C108.103 72.9757 108.187 73.0881 108.271 73.2005C108.861 74.0004 109.384 74.8318 109.875 75.6953C109.911 75.757 109.946 75.8187 109.983 75.8823C112.093 79.5686 113.047 83.7451 113.031 87.9634C113.03 88.0628 113.03 88.1622 113.03 88.2646C113.025 89.6913 113.001 91.0909 112.707 92.4922C112.678 92.635 112.678 92.635 112.648 92.7807C111.66 97.5055 109.52 101.801 106.164 105.285C106.102 105.35 106.041 105.414 105.977 105.48C105.084 106.407 104.176 107.26 103.137 108.02C103.024 108.103 102.912 108.187 102.8 108.271C102 108.861 101.17 109.386 100.305 109.875C100.236 109.914 100.167 109.954 100.096 109.994C97.8362 111.266 95.3781 112.12 92.8402 112.64C92.77 112.654 92.6998 112.669 92.6275 112.684C91.1943 112.956 89.7758 113.034 88.3197 113.031C88.0327 113.031 87.7457 113.033 87.4586 113.035C86.1527 113.04 84.8933 112.922 83.6056 112.707C83.439 112.679 83.439 112.679 83.2691 112.651C79.0438 111.892 75.035 109.941 71.7892 107.141C71.7164 107.079 71.6437 107.017 71.5687 106.953C70.2499 105.8 69.0124 104.554 67.9806 103.137C67.897 103.024 67.8133 102.912 67.7296 102.8C67.1397 102 66.614 101.17 66.1251 100.305C66.0859 100.236 66.0466 100.167 66.0061 100.095C64.7341 97.8361 63.8797 95.378 63.3602 92.8401C63.3458 92.7699 63.3315 92.6997 63.3166 92.6273C63.0262 91.0994 62.9637 89.5883 62.9696 88.0366C62.9698 87.9372 62.97 87.8378 62.9702 87.7354C62.9751 86.3087 62.9996 84.9091 63.2931 83.5078C63.3125 83.4126 63.3319 83.3174 63.3519 83.2193C64.3402 78.4945 66.4805 74.1988 69.8361 70.7148C69.8978 70.6505 69.9595 70.5861 70.0231 70.5197C70.9161 69.5931 71.8241 68.7396 72.8634 67.9805C72.9758 67.8967 73.0882 67.8129 73.2006 67.7291C74.0004 67.1395 74.8307 66.6138 75.6954 66.125C75.7645 66.0857 75.8336 66.0465 75.9047 66.006C78.164 64.734 80.6222 63.8796 83.16 63.3601C83.2302 63.3457 83.3005 63.3313 83.3728 63.3165C84.9007 63.0261 86.4118 62.9636 87.9635 62.9695Z" fill="#D5D9FF"/>
<path d="M87.8048 71.0628C87.883 71.0631 87.9611 71.0634 88.0416 71.0638C91.9754 71.0876 95.0359 72.245 97.9256 74.8706C98.1273 75.0793 98.2457 75.2335 98.3517 75.5C97.7859 76.2129 97.1919 76.8871 96.5717 77.5523C96.1514 78.0033 95.7498 78.4695 95.3499 78.9386C95.2498 79.0559 95.1498 79.1731 95.0497 79.2903C94.9992 79.3495 94.9486 79.4087 94.8966 79.4697C94.5836 79.8351 94.2646 80.1935 93.9388 80.5476C93.6292 80.8848 93.3341 81.2281 93.0477 81.5852C92.6498 82.079 92.2235 82.5393 91.7892 83.0006C91.3944 83.4221 91.0279 83.8599 90.667 84.3108C90.3597 84.6805 90.0317 85.0288 89.7031 85.3796C89.4007 85.7043 89.1138 86.0359 88.8363 86.3826C88.1862 87.1923 87.4701 87.9548 86.7306 88.6836C86.1276 88.0378 85.5447 87.3848 84.9903 86.6962C84.7796 86.4402 84.5613 86.1942 84.338 85.9492C84.0301 85.6113 83.7352 85.2664 83.4469 84.9117C83.3743 84.8225 83.3016 84.7334 83.2268 84.6416C83.0973 84.4823 82.9683 84.3226 82.84 84.1624C82.2041 83.3953 81.4194 82.9148 80.4192 82.793C79.6048 82.7582 78.8102 82.9462 78.1796 83.4834C78.101 83.5559 78.0225 83.6284 77.9415 83.7032C77.8771 83.7032 77.8126 83.7032 77.7462 83.7032C77.7191 83.7574 77.6921 83.8117 77.6642 83.8676C77.586 84.0237 77.5074 84.1795 77.4284 84.3352C77.3863 84.4187 77.3441 84.5022 77.3007 84.5882C77.2582 84.6719 77.2158 84.7556 77.1721 84.8418C76.7767 85.6671 76.9305 86.5562 77.2152 87.3965C77.4611 87.9406 77.8349 88.3438 78.2345 88.7813C78.3871 88.9564 78.5386 89.1324 78.69 89.3085C78.8524 89.497 79.0156 89.6847 79.179 89.8723C79.4864 90.2254 79.7917 90.5802 80.0961 90.9358C80.144 90.9918 80.1919 91.0478 80.2413 91.1055C80.3379 91.2183 80.4344 91.3311 80.531 91.444C80.7744 91.7284 81.0181 92.0127 81.2618 92.2969C81.3595 92.4108 81.4571 92.5248 81.5548 92.6387C81.6031 92.6951 81.6515 92.7515 81.7013 92.8096C82.1407 93.3223 82.1407 93.3223 82.2874 93.4934C82.3845 93.6066 82.4816 93.7199 82.5787 93.8331C82.832 94.1283 83.0847 94.424 83.3366 94.7204C83.3888 94.7816 83.441 94.8429 83.4948 94.906C83.5939 95.0223 83.6928 95.1388 83.7915 95.2554C84.3673 95.931 84.3673 95.931 85.0704 96.4656C85.1329 96.5043 85.1953 96.5429 85.2596 96.5827C86.0372 97.0024 86.9043 97.0307 87.7533 96.791C88.476 96.4999 88.9844 96.1494 89.465 95.5318C89.8218 95.0857 90.1961 94.6654 90.588 94.25C91.0398 93.7703 91.4643 93.2782 91.8762 92.7634C92.1835 92.3938 92.5115 92.0454 92.8401 91.6947C93.1425 91.37 93.4294 91.0384 93.7069 90.6917C94.1002 90.2014 94.5228 89.7457 94.9533 89.2885C95.3477 88.8673 95.7139 88.4299 96.0747 87.9794C96.4337 87.5472 96.8189 87.1399 97.2019 86.729C97.6223 86.278 98.0239 85.8118 98.4238 85.3427C98.5238 85.2255 98.6239 85.1082 98.724 84.991C98.7745 84.9318 98.825 84.8726 98.8771 84.8116C99.1901 84.4462 99.5091 84.0878 99.8348 83.7337C100.146 83.3944 100.444 83.0489 100.732 82.69C101.116 82.214 101.523 81.7655 101.94 81.3188C102.284 80.9498 102.618 80.5745 102.942 80.1875C103.705 80.8222 104.001 82.2455 104.284 83.1538C104.312 83.24 104.339 83.3262 104.368 83.4151C104.792 84.8275 104.944 86.2401 104.933 87.7102C104.931 87.9512 104.933 88.192 104.935 88.433C104.937 89.8657 104.747 91.2568 104.339 92.6326C104.314 92.7173 104.29 92.8021 104.264 92.8894C103.462 95.5365 102.048 97.775 100.207 99.8164C100.141 99.8896 100.075 99.9627 100.007 100.038C97.9042 102.245 95.0237 103.703 92.1139 104.486C92.0432 104.505 91.9725 104.524 91.8997 104.543C90.6209 104.869 89.3674 104.934 88.055 104.931C87.9684 104.931 87.8818 104.931 87.7925 104.931C83.6739 104.916 79.4885 103.416 76.5255 100.47C76.411 100.35 76.297 100.23 76.1837 100.109C76.1031 100.029 76.0226 99.9483 75.9396 99.8653C75.859 99.7847 75.7784 99.7041 75.6954 99.6211C75.6431 99.5744 75.5907 99.5277 75.5367 99.4796C73.3671 97.4682 72.0604 94.4454 71.3986 91.6133C71.3826 91.5484 71.3666 91.4834 71.3501 91.4165C70.389 87.3815 71.3449 82.7406 73.4481 79.2289C74.3755 77.7409 75.5125 76.3243 76.8673 75.2071C76.9428 75.1414 77.0184 75.0756 77.0962 75.0079C78.9463 73.4309 81.1619 72.2903 83.4957 71.6243C83.5921 71.5964 83.5921 71.5964 83.6904 71.568C85.0559 71.1971 86.3945 71.0511 87.8048 71.0628Z" fill="#F6F6F9"/>
<path d="M103.039 74.1328C103.794 74.6507 104.344 75.2962 104.602 76.1836C104.731 77.0588 104.709 77.9664 104.211 78.7227C104.172 78.7836 104.133 78.8445 104.092 78.9073C103.759 79.3822 103.359 79.8 102.965 80.2235C102.669 80.5419 102.389 80.8677 102.117 81.2068C101.742 81.6735 101.343 82.1105 100.934 82.5473C100.629 82.8741 100.34 83.208 100.061 83.5567C99.6368 84.0844 99.1812 84.5771 98.72 85.0719C98.2997 85.5228 97.8981 85.989 97.4982 86.4581C97.3981 86.5754 97.2981 86.6926 97.198 86.8098C97.1475 86.869 97.0969 86.9282 97.0449 86.9892C96.7319 87.3546 96.4129 87.713 96.0871 88.0672C95.7775 88.4043 95.4824 88.7476 95.196 89.1048C94.7981 89.5985 94.3718 90.0588 93.9375 90.5201C93.5427 90.9416 93.1762 91.3794 92.8153 91.8304C92.508 92.2 92.18 92.5484 91.8514 92.8991C91.549 93.2238 91.2621 93.5554 90.9846 93.9021C89.2875 96.0149 89.2875 96.0149 88.3967 96.5633C88.3354 96.6019 88.2741 96.6405 88.2109 96.6804C87.4849 97.0545 86.7498 97.0766 85.9492 96.9844C84.9101 96.6309 84.2391 95.9896 83.5673 95.1499C83.2856 94.7996 82.9914 94.4607 82.696 94.1218C82.5867 93.9962 82.4773 93.8706 82.368 93.745C82.3138 93.6827 82.2596 93.6205 82.2037 93.5563C81.9515 93.2658 81.7011 92.9737 81.4509 92.6814C81.403 92.6254 81.355 92.5694 81.3056 92.5117C81.2091 92.3989 81.1125 92.2861 81.016 92.1732C80.8214 91.9459 80.6266 91.7186 80.4318 91.4914C80.2854 91.3206 80.139 91.1498 79.9926 90.9789C79.7467 90.6921 79.5007 90.4055 79.2546 90.1189C79.1084 89.9485 78.9626 89.7779 78.8169 89.6072C78.6224 89.3796 78.4261 89.1538 78.2286 88.9289C77.3574 87.9306 76.8048 87.0114 76.8294 85.6509C76.9377 84.8264 77.3315 84.054 77.9669 83.5162C78.8259 82.9104 79.6086 82.579 80.6758 82.7266C81.9318 83.0602 82.5945 83.7064 83.3823 84.6969C83.5953 84.9601 83.8165 85.2111 84.0449 85.461C84.3491 85.7947 84.6398 86.1353 84.9238 86.4863C85.2839 86.9314 85.6596 87.3582 86.0449 87.7814C86.2815 88.0436 86.5073 88.3124 86.7305 88.586C87.5498 87.7756 88.3194 86.9275 89.0406 86.0286C89.3494 85.6581 89.6782 85.3083 90.0079 84.9564C90.3103 84.6317 90.5973 84.3001 90.8747 83.9534C91.268 83.4631 91.6906 83.0074 92.1211 82.5502C92.5159 82.1287 92.8824 81.6909 93.2433 81.24C93.5506 80.8703 93.8786 80.522 94.2071 80.1713C94.5095 79.8465 94.7965 79.5149 95.074 79.1682C95.4674 78.6777 95.8902 78.2218 96.321 77.7644C96.6337 77.4305 96.9312 77.0912 97.2163 76.7329C97.595 76.2618 97.9957 75.815 98.4065 75.3718C98.4664 75.3064 98.5263 75.241 98.588 75.1735C99.811 73.8671 101.324 73.1941 103.039 74.1328Z" fill="#3454C1"/>
<path d="M93.2734 63.5859C94.0319 63.6281 94.717 63.7924 95.4402 64.0193C95.5505 64.0537 95.6607 64.088 95.7743 64.1235C96.8975 64.4839 97.9712 64.9338 99.0352 65.4414C99.1466 65.4944 99.1466 65.4944 99.2603 65.5485C101.483 66.6234 103.511 68.1271 105.285 69.8359C105.382 69.9285 105.382 69.9285 105.48 70.023C106.407 70.916 107.26 71.824 108.02 72.8633C108.103 72.9757 108.187 73.0881 108.271 73.2005C108.861 74.0004 109.384 74.8318 109.875 75.6953C109.911 75.757 109.946 75.8187 109.983 75.8823C112.093 79.5686 113.047 83.7451 113.031 87.9634C113.03 88.0628 113.03 88.1622 113.03 88.2646C113.025 89.6913 113.001 91.0909 112.707 92.4922C112.678 92.635 112.678 92.635 112.648 92.7807C111.66 97.5055 109.52 101.801 106.164 105.285C106.102 105.35 106.041 105.414 105.977 105.48C105.084 106.407 104.176 107.26 103.137 108.02C103.024 108.103 102.912 108.187 102.799 108.271C102 108.861 101.169 109.386 100.305 109.875C100.236 109.914 100.167 109.954 100.095 109.994C97.8361 111.266 95.378 112.12 92.8401 112.64C92.7699 112.654 92.6997 112.669 92.6273 112.683C91.1942 112.956 89.7757 113.034 88.3196 113.031C88.0325 113.031 87.7456 113.033 87.4585 113.035C85.8911 113.041 84.3428 112.917 82.8242 112.512C82.8242 112.479 82.8242 112.447 82.8242 112.414C82.9177 112.415 82.9177 112.415 83.013 112.416C83.6739 112.423 84.3347 112.427 84.9956 112.43C85.2408 112.432 85.4859 112.434 85.7311 112.436C88.0648 112.46 90.237 112.232 92.4922 111.633C92.5623 111.615 92.6324 111.597 92.7046 111.579C96.374 110.642 99.8379 108.641 102.614 106.083C102.768 105.941 102.925 105.8 103.083 105.662C106.35 102.806 108.665 98.6682 109.875 94.543C109.903 94.4503 109.93 94.3576 109.958 94.2622C111.831 87.8298 110.761 80.9566 107.579 75.1325C106.969 74.0512 106.247 73.0567 105.48 72.082C105.407 71.9881 105.334 71.8942 105.259 71.7975C104.419 70.742 103.497 69.7173 102.453 68.8594C102.364 68.7809 102.274 68.7025 102.182 68.6217C99.7737 66.5135 96.9561 65.0025 93.9461 63.9449C93.7194 63.8637 93.496 63.7754 93.2734 63.6836C93.2734 63.6514 93.2734 63.6191 93.2734 63.5859Z" fill="#9CB5FF"/>
<path d="M102.746 74.1328C103.344 74.2404 103.756 74.6842 104.095 75.1662C104.647 76.0747 104.786 77.077 104.535 78.1211C104.443 78.3379 104.34 78.5262 104.211 78.7227C104.172 78.7836 104.133 78.8445 104.092 78.9073C103.759 79.3821 103.359 79.8 102.965 80.2235C102.669 80.5419 102.389 80.8677 102.117 81.2068C101.742 81.6735 101.343 82.1105 100.934 82.5472C100.629 82.8741 100.34 83.208 100.061 83.5566C99.6368 84.0844 99.1813 84.5771 98.7201 85.0718C98.2997 85.5228 97.8981 85.989 97.4982 86.4581C97.3982 86.5754 97.2981 86.6926 97.198 86.8098C97.1475 86.869 97.097 86.9282 97.0449 86.9892C96.7319 87.3546 96.4129 87.713 96.0872 88.0671C95.7775 88.4043 95.4824 88.7476 95.196 89.1047C94.7981 89.5985 94.3718 90.0588 93.9375 90.5201C93.5427 90.9416 93.1762 91.3794 92.8153 91.8303C92.508 92.2 92.18 92.5483 91.8515 92.8991C91.549 93.2238 91.2621 93.5554 90.9846 93.9021C89.2876 96.0149 89.2876 96.0149 88.3967 96.5632C88.3354 96.6019 88.2741 96.6405 88.211 96.6803C87.485 97.0545 86.7499 97.0765 85.9492 96.9844C85.1372 96.7082 84.3805 96.2426 83.8984 95.5195C83.9468 95.4229 83.9468 95.4229 83.9961 95.3242C84.0928 95.3564 84.1895 95.3887 84.2891 95.4219C85.4418 95.4892 86.3945 95.4618 87.3279 94.7097C87.6486 94.4189 87.9195 94.0947 88.1953 93.7617C88.3838 93.5393 88.5733 93.3179 88.7629 93.0964C88.8134 93.0373 88.8639 92.9782 88.9159 92.9172C89.2289 92.5518 89.548 92.1933 89.8738 91.8391C90.1834 91.5019 90.4786 91.1587 90.7649 90.8015C91.1628 90.3078 91.5891 89.8475 92.0235 89.3862C92.4179 88.965 92.7841 88.5275 93.1449 88.0771C93.5039 87.6448 93.8891 87.2375 94.2721 86.8266C94.6925 86.3756 95.0941 85.9094 95.494 85.4403C95.594 85.3231 95.6941 85.2058 95.7942 85.0886C95.8447 85.0294 95.8952 84.9702 95.9473 84.9092C96.2603 84.5439 96.5793 84.1854 96.905 83.8313C97.2147 83.4941 97.5098 83.1508 97.7961 82.7937C98.1941 82.3 98.6203 81.8397 99.0547 81.3784C99.4495 80.9568 99.816 80.5191 100.177 80.0681C100.437 79.7554 100.71 79.4588 100.988 79.1621C102.515 77.5357 102.515 77.5357 102.958 75.4214C102.935 74.98 102.852 74.5611 102.746 74.1328Z" fill="#9FB4FF"/>
<path d="M102.941 80.1875C103.705 80.8222 104.001 82.2455 104.284 83.1538C104.325 83.2831 104.325 83.2831 104.367 83.415C104.792 84.8275 104.944 86.24 104.933 87.7101C104.931 87.9511 104.933 88.192 104.935 88.433C104.937 89.8657 104.747 91.2568 104.339 92.6326C104.302 92.7597 104.302 92.7597 104.264 92.8894C103.461 95.5365 102.048 97.775 100.207 99.8164C100.141 99.8895 100.075 99.9627 100.007 100.038C97.904 102.244 95.0235 103.703 92.1138 104.486C92.0078 104.514 92.0078 104.514 91.8996 104.543C90.6208 104.869 89.3673 104.934 88.0549 104.931C87.9683 104.931 87.8817 104.931 87.7924 104.931C85.1407 104.921 82.6578 104.36 80.2852 103.137C80.6057 103.03 80.6557 103.042 80.9585 103.147C81.0344 103.173 81.1104 103.198 81.1887 103.224C81.2712 103.252 81.3537 103.279 81.4387 103.308C84.366 104.219 87.6814 104.211 90.6367 103.43C90.7154 103.409 90.7941 103.389 90.8751 103.368C92.8496 102.836 94.7896 101.855 96.3984 100.598C96.4532 100.555 96.5079 100.512 96.5643 100.469C100.048 97.7163 102.432 93.6886 102.967 89.2535C103.011 88.8034 103.029 88.3543 103.039 87.9023C103.041 87.8369 103.043 87.7714 103.045 87.7039C103.089 86.1701 102.926 84.6903 102.606 83.1904C102.576 83.0492 102.576 83.0492 102.545 82.905C102.43 82.3928 102.287 81.9317 102.062 81.457C101.966 81.5215 101.869 81.5859 101.77 81.6523C101.927 81.2716 102.187 80.9968 102.465 80.7002C102.534 80.626 102.534 80.626 102.604 80.5503C102.716 80.429 102.829 80.3082 102.941 80.1875Z" fill="#DDDFEC"/>
<path d="M88.293 107.922C88.5798 108.123 88.5798 108.123 88.7812 108.41C88.7812 108.754 88.7452 108.981 88.5798 109.283C88.2657 109.455 87.9518 109.459 87.6094 109.387C87.3591 109.185 87.3591 109.185 87.2188 108.898C87.2188 108.526 87.2334 108.31 87.4812 108.026C87.7838 107.887 87.9631 107.868 88.293 107.922Z" fill="#96B7E1"/>
<path d="M108.764 87.2188C109.252 87.3632 109.252 87.3632 109.387 87.6094C109.425 87.9114 109.449 88.1022 109.387 88.3906C109.153 88.6573 108.999 88.7587 108.654 88.8362C108.289 88.754 108.146 88.5871 107.922 88.293C107.861 88 107.861 88 107.922 87.707C108.186 87.3307 108.297 87.2188 108.764 87.2188Z" fill="#969EE1"/>
<path d="M67.5898 87.2187C67.9087 87.4597 68.0568 87.6051 68.1391 88C68.0554 88.4016 67.924 88.5465 67.5898 88.7812C67.2461 88.7812 67.0186 88.7452 66.717 88.5798C66.5451 88.2663 66.5396 87.9512 66.6132 87.6094C66.9028 87.2784 67.1499 87.1198 67.5898 87.2187Z" fill="#969EE1"/>
<path d="M88.3906 66.6132C88.6573 66.8466 88.7587 67.0013 88.8362 67.3457C88.754 67.7109 88.5871 67.8543 88.293 68.0781C88 68.1391 88 68.1391 87.707 68.0781C87.4202 67.8767 87.4202 67.8767 87.2188 67.5898C87.2188 67.2461 87.2548 67.0186 87.4202 66.717C87.7337 66.5451 88.0488 66.5396 88.3906 66.6132Z" fill="#969EE1"/>
<path d="M70.5193 76.9649C70.8029 77.1865 70.8102 77.3409 70.8611 77.6973C70.8123 78.0391 70.8123 78.0391 70.6108 78.2833C70.2349 78.4752 70.0416 78.4509 69.6404 78.3321C69.3876 78.1119 69.353 77.98 69.3047 77.6485C69.3474 77.3555 69.3474 77.3555 69.4939 77.1236C69.862 76.8843 70.0841 76.9096 70.5193 76.9649Z" fill="#95A3E1"/>
<path d="M78.0391 105.188C78.2832 105.389 78.2832 105.389 78.4297 105.676C78.4297 106.048 78.415 106.264 78.1672 106.549C77.8695 106.685 77.6798 106.7 77.3555 106.652C77.1235 106.506 77.1235 106.506 76.9649 106.262C76.9078 105.972 76.9264 105.783 76.9649 105.48C77.2508 105.114 77.6003 105.125 78.0391 105.188Z" fill="#95A3E1"/>
<path d="M70.1899 97.5703C70.6721 97.7132 70.6721 97.7132 70.8125 97.9609C70.8505 98.31 70.8486 98.5564 70.7148 98.8826C70.461 99.0809 70.2448 99.09 69.9278 99.0725C69.7382 99.0352 69.7382 99.0352 69.4941 98.8765C69.3006 98.57 69.2821 98.4152 69.3476 98.0586C69.6118 97.6823 69.7233 97.5703 70.1899 97.5703Z" fill="#95A3E1"/>
<path d="M77.9415 69.3476C78.2283 69.549 78.2283 69.549 78.4297 69.8359C78.4297 70.182 78.3964 70.4087 78.2222 70.7087C77.927 70.876 77.687 70.8474 77.3555 70.8125C77.1175 70.7148 77.1175 70.7148 76.9649 70.5195C76.9096 70.0843 76.8843 69.8622 77.1236 69.4941C77.43 69.3006 77.5849 69.2821 77.9415 69.3476Z" fill="#95A3E1"/>
<path d="M98.6445 105.187C98.8826 105.285 98.8826 105.285 99.0352 105.48C99.0987 105.827 99.1027 106.139 98.9314 106.451C98.6298 106.616 98.4023 106.652 98.0586 106.652C97.7656 106.457 97.7656 106.457 97.5703 106.164C97.5703 105.818 97.6037 105.591 97.7778 105.291C98.073 105.124 98.3131 105.153 98.6445 105.187Z" fill="#95A3E1"/>
<path d="M106.359 97.668C106.555 97.8267 106.555 97.8267 106.652 98.0586C106.641 98.3904 106.611 98.6387 106.451 98.9315C106.139 99.1027 105.827 99.0987 105.48 99.0352C105.197 98.8136 105.19 98.6592 105.139 98.3028C105.188 97.961 105.188 97.961 105.389 97.7169C105.765 97.5249 105.958 97.5492 106.359 97.668Z" fill="#95A3E1"/>
<path d="M98.6445 69.3476C98.8765 69.5002 98.8765 69.5002 99.0352 69.7383C99.0901 70.123 99.0941 70.3298 98.8826 70.6599C98.5501 70.873 98.3482 70.8747 97.9609 70.8125C97.7168 70.6111 97.7168 70.6111 97.5703 70.3242C97.5703 69.9518 97.585 69.7359 97.8328 69.4514C98.1305 69.3146 98.3202 69.3003 98.6445 69.3476Z" fill="#95A3E1"/>
<path d="M94.9336 72.5703C95.4427 72.7191 95.8827 72.9424 96.3435 73.199C96.4197 73.2412 96.4958 73.2834 96.5742 73.3269C97.3427 73.763 98.045 74.2755 98.7422 74.8164C98.7117 74.9995 98.7117 74.9995 98.6445 75.207C98.5479 75.2715 98.4512 75.3359 98.3516 75.4023C98.2747 75.3187 98.2747 75.3187 98.1963 75.2334C97.6764 74.6892 97.1303 74.2167 96.5327 73.7605C96.464 73.7079 96.3953 73.6553 96.3245 73.6012C95.921 73.2976 95.5097 73.0212 95.0757 72.7631C95.0288 72.7317 94.9819 72.7003 94.9336 72.668C94.9336 72.6357 94.9336 72.6035 94.9336 72.5703Z" fill="#DDDFEC"/>
</g>
<defs>
<linearGradient id="paint0_linear_1446_2174" x1="18.7476" y1="87.3562" x2="157.406" y2="87.3562" gradientUnits="userSpaceOnUse">
<stop stop-color="#4F99FF"/>
<stop offset="1" stop-color="#3454C1"/>
</linearGradient>
<clipPath id="clip0_1446_2174">
<rect width="50" height="50" fill="white" transform="translate(63 63)"/>
</clipPath>
</defs>
</svg>
