<svg width="159" height="170" viewBox="0 0 159 170" fill="none" xmlns="http://www.w3.org/2000/svg">
<circle cx="81.5" cy="80.5" r="70.5" fill="#235DFF"/>
<path d="M82 79C88.6274 79 94 73.6274 94 67C94 60.3726 88.6274 55 82 55C75.3726 55 70 60.3726 70 67C70 73.6274 75.3726 79 82 79Z" fill="white"/>
<path d="M82 83C72.0634 83.0111 64.0111 91.0634 64 101C64 102.105 64.8954 103 66 103H97.9999C99.1045 103 99.9999 102.105 99.9999 101C99.9889 91.0634 91.9366 83.011 82 83Z" fill="white"/>
<circle cx="151.5" cy="16.5" r="7.5" fill="#235DFF"/>
<circle cx="20" cy="15" r="9" fill="#235DFF"/>
<circle cx="61.5" cy="165.5" r="4.5" fill="#235DFF"/>
<circle cx="148" cy="144" r="3" fill="#235DFF"/>
<circle cx="154.5" cy="105.5" r="2.5" fill="#235DFF"/>
<circle cx="13.5" cy="142.5" r="4.5" fill="#235DFF"/>
<circle cx="116.5" cy="152.5" r="1.5" fill="#235DFF"/>
<circle cx="110" cy="3" r="3" fill="#235DFF"/>
<circle cx="2" cy="86" r="2" fill="#235DFF"/>
</svg>
